<svg version="1.1" xmlns="http://www.w3.org/2000/svg" xmlns:xlink="http://www.w3.org/1999/xlink" width="159.50497" height="151.82182" viewBox="0,0,159.50497,151.82182"><g transform="translate(-130.45795,-31.84661)"><g data-paper-data="{&quot;isPaintingLayer&quot;:true}" fill="#000000" fill-rule="nonzero" stroke="none" stroke-width="0.5" stroke-linecap="butt" stroke-linejoin="miter" stroke-miterlimit="10" stroke-dasharray="" stroke-dashoffset="0" style="mix-blend-mode: normal"><path d="M220.6356,183.64696c-1.23876,-0.19808 -1.04069,-1.43684 -1.04069,-1.43684l0.12721,-0.79442c1.01493,-5.7213 1.00764,-11.39054 0.70848,-17.19895c-0.12598,-2.44591 -0.07548,-4.99564 -0.37848,-7.42531c-0.39204,-3.14359 -1.2567,-6.30914 -1.89517,-9.4196c-1.90877,-1.36056 -3.61619,-2.93014 -5.67199,-4.1667c-1.39136,-0.83689 -2.968,-1.31783 -4.44311,-1.99629c-0.6729,-0.3095 -1.28435,-0.80244 -2.01126,-0.94452c-0.72691,-0.14208 -1.47896,0.08436 -2.21888,0.11771c-2.50617,0.11297 -5.01465,0.19065 -7.52156,0.28596c-1.5047,0.05721 -3.09038,-0.36281 -4.51568,0.12289c-1.47407,0.50231 -2.5475,1.79216 -3.83507,2.66815c-2.07442,1.41133 -4.14884,2.82266 -6.22326,4.23398c-2.73415,1.83789 -4.49407,4.45521 -6.57045,6.99699c-1.5873,1.94307 -3.1746,3.88615 -4.76191,5.82922c-1.00549,1.23086 -2.2959,2.27006 -3.03593,3.67661c-0.74002,1.40655 -0.86555,3.05862 -1.31041,4.58444c-1.04848,3.59616 -1.85076,7.09926 -2.04136,10.85685l-0.04305,0.83217c0,0 -0.06481,1.25282 -1.31763,1.18801c-1.25282,-0.06481 -1.18801,-1.31763 -1.18801,-1.31763l0.04305,-0.83217c0.2082,-3.952 1.03512,-7.64576 2.13829,-11.4295c0.08564,-0.29373 1.42207,-4.90477 1.49869,-5.05039c0.07661,-0.14562 3.11972,-3.85874 3.31328,-4.09569c1.5873,-1.94307 3.1746,-3.88615 4.76191,-5.82922c2.2478,-2.75162 4.15862,-5.46054 7.1022,-7.48411c2.07442,-1.41133 4.14884,-2.82266 6.22326,-4.23398c0.34423,-0.2342 4.24013,-2.90203 4.46261,-2.97716c0.21322,-0.072 4.87982,-0.23431 5.20415,-0.24664c2.50696,-0.09531 5.01405,-0.2064 7.52156,-0.28596c0.93168,-0.02956 1.88065,-0.25174 2.79549,-0.07293c0.91484,0.17881 1.71032,0.74196 2.5623,1.12015c0.1617,0.07178 4.62949,2.08822 4.704,2.13304c2.81186,1.69131 4.94169,4.05133 7.88486,5.55214c1.98584,-4.841 3.6222,-9.64288 5.15233,-14.66702c2.47987,-8.1426 4.73398,-16.33948 6.90946,-24.55958c-13.40797,1.3018 -26.80672,2.68328 -40.25558,3.47106c-5.84431,0.34233 -11.68862,0.68467 -17.53293,1.027l-1.57747,-0.40268c0,0 -1.199,-0.369 -0.83,-1.568c0.369,-1.199 1.568,-0.83 1.568,-0.83l0.69275,0.29599c5.84431,-0.34233 11.68862,-0.68467 17.53293,-1.027c13.72594,-0.80401 27.39962,-2.22855 41.0843,-3.55322c0.95354,-3.62978 1.89478,-7.26345 2.83636,-10.89834c-3.16741,-0.00299 -6.56271,-0.75649 -9.69305,-1.09697c-3.32572,-0.36173 -6.65143,-0.72346 -9.97715,-1.08519c-0.55591,-0.06047 -5.15441,-0.534 -5.45346,-0.68832c-0.27464,-0.14172 -3.09832,-3.67501 -3.33295,-3.9647c-2.10555,-2.5996 -4.21109,-5.19919 -6.31664,-7.79879c-0.43379,-0.53557 -3.30893,-4.02156 -3.4158,-4.45418c-0.0916,-0.37082 1.26236,-4.51825 1.36445,-4.84341c1.25266,-3.98963 2.50531,-7.97926 3.75797,-11.96889c0.12941,-0.41217 1.52561,-4.91023 1.66123,-5.11501c0.49334,-0.74492 1.35606,-1.16382 2.04229,-1.73599c1.2847,-1.07115 2.59101,-2.1161 3.88652,-3.17416c3.88652,-3.17416 7.77303,-6.34831 11.65954,-9.52247c1.94124,-1.58543 3.85477,-3.21817 5.82977,-4.76123c0.80033,-0.6253 1.45569,-1.56003 2.434,-1.83286c0.33502,-0.09343 4.72146,0.82136 5.1266,0.90235c3.40155,0.67995 6.80347,1.34841 10.19143,2.09353c4.19754,4.07731 8.25542,8.30165 12.36207,12.47043c1.74376,1.77014 3.87531,3.52059 5.39006,5.48707c1.42958,1.85591 2.45709,4.3224 3.60998,6.36085c1.50124,2.65438 3.00249,5.30876 4.50372,7.96314c-0.55954,-4.85463 -1.13114,-9.61538 -2.32212,-14.38609l-0.34063,-2.11536c0,0 -0.19877,-1.23865 1.03988,-1.43742c1.23865,-0.19877 1.43742,1.03988 1.43742,1.03988l0.32126,2.00926c1.18056,4.71046 1.74144,9.33041 2.30237,14.15204c0.19329,1.66146 0.40262,3.32113 0.57986,4.98438c0.10125,0.95013 0.42474,1.90843 0.27965,2.85285c-0.12636,0.82253 -0.70988,1.50539 -1.06481,2.25809c-0.18948,0.38108 -2.26206,4.57931 -2.42319,4.77194c-0.47357,0.56618 -1.22124,0.82948 -1.83851,1.23423c-2.09774,1.37548 -4.22292,2.71151 -6.33374,4.06685c-1.99918,1.28366 -4.35344,3.34601 -6.56725,4.18441c-2.21381,0.8384 -5.34361,0.85294 -7.69158,1.21561c-3.35387,0.51804 -6.92519,1.43131 -10.37936,1.78719c-0.93221,3.59826 -1.86323,7.19551 -2.80526,10.78917c0.06148,-0.00588 0.12295,-0.01175 0.18443,-0.01763c0,0 1.24881,-0.11929 1.36811,1.12953c0.11929,1.24881 -1.12953,1.36811 -1.12953,1.36811c-0.36769,0.03512 -0.73537,0.07035 -1.10304,0.10567c-0.64706,2.45158 -1.30061,4.90119 -1.96451,7.34803c4.71529,-1.27525 9.43058,-2.55051 14.14587,-3.82576c2.22357,-0.60137 4.4963,-1.4101 6.7629,-1.82557c7.38147,-1.35301 15.06024,-1.78899 22.51445,-2.67279c3.33791,-0.39551 6.68617,-0.64693 10.03552,-0.92702l0.72008,-0.06022c0,0 1.25013,-0.10454 1.35468,1.14559c0.10454,1.25013 -1.14559,1.35468 -1.14559,1.35468l-0.72008,0.06022c-3.32047,0.27768 -6.64013,0.52571 -9.94919,0.9183c-7.39417,0.87669 -15.01053,1.30877 -22.33337,2.64458c-2.20589,0.40239 -4.4206,1.19902 -6.58436,1.78421c-4.84396,1.31006 -9.68793,2.62011 -14.5319,3.93017c0,0 -0.49325,0.1334 -0.9353,-0.08487c-1.44674,5.26964 -2.94761,10.52514 -4.5414,15.75831c-1.63893,5.38139 -3.40185,10.51876 -5.57144,15.70998l-0.66983,0.94458c0,0 -0.76145,0.99698 -1.75843,0.23553c-0.00546,-0.00417 -0.01087,-0.00835 -0.01623,-0.01254c0.51946,2.30202 1.05393,4.62145 1.342,6.93032c0.31071,2.49038 0.26594,5.10157 0.39469,7.6088c0.30803,5.99834 0.30478,11.85547 -0.74374,17.76606l-0.12011,0.75232c0,0 -0.19808,1.23876 -1.43684,1.04069zM238.66283,88.42166c0,0 0.31564,-1.21414 1.52978,-0.8985c1.21414,0.31564 0.8985,1.52978 0.8985,1.52978c-0.18174,0.69909 -0.36324,1.39818 -0.54458,2.09726c3.1167,-0.39853 6.3147,-1.20381 9.32287,-1.66846c2.17116,-0.33536 5.13635,-0.30616 7.18597,-1.08239c2.04963,-0.77622 4.2516,-2.7623 6.10023,-3.94929c2.11066,-1.35524 4.20811,-2.73523 6.33374,-4.06685c0.43701,-0.27377 0.9999,-0.39773 1.32567,-0.79747c0.98645,-1.21044 1.34983,-2.81631 2.04503,-4.2145c0.27993,-0.52414 0.75413,-0.98443 0.83979,-1.57243c0.08904,-0.61123 0.0424,-1.22332 -0.05741,-1.83593c-0.82327,0.16781 -1.28052,-0.64066 -1.28052,-0.64066c-2.05859,-3.63985 -4.11719,-7.27969 -6.17578,-10.91954c-1.09729,-1.94015 -2.06561,-4.32063 -3.42904,-6.08499c-1.45138,-1.87818 -3.50749,-3.54511 -5.17449,-5.23733c-3.93241,-3.9919 -7.9608,-7.91083 -11.76675,-12.02347c-3.17591,-0.5501 -6.3306,-1.20915 -9.49116,-1.84093c-0.82011,-0.16394 -1.64532,-0.30413 -2.46032,-0.49181c-0.52894,-0.12181 -1.04893,-0.59183 -1.56888,-0.43605c-0.6313,0.18915 -0.95343,0.91091 -1.45251,1.3413c-1.89697,1.63587 -3.88961,3.17668 -5.82977,4.76123c-3.88652,3.17416 -7.77303,6.34831 -11.65954,9.52247c-1.29551,1.05805 -2.57863,2.13145 -3.88652,3.17416c-0.51114,0.4075 -1.19276,0.65288 -1.55167,1.19924c-0.85259,1.29785 -0.87998,2.97857 -1.34514,4.4601c-1.25266,3.98963 -2.50531,7.97926 -3.75797,11.96889c-0.25053,0.79793 -0.47032,1.60616 -0.7516,2.39378c-0.15052,0.42149 -0.66949,0.79943 -0.54198,1.22845c0.18249,0.614 0.90199,0.91102 1.32168,1.39492c0.54797,0.63181 1.05278,1.2998 1.57916,1.9497c2.10555,2.5996 4.21109,5.19919 6.31664,7.79879c0.52639,0.6499 1.06746,1.28817 1.57916,1.9497c0.35006,0.45256 0.4934,1.13551 1.00516,1.39132c0.60624,0.30304 1.35423,0.06634 2.0294,0.12558c0.83313,0.07309 1.66286,0.18086 2.49428,0.2713c3.32572,0.36173 6.65143,0.72346 9.97715,1.08519c3.16784,0.34456 6.632,1.1496 9.81333,1.07815c0.08704,-0.00196 0.1742,-0.00444 0.26151,-0.00743c0.25519,-0.98439 0.51063,-1.96883 0.76655,-2.95327z"/><path d="M145.99331,136.74217c0.33656,0.36145 -0.0249,0.69802 -0.0249,0.69802l-0.34093,0.30926c-0.75151,0.95837 -1.47177,1.91861 -2.31811,2.79293c0.20582,-0.08014 0.41161,-0.15834 0.61723,-0.23454c2.06099,-0.76073 3.97709,-1.84687 5.82884,-3.07271c-1.12652,0.29818 -2.4411,0.47429 -3.29215,-0.48627c-2.06117,-2.32638 0.16696,-6.5992 2.92994,-7.1174c1.31048,-0.24579 3.35676,1.04152 4.82043,1.88364c0.08752,-0.31339 0.17076,-0.63675 0.25433,-0.96848l0.00085,-0.00338c0,0 0.12077,-0.47889 0.59966,-0.35812c0.47889,0.12077 0.35812,0.59966 0.35812,0.59966l-0.00085,0.00338c-0.10501,0.41597 -0.21276,0.81848 -0.32922,1.20574c0.08464,0.04898 0.39647,0.26172 0.20987,0.64843c-0.13716,0.28424 -0.3683,0.2992 -0.5173,0.27296c-0.13693,0.36704 -0.28788,0.71682 -0.45908,1.04748c1.44514,-1.06714 2.89237,-2.12386 4.38332,-3.0741c-2.03334,-0.61075 -2.89865,-3.8463 -2.2062,-5.7057c0.43649,-1.17208 1.8735,-2.49691 2.91334,-3.06556c1.55372,-0.84967 2.58749,-1.75593 3.84889,-0.18653c0.00697,-0.15114 0.07191,-0.37685 0.383,-0.44697c0.4818,-0.1086 0.59041,0.37319 0.59041,0.37319l0.16566,0.7349c0.43565,1.96592 0.4319,3.76105 -0.36886,5.28845c4.89246,-2.82236 9.48591,-6.10503 14.17878,-9.27687c4.23361,-2.86142 8.46722,-5.72285 12.70082,-8.58427c-2.52663,0.06204 -4.04903,-3.55171 -2.43561,-5.57187c0.43313,-0.54232 2.13225,-1.25939 2.78746,-1.53803c0.68595,-0.29172 1.5678,-0.18931 2.23111,0.15075c0,0 0.43036,0.24231 0.18805,0.67267c-0.24231,0.43036 -0.67267,0.18805 -0.67267,0.18805c-0.95597,-0.61668 -1.21055,-0.17986 -2.17771,0.3401c-0.52476,0.28211 -1.2054,0.35912 -1.59208,0.81238c-1.24239,1.45633 0.15624,4.47904 2.14215,3.87538c0.69086,-0.21 1.61783,-1.2155 2.2369,-1.6124c0.90149,-0.57798 0.68736,-1.02972 0.84747,-2.07992c0.26229,-0.52318 0.44416,-1.09144 0.55237,-1.6666l0.13841,-0.71564c0,0 0.09377,-0.4849 0.57868,-0.39112c0.48491,0.09378 0.39113,0.57868 0.39113,0.57868l-0.13841,0.71565c-0.12098,0.61098 -0.29874,1.22053 -0.58015,1.77617c-0.102,0.7452 -0.1183,1.22297 -0.32265,1.64432c0.07629,-0.05156 0.15258,-0.10312 0.22886,-0.15469c1.89688,-1.28207 4.69579,-2.55899 5.96701,-4.46379c0.31481,-0.47171 1.02026,-0.79462 1.01993,-1.36173c-0.00015,-0.25276 -1.15191,-1.55265 -1.32351,-1.80723c-0.04898,-0.07267 -1.03145,-2.00164 -1.20745,-1.99107c-0.54383,0.03265 -0.95904,0.57449 -1.49808,0.65349c0,0 -0.48374,0.06368 -0.55291,-0.41636c-3.95299,2.67176 -7.90598,5.34351 -11.85897,8.01528c-2.42684,1.64026 -4.90819,3.20476 -7.4346,4.69537c1.57279,0.25593 3.13675,1.42813 3.93831,2.61406c0,0 0.27656,0.40919 -0.13263,0.68576c-0.40919,0.27657 -0.68576,-0.13263 -0.68576,-0.13263c-1.17808,-1.74301 -3.73683,-3.31228 -5.60177,-1.17203c-0.42957,0.49299 0.01855,0.92175 0.22586,1.33562c0.78678,1.57075 1.55919,1.38784 3.30925,1.25293c0.86822,-0.06693 1.53223,-0.33253 2.34766,-0.62055c0.48627,-0.48019 1.84239,-1.13171 2.13998,-1.66848c0.28562,-0.51517 0.03524,-1.17789 0.07602,-1.76553l0.04809,-0.6929c0,0 0.03419,-0.49271 0.52689,-0.45851c0.49271,0.03419 0.45851,0.5269 0.45851,0.5269l-0.04809,0.6929c-0.01614,0.23252 -0.12976,2.05383 -0.19754,2.17609c-0.36007,0.64947 -1.90645,1.48241 -2.47778,2.02555c-0.96415,0.36944 -1.76074,0.68588 -2.79605,0.76925c-0.80961,0.0652 -2.50695,0.27113 -3.24154,-0.13944c-0.88048,-0.49211 -1.5694,-2.28111 -1.38325,-3.42993c-2.3096,1.28136 -4.65221,2.50354 -7.0209,3.66788c-6.16963,3.03271 -12.2466,6.18262 -18.29809,9.44456c-5.65092,3.14744 -10.77738,6.85392 -16.12629,10.47547c0.10031,0.06618 0.15716,0.15031 0.15716,0.15031c0.6718,1.01497 0.50278,1.80824 0.95191,2.84144c0.2534,0.58292 0.83456,0.97015 1.14502,1.52479c0.55298,0.98789 0.909,2.03635 1.38123,3.05096c0.78827,-0.45585 1.59709,-0.89216 2.41805,-1.30389c-1.33861,-0.53338 -2.36394,-2.06523 -2.63078,-3.42566c-0.04771,-0.24324 -0.40045,-2.05955 -0.34459,-2.19468c0.52439,-1.26845 1.28228,-0.96306 2.25049,-0.85998c0.71033,0.07563 1.41311,0.33736 2.02129,0.71208c1.02168,0.6295 2.037,1.26964 3.05457,1.90583c0.31957,-0.401 0.63214,-0.80878 0.951,-1.21541l0.4451,-0.42265c0,0 0.36146,-0.33656 0.69802,0.02489zM143.27189,139.11678c-1.15666,-0.78382 -2.44974,-1.86812 -3.69084,-2.30535c-0.3022,-0.10646 -1.94532,-0.50652 -2.07506,0.10995c-0.24293,1.15433 1.0969,4.01559 2.18698,4.48898c1.14595,0.49766 2.15852,-0.79758 2.81229,-1.45844c0.26745,-0.26989 0.52123,-0.54932 0.76663,-0.83514zM153.90227,132.51349c-0.93825,-0.452 -1.8768,-0.90339 -2.81376,-1.35805c-0.23606,-0.11455 -1.15124,-0.63288 -1.5012,-0.55545c-2.00414,0.44343 -3.97962,3.69367 -2.38468,5.49383c0.76328,0.8615 2.32723,0.18379 3.15616,-0.06155c2.06337,-0.59091 2.95673,-1.86309 3.54348,-3.51877zM163.37731,122.50944c-0.03429,0.06529 -0.09018,0.12979 -0.17681,0.18834c-0.40919,0.27657 -0.68576,-0.13263 -0.68576,-0.13263c-0.64658,-1.21092 -1.65529,-0.09539 -2.62469,0.42132c-0.84912,0.4526 -2.10506,1.59482 -2.45746,2.54196c-0.53117,1.42757 0.20318,4.49575 1.99642,4.47335c0.65559,-0.00818 1.86902,-0.81217 2.49213,-1.06678c1.91962,-1.55023 2.07466,-3.72788 1.52375,-6.12577zM235.97802,79.99927c-0.014,-0.00392 -0.02747,-0.00813 -0.04043,-0.01262c0.00012,0.03115 0,0.06233 -0.00041,0.09356c-0.03452,1.6218 0.548,4.58621 -0.35895,6.01359c-1.79002,2.81719 -5.8026,2.43887 -8.51275,2.12957c-0.13196,-0.01506 -0.2685,-0.02456 -0.40825,-0.03047c0.96462,0.65196 1.79266,1.45867 2.19772,2.49609c0.10721,0.27459 -0.12962,0.60372 -0.03694,0.88355c0.10339,0.31218 0.53754,0.46538 0.59118,0.78983c0.05489,0.33201 -0.34186,0.62947 -0.30128,0.96353c0.10713,0.88205 0.94456,1.77389 0.88969,2.86505c-0.07585,1.50846 -0.83585,3.01954 -0.81282,4.50288c-0.01824,1.09806 -0.81779,3.86751 -1.51359,4.8272c-0.06625,0.09137 -1.59725,1.11517 -1.75942,1.22512c-1.32428,0.8979 -2.61834,2.02421 -4.00631,2.80718c-0.86574,0.48838 -1.75418,0.4279 -2.62374,0.81197c-1.64314,0.72575 -3.24854,2.20517 -4.74012,3.21314c-0.49636,0.30843 -1.42579,0.98954 -2.04643,0.78999c-0.40928,-0.13159 -0.54681,-0.66404 -0.80298,-1.00929c-0.74998,-1.01077 -1.41697,-2.09647 -2.1219,-3.13946c-0.41671,-0.61653 -0.86536,-1.24177 -1.32977,-1.87537c-0.35584,0.39854 -1.37851,1.04523 -1.58764,1.18658c-1.36118,0.92 -2.72237,1.84001 -4.08356,2.76001c-1.98544,1.34193 -4.46401,2.46707 -6.26686,4.0221c-3.22949,2.78557 -6.53911,5.48576 -10.12321,7.90819c-5.66471,3.82868 -11.30028,7.69822 -17.06433,11.376c-2.22042,1.41675 -4.64585,2.30494 -6.9454,3.56554c-3.74886,2.05511 -7.27356,4.50548 -11.04588,6.54412c-2.89623,1.56518 -5.56971,3.41747 -8.31329,5.23479c-0.59408,0.39351 -2.07951,1.71019 -2.80448,1.65901c-0.84956,-0.05999 -1.35239,-1.03315 -1.74237,-1.60823c-0.78796,-1.16197 -1.55584,-2.20805 -2.08553,-3.42432l-0.12599,0.05897l-0.41546,-0.88754c-0.10646,-0.21767 -0.03907,-0.48608 0.16743,-0.62565c0.13518,-0.09136 0.29935,-0.10683 0.44215,-0.05614l0.53036,0.18192c1.64792,-1.36031 3.80776,-2.03374 5.70367,-3.05163c1.52581,-0.81918 2.86105,-1.99262 4.25729,-3.04413c-0.80158,0.40828 -1.62225,0.77578 -2.46759,1.09017c-2.27149,0.84171 -4.55643,1.93085 -6.68763,3.16681c0.05427,0.09444 0.11044,0.18833 0.1688,0.28157l-0.53859,0.22147l-0.29877,0.30248c-0.02982,-0.04767 -0.05909,-0.09551 -0.08783,-0.1435l-0.0122,0.00502c0,0 -0.04198,-0.05879 -0.07135,-0.14745c-0.00284,-0.00495 -0.00567,-0.00989 -0.00851,-0.01484c-0.56283,0.34346 -1.11284,0.69661 -1.64677,1.05748l-0.14928,-0.49522l-0.40385,-0.32316c0.08458,-0.05716 0.16955,-0.11414 0.25492,-0.17092l-0.00034,-0.00114c0,0 0.00798,-0.0054 0.02247,-0.01357c0.47872,-0.31798 0.96968,-0.62987 1.47057,-0.9343c-0.47645,-1.02214 -0.83837,-2.0778 -1.3939,-3.07064c-0.22317,-0.39886 -1.023,-1.23136 -1.18955,-1.61449c-0.44543,-1.02466 -0.20099,-1.72525 -0.86441,-2.68211c0,0 -0.17778,-0.26302 -0.03739,-0.50985l-0.42717,0.04675c0,0 -0.49373,0.01209 -0.50583,-0.48165c-0.0121,-0.49374 0.48164,-0.50583 0.48164,-0.50583l0.39024,0.06851c5.44877,-3.6828 10.66072,-7.46031 16.41134,-10.66309c6.06424,-3.26902 12.1543,-6.42564 18.33702,-9.46478c6.16296,-3.02944 12.14782,-6.45244 17.83194,-10.29423c4.85616,-3.28219 9.71231,-6.56438 14.56847,-9.84657c0,0 0.40919,-0.27657 0.68576,0.13263c0.27657,0.40919 -0.13263,0.68576 -0.13263,0.68576c-0.31853,0.21529 -0.63707,0.43058 -0.95561,0.64588c0.12134,-0.03807 0.24547,-0.05469 0.3745,-0.03645c0.46257,0.0654 0.78268,0.52986 1.08795,0.8835c0.30017,0.34774 1.29698,1.75283 1.8927,2.8074c-0.21311,-0.46363 -0.40372,-0.93034 -0.56705,-1.40004c-0.87376,-2.54212 -1.72483,-5.09648 -2.70845,-7.58275c-1.74035,1.4004 -3.61384,2.60103 -5.47126,3.85642c-5.72549,3.86976 -11.40714,7.64775 -17.55863,10.81668c-6.13719,3.1614 -12.3833,6.15184 -18.41192,9.51472c-6.04423,3.37159 -11.72428,7.24885 -17.66099,10.80061c-1.63206,1.10389 -3.26048,2.21311 -4.892,3.31777c-0.61302,0.41506 -0.9558,1.42962 -1.69611,1.43382c-0.30129,0.00171 -1.2589,-1.46928 -1.43848,-1.7284c-0.80121,-1.1561 -2.67075,-3.29017 -1.70155,-4.8399c0.93323,-1.49221 3.43156,-1.94127 4.84961,-2.89926c1.60501,-1.22771 3.17527,-1.92607 4.91548,-2.89382c4.20211,-2.33684 8.12041,-5.52343 12.03202,-8.31199c5.51893,-3.92941 12.23415,-5.94904 17.78771,-9.71336c3.64039,-2.46048 7.28078,-4.92095 10.92118,-7.38143c-0.12838,-0.33929 0.19872,-0.56037 0.19872,-0.56037l0.63771,-0.42571c3.45279,-1.71449 6.76925,-3.71059 10.29834,-5.2707c0.47465,-0.20978 2.38403,-1.45598 2.71611,-1.48762c0.34204,-0.0326 0.51302,0.51023 0.84823,0.58567c0.31232,0.07028 0.63632,-0.27483 0.94286,-0.18259c0.10724,0.03227 0.2137,0.09703 0.31919,0.18182c-0.55981,-1.05018 -1.16829,-2.07527 -1.83933,-3.06809c0,0 -0.22629,-0.33481 0.03337,-0.60341c-0.14121,-0.34628 0.19386,-0.57276 0.19386,-0.57276c1.10863,-0.73019 1.55543,-1.92412 2.50123,-2.86193c1.79843,-1.78324 4.34546,-3.04463 6.4508,-4.4676c0.97569,-0.65945 2.28121,-1.93552 3.40228,-2.27458c0.7799,-0.23588 1.48293,0.04063 2.21527,0.22613c0.93658,0.24538 3.17712,0.79709 3.90886,1.41056c0.31824,0.2668 0.53734,0.64744 0.8014,0.97165c-0.03917,-0.35255 -0.02965,-0.72388 -0.0871,-1.15697c-0.42406,-3.19719 0.72576,-7.28764 3.62484,-9.02013c0.18605,-0.11118 1.75455,-1.13129 1.85379,-1.14208c1.47438,-0.16035 3.58562,1.64451 4.64794,2.46393c1.06435,0.82109 1.983,1.64742 2.8521,2.67517l0.25343,0.36987c0,0 0.27656,0.40919 -0.13263,0.68576c-0.40919,0.27657 -0.68576,-0.13263 -0.68576,-0.13263l-0.18944,-0.28537c-0.82408,-0.9755 -1.69094,-1.75167 -2.701,-2.53067c-0.81987,-0.63241 -2.8062,-2.40019 -3.93372,-2.26454c-0.58739,0.07067 -0.95064,0.70825 -1.45981,1.00953c-1.95887,1.15913 -3.16239,3.93057 -3.40672,6.2009c-0.15035,1.3971 0.19765,2.42543 0.14928,3.65381l0.20101,0.01025l-0.05,0.98082c-0.0061,0.15154 -0.08168,0.29828 -0.21697,0.38971c-0.22599,0.15275 -0.53301,0.09337 -0.68575,-0.13262c-0.02015,-0.02981 -0.03661,-0.06104 -0.04948,-0.09314l-0.24848,-0.58626c-0.50119,-0.30845 -0.75088,-0.92223 -1.18629,-1.32266c-0.54541,-0.5016 -2.73928,-1.00454 -3.50601,-1.19837c-2.03983,-0.53594 -3.17014,0.79659 -4.81793,1.9103c-1.83142,1.23783 -3.92148,2.3249 -5.6482,3.69174c-1.3154,1.04124 -1.86998,2.58159 -3.18937,3.55604c1.04089,1.55452 1.93392,3.18548 2.72962,4.86654c0.78504,0.14611 1.82791,0.10137 2.22027,0.38746c0.42309,0.30849 0.81784,0.83371 0.79181,1.35668c-0.03514,0.70637 -1.06868,0.92667 -1.60256,1.39052c-0.01166,0.01014 -0.02333,0.02026 -0.03501,0.03037c1.04062,2.59544 1.93292,5.26674 2.84673,7.92538c1.34911,3.97871 4.84212,7.79566 7.18504,11.26211c0.70297,1.04008 1.48237,2.05974 2.12191,3.13946c0.11839,0.19988 0.08668,0.5435 0.30328,0.62747c0.09542,0.03699 1.18452,-0.68012 1.18875,-0.6828c1.53847,-1.03999 3.18344,-2.53959 4.88002,-3.28894c0.83663,-0.36952 1.71985,-0.30052 2.53495,-0.76729c2.99601,-1.71567 6.87245,-4.20444 6.77943,-7.99957c0.01586,-1.53311 0.72133,-3.01664 0.8143,-4.55801c0.0627,-1.03945 -0.76234,-1.80355 -0.88297,-2.68398c-0.04371,-0.31907 0.35921,-0.59743 0.30871,-0.9155c-0.04529,-0.2852 -0.46669,-0.38814 -0.55915,-0.66171c-0.09217,-0.27272 0.1406,-0.59133 0.04398,-0.86252c-0.46116,-1.29441 -1.9355,-2.20883 -3.31739,-2.87477c-0.20209,-0.0241 -0.39728,-0.06046 -0.58139,-0.11518c-0.39914,-0.11862 -0.70006,-0.30386 -0.96215,-0.53123l-0.85046,-0.48246c-0.06782,-0.0366 -0.12805,-0.08967 -0.17419,-0.15794c-0.15274,-0.22599 -0.09337,-0.53302 0.13263,-0.68576c0.15749,-0.10645 0.35435,-0.10986 0.51091,-0.02567l0.85966,0.44111c0.41718,0.18315 0.86585,0.38129 1.32099,0.60103c0.75099,0.08083 1.61863,-0.02003 2.31701,0.05967c2.36462,0.26986 3.99675,0.61612 6.08083,-0.72271c0.49547,-0.3183 1.17039,-0.45814 1.48621,-0.95519c0.75553,-1.18907 0.1762,-4.14034 0.20511,-5.50483c0.05514,-1.73864 -0.95602,-3.39118 -1.8183,-4.84372c-0.2697,-0.45431 -0.44711,-0.92553 -0.61936,-1.39662c-0.36022,0.04513 -0.72084,0.09359 -1.08213,0.14735c0,0 -0.48851,0.07268 -0.56119,-0.41583c-0.07268,-0.48851 0.41582,-0.56119 0.41582,-0.56119c0.28758,-0.04278 0.57416,-0.08111 0.86005,-0.11643c-0.05787,-0.13092 -0.12002,-0.2609 -0.1884,-0.38958c-1.07965,-2.03154 -2.9724,-3.52612 -4.21043,-5.3547l-0.15825,-0.23802c0,0 -0.27345,-0.41128 0.13782,-0.68473c0.41127,-0.27345 0.68473,0.13782 0.68473,0.13782l0.15825,0.23802c1.21359,1.86602 3.1672,3.38153 4.26013,5.43806c0.12914,0.243 0.23485,0.48964 0.33111,0.73773c1.27883,-0.13572 2.55142,-0.2454 3.84621,-0.4603c1.02212,-0.16964 1.94409,-0.51098 2.9314,0.05205c0.41089,0.23431 0.98232,0.45795 1.07965,0.92083c0.09214,0.43817 -0.40734,0.79827 -0.63737,1.18241c-0.88481,1.4776 -2.05775,3.74874 -3.63326,4.48121l-0.15934,0.72325c0,0 -0.13317,0.47559 -0.60876,0.34243zM235.98196,78.30769c1.42028,-0.77771 2.13201,-2.27163 3.02143,-3.59555c0.30462,-0.45344 1.09152,-0.72123 1.04158,-1.2652c-0.03867,-0.42112 -1.63809,-0.38334 -1.90308,-0.33713c-1.55491,0.27117 -3.09303,0.41708 -4.63433,0.59122c0.12998,0.34074 0.27546,0.67903 0.47258,1.00925c0.76346,1.279 1.54384,2.64571 1.83675,4.11352zM185.23614,91.60298c-0.00487,0.00361 -0.0076,0.00546 -0.0076,0.00546c-4.78683,3.23533 -9.57365,6.47067 -14.36048,9.706c-5.55973,3.74771 -12.259,5.7671 -17.76745,9.69929c-3.94204,2.81025 -7.89028,6.01577 -12.12533,8.37094c-1.7145,0.95346 -3.23814,1.62479 -4.81879,2.83246c-1.38788,0.93847 -3.54911,1.33236 -4.59556,2.63162c-0.70737,0.87827 1.2517,3.12154 1.68252,3.74289c0.18796,0.27108 0.41698,0.51791 0.56379,0.81331c0.0738,0.14849 -0.06378,0.56531 0.08409,0.49029c0.50127,-0.25433 0.65492,-0.94392 1.1182,-1.26223c1.63256,-1.12168 3.27712,-2.22595 4.91823,-3.33506c5.95162,-3.56376 11.64938,-7.44913 17.71026,-10.83001c6.03818,-3.36822 12.29386,-6.36379 18.44079,-9.5302c6.11679,-3.15072 11.76473,-6.90908 17.45783,-10.75694c1.8303,-1.23707 3.79388,-2.3814 5.4618,-3.83055c0.04171,-0.03624 0.10558,-0.08433 0.18531,-0.1411c-0.32504,-0.7869 -0.66553,-1.56586 -1.02652,-2.33426c-0.56815,-0.44579 -1.10656,-1.0541 -1.55071,-1.1519c-0.30112,-0.06631 -0.6054,0.26674 -0.9047,0.19269c-0.25916,-0.06412 -0.30729,-0.5699 -0.57402,-0.55854c-0.25458,0.01084 -0.26008,0.45835 -0.46986,0.60299c-0.56275,0.38801 -1.26252,0.52471 -1.88768,0.80114c-2.57955,1.14035 -5.04507,2.51549 -7.53413,3.84171zM201.0259,88.86438c0.05836,-0.11845 -0.88335,-0.31733 -1.53673,-0.44466c0.18048,0.40642 0.35605,0.81537 0.52738,1.22648c0.475,-0.31941 0.94241,-0.64595 1.00935,-0.78182zM204.59423,103.47663l0.09555,-0.074c-0.53154,-0.81167 -1.02677,-1.63425 -1.45734,-2.46714c0.04166,0.11542 0.06476,0.21121 0.0648,0.28161c0.00011,0.18755 -1.02578,1.67505 -1.18865,1.91447c-1.38299,2.03288 -4.20072,3.35649 -6.23293,4.73002c-5.70137,3.85346 -11.40276,7.70692 -17.10413,11.56038c-5.63842,3.81091 -11.13497,7.77764 -17.17157,10.92722c-3.9035,2.03446 -7.37855,5.04153 -11.09625,7.54407c0.86342,-0.44353 1.70194,-0.89424 2.57289,-1.50498c3.47155,-2.43434 7.3655,-4.3311 11.00933,-6.54073c2.28638,-1.38647 4.26658,-3.0323 6.66022,-4.27605c6.13519,-3.18785 12.10209,-6.62455 18.05268,-10.14274c5.04863,-2.9844 9.54168,-6.58836 14.38644,-9.86285c0,0 0.40919,-0.27656 0.68576,0.13263c0.27657,0.40919 -0.13263,0.68575 -0.13263,0.68575c-4.86094,3.28543 -9.37101,6.90017 -14.43692,9.89479c-5.96656,3.52641 -11.94872,6.97277 -18.09989,10.16894c-2.37429,1.23368 -4.3344,2.86817 -6.60349,4.24416c-3.62613,2.19889 -7.5002,4.0827 -10.95438,6.50485c-1.42799,1.00135 -2.79781,1.60084 -4.29952,2.40799c-2.26354,1.21663 -4.1186,3.23011 -6.39683,4.45327c-2.0344,1.09225 -4.05662,1.93562 -6.00092,3.1497l0.00015,0.0003l-0.00252,0.00118c-0.01097,0.00685 -0.02194,0.01372 -0.0329,0.02059c0.89129,0.85596 1.51447,2.22414 2.17202,3.21116c0.03655,0.05487 0.68009,1.17048 0.97288,1.17291c0.67335,0.00558 2.44177,-1.65033 3.0323,-2.04149c2.49668,-1.65377 4.92948,-3.31018 7.56564,-4.7348c3.77068,-2.03775 7.29331,-4.48699 11.04069,-6.54129c2.27989,-1.24983 4.68832,-2.12799 6.88891,-3.53209c5.7567,-3.6731 11.38501,-7.53786 17.04251,-11.36167c3.55228,-2.40093 6.83094,-5.07745 10.03119,-7.83779c1.83544,-1.58314 4.33895,-2.72726 6.35888,-4.0925c1.08839,-0.73562 2.17678,-1.47125 3.26517,-2.20687c0.54559,-0.36875 1.044,-0.81942 1.63676,-1.10626c0.13864,-0.06709 0.53836,0.06682 0.45757,-0.06431c-0.13111,-0.21279 -0.53001,-0.10882 -0.68504,-0.30487c-0.37532,-0.47467 -0.35771,-1.34396 -0.66535,-1.86501c-0.44133,-0.7475 -1.16429,-1.47717 -1.69071,-2.19549c-0.01657,-0.0196 -0.02525,-0.03245 -0.02525,-0.03245l0.00102,-0.00079c-0.00716,-0.00987 -0.01427,-0.01975 -0.02134,-0.02961z"/></g></g></svg>