<svg version="1.1" xmlns="http://www.w3.org/2000/svg" xmlns:xlink="http://www.w3.org/1999/xlink" width="130.1774" height="178.14239" viewBox="0,0,130.1774,178.14239"><g transform="translate(-123.35841,-47.37343)"><g data-paper-data="{&quot;isPaintingLayer&quot;:true}" fill="#000000" fill-rule="nonzero" stroke="none" stroke-width="0.5" stroke-linecap="butt" stroke-linejoin="miter" stroke-miterlimit="10" stroke-dasharray="" stroke-dashoffset="0" style="mix-blend-mode: normal"><path d="M221.62852,84.89378c-3.27568,-0.88319 -6.53746,-1.8082 -9.87383,-2.45708c-2.57063,-0.49996 -5.29003,-0.63978 -7.89034,-0.95595c-1.77432,-0.21574 -3.55049,-0.41686 -5.32297,-0.6472c-0.77704,-0.10098 -1.55104,-0.42507 -2.32817,-0.32482c-1.66342,0.21458 -3.10269,1.27514 -4.66175,1.89348c-2.49223,0.98845 -4.98447,1.97689 -7.47669,2.96535c-1.66149,0.65896 -3.30702,1.35967 -4.98447,1.97689c-0.44691,0.16444 -1.05142,0.06925 -1.36241,0.42989c-0.47216,0.54754 -0.48906,1.36118 -0.76005,2.03147c-1.00387,2.48311 -2.11567,4.93007 -3.17192,7.39142c-2.11461,4.92762 -4.22922,9.85523 -6.34383,14.78285c-0.70487,1.64254 -1.39058,3.29343 -2.11461,4.92762c-0.30938,0.69829 -0.87307,1.32282 -0.95673,2.08198c-0.18154,1.64736 0.66962,3.24649 0.97587,4.87527c0.46261,2.46024 0.94273,4.90106 1.26703,7.38359c4.58829,2.38295 8.97666,5.18118 13.42423,7.81693c0.76883,0.45563 1.5499,0.8912 2.30649,1.36689c0.48677,0.30604 0.84788,0.93845 1.42155,0.97704c0.71148,0.04785 1.32929,-0.51797 2.00473,-0.74659c2.53621,-0.85848 5.12222,-1.59772 7.67842,-2.39504c7.53183,-2.34931 15.03745,-4.82637 22.62113,-7.00233c1.63324,-1.97142 3.31171,-3.90028 4.98811,-5.83506c0.7968,-0.9196 2.08636,-1.55385 2.4348,-2.71966c0.67497,-2.25829 0.56009,-5.25483 0.83708,-7.60359c0.39847,-3.37885 1.29703,-7.07668 1.24694,-10.4738c-0.02547,-1.72834 -0.51749,-3.41812 -0.77044,-5.12804c-0.38308,-2.58947 -0.58988,-5.30688 -1.1594,-7.86112c-0.50529,-2.26619 -1.33431,-4.52098 -2.02878,-6.75043zM224.70022,85.69831c0.57813,1.77611 1.17333,3.56584 1.57391,5.36242c0.5836,2.61739 0.80222,5.39856 1.1948,8.05223c0.03255,0.22003 0.7973,5.36445 0.79902,5.48087c0.05187,3.51826 -0.85257,7.32918 -1.26511,10.82732c-0.30178,2.55902 -0.20828,5.9444 -1.04694,8.37224c-0.48303,1.39831 -1.89253,2.27462 -2.8613,3.39269c-1.83656,2.11962 -3.67404,4.23406 -5.546,6.32261c-7.72432,2.55647 -15.52388,4.8958 -23.29117,7.31856c-2.55729,0.79767 -5.10604,1.64765 -7.67842,2.39504c-1.03333,0.30022 -2.04216,0.94278 -3.11422,0.8501c-0.35035,-0.03029 -4.44735,-2.50103 -4.78379,-2.7004c-4.77111,-2.82748 -9.58972,-5.58416 -14.2536,-8.58566c-0.63447,-2.80146 -1.17499,-5.60358 -1.70568,-8.42589c-0.08498,-0.45195 -1.03415,-5.40827 -1.00592,-5.66439c0.11216,-1.0179 0.76357,-1.90053 1.15788,-2.84563c0.68823,-1.64958 1.40974,-3.28508 2.11461,-4.92762c2.11461,-4.92762 4.22922,-9.85523 6.34383,-14.78285c1.05659,-2.46213 2.0725,-4.94816 3.17192,-7.39142c0.43733,-0.97189 0.63155,-2.11314 1.35456,-2.89614c0.55542,-0.60149 1.4884,-0.68317 2.24325,-1.00015c1.64797,-0.69205 3.32297,-1.31793 4.98447,-1.97689c2.49223,-0.98845 4.98447,-1.97689 7.47669,-2.96535c0.3688,-0.14627 5.09116,-2.03244 5.30717,-2.06031c2.43589,-0.31425 5.86627,0.67152 8.31778,0.96958c2.6635,0.32384 5.44568,0.4736 8.07859,0.98566c3.46602,0.67409 6.85067,1.64772 10.25415,2.56164c0.06884,-0.00845 0.14191,-0.01295 0.21946,-0.01295c0.42011,0 0.70856,0.13166 0.90662,0.31244c2.25084,0.5919 4.5147,1.1405 6.82042,1.54241c0,0 1.32064,0.2302 1.09044,1.55083c-0.2302,1.32064 -1.55083,1.09044 -1.55083,1.09044c-1.78952,-0.31193 -3.55394,-0.71172 -5.30658,-1.15144z"/><path d="M224.45493,224.80136c-0.6368,1.17963 -1.81644,0.54283 -1.81644,0.54283l-0.0854,-0.0461c-8.6183,-4.69334 -14.20223,-14.08969 -20.40549,-21.43227c-3.28096,-3.88357 -7.63199,-7.42875 -10.15439,-11.87652c-0.34644,0.03762 -0.69287,0.07523 -1.0393,0.11285l-0.16604,0.42951c0,0 -0.48337,1.25037 -1.73374,0.76699c-0.54389,-0.21025 -0.75973,-0.56564 -0.83002,-0.90011c-8.74753,0.94979 -17.49506,1.89959 -26.24259,2.84938c-2.66542,0.28941 -5.33085,0.57881 -7.99627,0.86822c-1.57954,0.1715 -3.18946,0.79777 -4.7435,0.46717c-0.98968,-0.21054 -1.85538,-0.80794 -2.78307,-1.21191c-3.25474,-1.47843 -6.50948,-2.95686 -9.76422,-4.43529c-2.06336,-0.93726 -4.99812,-1.72973 -6.80101,-3.11785c-0.77756,-0.59867 -1.35322,-1.42155 -2.02532,-2.1366c-0.45058,-0.47938 -3.84903,-4.08159 -3.9601,-4.46152c-0.30732,-1.05128 0.30049,-2.16984 0.45073,-3.25477l0.11185,-0.61113c0,0 0.24134,-1.31864 1.55998,-1.07731c1.31864,0.24134 1.07731,1.55998 1.07731,1.55998l-0.11185,0.61113c-0.17155,0.67326 -0.70957,1.35294 -0.51463,2.0198c0.19495,0.66687 1.03302,0.93054 1.52153,1.42457c0.62838,0.63548 1.22149,1.30492 1.82721,1.96202c0.54639,0.59273 0.99463,1.29012 1.6291,1.78745c1.62843,1.27647 4.46374,1.99904 6.34404,2.85314c3.25474,1.47843 6.50948,2.95686 9.76422,4.43529c0.69967,0.33525 1.34357,0.82909 2.09904,1.00573c1.31727,0.30803 2.6844,-0.33934 4.02931,-0.48537c2.66542,-0.28941 5.33085,-0.57881 7.99627,-0.86822c9.12735,-0.99103 18.25468,-1.98207 27.38203,-2.97309c0.50853,-1.18842 1.04071,-2.36901 1.37452,-3.61455c1.34692,-5.02599 1.6475,-10.60784 2.45049,-15.75387c0.25736,-1.64935 0.51734,-3.29408 0.77325,-4.93655c-0.31829,-0.69176 -0.05493,-1.17293 0.2258,-1.45669c0.01178,-0.07644 0.02355,-0.1529 0.0353,-0.22934c-14.1244,-7.432 -28.24881,-14.86399 -42.37322,-22.29598c-2.21259,-1.16422 -5.49701,-2.28654 -7.37402,-3.92064c-0.75158,-0.65431 -1.18602,-1.6017 -1.77217,-2.40756c-1.57693,-2.168 -3.12677,-4.35647 -4.68995,-6.5344l-1.22127,-1.70158c0,0 -0.78166,-1.08907 0.30741,-1.87073c1.08907,-0.78166 1.87073,0.30741 1.87073,0.30741l1.22127,1.70158c1.56314,2.17789 3.14232,4.34547 4.68995,6.5344c0.45669,0.64593 0.75783,1.42929 1.35447,1.94872c0.59665,0.51943 1.41402,0.70982 2.11668,1.07319c1.58766,0.82104 3.16357,1.6646 4.74536,2.49692c13.84966,7.28743 27.69932,14.57485 41.54898,21.86228c0.83542,-5.64075 1.55072,-11.28009 1.87446,-17.01366c0,0 0.07557,-1.33841 1.41398,-1.26284c1.33841,0.07557 1.26284,1.41398 1.26284,1.41398c-0.35026,6.20327 -1.15189,12.29753 -2.07122,18.40107c13.3545,-6.29838 26.68464,-12.64013 39.9828,-19.05774c4.68626,-2.26156 9.04967,-5.79395 14.09916,-6.96438l0.68824,-0.35101c0,0 1.21683,-0.56249 1.77931,0.65433c0.56249,1.21683 -0.65433,1.77931 -0.65433,1.77931l-1.22382,0.53286c-3.52402,0.76753 -6.01079,2.9207 -9.13741,4.64511c-1.42166,0.78408 -2.92368,1.41273 -4.38588,2.11838c-13.84757,6.68276 -27.72979,13.2833 -41.63809,19.83828c-0.26433,1.69971 -0.53325,3.40173 -0.79959,5.10862c-0.81804,5.24247 -1.13731,10.91312 -2.50982,16.03453c-0.0082,0.03061 -0.2258,0.59896 -0.51396,1.34751c0.66621,0.14506 0.9401,0.85047 0.9401,0.85047c0.02983,0.07889 0.06046,0.15751 0.09193,0.23589c0.04025,-0.00437 0.08051,-0.00874 0.12077,-0.01311c0,0 1.33271,-0.1447 1.47741,1.18801c0.0622,0.57281 -0.14854,0.92616 -0.40908,1.14287c2.17933,3.50738 5.71526,6.53115 8.3905,9.51302c3.33457,3.71678 6.38743,7.71012 9.54469,11.57863c3.20504,3.92706 6.62801,7.99195 11.14596,10.40668l0.0854,0.0461c0,0 1.17963,0.6368 0.54283,1.81644z"/><path d="M124.78232,70.78287c-0.66338,-0.34989 -0.31349,-1.01327 -0.31349,-1.01327l0.1175,-0.22279c2.52611,-4.63415 10.63822,-7.02062 15.07387,-9.70795c4.21141,-2.55078 8.43816,-5.74661 12.90406,-7.8103c2.68155,-1.23914 5.82136,-1.97771 8.64558,-2.84321c2.45735,-0.75307 4.87716,-1.77914 7.45761,-1.7885c0.67652,0.07414 1.50271,-0.20839 2.02957,0.22243c0.42093,0.3442 0.1811,1.07402 0.21926,1.61642c0.13808,1.96258 0.0015,3.99191 -0.00071,5.96007c-0.00849,7.5487 -0.22867,14.87948 0.58795,22.3922c0.15807,2.93263 0.86327,6.35603 0.00668,9.18964c-0.18952,0.62693 -0.11348,1.46853 -0.64037,1.85755c-1.27001,0.93771 -3.82311,-0.42871 -5.04203,-0.84302c-5.245,-1.78278 -10.44215,-3.34244 -15.61543,-5.37555c-1.77331,-0.69691 -3.46714,-1.48484 -5.10311,-2.3447c-0.7729,1.98498 -0.94237,4.12068 -1.43752,6.20593c-0.80883,3.40629 -1.86361,6.77357 -2.79264,10.14936c-1.47233,5.35 -4.23104,10.16044 -6.04202,15.38426c-1.62041,4.67411 -2.66172,9.64265 -3.9792,14.41264c-1.56692,5.67307 -2.96588,11.39334 -4.30845,17.12396c-0.65757,2.80677 -1.70114,5.74477 -1.69102,8.63119c0,0 0,0.75 -0.75,0.75c-0.75,0 -0.75,-0.75 -0.75,-0.75c0.00944,-3.01865 1.043,-6.0386 1.73057,-8.97335c1.34709,-5.74977 2.75089,-11.48911 4.32304,-17.18115c1.32612,-4.80124 2.37673,-9.79969 4.00781,-14.50462c1.79982,-5.19164 4.55021,-9.97549 6.01304,-15.29094c1.46024,-5.30605 2.17809,-11.63145 4.34538,-16.67925c-5.66795,-3.16877 -10.68875,-7.16844 -16.01238,-11.15952c-0.76311,0.54829 -1.42068,1.20085 -1.85276,2.05618l-0.1175,0.22279c0,0 -0.34989,0.66338 -1.01327,0.31349zM129.13689,67.34417c5.08518,3.82543 9.90846,7.64446 15.34087,10.68162c0.16458,-0.14263 0.42584,-0.25581 0.78793,-0.08199c0.40459,0.19421 0.45086,0.51432 0.42277,0.7401c1.62524,0.85801 3.30871,1.64346 5.07255,2.33665c4.68717,1.84206 9.303,3.38727 14.10785,4.86191c0.65942,0.20238 4.5194,2.06217 5.08047,1.56834c0.60844,-0.53552 0.38227,-1.58068 0.46261,-2.38723c0.23288,-2.33799 -0.27766,-5.00285 -0.40351,-7.35414c-0.82387,-7.55303 -0.60141,-14.92687 -0.59288,-22.51535c0.00167,-1.48612 0.00071,-2.97226 0.00071,-4.45838c0,-0.68942 0.84769,-1.77311 0.21926,-2.05659c-0.30219,-0.13632 -0.64695,0.14516 -0.97043,0.21774c-2.40019,-0.0182 -4.72824,1.02173 -7.01578,1.72267c-2.75905,0.84542 -5.8369,1.56047 -8.45584,2.77068c-4.41285,2.03918 -8.59394,5.21067 -12.75618,7.73166c-2.97474,1.80127 -6.0752,3.40591 -9.12317,5.08013c-0.70327,0.3863 -1.45415,0.74637 -2.17724,1.14217z"/></g></g></svg>