<svg version="1.1" xmlns="http://www.w3.org/2000/svg" xmlns:xlink="http://www.w3.org/1999/xlink" width="73.02748" height="64.15751" viewBox="0,0,73.02748,64.15751"><g transform="translate(-339.12762,-115.87621)"><g data-paper-data="{&quot;isPaintingLayer&quot;:true}" fill="#9966ff" fill-rule="nonzero" stroke="none" stroke-width="0.5" stroke-linecap="butt" stroke-linejoin="miter" stroke-miterlimit="10" stroke-dasharray="" stroke-dashoffset="0" style="mix-blend-mode: normal"><path d="M411.44138,116.257c1.37081,1.02557 0.34524,2.39638 0.34524,2.39638l-1.54329,2.02825c-4.45547,3.19981 -8.34768,6.91388 -12.69449,10.22135c-5.58226,4.24752 -12.26822,8.74951 -15.42528,15.16116c0,0 -0.33739,0.67421 -1.01178,0.90391c-0.45195,0.93759 -0.92757,1.8634 -1.44422,2.76608c-2.79112,4.87664 -6.36077,9.37007 -8.71753,14.50923c-0.7919,1.72681 -1.15242,3.62048 -1.73283,5.42938c-0.93965,2.92852 -1.76585,8.74219 -4.90568,10.31356c-0.49085,0.24565 -4.62835,-0.53372 -5.71046,-0.72389c-3.81456,-0.6704 -7.62306,-1.40141 -11.45519,-1.9635c-2.24081,-0.33889 -6.74755,-0.54769 -7.92299,-3.14999c-0.50358,-1.11488 1.12817,-2.17171 1.65054,-3.27791c1.41198,-2.99012 2.33658,-6.10191 3.73287,-9.10196c3.86841,-8.31162 8.98658,-15.42956 13.75169,-23.20564c1.43102,-2.33525 2.70956,-5.03177 4.3922,-7.29569c-0.84324,-0.40482 -1.68989,-0.80134 -2.56146,-1.13914l-1.83993,-3.24294c0,0 -0.79759,-1.51484 0.71725,-2.31244c1.51484,-0.79759 2.31244,0.71725 2.31244,0.71725l1.05241,2.2504c0.99868,0.31488 1.91554,0.68448 2.81792,1.06105c0.14484,-0.11685 0.29263,-0.23014 0.44355,-0.33963c0,0 1.40209,-0.98237 2.38446,0.41973c0.30767,0.43913 0.38145,0.83709 0.33766,1.17659c0.22386,0.07688 0.45117,0.15113 0.68278,0.22216c0.52232,0.16017 6.71434,2.05727 6.96664,2.22045c1.0883,0.70385 1.74573,1.91615 2.61859,2.87423c0.46936,0.53253 2.44311,2.71995 3.75086,4.33656c4.21511,-4.9763 9.98129,-8.57906 14.98567,-12.80968c3.47559,-2.93821 6.68972,-5.85214 10.43386,-8.47208l1.19213,-1.62799c0,0 1.02557,-1.37081 2.39638,-0.34524z"/></g></g></svg>