<svg version="1.1" xmlns="http://www.w3.org/2000/svg" xmlns:xlink="http://www.w3.org/1999/xlink" width="95.89989" height="99.84196" viewBox="0,0,95.89989,99.84196"><g transform="translate(-207.27651,-131.89585)"><g data-paper-data="{&quot;isPaintingLayer&quot;:true}" fill-rule="evenodd" stroke-miterlimit="10" stroke-dasharray="" stroke-dashoffset="0" style="mix-blend-mode: normal"><g><path d="M270.55363,202.49625c0.9069,-0.5 7.45677,3.3 10.88285,2.7c2.41841,-0.5 5.34066,-1.3 7.75907,-3.5c5.5422,-4.9 7.25524,-13 11.08438,-10.9c3.92992,2.1 3.82915,15.2 -8.46444,19.2c-4.23222,1.4 -8.06137,1.4 -11.18515,1.3c-0.80614,0 -7.75907,-0.7 -10.17747,-4.1c-2.41841,-3.4 -0.70537,-4.3 0.10077,-4.7z" fill="#ffab19" stroke="#001026" stroke-width="1.2" stroke-linecap="round" stroke-linejoin="round"/><path d="M299.67534,190.99625c2.01534,0.6 3.02301,4.8 2.01534,8.3c-1.00767,3.5 -2.61995,5.3 -3.92992,6.6c0.20153,-0.7 0.6046,-2.9 -1.10844,-4.2c-2.11611,-1.7 -5.84449,-0.8 -5.84449,-0.8c0,0 3.12379,-3.8 4.73606,-6.5c1.61227,-2.3 2.11611,-3.8 4.13145,-3.4z" fill="#ffffff" stroke="none" stroke-width="1" stroke-linecap="butt" stroke-linejoin="miter"/></g><path d="M265.51531,212.89625c-1.71304,-1.2 -3.52685,-4.2 -0.3023,-6.9c3.72839,-3.2 8.36368,0.5 10.37902,2c2.01534,1.5 3.02301,2.4 7.356,4.6c1.71304,0.9 3.92991,1.7 5.13911,2.1c0.50384,0.1 1.00767,0.1 1.51151,-0.1c0.9069,-0.4 2.61994,-1.1 4.53452,0.3c4.23222,3.7 -5.74372,17.8 -11.08438,16.1c-5.54219,-1.7 -2.41841,-6.5 -0.70537,-8.9c0.20153,-0.4 0,-0.9 -0.40307,-1l-0.40307,-0.1c-7.9606,-2.5 -14.20817,-6.9 -16.02197,-8.1z" fill="#ffab19" stroke="#001026" stroke-width="1.2" stroke-linecap="round" stroke-linejoin="round"/><path d="M249.49334,192.09625c1.71304,-1.5 5.13911,-0.8 5.23989,2c0,2.6 -2.11611,5.3 -3.32532,6.9c-1.20921,1.6 -6.85216,7.5 -13.80509,4.4c-2.92224,-1.5 -9.77442,-7.1 -6.1468,-10.4c3.62761,-3.3 6.95293,0.8 9.37133,2.9c2.01534,1.8 8.16213,-5.4 8.66597,-5.8z" fill="#ffab19" stroke="#001026" stroke-width="1.2" stroke-linecap="round" stroke-linejoin="round"/><g><path d="M256.95008,208.09625c-1.20921,-0.9 -2.41842,-2.4 -4.03068,-4.7c-1.30997,-1.9 -2.72071,-5.6 -2.72071,-5.6c-0.9069,-2.5 -1.51151,-7.3 1.8138,-7.2c2.21687,0.1 4.23222,-0.2 7.65829,-0.7c6.04603,-1.2 7.15446,-2 9.67364,2.1c2.72071,4.8 9.67364,8.3 1.10844,16.6c0,0 -4.93759,3.8 -10.88285,9.6c-4.03067,3.9 -10.37901,9.5 -12.59589,11.4c-0.50383,0.4 -1.10844,0.6 -1.71304,0.7c-9.77442,0.9 -17.02965,-0.1 -17.02965,-4.4c0,-7.2 14.40969,-4.7 14.40969,-4.7c0,0 4.63528,-3.9 6.7514,-5.8z" fill="#ffab19" stroke="#001026" stroke-width="1.2" stroke-linecap="round" stroke-linejoin="round"/><path d="M252.51633,201.39625c0,0 -1.91458,-2.5 2.41841,-5.2c4.53452,-2.9 6.24755,0.3 8.06137,2.7c2.01535,3.1 0,4.6 -2.01534,6.4c-1.61227,1.5 -3.12378,2.7 -3.12378,2.7c0,0 -3.12378,-2.1 -5.34066,-6.6z" fill="#ffffff" stroke="none" stroke-width="1" stroke-linecap="butt" stroke-linejoin="miter"/></g><path d="M272.97206,198.19625c-1.10844,-0.7 -2.61994,-1.9 -4.13145,-3c-2.51918,-1.8 -6.1468,-5.8 -1.10844,-7.6c4.03068,-1.5 7.65829,1.3 11.99129,4.4c2.21688,1.7 4.83682,3.7 3.92992,6.8c-1.00767,3.5 -5.94526,13.5 -11.89051,10.2c-4.33298,-2.9 -0.90691,-6.4 1.30997,-9.2c0.3023,-0.5 0.20153,-1.1 -0.10077,-1.6z" fill="#ffab19" stroke="#001026" stroke-width="1.2" stroke-linecap="round" stroke-linejoin="round"/><g><path d="M249.99715,140.39625c2.31765,-0.4 4.73606,-0.6 7.55754,-0.4c4.73606,0.2 9.27058,1.9 9.27058,1.9l12.19281,-7.9c0.40307,-0.2 0.90691,0.1 0.80614,0.5l-2.11611,17.9c-0.6046,-0.8 10.68132,12.8 3.52685,24.2c-7.15446,11.4 -22.37031,16.5 -41.31451,12.8c-18.94421,-3.7 -23.37797,-14.5 -22.16876,-20.2c1.2092,-5.7 8.36367,-7.8 8.36367,-7.8c0,0 0.10077,-4.5 3.32532,-10c1.91457,-3.3 8.36367,-8 8.36367,-8l2.61995,-10.7c0.10076,-0.4 0.6046,-0.5 0.9069,-0.3z" fill="#ffab19" stroke="#001026" stroke-width="1.2" stroke-linecap="butt" stroke-linejoin="miter"/><path d="M226.41765,161.79625c8.5652,-1.9 9.37134,4.4 16.62657,4.9c8.46444,0.6 20.05265,-8.5 26.80405,2.2c6.7514,10.6 -4.83682,25 -29.22246,20c-18.74268,-3.6 -23.5795,-13.9 -22.37029,-19.6c1.20921,-5.7 8.16214,-7.5 8.16214,-7.5z" fill="#ffffff" stroke="none" stroke-width="1" stroke-linecap="butt" stroke-linejoin="miter"/><path d="M248.38489,184.79625c-10.58055,0.6 -14.4097,-6.9 -15.31661,-9.6c-0.20153,-0.5 0.20153,-1 0.70537,-0.9c1.51151,0.3 4.73605,0.6 10.17747,0.3c6.04603,-0.4 11.48745,-2 13.40203,-2.7c0.40307,-0.1 0.80614,0.2 0.80614,0.6c0.3023,4.9 -0.6046,11.3 -9.77441,12.3z" fill="#ffffff" stroke="#001026" stroke-width="1.2" stroke-linecap="round" stroke-linejoin="round"/><path d="M219.8678,166.79625c0,0 -7.25523,-0.1 -11.99129,-3.9" fill="none" stroke="#001026" stroke-width="1.2" stroke-linecap="round" stroke-linejoin="round"/><path d="M219.46474,172.69625c0,0 -3.92992,1.9 -10.27825,1.4" fill="none" stroke="#001026" stroke-width="1.2" stroke-linecap="round" stroke-linejoin="round"/><path d="M248.08258,165.39625c0,1.6 -4.23222,4.1 -6.04603,3.9c-1.61227,-0.1 -3.12378,-2.9 -3.02301,-4.3c0.10076,-0.7 2.31764,-0.9 4.43375,-0.9c2.01534,0 4.73606,0.1 4.63528,1.3z" fill="#001026" stroke="#001026" stroke-width="1.2" stroke-linecap="round" stroke-linejoin="round"/><path d="M276.59969,168.49625c3.52685,-3.1 12.19281,-5.9 12.19281,-5.9" fill="none" stroke="#001026" stroke-width="1.2" stroke-linecap="round" stroke-linejoin="round"/><path d="M288.08713,172.59625c0,0 -7.45677,1.1 -11.78976,-0.6" fill="none" stroke="#001026" stroke-width="1.2" stroke-linecap="round" stroke-linejoin="round"/><g><path d="M242.03656,147.59625c2.82148,1.8 2.72072,6.9 -0.20153,11.4c-3.02301,4.5 -7.65829,6.6 -10.47977,4.8c-2.82148,-1.8 -2.72072,-6.9 0.20153,-11.4c2.92223,-4.5 7.65829,-6.7 10.47977,-4.8z" fill="#ffffff" stroke="#001026" stroke-width="1.2" stroke-linecap="round" stroke-linejoin="round"/><path d="M231.95985,158.09625c0,-1.1 0.80614,-2 1.8138,-2c1.00767,0 1.8138,0.9 1.8138,2c0,1.1 -0.80614,2 -1.8138,2c-1.00767,0 -1.8138,-0.9 -1.8138,-2" fill="#001026" stroke="none" stroke-width="1" stroke-linecap="butt" stroke-linejoin="miter"/></g><g><path d="M256.54701,155.19625c3.02301,-4.4 7.75907,-6.8 10.88285,-4.5c3.12379,2.2 2.92224,7.9 -0.20153,12.3c-3.02301,4.4 -7.45675,5.8 -10.78207,3.9c-2.72071,-1.9 -2.92223,-7.3 0.10077,-11.7z" fill="#ffffff" stroke="#001026" stroke-width="1.2" stroke-linecap="round" stroke-linejoin="round"/><path d="M257.15163,160.99625c0,-1.1 0.80614,-1.9 1.8138,-2c1.00767,0 1.8138,0.9 1.8138,2c0,1.1 -0.80614,2 -1.8138,2c-1.00767,0 -1.8138,-0.9 -1.8138,-2" fill="#001026" stroke="none" stroke-width="1" stroke-linecap="butt" stroke-linejoin="miter"/></g></g></g></g></svg>