<svg version="1.1" xmlns="http://www.w3.org/2000/svg" xmlns:xlink="http://www.w3.org/1999/xlink" width="103.02629" height="214.35274" viewBox="0,0,103.02629,214.35274"><g transform="translate(-106.80238,-43.584)"><g data-paper-data="{&quot;isPaintingLayer&quot;:true}" fill="#ffcd00" fill-rule="nonzero" stroke="none" stroke-width="0.5" stroke-linecap="butt" stroke-linejoin="miter" stroke-miterlimit="10" stroke-dasharray="" stroke-dashoffset="0" style="mix-blend-mode: normal"><path d="M175.60236,257.70417c-1.65933,0.83021 -2.48954,-0.82912 -2.48954,-0.82912l-1.14212,-2.28965c-1.29736,-3.57126 -2.10375,-7.12815 -3.0856,-10.79065c-1.789,-6.67331 -3.95639,-12.95236 -4.74833,-19.83231c-0.34761,-3.01988 -0.8848,-6.06304 -1.20047,-9.07396c-0.08935,-0.85227 0.56723,-2.02329 -0.09339,-2.56912c-0.18145,-0.14992 -0.39105,-0.19508 -0.61708,-0.1791c-0.18825,0.94573 -0.38758,1.89033 -0.59966,2.83375l0.2414,-0.69053c0,0 1.04433,1.53362 -0.48929,2.57795c-1.53362,1.04433 -2.57795,-0.48929 -2.57795,-0.48929l-0.79467,-2.21202c0.19754,-0.87872 0.38375,-1.75851 0.56004,-2.63933c-0.05534,-0.18356 -0.08719,-0.39478 -0.08719,-0.63785c0,-0.59921 0.19351,-1.0049 0.45555,-1.27958c1.1772,-6.38499 1.88882,-12.82166 2.67003,-19.28972c0.25792,-2.13544 0.61056,-4.30464 0.89334,-6.47184c-0.31846,-0.01924 -1.79538,-0.19771 -1.79538,-1.8531c0,-1.85543 1.85543,-1.85543 1.85543,-1.85543c0.10806,0 0.21661,0.0006 0.32562,0.00175c0.0171,-0.24671 0.03204,-0.49313 0.04459,-0.7392c0.49092,-9.62812 -0.49939,-19.57543 -0.74295,-29.21727c0,0 -0.02163,-0.85624 0.54626,-1.41991c-1.56006,0.37583 -3.11583,0.68317 -4.61771,0.80307c-3.34797,0.26728 -7.28648,-0.66621 -10.62628,-0.98215c-0.71138,-0.0673 -7.58067,-0.6892 -7.96808,-0.85086c-1.15141,-0.48046 -1.89163,-1.62752 -2.82151,-2.45933c-1.84385,-1.64937 -3.64461,-3.34629 -5.46692,-5.01943c-2.73327,-2.50954 -5.48129,-5.00426 -8.20038,-7.52915c-1.00466,-0.9329 -2.21464,-1.69001 -2.99971,-2.81398c-0.15147,-0.21686 -2.8388,-6.76393 -3.02504,-7.21527c-0.18061,-0.43768 -2.89532,-6.98385 -2.9412,-7.23543c-0.04588,-0.25158 0.18329,-7.33462 0.19777,-7.80788c0.0113,-0.3692 0.22281,-7.5223 0.25997,-7.71422c0.03716,-0.19193 2.51103,-6.90695 2.63836,-7.25368c0.09754,-0.2656 2.57922,-7.03526 2.64662,-7.16884c2.16783,-4.29674 5.56121,-8.33463 8.2395,-12.33726c2.73493,-4.08728 5.23087,-8.83522 8.43314,-12.56284c2.02919,-2.36208 5.3465,-4.26476 7.77861,-6.19179c2.76497,-2.19076 5.96667,-5.61112 9.12439,-7.15483c0.93812,-0.45861 2.05089,-0.39464 3.07917,-0.57635c2.43616,-0.43049 4.87951,-0.81928 7.31927,-1.22892c3.48116,-0.5845 7.83521,-1.99128 11.35122,-1.86786c1.35992,0.04774 2.65344,0.60507 3.97723,0.92007c8.25966,1.96544 17.45132,7.38923 21.42652,15.14623c0,0 0.57892,1.15785 -0.19748,2.02285c1.78759,4.42321 3.6629,8.80033 5.56358,13.18545c1.20393,4.65452 3.12147,9.6423 3.69084,14.41034c0.57826,4.8425 -0.01816,10.44104 -0.5977,15.25794c-0.04467,0.37127 -0.89204,7.44837 -0.94513,7.64866c-0.59719,2.25305 -1.91736,4.24915 -2.88606,6.36917c-0.17778,0.38908 -3.12646,6.86638 -3.25895,7.05308c-0.13249,0.1867 -5.27318,5.10842 -5.58176,5.40469c-0.20144,0.19341 -5.377,5.16704 -5.50192,5.2681c-2.52977,2.0466 -5.77595,3.58364 -8.53981,5.29264c-0.35638,0.22036 -6.36571,3.94544 -6.58752,4.04313c-2.01183,0.88603 -4.28425,0.98766 -6.42921,1.46897c-1.54021,0.34561 -3.15281,0.80123 -4.78104,1.23065c1.37247,0.2593 1.41066,1.77124 1.41066,1.77124c0.24587,9.73353 1.2331,19.76652 0.73995,29.48707c-0.012,0.23662 -0.02614,0.47355 -0.0422,0.71075c1.79755,0.08193 3.60488,0.12222 5.27463,-0.12878c5.78727,-0.86996 11.59311,-3.82442 16.7955,-6.33315c3.48116,-1.6787 5.69519,-2.52659 8.32052,-5.36752c1.04144,-1.12697 3.10673,-3.07411 3.58781,-4.58452c0.16386,-0.51447 0.15467,-6.31284 0.15678,-6.67673l-0.00003,-0.39259c0,0 0,-1.85543 1.85543,-1.85543c1.85543,0 1.85543,1.85543 1.85543,1.85543l-0.00003,0.4149c-0.00859,1.38294 0.04075,6.65227 -0.33856,7.80183c-2.02973,6.15139 -8.51958,9.58849 -13.8255,12.14714c-5.53907,2.67108 -11.69388,5.73399 -17.85572,6.66026c-1.96046,0.2947 -4.09609,0.22743 -6.19939,0.13657c-0.29038,2.27608 -0.65991,4.55517 -0.93087,6.79853c-0.73467,6.08265 -1.41291,12.13654 -2.46009,18.14768c0.88113,-0.04886 1.71829,0.01024 2.36366,0.54022c1.26309,1.03724 0.95996,3.12546 1.3814,4.7046c0.80653,3.02206 0.89393,6.29246 1.25013,9.38701c0.77031,6.69207 2.90402,12.79791 4.64533,19.29287c0.93464,3.48615 1.67793,6.8907 2.91112,10.2885l1.05174,2.09516c0,0 0.83021,1.65933 -0.82912,2.48954zM195.0136,57.91785c-4.08566,-4.96661 -10.95687,-8.37542 -16.77372,-9.79861c-1.08138,-0.26458 -2.12526,-0.77998 -3.23785,-0.81904c-3.26601,-0.11464 -7.37663,1.2766 -10.60658,1.81892c-2.43976,0.40964 -4.87558,0.84343 -7.31927,1.22892c-0.72706,0.11469 -1.52954,-0.02394 -2.1866,0.30779c-2.87781,1.45291 -5.7927,4.6644 -8.3269,6.67231c-2.25977,1.79048 -5.4906,3.5943 -7.35591,5.79972c-3.05412,3.611 -5.44304,8.17474 -8.07626,12.11003c-2.59472,3.87774 -5.91896,7.79462 -8.01651,11.95692c-1.08032,2.14373 -1.64278,4.51133 -2.47031,6.76474c-0.81872,2.22939 -2.02707,4.34824 -2.47857,6.6799c-0.45149,2.33166 -0.1214,4.74841 -0.19404,7.12227c-0.07171,2.34333 -0.67686,4.72223 -0.25624,7.02861c0.42061,2.30639 1.82655,4.31852 2.72083,6.48569c0.89259,2.16306 1.29706,4.58749 2.63699,6.50585c0.63165,0.90433 1.65,1.46453 2.46721,2.20545c2.74891,2.49229 5.46716,5.01965 8.20038,7.52915c1.82231,1.67314 3.67062,3.3184 5.46692,5.01943c0.61992,0.58704 1.0287,1.48158 1.81997,1.80223c2.11041,0.8552 4.5424,0.3326 6.80939,0.54706c3.13574,0.29663 6.90058,1.23398 10.0424,0.97307c3.44522,-0.28611 7.19674,-1.63843 10.57343,-2.39613c1.9449,-0.43642 4.02099,-0.46975 5.84026,-1.2842c2.16441,-0.96896 4.02039,-2.51613 6.03735,-3.76329c2.64706,-1.63678 5.80147,-3.10296 8.21792,-5.06929c1.86831,-1.52029 3.46786,-3.34386 5.20537,-5.01206c1.70094,-1.63308 3.76088,-2.95249 5.12553,-4.87547c1.36465,-1.92298 1.93003,-4.30301 2.91002,-6.44772c0.88972,-1.94715 2.14663,-3.76136 2.68918,-5.83226c0.60289,-2.30122 0.54725,-4.72622 0.83308,-7.08788c0.5482,-4.52942 1.14073,-9.82136 0.59715,-14.37339c-0.53892,-4.51303 -2.39054,-9.23098 -3.51561,-13.64444c-2.4718,-5.65364 -4.87047,-11.30571 -7.10281,-17.05837l-0.14849,-0.38265c0,0 -0.11928,-0.30738 -0.1277,-0.71327z"/><path d="M107.17161,165.05909c1.05155,-1.52868 2.58023,-0.47712 2.58023,-0.47712c5.09559,3.50518 11.53469,7.93454 16.63028,11.43972c2.03824,1.40207 4.08963,2.7852 6.11471,4.20622c0.88022,0.61766 1.62101,1.4849 2.62064,1.88119c1.89557,0.75147 4.0717,0.23278 6.10536,0.38142c6.16831,0.45087 12.33662,0.90173 18.50493,1.3526c0,0 1.85049,0.13526 1.71523,1.98575c-0.13526,1.85049 -1.98575,1.71523 -1.98575,1.71523c-6.16831,-0.45087 -12.33662,-0.90173 -18.50493,-1.3526c-0.08833,-0.00646 -6.77991,-0.47182 -7.06451,-0.58121c-0.3348,-0.12868 -6.04536,-4.08003 -6.55143,-4.42814c-6.11471,-4.20622 -12.22942,-8.41243 -18.34413,-12.61865l-1.34351,-0.92418c0,0 -1.52868,-1.05155 -0.47712,-2.58023z"/><path d="M134.34074,253.48514c-1.85474,-0.05057 -1.80417,-1.90531 -1.80417,-1.90531l0.06798,-2.47375c0.8401,-11.21681 2.55727,-21.90928 6.61235,-32.46346c0.00622,-0.01619 3.06121,-6.78293 3.10001,-6.86136c0.69743,-1.4098 0.89079,-3.30927 2.2067,-4.17086c1.30692,-0.85571 3.11507,-0.242 4.67447,-0.33459c2.39449,-0.14218 4.79051,-0.33076 7.16441,-0.6749c0,0 1.8364,-0.26503 2.10144,1.57137c0.26503,1.8364 -1.57137,2.10144 -1.57137,2.10144c-3.14288,0.45166 -4.40075,0.758 -7.59575,0.71164c-0.91984,-0.01335 -1.97425,-0.76537 -2.74693,-0.26614c-0.76371,0.49343 -0.51514,1.74672 -0.85187,2.59132c-0.90293,2.26473 -2.14269,4.38711 -3.01712,6.663c-3.91574,10.19152 -5.55608,20.49183 -6.37031,31.322l-0.06452,2.38543c0,0 -0.05057,1.85474 -1.90531,1.80417z"/><path d="M153.0351,103.632c0.12694,-0.4765 0.23081,-0.95623 0.25736,-1.44678c0.0394,-0.72789 -0.17128,-1.45557 -0.29409,-2.18058c-0.53247,-0.18057 -1.19125,-0.62737 -1.19125,-1.73296c0,-1.1675 0.73463,-1.60037 1.27938,-1.76086c1.1415,-3.05396 1.45969,-6.17851 1.68826,-9.5565c0.04775,-0.70568 -0.10613,-1.4222 -0.00267,-2.12189c0.07993,-0.54055 0.95934,-1.18975 0.54503,-1.54602c-0.45256,-0.38916 -1.11086,0.48546 -1.70433,0.54914c-1.1938,0.12809 -2.40265,-0.0379 -3.60189,0.02021c-3.05868,0.1482 -6.03755,0.5282 -9.08172,0.66402c-1.17758,3.47766 -2.45036,7.21203 -2.64924,10.84985c-0.10564,1.93244 0.15242,3.8679 0.19,5.80286l0.00035,0.35808c0,0 0,1.85543 -1.85543,1.85543c-1.85543,0 -1.85543,-1.85543 -1.85543,-1.85543l0.00035,-0.28616c-0.03925,-2.02882 -0.30322,-4.05907 -0.18475,-6.08481c0.22401,-3.83023 1.46452,-7.71138 2.692,-11.38225c-0.17069,-0.25992 -0.28405,-0.60518 -0.28405,-1.06381c0,-1.85543 1.85543,-1.85543 1.85543,-1.85543c0.12287,0 0.24575,-0.00065 0.36863,-0.0019c0.15269,-0.02577 0.32003,-0.03084 0.50297,-0.00845c4.63354,-0.10747 9.27191,-1.00968 13.88636,-0.72303c1.45531,0.0904 3.29147,-0.4771 4.34156,0.53455c1.0103,0.97331 0.42827,2.77516 0.54503,4.17316c0.2924,3.501 -0.13816,7.25503 -1.1621,10.73362c0.28819,0.30573 0.40138,0.65077 0.42706,0.96955c0.27155,-0.01932 0.54201,-0.05124 0.81099,-0.10005c1.24741,-0.22637 2.38995,-0.93139 3.65038,-1.0678c0.94297,-0.10205 1.89052,0.54819 2.8216,0.36738c0.75804,-0.14721 1.2832,-0.8594 1.9248,-1.2891l3.02106,0.53606c0,0 1.04176,0.24155 1.36013,1.14877c0.91426,-3.43647 1.97915,-6.86062 1.9658,-10.45385c0,0 0,-0.15127 0.04319,-0.36743c-0.45576,-0.05722 -0.95196,-0.30597 -1.31262,-0.99137c-0.86401,-1.64198 0.77798,-2.50599 0.77798,-2.50599l2.02538,-0.64321c4.54994,0.74207 8.619,1.16692 13.21938,1.19443c1.14021,0.49104 2.70853,0.4562 3.42062,1.47312c0.77079,1.10075 0.29812,2.6712 0.4186,4.00957c0.44318,4.92307 -0.5935,9.37102 -2.03302,14.08052c-0.81012,2.65037 -1.38711,6.13564 -4.26076,7.63747c-1.3416,0.70115 -3.0238,0.15873 -4.53715,0.19415c-3.25745,0.07623 -8.22782,1.46565 -10.44561,-2.03895c-0.7923,-1.25202 -0.60674,-2.92942 -0.55503,-4.41017c0.06021,-1.72385 0.35694,-3.41515 0.74823,-5.09484c-0.68447,0.61201 -1.67331,0.38273 -1.67331,0.38273l-1.47945,-0.50744c-0.56517,0.41242 -1.00824,1.10623 -1.69551,1.23725c-1.11884,0.21329 -2.27501,-0.3932 -3.40671,-0.26457c-1.19843,0.13621 -2.27578,0.83893 -3.46411,1.04551c-0.06962,0.0121 -1.23354,0.01712 -2.46606,0.01903c0.11276,0.74844 0.41493,1.49477 0.37166,2.24974c-0.07172,1.2513 -0.52146,2.45187 -0.78218,3.6778l-2.84244,-0.86414l-0.78201,0.06799c0.02168,-0.09509 0.04489,-0.18997 0.06919,-0.28469l-0.1124,-0.03417c0,0 0,-0.76016 0.48655,-1.30736zM176.95734,85.24863c0.05618,0.24814 0.05618,0.42838 0.05618,0.42838c-0.01635,4.98781 -1.38804,9.68358 -2.48217,14.53723c-0.27338,1.21273 -2.31349,5.97324 0.56202,6.21843c1.98723,0.16945 3.97727,-0.44171 5.97091,-0.38526c0.96331,0.02728 2.00664,0.59159 2.88457,0.19415c0.77816,-0.35227 1.06843,-1.35654 1.41129,-2.13889c0.8708,-1.98706 1.33686,-4.13187 1.85393,-6.23884c0.88699,-3.61434 0.97226,-6.19416 0.97486,-9.83354c0.00048,-0.67216 0.52832,-1.36239 0.29894,-1.9942c-0.11677,-0.32163 -0.68432,-0.00649 -1.02647,-0.00973c-3.6462,0.02561 -7.00123,-0.27932 -10.50405,-0.77774z"/><path d="M152.51812,102.72053c-0.00398,1.85543 -1.85941,1.85144 -1.85941,1.85144l-3.17555,-0.01581c-2.35202,-0.47492 -4.7624,-0.73114 -7.16188,-0.72489c0,0 -1.85543,0 -1.85543,-1.85543c0,-1.85543 1.85543,-1.85543 1.85543,-1.85543c2.5238,0.00596 5.06088,0.24441 7.53481,0.74367l2.81059,-0.00297c0,0 1.85543,0.00398 1.85144,1.85941z"/><path d="M151.393,94.5675c0,1.85543 -1.85543,1.85543 -1.85543,1.85543c-2.21637,0 -4.77637,0 -6.99274,0c0,0 -1.85543,0 -1.85543,-1.85543c0,-1.85543 1.85543,-1.85543 1.85543,-1.85543c2.21637,0 4.43274,0 6.64911,0h0.34364c0,0 1.85543,0 1.85543,1.85543z"/><path d="M185.87505,96.04887c0,1.85543 -1.85543,1.85543 -1.85543,1.85543c-0.72436,0 -2.94865,0 -3.67301,0c0,0 -1.85543,0 -1.85543,-1.85543c0,-1.85543 1.85543,-1.85543 1.85543,-1.85543c0.72436,0 1.44872,0 2.17309,0h1.49993c0,0 1.85543,0 1.85543,1.85543z"/><path d="M152.1507,113.12649c1.85519,-0.02973 1.88492,1.82547 1.88492,1.82547l0.04388,2.73882c4.16461,-0.18913 8.31868,-0.44424 12.50176,-0.49215c2.26239,-0.02591 4.53691,0.47987 6.67944,1.20697c1.26152,0.42811 2.75629,0.47603 3.76159,1.35015c4.42521,3.84777 2.38609,11.36226 -2.02138,14.19457c-4.89752,3.14722 -11.81529,2.02095 -17.21638,1.5907c-1.86649,-1.69413 -4.34275,-2.95846 -5.48546,-5.20526c-1.23562,-2.42948 -1.65591,-5.76346 -1.81802,-8.788c-1.40693,0.04 -2.81657,0.06449 -4.23056,0.06449c0,0 -1.85543,0 -1.85543,-1.85543c0,-1.85543 1.85543,-1.85543 1.85543,-1.85543c1.37666,0 2.74953,-0.02551 4.11999,-0.06687l-0.04523,-2.8231c0,0 -0.02973,-1.85519 1.82547,-1.88492zM154.16638,121.41323c0.11522,2.46868 0.42562,5.16665 1.36584,7.1012c0.75335,1.55007 2.50604,2.36848 3.70114,3.61025c4.58595,-0.18411 9.57553,1.04518 13.83769,-1.34392c2.0958,-1.17477 4.20984,-6.35572 1.65224,-8.11209c-0.74682,-0.51286 -1.75125,-0.46691 -2.61629,-0.7361c-1.7711,-0.55116 -3.61517,-1.05912 -5.46971,-1.02349c-4.17477,0.08019 -8.31738,0.32577 -12.47091,0.50415z"/></g></g></svg>