<svg version="1.1" xmlns="http://www.w3.org/2000/svg" xmlns:xlink="http://www.w3.org/1999/xlink" width="179.76531" height="236.63983" viewBox="0,0,179.76531,236.63983"><g transform="translate(-121.53241,-50.92454)"><g data-paper-data="{&quot;isPaintingLayer&quot;:true}" fill="#000000" fill-rule="nonzero" stroke="none" stroke-width="0.5" stroke-linecap="butt" stroke-linejoin="miter" stroke-miterlimit="10" stroke-dasharray="" stroke-dashoffset="0" style="mix-blend-mode: normal"><path d="M184.78083,51.11236c1.34165,-0.67081 2.01246,0.67084 2.01246,0.67084l0.35867,0.79711c0.32473,0.39981 0.64939,0.79967 0.97398,1.19958c0.92459,0.0609 1.85182,0.0996 2.7837,0.0991c0,0 1.5,0 1.5,1.5c0,1.5 -1.5,1.5 -1.5,1.5c-0.09027,-0.00005 -0.18051,-0.00021 -0.27071,-0.0005c0.01158,0.01429 0.02317,0.0286 0.03476,0.04289c4.30169,4.06092 8.45177,8.40919 12.94939,12.24998c4.52677,3.86569 9.83581,7.8388 13.07794,12.9863c0.95317,1.51334 1.17782,3.37757 1.75239,5.07127c0.94241,2.77802 2.42906,5.85699 2.94715,8.73947c0.70184,3.90485 0.26137,8.44133 0.35957,12.41027c-1.30021,5.68464 -1.90534,13.22715 -5.77289,17.88493c-2.22815,2.68341 -6.82267,4.76247 -9.69803,6.74552c-4.81393,3.32002 -9.76133,7.78107 -15.0137,10.33364c-4.3855,2.13128 -9.87357,3.08288 -14.53663,4.53037c-2.73535,0.8491 -6.0426,2.42622 -8.88196,2.72723c-4.69688,0.49794 -10.65385,-0.82009 -15.30663,-1.55203c-2.79334,-0.43943 -6.57834,-0.4604 -9.20236,-1.48416c-5.50492,-2.14774 -9.7273,-7.23923 -13.54099,-11.47913c-0.24877,-0.27658 -4.06993,-4.51234 -4.18269,-4.69094c-1.0003,-1.5843 -1.31208,-3.51016 -1.95532,-5.26996c-0.11445,-0.31312 -2.09956,-5.72223 -2.12953,-5.89758c-0.02993,-0.1751 0.04574,-5.93694 0.04972,-6.27007c0.04651,-3.88743 -0.13811,-8.49696 0.74193,-12.29574c1.31685,-5.68426 4.58977,-11.50443 6.76264,-16.92837c1.74027,-4.3441 3.05226,-10.42303 5.7458,-14.23242c0.13243,-0.18729 4.42602,-3.94363 4.74192,-4.2212c2.20456,-1.93708 4.47568,-4.4871 6.93827,-6.07453c2.46258,-1.58743 5.72281,-2.60304 8.39731,-3.8111c0.32023,-0.14464 5.55687,-2.5192 5.74012,-2.56256c0.18324,-0.04336 5.92874,-0.26754 6.27984,-0.28175c3.99792,-0.16183 8.08981,-0.58691 12.08865,-0.48607c1.76028,0.04438 3.50668,0.20958 5.25271,0.37986l-0.1683,-0.31779c0,0 -0.67081,-1.34165 0.67084,-2.01245zM186.71784,56.80283c-5.55391,-0.18109 -11.03264,-0.60565 -16.66206,-0.37779c-2.6721,0.10816 -6.11052,-0.28971 -8.70789,0.32491c-1.85347,0.43859 -3.46019,1.59317 -5.19599,2.37722c-2.53803,1.14641 -5.66867,2.09135 -8.00685,3.59858c-2.33818,1.50723 -4.49143,3.96841 -6.58349,5.80665c-1.4152,1.2435 -3.18494,2.16136 -4.27258,3.69958c-2.54079,3.59337 -3.76409,9.50632 -5.41047,13.61605c-2.1135,5.27574 -5.34496,10.9649 -6.62489,16.4898c-0.83131,3.58842 -0.62168,7.98038 -0.66474,11.65422c-0.02238,1.90981 -0.4142,3.84645 -0.0924,5.72908c0.3218,1.88264 1.3344,3.57926 1.99009,5.37313c0.57805,1.58145 0.80203,3.33468 1.70849,4.75364c1.02559,1.60546 2.56829,2.8145 3.84231,4.23091c3.48275,3.87197 7.36515,8.72585 12.40093,10.69055c2.42208,0.94497 6.00373,0.90971 8.57858,1.3155c4.39577,0.69276 10.09305,2.00195 14.52375,1.53224c2.64453,-0.28035 5.7639,-1.81909 8.30885,-2.60908c4.51373,-1.40114 9.87265,-2.3019 14.11471,-4.36347c5.10738,-2.4821 9.93744,-6.87438 14.62177,-10.10502c2.63148,-1.81485 7.12966,-3.78864 9.13806,-6.24515c3.40258,-4.16174 3.85373,-11.17338 5.05109,-16.21536c-0.12261,-3.70976 0.32769,-7.936 -0.32726,-11.57989c-0.49175,-2.73591 -1.94144,-5.67107 -2.83544,-8.3064c-0.5103,-1.50424 -0.64321,-3.18619 -1.50214,-4.52238c-3.11404,-4.84433 -8.14576,-8.55441 -12.43539,-12.21761c-4.58509,-3.9155 -8.82498,-8.34267 -13.20115,-12.49167c-0.58545,-0.71928 -1.17076,-1.43868 -1.75589,-2.15822z"/><path d="M192.69643,287.44891c-1.40691,-0.52019 -0.88673,-1.9271 -0.88673,-1.9271l0.65004,-1.75724c1.09612,-2.79258 2.19224,-5.58517 3.28836,-8.37775c6.28636,-16.01574 13.05863,-31.81787 19.79093,-47.64952c-0.16648,-0.7053 -0.32938,-1.41378 -0.48196,-2.12811c-1.89131,-8.85461 -3.62396,-17.41538 -6.26114,-26.09447c-1.23829,-4.0753 -2.38721,-8.19538 -3.51088,-12.33139c-3.22746,1.46257 -6.62866,2.43907 -10.38041,2.46167c0,0 -1.5,0 -1.5,-1.5c0,-0.56228 0.21077,-0.91379 0.4743,-1.13353c-6.38951,-0.99439 -12.9006,-1.82414 -19.1359,-3.34387c-9.70223,-2.36472 -19.27051,-5.71512 -28.84578,-8.55622c-1.86852,-0.55442 -7.69998,-1.38522 -8.93175,-2.89061c-0.3702,-0.45244 -1.17543,-5.88491 -1.31147,-6.73615l-0.16974,-2.12607c0,0 -0.11854,-1.49531 1.37677,-1.61385c1.49531,-0.11854 1.61385,1.37677 1.61385,1.37677l0.15791,2.00703c0.27206,1.69373 -0.45163,3.74739 0.58689,5.11274c0.36361,0.47804 1.19543,0.14439 1.77877,0.28734c1.94252,0.47603 3.83475,1.13782 5.75213,1.70673c9.51961,2.82459 19.03149,6.15381 28.67558,8.51111c7.40574,1.81018 15.21461,2.6254 22.72974,3.92349c0,0 1.28854,0.22257 1.25166,1.45517c1.76207,-0.41516 3.45354,-1.05499 5.09603,-1.83228c-3.23039,-11.99554 -6.37433,-24.06827 -10.99019,-35.51689c0,0 -0.5609,-1.39118 0.83029,-1.95208c1.39119,-0.5609 1.95208,0.83029 1.95208,0.83029c4.5791,11.35747 7.72142,23.31981 10.92672,35.21777c2.03624,-1.15453 4.01228,-2.45358 5.97312,-3.71549c9.24523,-5.94987 18.40972,-11.9777 27.48846,-18.17883c7.83292,-5.35019 16.62489,-11.01677 23.34616,-17.74609c3.39202,-3.39608 6.11019,-7.84932 8.82841,-11.78236l0.69565,-1.03886c0,0 0.83476,-1.24626 2.08103,-0.41151c1.24626,0.83476 0.41151,2.08103 0.41151,2.08103l-0.72024,1.075c-2.82177,4.08286 -5.6519,8.67068 -9.17377,12.19676c-6.85495,6.86316 -15.79029,12.6483 -23.77668,18.10332c-9.10135,6.21657 -18.28876,12.25959 -27.557,18.22428c-2.24705,1.44612 -4.49041,2.88782 -6.80027,4.13928c1.16762,4.30096 2.35973,8.58625 3.64743,12.82414c2.61872,8.61831 4.35978,17.12874 6.23317,25.91187c0.17026,0.01146 0.35726,0.05518 0.56165,0.14202c1.38057,0.58652 0.79405,1.9671 0.79405,1.9671c-0.19095,0.44947 -0.38195,0.8989 -0.57299,1.3483c0.69609,2.94011 1.40257,5.84166 1.68368,8.89311l0.00158,0.0173c0,0 0.13577,1.49384 -1.35807,1.62962c-1.49384,0.13578 -1.62962,-1.35806 -1.62962,-1.35806l-0.00158,-0.0173c-0.13621,-1.52066 -0.38703,-3.00396 -0.69134,-4.47396c-6.18673,14.539 -12.37194,29.06938 -18.14619,43.78041c-1.09612,2.79258 -2.19224,5.58517 -3.28836,8.37775l-0.62879,1.7015c0,0 -0.52018,1.40692 -1.9271,0.88673z"/><path d="M301.11487,270.66151c-0.66151,1.34625 -2.00777,0.68474 -2.00777,0.68474l-1.58403,-0.77849c-14.85109,-7.06142 -26.15052,-18.81258 -37.0261,-30.85567c-4.69323,-5.19707 -9.53447,-10.19359 -14.35849,-15.26251c-0.69676,-0.73213 -1.41357,-1.44969 -2.04309,-2.24039c-0.43112,-0.5415 -0.44588,-1.6282 -1.12843,-1.74311c-0.65285,-0.1099 -0.98769,0.88255 -1.5012,1.30042c-0.79064,0.64338 -1.54885,1.33698 -2.41002,1.88236c-1.6404,1.03889 -3.66792,1.44116 -5.18743,2.65c-0.81592,0.6491 -1.23055,1.73498 -2.08661,2.33014c-1.44714,1.00609 -3.55357,0.75462 -5.04122,1.63689c-1.49473,0.88647 -1.83964,2.05447 -2.5302,3.46992c0,0 -0.67082,1.34164 -2.01246,0.67082c-1.34164,-0.67082 -0.67082,-2.01246 -0.67082,-2.01246c1.0659,-2.09072 1.38143,-3.26158 3.64408,-4.68501c1.47063,-0.92517 3.56568,-0.55763 4.96449,-1.58818c0.77086,-0.56792 1.12032,-1.58639 1.87401,-2.1769c1.31942,-1.03375 3.99929,-1.91327 5.43995,-2.82898c1.35703,-0.86255 4.21822,-3.85326 5.94879,-3.61784c0.70256,0.09557 4.22204,4.15775 4.91334,4.88415c4.8419,5.08771 9.70121,10.10374 14.41182,15.32004c10.60595,11.74452 21.60265,23.26953 36.08784,30.15698l1.61882,0.79531c0,0 1.34626,0.66151 0.68475,2.00777z"/><path d="M150.46063,103.29501c0,-0.82843 0.67157,-1.5 1.5,-1.5c0.82843,0 1.5,0.67157 1.5,1.5c0,0.82843 -0.67157,1.5 -1.5,1.5c-0.82843,0 -1.5,-0.67157 -1.5,-1.5z"/><path d="M173.43063,92.314c0,-0.82843 0.67157,-1.5 1.5,-1.5c0.82843,0 1.5,0.67157 1.5,1.5c0,0.82843 -0.67157,1.5 -1.5,1.5c-0.82843,0 -1.5,-0.67157 -1.5,-1.5z"/><path d="M198.04475,118.67462c-0.92462,1.18114 -2.10575,0.25652 -2.10575,0.25652l-1.1647,-0.91175c-1.21782,-0.96818 -2.5676,-1.83294 -4.03851,-2.33977c-3.1519,-1.08606 -7.6298,-1.521 -10.95391,-0.67689c-2.54224,0.64556 -4.4898,3.50457 -6.22933,5.24339c-4.11935,4.11768 -7.42497,8.93753 -11.54358,13.05791c0,0 -1.06101,1.06031 -2.12132,-0.00069c-1.06031,-1.06101 0.00069,-2.12132 0.00069,-2.12132c4.12199,-4.11464 7.42503,-8.93651 11.54274,-13.05706c2.25341,-2.25496 4.33288,-5.11646 7.57381,-6.01986c3.80758,-1.06135 9.09012,-0.50779 12.70796,0.73809c1.78379,0.61429 3.41778,1.6605 4.9107,2.81394l1.1647,0.91175c0,0 1.18114,0.92462 0.25652,2.10575z"/></g></g></svg>