<svg version="1.1" xmlns="http://www.w3.org/2000/svg" xmlns:xlink="http://www.w3.org/1999/xlink" width="55.65792" height="57.01515" viewBox="0,0,55.65792,57.01515"><g transform="translate(-181.07162,-81.35137)"><g data-paper-data="{&quot;isPaintingLayer&quot;:true}" fill="#000000" fill-rule="nonzero" stroke="none" stroke-width="0.5" stroke-linecap="butt" stroke-linejoin="miter" stroke-miterlimit="10" stroke-dasharray="" stroke-dashoffset="0" style="mix-blend-mode: normal"><path d="M234.83951,81.77413c0,0 0.65054,-0.82297 1.47351,-0.17243c0.82297,0.65054 0.17243,1.47351 0.17243,1.47351c-0.54534,0.68989 -1.90914,1.86723 -2.18064,2.69395c-0.40211,1.22445 -0.04884,2.58951 -0.29052,3.85543c-0.11942,0.6255 -1.14776,3.3456 -1.31242,4.03694c-0.72889,3.0602 -1.31494,6.44644 -2.66222,9.33546c-1.72588,3.70085 -4.55701,6.85002 -7.07975,10.01672c-1.57124,1.24116 -3.04878,2.59059 -4.91216,3.39595c-1.90905,0.8251 -4.08371,1.28928 -6.05319,1.97479c-1.3522,0.47066 -2.62125,1.19508 -4.01281,1.53203c-1.90106,0.46033 -4.27682,0.37008 -6.21574,0.32232l-1.10458,-0.21272c0,0 -0.86487,-0.18006 -0.84204,-1.00338c-5.71582,6.11663 -11.23403,12.45109 -16.69686,18.74031l-0.18983,0.21855c0,0 -0.68792,0.79199 -1.47991,0.10407c-0.79198,-0.68792 -0.10407,-1.47991 -0.10407,-1.47991l0.18983,-0.21855c8.06629,-9.28652 16.25551,-18.66475 25.01294,-27.31138c8.86065,-8.74545 17.61554,-17.60373 26.77239,-26.03929c0,0 0.28417,-0.26179 0.66646,-0.29515c0.32086,-0.35307 0.62537,-0.68408 0.84917,-0.96721z"/></g></g></svg>