<svg version="1.1" xmlns="http://www.w3.org/2000/svg" xmlns:xlink="http://www.w3.org/1999/xlink" width="297.24224" height="242.32793" viewBox="0,0,297.24224,242.32793"><g transform="translate(-185.84668,-95.39935)"><g data-paper-data="{&quot;isPaintingLayer&quot;:true}" fill-rule="nonzero" stroke="none" stroke-width="0.5" stroke-linecap="butt" stroke-linejoin="miter" stroke-miterlimit="10" stroke-dasharray="" stroke-dashoffset="0" style="mix-blend-mode: normal"><path d="" fill="#9966ff"/><path d="M199.67871,213.3896c-0.63628,-9.96769 -0.25734,-20.06345 -0.64465,-30.05362c-0.48646,-12.54766 0.57493,-25.70588 -1.37963,-38.08789c-1.80134,-11.57166 -1.8166,-23.52404 -2.1524,-35.22187c-0.06859,-2.38951 -0.34981,-8.27288 0.61351,-9.40938c1.24538,-1.46927 3.85241,-0.32898 5.72583,-0.77623c1.68829,-0.40305 3.17927,-1.53679 4.90051,-1.76066c0.99692,-0.12966 1.9226,0.6435 2.92297,0.74313c1.46109,0.14551 2.94445,0.13816 4.40492,-0.01335c2.61566,-0.27136 5.11838,-1.45941 7.74795,-1.48572c0.7183,-0.00719 1.40541,0.70822 2.09474,0.50614c1.58689,-0.46521 2.69683,-2.26109 4.34516,-2.39406c1.79562,-0.14484 4.21929,0.0875 5.15336,1.62787c0.89951,1.48337 -0.96302,3.3604 -1.0789,5.09132c-0.20991,3.13555 0.60123,6.25643 0.86876,9.38758c0.98976,11.65876 0.21921,23.50745 0.16438,35.20518c-0.10592,22.5946 -0.00757,45.19209 -0.00757,67.78696c-0.00386,4.64511 -0.45674,9.04774 -1.00329,13.65108l0.00427,3.81392c0,0 0,1.25066 -0.88458,1.98281c6.08012,-0.80973 12.16105,-1.61788 18.30755,-2.15272c6.07546,-0.52866 12.23171,-0.83227 18.33206,-1.24687c14.70733,-0.99956 29.26592,-1.69889 44.05084,-2.11602c4.89684,-0.13816 9.8975,-0.4628 14.79788,-0.4153c6.11786,0.05931 12.32985,0.58566 18.43087,0.87655c25.27604,1.20511 50.65959,1.74776 75.98068,2.53975c3.16946,0.09913 6.5709,0.00844 9.70859,0.30769c5.93891,0.5664 11.57111,1.68842 17.1803,2.93728c3.02188,0.67281 6.32906,1.38072 8.99574,2.50654c1.24913,0.52736 4.43666,2.27732 5.72657,2.84532c5.6666,2.49522 12.15614,4.34429 16.04555,8.06178c0.2033,0.19432 2.9725,4.17383 3.11689,4.38008c0.63231,4.36586 1.15941,8.57728 0.85045,12.95657c-0.12709,1.80149 0.32903,4.11671 -0.44162,5.86832c-0.93103,2.11613 -2.89457,4.27964 -4.27978,6.30679c-3.94026,5.76628 -8.65465,11.28065 -11.72512,17.25643c-0.12984,0.25244 -2.19601,4.2916 -2.30847,4.41635c-0.6401,0.71005 -1.69493,1.25369 -2.54892,1.87732c-2.3338,1.70427 -4.69395,3.39588 -7.04076,5.09369c-2.8092,2.03234 -5.55471,4.7575 -8.93768,6.44367c-2.81698,1.40406 -6.50342,2.36113 -9.55374,3.57977c-4.63151,1.85035 -8.91119,4.26448 -13.77679,5.87992c-3.23215,1.07311 -6.78231,1.9147 -10.12708,2.85653c-2.87672,0.81003 -5.78599,1.82549 -8.78005,2.46873c-5.77523,1.24074 -11.87659,2.09502 -17.76358,3.13181c-6.50866,1.14628 -13.05944,2.58778 -19.68136,3.46455c-8.13522,1.07713 -16.48231,1.6854 -24.71023,2.44523c-3.28296,0.30318 -6.65185,0.76788 -9.96542,0.91782c-4.89742,0.22161 -9.90613,0.11905 -14.81742,0.17632c-4.68584,0.05464 -10.07459,0.24425 -14.69483,-0.25876c-0.16274,-0.01772 -6.92852,-1.35111 -7.22824,-1.41003c-4.63775,-0.91167 -9.25543,-1.8924 -13.9275,-2.73815c-4.89689,-0.88645 -9.64632,-1.43767 -14.20369,-2.86829c-7.19972,-2.27521 -14.37807,-4.56862 -21.52917,-6.89849c-2.8581,-0.93119 -6.14686,-1.7452 -8.80384,-2.87468c-4.01019,-1.70473 -7.46268,-3.90778 -11.34898,-5.71377c-4.52399,-2.10232 -9.74208,-3.77455 -14.06767,-6.02066c-0.08924,-0.04634 -5.19371,-3.06893 -5.34239,-3.15692c-5.99857,-3.58601 -9.48445,-8.79344 -12.10043,-13.55914c-2.0839,-3.79638 -4.83377,-7.85476 -5.85915,-11.81468c-1.52012,-5.87056 -1.6647,-11.89857 -1.56144,-17.81911c0.09548,-5.47451 0.20328,-10.83391 2.79785,-16.1242c0.60283,-1.22915 0.9208,-2.52393 1.82526,-3.68448c1.61285,-2.06949 4.29248,-3.82332 6.57961,-5.62277c1.59717,-1.25661 3.22084,-2.48547 4.8423,-3.71307c-2.02519,0.04126 -4.07857,0.19949 -6.01403,0.19949c0,0 -2.5,0 -2.5,-2.5c0,-2.5 2.5,-2.5 2.5,-2.5c1.74787,0 3.58121,-0.11134 5.40959,-0.16467c-0.2931,-5.02575 -1.31315,-9.98056 -1.6345,-15.01473zM228.69573,234.35194c0.05104,-0.00675 0.10208,-0.0135 0.15312,-0.02025c-0.0648,-0.02439 -0.12679,-0.05108 -0.18608,-0.0798c0.01163,0.03366 0.02261,0.06701 0.03296,0.10005z" fill="#5c81ff"/><path d="M428.60065,240.12701c2.5,0 2.5,2.5 2.5,2.5l-0.01511,0.18052c0.26463,2.73755 -0.52464,5.48205 -1.01543,8.18821c-1.26053,6.95039 -0.379,14.32314 -1.94981,21.27629c-0.35615,1.57651 -2.84736,7.82319 -3.29682,9.53286c-1.16784,4.44225 -1.69906,9.22634 -2.22996,13.78093c-0.40206,3.41032 -1.01129,6.80466 -1.85367,10.13368c-0.44036,1.74027 -0.65066,3.55814 -1.33781,5.21653c-0.59008,1.42414 -1.87532,2.49213 -2.44908,3.92292c-0.47875,1.19389 -0.18402,2.6047 -0.6494,3.80387c-0.84869,2.18686 -1.24083,5.03043 -3.24936,6.24224c-1.49316,0.90087 -3.57797,-0.34144 -5.08951,-1.21114c-4.71116,-2.71068 -7.30181,-8.7556 -9.19835,-13.46291c-6.61075,-16.40823 -10.44193,-33.68053 -13.50604,-51.04701c-0.25827,-1.46654 -1.27202,-4.06498 -1.77822,-6.51803c-0.4552,0.60961 -0.96197,1.19054 -1.40042,1.8082c-3.58364,5.04842 -4.35499,10.31043 -6.02693,16.27407c-1.75172,6.24816 -4.21669,12.52561 -5.50824,18.88114c-1.29656,6.38018 -1.54535,13.18877 -2.31274,19.65731c-0.20281,1.70953 -0.05257,3.49987 -0.61107,5.12828c-0.01788,0.05212 -0.03615,0.10407 -0.05481,0.15585l0.01947,0.00496l-0.98497,3.86894c-0.25635,1.10824 -1.24957,1.93432 -2.43573,1.93432c-0.99783,0 -1.85912,-0.58458 -2.26007,-1.42995l-1.97675,-3.95158l0.00001,0l-0.00002,-0.00002c-3.29206,-6.58131 -5.88339,-13.42428 -9.05318,-20.04906c-2.12763,-4.4467 -4.88578,-8.5928 -7.00161,-13.04556c-3.80541,-8.00847 -6.73811,-16.63605 -9.44499,-25.06878c-2.01166,-6.26691 -5.18398,-13.06583 -6.01226,-19.67687c0.04256,3.29879 -1.65047,6.33182 -2.4233,9.57822c-0.8932,3.75202 -1.54074,8.57171 -1.7572,12.42076c-0.16337,2.90517 0.46102,5.81647 0.32709,8.72314c-0.31154,6.76149 -2.65059,13.18992 -3.33373,19.84785c-1.14866,11.19483 1.76476,23.09624 -0.71227,34.1922l-0.38497,4.96288c-0.08798,1.30086 -1.17106,2.3288 -2.49423,2.3288c-0.9537,0 -1.78268,-0.53403 -2.20421,-1.31937l-2.39205,-4.26128c-1.78504,-2.72603 -3.56966,-5.45234 -5.35388,-8.17891c-3.64163,-5.56649 -7.63099,-11.37824 -10.53462,-17.37204c-6.46478,-13.34487 -10.06995,-27.91765 -17.36102,-40.93934c-3.16725,-5.65664 -7.32145,-11.45645 -9.76518,-17.45398c-0.39819,-0.97725 0.44734,-3.00543 -0.60295,-3.10784c-1.08464,-0.10576 -0.83541,2.04259 -1.50516,2.90228c-1.52196,1.9536 -3.80712,3.16823 -5.71825,4.7432c-5.75757,9.75391 -11.85353,19.30284 -17.76234,28.96554c-6.07955,9.94193 -12.04945,20.25888 -18.90656,29.68835c-3.92541,5.39798 -8.49579,10.44092 -12.71057,15.61775c0,0 -1.57842,1.93871 -3.51713,0.36029c-1.93871,-1.57842 -0.36029,-3.51713 -0.36029,-3.51713c4.15719,-5.1061 8.67247,-10.07746 12.54416,-15.40158c13.55849,-18.64479 24.88943,-39.3122 36.91433,-58.96472c2.04314,-1.73182 4.021,-3.545 6.14174,-5.18088c1.83511,-1.41556 3.27406,-4.50415 5.56686,-4.16571c2.32919,0.34381 2.96474,3.66611 4.27964,5.61915c2.74976,4.08423 4.91896,8.79199 7.32389,13.09048c4.89633,8.75154 9.0209,17.7548 12.80942,27.04724c2.47571,6.07239 4.2717,12.61844 7.12919,18.51701c2.81054,5.80164 6.69213,11.42656 10.21864,16.81409c1.2868,1.96643 2.5734,3.93298 3.8598,5.89967c0.04578,-1.93295 0.43026,-3.92011 0.51292,-6.23809c0.11765,-3.29899 -0.00187,-6.60217 -0.00187,-9.90326c0,-4.97185 -0.49406,-10.3128 0.01306,-15.25518c0.67376,-6.5665 3.00599,-12.90613 3.31292,-19.56763c0.13375,-2.90276 -0.48754,-5.80992 -0.32762,-8.71135c0.34263,-6.2163 1.70161,-12.29082 3.3947,-18.23743c0.48029,-1.68691 0.49275,-3.55026 1.33176,-5.09052c1.03167,-1.89394 2.7644,-3.31112 4.1466,-4.96667c1.61423,1.77174 3.57189,3.283 4.84268,5.31522c0.06073,0.09713 3.08022,9.52565 3.17663,9.82598c1.78199,5.55143 3.33038,11.25356 5.36456,16.71712c2.13746,5.74094 4.2756,11.75588 6.90733,17.28765c2.10987,4.43486 4.85821,8.5659 6.97837,12.99643c2.62344,5.48224 4.84683,11.11452 7.40412,16.62242c0.19631,-3.6542 1.30741,-7.71833 1.65229,-10.63872c0.03124,-0.26454 1.17833,-10.00147 1.2056,-10.13566c1.31626,-6.47714 3.80891,-12.86894 5.59392,-19.23588c1.15977,-4.13677 1.69205,-9.52211 3.64591,-13.36212c1.29979,-2.55454 3.77733,-4.4071 4.98369,-7.00706c0.69758,-1.50343 0.16745,-3.77171 1.51582,-4.73547c1.70361,-1.21767 4.48833,-1.96288 6.2308,-0.80149c1.47586,0.98369 0.21311,3.54801 0.51272,5.29616c0.5488,3.20214 1.48926,6.3282 2.05475,9.52744c2.44881,13.87911 5.54952,27.39866 9.8824,40.81803c1.44084,4.46242 2.85249,9.46809 5.0801,13.61681c0.71043,1.32311 1.63838,2.5248 2.59122,3.68558c0.89971,1.09606 2.03395,1.98267 2.95009,3.06503c0.19378,0.22894 0.24406,1.11196 0.34696,0.83023c0.84266,-2.30712 0.34162,-4.97956 1.24931,-7.26188c0.59038,-1.48447 1.893,-2.60869 2.51284,-4.0811c1.7619,-4.1854 2.31366,-9.52149 2.83015,-13.9825c0.56089,-4.78712 1.13303,-9.80281 2.36047,-14.47179c0.84015,-3.1958 2.52726,-6.14023 3.25542,-9.36339c1.2316,-5.45163 1.30129,-11.63331 1.64966,-17.21626c0.22891,-3.66851 1.69152,-6.99214 1.22288,-10.59756l-0.01511,-0.72939c0,0 0,-2.5 2.5,-2.5z" fill="#77ff5c"/></g></g></svg>