<svg version="1.1" xmlns="http://www.w3.org/2000/svg" xmlns:xlink="http://www.w3.org/1999/xlink" width="86.88046" height="144.8425" viewBox="0,0,86.88046,144.8425"><g transform="translate(-134.48059,-133.69662)"><g data-paper-data="{&quot;isPaintingLayer&quot;:true}" fill="#000000" fill-rule="nonzero" stroke="none" stroke-width="0.5" stroke-linecap="butt" stroke-linejoin="miter" stroke-miterlimit="10" stroke-dasharray="" stroke-dashoffset="0" style="mix-blend-mode: normal"><path d="M187.36814,133.80352c0.74292,0.29687 0.80451,0.88602 0.75868,1.25695c2.04582,1.76414 4.09623,3.52321 6.13416,5.29639c0.66884,0.58194 1.44334,1.06314 2.00035,1.75289c1.47439,1.82576 2.50606,4.54579 3.63414,6.6104c1.56336,2.86127 3.33264,5.69274 4.71937,8.64284c0.99242,2.11124 1.71273,4.4162 2.55501,6.59152c0.31462,0.83224 0.77264,1.62362 0.94386,2.49671c0.42806,2.18276 0.01438,5.02593 -0.0138,7.25026c-0.01163,0.91816 0.18529,1.86766 -0.054,2.75417c-0.57857,2.14341 -2.66179,4.70408 -3.77629,6.63959c-1.15074,1.99843 -2.31128,4.98732 -3.89774,6.64753c-0.9648,1.00964 -2.53055,1.18253 -3.80826,1.74616c-2.23421,0.98555 -4.46842,1.9711 -6.70263,2.95665c-2.23314,0.98508 -4.45529,2.00448 -6.70263,2.95665c-0.88161,0.37353 -1.70264,1.03388 -2.65862,1.08749c-0.95598,0.05361 -1.84236,-0.52229 -2.76354,-0.78343c-4.66078,-1.45916 -9.32155,-2.91832 -13.98233,-4.37747c-1.55359,-0.48639 -3.11907,-0.93632 -4.66078,-1.45916c-0.94342,-0.31994 -2.01512,-0.41532 -2.81128,-1.0141c-0.4791,-0.36033 -0.50618,-1.08771 -0.72526,-1.64573c-0.59493,-1.51535 -1.10859,-3.06142 -1.64682,-4.59782c-0.30164,-0.86105 -0.77019,-1.68411 -0.88882,-2.58872c-0.26689,-2.03518 0.67831,-4.93196 0.97158,-6.95543c0.59768,-4.12371 1.17716,-8.25006 1.8277,-12.36579c2.3836,-3.40096 4.82675,-6.75946 7.25442,-10.12906c1.34788,-1.87085 2.74902,-4.59976 4.45573,-6.13724c1.7067,-1.53748 4.56657,-2.64712 6.5675,-3.79305c0.40729,-0.23325 4.30514,-2.48411 4.58156,-2.55985c1.43607,-0.3935 2.97154,0.19878 4.45511,0.32585c2.43302,0.20839 4.86603,0.41679 7.29905,0.62518c0,0 1.21651,0.1042 1.11231,1.3207c-0.1042,1.21651 -1.3207,1.11231 -1.3207,1.11231c-2.43302,-0.20839 -4.86603,-0.41679 -7.29905,-0.62518c-0.81101,-0.06946 -1.62313,-0.12689 -2.43302,-0.20839c-0.43043,-0.04332 -0.87266,-0.28981 -1.28717,-0.16599c-1.44368,0.43124 -2.58706,1.5456 -3.89453,2.29439c-1.84641,1.05744 -4.56971,2.06774 -6.14665,3.48832c-1.57693,1.42058 -2.86508,4.02399 -4.10887,5.75038c-2.31433,3.21227 -4.60434,6.44333 -6.97173,9.61675c-0.50575,3.94062 -1.10512,7.86911 -1.67499,11.80094c-0.23351,1.61111 -0.45244,3.22441 -0.70054,4.83334c-0.07872,0.51052 -0.3303,1.01656 -0.258,1.52803c0.10019,0.70873 0.51135,1.33716 0.758,2.0091c0.561,1.52824 1.16053,3.0442 1.64682,4.59782c0.07144,0.22825 -0.08864,0.58687 0.11771,0.7078c0.54708,0.32061 1.23905,0.2735 1.8495,0.44505c1.56724,0.44043 3.10718,0.97277 4.66078,1.45916c4.66078,1.45916 9.32155,2.91832 13.98233,4.37747c0.63241,0.22524 1.22696,0.71331 1.89724,0.67573c0.67027,-0.03759 1.20041,-0.60195 1.80979,-0.88361c2.21506,-1.02381 4.46994,-1.97177 6.70263,-2.95665c2.23421,-0.98555 4.46842,-1.9711 6.70263,-2.95665c0.74474,-0.32852 1.48378,-0.67025 2.23421,-0.98555c0.30395,-0.12771 0.7097,-0.09565 0.92772,-0.34297c1.38034,-1.56593 2.36717,-4.23245 3.41346,-6.04949c0.81236,-1.41078 1.61219,-2.82884 2.43707,-4.23234c0.35973,-0.61206 0.91283,-1.13967 1.09784,-1.82509c0.18501,-0.68541 -0.02747,-1.41968 -0.03035,-2.12962c-0.01263,-3.11762 0.39487,-5.94055 -0.76535,-8.85343c-0.82297,-2.12545 -1.52221,-4.38221 -2.49259,-6.44476c-1.36506,-2.90142 -3.10965,-5.68586 -4.64751,-8.50046c-1.05698,-1.9345 -2.00835,-4.53489 -3.39103,-6.24708c-0.97721,-1.21009 -2.36738,-2.01808 -3.5447,-3.03453c-1.63492,-1.41154 -3.26985,-2.82309 -4.90477,-4.23463l-0.13077,-1.89053c0,0 0.45307,-1.13379 1.58686,-0.68072z"/><path d="M201.4203,271.68578l-1.03732,1.1168c-3.1867,-4.91431 -6.01167,-10.04587 -8.9303,-15.12322c-0.81131,-1.41138 -1.63331,-2.81667 -2.43393,-4.23414c-0.35297,-0.62492 -0.54925,-1.36271 -1.04282,-1.88377c-1.04372,-1.10184 -2.57239,-1.61145 -3.84927,-2.43181c-1.3383,-0.85983 -2.6766,-1.71965 -4.01489,-2.57948c-0.37962,1.23606 -0.86151,2.44378 -1.42913,3.60303l-0.42743,0.86705c0,0 -0.53986,1.09512 -1.63499,0.55526c-0.20394,-0.10053 -0.35117,-0.22032 -0.45576,-0.34871c-1.46968,1.94368 -2.93935,3.88736 -4.40903,5.83104c-1.18077,1.5616 -2.8208,3.19513 -3.73819,4.92786c-1.09706,2.07208 -1.85292,4.45716 -2.75769,6.62137c-1.08109,2.58595 -2.4702,4.92096 -2.4865,7.73313l0.35908,0.40773c0,0 0.54626,1.09195 -0.54569,1.63821c-1.09195,0.54626 -1.63821,-0.54569 -1.63821,-0.54569l-0.61674,-1.54289c0.08586,-3.19869 1.4475,-5.69597 2.67508,-8.63235c0.943,-2.25565 1.73926,-4.74285 2.89357,-6.89643c0.98025,-1.82884 2.65892,-3.53246 3.90749,-5.18371c1.96371,-2.59706 3.92743,-5.19411 5.89114,-7.79117c0,0 0.64414,-0.85189 1.52428,-0.35974c0.29253,-0.7385 0.54337,-1.49393 0.7471,-2.2599c-0.00228,-0.00147 -0.00456,-0.00293 -0.00685,-0.0044c0,0 -1.02722,-0.65997 -0.36726,-1.68719c0.28913,-0.45002 0.64874,-0.57622 0.96159,-0.57597c0.86912,-3.26015 1.83045,-6.5374 2.4495,-9.83289c0.59246,-3.15392 0.81143,-6.43375 1.21415,-9.61829c0.22616,-1.78836 0.50564,-3.5892 0.76783,-5.39336c-0.15454,0.00015 -0.30909,0.00023 -0.46365,0.00023c0,0 -1.22096,0 -1.22096,-1.22096c0,-1.22096 1.22096,-1.22096 1.22096,-1.22096c0.26716,0 0.53428,-0.00023 0.80138,-0.0007c0.02341,-0.18199 0.04632,-0.36397 0.06866,-0.54594c-0.21266,0.06314 -0.38213,0.06314 -0.38213,0.06314c-14.27659,0 -28.57693,1.1055 -42.83534,1.81249c-0.82149,0.04064 -1.64298,0.08129 -2.46446,0.12193l-2.00262,0.01565c0,0 -1.22093,0.00938 -1.2303,-1.21155c-0.00938,-1.22093 1.21155,-1.2303 1.21155,-1.2303l1.95152,-0.01472c0.80446,-0.03998 1.60893,-0.07996 2.41339,-0.11993c14.29881,-0.709 28.63921,-1.81549 42.95628,-1.81549c0,0 0.31271,0 0.62161,0.15826c0.04343,-0.47861 0.08085,-0.95683 0.11093,-1.43449c0.20149,-3.19921 -0.00241,-6.48449 -0.00241,-9.69095c0,0 0,-1.22096 1.22096,-1.22096c1.22096,0 1.22096,1.22096 1.22096,1.22096c0,3.25785 0.20231,6.59384 -0.00241,9.84444c-0.08455,1.34244 -0.22574,2.68903 -0.39531,4.0362c7.02115,-0.05271 14.02349,-0.28717 21.03322,-0.85195c4.08381,-0.32904 8.12522,-0.9484 12.22439,-1.05779l1.06243,-0.02798c0,0 1.22054,-0.03215 1.25269,1.18839c0.03215,1.22054 -1.18839,1.25269 -1.18839,1.25269l-1.06243,0.02798c-4.0542,0.10532 -8.05338,0.72531 -12.09257,1.05075c-7.18544,0.57894 -14.3639,0.81429 -21.56194,0.86224c-0.27453,1.90964 -0.57179,3.81607 -0.81118,5.70906c-0.40886,3.23307 -0.63533,6.56066 -1.23683,9.76274c-0.6644,3.53689 -1.71454,7.05226 -2.63281,10.54873c1.55744,1.00062 3.11488,2.00124 4.67231,3.00186c0.27322,0.17554 4.1677,2.66517 4.29811,2.8027c1.55433,1.63916 2.69379,4.61655 3.82504,6.58451c2.69273,4.68435 5.30385,9.41638 8.19875,13.97745c0.25583,0.2021 0.38374,0.45793 0.38374,0.45793l-0.05429,0.05845c0.11086,0.17285 0.22216,0.34544 0.3339,0.51777z"/></g></g></svg>