<svg version="1.1" xmlns="http://www.w3.org/2000/svg" xmlns:xlink="http://www.w3.org/1999/xlink" width="94.75561" height="92.95398" viewBox="0,0,94.75561,92.95398"><g transform="translate(-306.77981,-117.72524)"><g data-paper-data="{&quot;isPaintingLayer&quot;:true}" fill="#9966ff" fill-rule="nonzero" stroke="none" stroke-linecap="butt" stroke-linejoin="miter" stroke-miterlimit="10" stroke-dasharray="" stroke-dashoffset="0" style="mix-blend-mode: normal"><path d="M401.53541,121.17539c0,0.5 -0.5,0.5 -0.5,0.5h-0.79614c-1.40161,0 -2.62765,0.17926 -3.83339,0.95108c-4.39024,3.20579 -6.49037,9.43441 -8.16117,14.46415c0,0 -0.02076,0.06223 -0.06977,0.13408c3.51751,0.47622 7.04812,1.15317 10.58811,1.19235c1.71152,1.0379 1.07186,3.18089 0.23091,4.74652c-2.34093,4.3582 -4.20964,9.56956 -5.63709,14.34441c-1.23424,4.12849 -2.3066,8.3339 -3.19331,12.53776c-0.3149,1.49294 0.03277,3.6968 -0.63739,5.06063c-0.66893,1.36132 -1.53981,1.06121 -2.76932,1.06121c-6.26686,0 -12.32445,-1.58684 -18.56025,-1.8698l-0.81813,0.15027c-0.03233,0.00657 -0.0658,0.01002 -0.10008,0.01002c-0.27614,0 -0.5,-0.22386 -0.5,-0.5c0,-0.08396 0.0207,-0.1631 0.05727,-0.23257l0.44263,-0.88543c0,-0.00001 0.00001,-0.00002 0.00001,-0.00003c1.85018,-3.70273 3.72942,-7.32862 5.42658,-11.05944l-1.08145,0.23961c-2.50766,1.23606 -4.6774,1.47215 -7.36508,2.10579c-3.34498,0.78861 -6.61618,2.1164 -10.02551,2.63644c-0.917,0.13987 -1.86685,0.2055 -2.83282,0.22661c-0.07791,0.19638 -0.15697,0.39345 -0.23709,0.59134c-1.62626,4.01653 -3.37184,7.85932 -5.84987,11.42795c4.30416,0.024 8.588,0.17923 12.87612,0.89575c1.57388,0.26298 3.18005,0.42986 4.69669,0.92589c0.90385,0.29561 2.11172,0.32832 2.61816,1.13321c0.22526,0.35801 0.17322,5.11758 0.17228,5.84985c-0.00522,4.05723 0.01954,8.1148 -0.039,12.17164l-0.97984,2.0345c0,0 -0.57206,1.14312 -1.71518,0.57106l-0.00002,0.00001c-1.14312,-0.57206 -0.57106,-1.71518 -0.57106,-1.71518l0.77803,-1.47819c-0.07405,-3.86122 -0.03457,-7.7253 -0.02949,-11.58716c0.00113,-0.85668 -0.05396,-1.71529 0.00342,-2.57005c0.04081,-0.60802 0.54449,-1.25117 0.29024,-1.80499c-0.16512,-0.35967 -0.78933,-0.06852 -1.17984,-0.13276c-1.49216,-0.24549 -2.96021,-0.62436 -4.4517,-0.87393c-4.72441,-0.79052 -9.44546,-0.87548 -14.19485,-0.86885c-0.36656,0.55715 -0.73101,1.11572 -1.0985,1.67218c0.00259,0.00129 0.00519,0.00258 0.00778,0.00387c0,0 1.14341,0.57149 0.57192,1.7149c-0.57149,1.14341 -1.7149,0.57192 -1.7149,0.57192c-0.30781,-0.15434 -0.61875,-0.3017 -0.93253,-0.44256c-0.49259,-0.10378 -0.99641,-0.41506 -1.48966,-0.53092l0.02792,-0.0725c-4.27011,-1.61858 -8.96651,-2.21747 -13.44026,-2.88728c-1.89571,-0.28382 -3.60593,0.02014 -5.49461,-0.01586c-0.66739,-0.01272 -1.39915,-0.44633 -1.99695,-0.14933c-0.49973,0.24828 -1.72672,3.7267 -1.77081,3.83967c-1.4909,3.8203 -2.63144,7.64435 -3.74876,11.59057c-0.90354,3.69474 -1.46249,7.69858 -3.3357,11.04449l1.2271,0.38629c0,0 1.1037,0.64485 0.45886,1.74855c-0.64485,1.1037 -1.74855,0.45886 -1.74855,0.45886l-2.32956,-1.69172c0.98415,-4.22183 2.22354,-8.38015 3.25583,-12.59846c1.14302,-4.03949 2.30234,-7.9645 3.84059,-11.87167c0.56523,-1.43569 1.47391,-4.34747 2.94938,-5.16314c1.2773,-0.70612 2.91576,-0.13945 4.37237,-0.2311c4.07301,-0.25628 8.13954,0.49682 12.11215,1.41291c2.26435,0.52216 4.43359,1.00974 6.55629,1.77112l0.01567,-0.04068c0,0 0.13449,0 0.31622,0.04362c0.00028,-0.02724 0.00468,-0.05271 0.01489,-0.0755c0.07202,-0.16084 0.14817,-0.3198 0.22782,-0.47707c-0.52622,0.0019 -1.05286,0.00326 -1.57998,0.00326c0,0 -1.27827,0 -1.27827,-1.27827c0,-1.27827 1.27827,-1.27827 1.27827,-1.27827c1.06029,0 2.11863,-0.00498 3.17538,-0.00862c0.80384,-1.13854 1.66281,-2.23964 2.41172,-3.4148c1.74043,-2.73101 2.99329,-5.64445 4.20939,-8.63792c-0.50552,-0.01864 -1.01116,-0.0417 -1.51463,-0.06512c0.15265,0.24563 0.22852,0.58224 0.08535,1.03214c-0.38764,1.21808 -1.60572,0.83044 -1.60572,0.83044c-9.67301,-3.07832 -19.31695,-6.20529 -28.92374,-9.48473l-1.7142,-0.58517c0,0 -1.20973,-0.41296 -0.79677,-1.62269c0.41296,-1.20973 1.62269,-0.79677 1.62269,-0.79677l1.7142,0.58517c8.21878,2.80562 16.46479,5.49937 24.73297,8.14663c0.27903,-0.78046 1.199,-0.78046 1.199,-0.78046c1.96848,0 4.09435,0.18287 6.18283,0.2285c0.86743,-2.36098 1.51039,-4.66449 1.68403,-7.2179c-0.57992,0.04083 -1.16319,0.06871 -1.73194,0.14708c-4.47773,0.61696 -8.44611,-0.73085 -12.67365,-2.1132c-0.50578,-0.16538 -4.93573,-1.59443 -5.22029,-1.77458c-0.53852,-0.34091 -0.7828,-1.00628 -1.15947,-1.52042c-0.25276,-0.34501 -3.06488,-4.29535 -3.13549,-4.51186c-0.30367,-0.9311 -0.07246,-1.95745 -0.09518,-2.93655c-0.05923,-2.55265 -0.09977,-5.11571 -0.09683,-7.66903c0.00115,-0.99764 -0.28928,-2.05046 0.03865,-2.99266c0.32793,-0.9422 1.20928,-1.58719 1.8278,-2.36995c0.23242,-0.29413 3.09511,-3.80169 3.29593,-4.04791c2.51302,-2.21512 5.12902,-5.25419 7.99271,-6.98544c1.26767,-0.76637 2.84179,-0.83772 4.26703,-1.24146c0.30396,-0.0861 4.98356,-1.41915 5.16071,-1.43747c2.15164,-0.22244 5.38845,0.39459 7.49911,0.79683c1.42111,0.27083 2.75812,0.87428 4.1362,1.31449c0.24411,0.07798 4.9409,1.57291 5.06181,1.63449c1.88777,0.96152 2.85618,3.01085 5.05174,2.88545c0,0 1.27827,0 1.27827,1.27827c0,1.27827 -1.27827,1.27827 -1.27827,1.27827c-0.63575,-0.02116 -1.31802,0.17618 -1.90724,-0.06349c-1.99269,-0.81055 -2.47941,-2.17068 -4.30481,-3.10043c-0.69817,-0.35561 -1.49695,-0.46344 -2.24412,-0.69932c-2.94675,-0.93026 -5.6655,-1.95279 -8.73793,-2.28227c-1.44786,-0.15526 -2.89263,-0.65118 -4.34037,-0.49477c-1.61365,0.17433 -3.11673,0.90733 -4.67832,1.34969c-1.24441,0.35251 -2.64475,0.34199 -3.7417,1.02722c-2.63609,1.64667 -5.02591,4.45865 -7.3728,6.51273c-0.24868,0.3071 -2.93559,3.6276 -3.15408,3.8876c-0.45516,0.54166 -1.16463,0.92961 -1.3972,1.59781c-0.23257,0.6682 0.08272,1.41281 0.10321,2.12002c0.07391,2.55102 0.09594,5.11692 0.09683,7.66903c0.00025,0.72545 -0.25556,1.48644 -0.03062,2.17613c0.22494,0.6897 0.88022,1.15354 1.30771,1.73965c0.50218,0.6885 0.99963,1.38068 1.48107,2.08383c0.20949,0.30597 0.27069,0.75567 0.59101,0.94247c1.35718,0.79148 3.00617,0.91536 4.49947,1.40365c5.64058,1.84439 11.81091,3.66738 17.20567,0.29301c4.29564,-2.60821 7.76925,-6.18554 11.05935,-9.94181c4.18114,-4.77357 7.74084,-9.67841 7.86139,-16.22785l-0.00023,-0.2506c0,0 0,-1.27827 1.27827,-1.27827c1.27827,0 1.27827,1.27827 1.27827,1.27827l-0.00023,0.29956c-0.14264,7.1876 -3.89843,12.61629 -8.49432,17.86337c-3.46713,3.9584 -7.13725,7.67804 -11.65177,10.44026c-0.78241,0.46695 -1.50725,1.04849 -2.34221,1.41083c-0.11329,2.72736 -0.69671,5.19449 -1.54369,7.68014c0.53086,-0.03619 1.0532,-0.09165 1.56345,-0.17221c3.30995,-0.52258 6.49328,-1.81996 9.74526,-2.58665c2.64163,-0.62279 4.63979,-0.80875 7.09656,-2.02674l2.02324,-0.46804c0,0 0.55206,-0.12522 1.00475,0.15837c0.60165,-1.41751 1.17126,-2.85533 1.69774,-4.32301c1.09789,-3.06057 2.18263,-6.50619 3.76805,-9.34937c1.37222,-2.46084 2.73394,-4.01108 3.42467,-6.84555c0,0 0.11854,-0.48575 0.60428,-0.36721c0.48575,0.11854 0.36721,0.60428 0.36721,0.60428c-0.71079,2.90877 -2.11575,4.57225 -3.52277,7.0955c-1.55837,2.79465 -2.62072,6.19082 -3.70017,9.2c-0.63537,1.77121 -1.3331,3.49962 -2.07398,5.20158c-0.01493,0.33078 -0.15453,0.56951 -0.32514,0.73918c-1.81012,4.07368 -3.85351,8.00819 -5.86336,12.03047l-0.00004,0.00003l0.00002,0.00001l-0.00064,0.00127l0.02785,0.15161c1.36115,-0.35706 3.93386,0.07833 5.10421,0.26746c4.54937,0.73521 8.84667,1.46007 13.45266,1.46007c2.92615,0 1.92862,-2.95952 2.42824,-5.32822c0.89236,-4.23071 1.97165,-8.46315 3.21368,-12.61781c1.31405,-4.39551 2.97829,-9.71534 5.22647,-13.67277c0.37756,-0.66462 2.1048,-3.75017 0.89325,-4.16209c-5.40684,0.06804 -10.79996,-1.6264 -16.14742,-1.62609l0.23661,-0.5l-0.23661,-0.5c0.15709,0.00001 0.3142,0.00135 0.47135,0.00395l0.00187,-0.00395c0,0 0.02333,0 0.05992,0.00504c1.46082,0.02723 2.92424,0.16232 4.38999,0.34447c-0.05382,-0.16889 0.0019,-0.33592 0.0019,-0.33592c1.79705,-5.36643 3.97841,-11.44183 8.54259,-14.97129c1.40562,-0.86611 2.76916,-1.1275 4.4006,-1.1275h0.79614c0,0 0.5,0 0.5,0.5z" stroke-width="0.5"/><text transform="translate(383.25992,145.52904) rotate(19.23368) scale(0.19182,0.19182)" font-size="40" xml:space="preserve" fill="#9966ff" fill-rule="nonzero" stroke="none" stroke-width="1" stroke-linecap="butt" stroke-linejoin="miter" stroke-miterlimit="10" stroke-dasharray="" stroke-dashoffset="0" font-family="Sans Serif" font-weight="normal" text-anchor="start" style="mix-blend-mode: normal"><tspan x="0" dy="0">催</tspan><tspan x="0" dy="46.150000000000006px">逝</tspan><tspan x="0" dy="46.150000000000006px">炸</tspan><tspan x="0" dy="46.150000000000006px">弹</tspan></text></g></g></svg>