<svg version="1.1" xmlns="http://www.w3.org/2000/svg" xmlns:xlink="http://www.w3.org/1999/xlink" width="482.37302" height="369.34598" viewBox="0,0,482.37302,369.34598"><g transform="translate(1.18651,4.67299)"><g data-paper-data="{&quot;isPaintingLayer&quot;:true}" fill-rule="nonzero" stroke="none" stroke-linecap="butt" stroke-linejoin="miter" stroke-miterlimit="10" stroke-dasharray="" stroke-dashoffset="0" style="mix-blend-mode: normal"><path d="M-1.18651,364.67299v-369.34598h482.37302v369.34598z" fill="#000000" stroke-width="0"/><path d="M256.5533,95.69011c-0.69612,1.32869 -2.02481,0.63257 -2.02481,0.63257l-0.90106,-0.47208c-2.6692,-1.39854 -5.30077,-2.85546 -7.93692,-4.31512c-5.84378,-3.24831 -10.91547,-8.01042 -16.14619,-12.16383c-8.63513,-6.85664 -17.22645,-13.72169 -25.62472,-20.86721c0,0 -1.14245,-0.97203 -0.17042,-2.11447c0.97203,-1.14244 2.11446,-0.17041 2.11446,-0.17041c8.37247,7.12356 16.93758,13.96707 25.54621,20.80267c5.09073,4.04225 10.03581,8.7469 15.73388,11.88873c2.61595,1.44848 5.2271,2.89462 7.87593,4.28227l0.90105,0.47208c0,0 1.32869,0.69612 0.63257,2.02481z" fill="#ffffff" stroke-width="0.5"/><path d="M281.29826,173.87184c-1.28285,-0.77737 -0.50548,-2.06022 -0.50548,-2.06022l0.5986,-0.97654c9.52434,-12.97609 19.04705,-25.71693 29.46513,-37.99061c8.41203,-9.91032 16.81345,-19.6848 24.45593,-30.20353c1.71158,-2.35573 3.31764,-5.14218 5.29016,-7.28109c0.43212,-0.46857 1.51705,-0.50821 1.53118,-1.14546c0.01113,-0.50201 -1.0036,-0.1314 -1.50384,-0.08779c-2.81405,0.24531 -5.69037,0.91324 -8.48722,1.33387c-20.7814,3.12546 -41.5819,5.9836 -62.41554,8.73836c-20.91605,2.76565 -41.7482,4.38895 -62.79352,5.84231c-16.99899,1.17393 -33.99798,2.34786 -50.99696,3.52179c-8.9666,15.31958 -20.96462,28.97987 -31.80986,43.02159c-6.12504,7.93031 -12.24786,15.86233 -18.37609,23.79017l-1.61817,1.77839c0,0 -1.01007,1.10894 -2.11902,0.09887c-1.10895,-1.01007 -0.09887,-2.11901 -0.09887,-2.11901l1.53808,-1.6868c6.09694,-7.90078 12.19954,-15.79719 18.2998,-23.69541c10.3834,-13.44376 21.85041,-26.53408 30.63658,-41.09089c-0.4122,-0.14411 -0.87134,-0.4861 -0.92696,-1.29148c-0.10334,-1.49644 1.3931,-1.59977 1.3931,-1.59977c17.95723,-1.2401 35.91446,-2.4802 53.87169,-3.72031c20.98331,-1.44908 41.75271,-3.06608 62.60696,-5.82356c20.81599,-2.75242 41.59883,-5.60808 62.36262,-8.73089c2.34285,-0.35236 7.05106,-1.89763 9.3126,-1.34316c1.49254,0.36593 3.5236,0.80826 4.01606,2.26396c0.44986,1.32978 -1.26223,2.51158 -1.99558,3.70861c-1.54539,2.5225 -3.5507,4.88701 -5.29015,7.28109c-7.68703,10.58003 -16.13496,20.41366 -24.59581,30.38151c-10.3725,12.21998 -19.85103,24.90486 -29.33384,37.82437l-0.45136,0.75615c0,0 -0.77737,1.28285 -2.06022,0.50548z" fill="#ffffff" stroke-width="0.5"/><path d="M271.26921,136.8827c0.33729,1.46159 -1.1243,1.79888 -1.1243,1.79888l-2.72195,0.62815c-16.56155,3.82196 -33.09822,7.73149 -49.62431,11.70396c-17.50148,4.20692 -35.00297,8.41383 -52.50444,12.62075c0,0 -1.45846,0.35057 -1.80903,-1.10788c-0.35057,-1.45845 1.10788,-1.80903 1.10788,-1.80903c17.50148,-4.20692 35.00297,-8.41384 52.50445,-12.62076c16.53493,-3.97458 33.08046,-7.88621 49.65088,-11.71022l2.72195,-0.62815c0,0 1.46159,-0.3373 1.79888,1.12429z" fill="#ffffff" stroke-width="0.5"/><path d="M340.67268,250.51859c1.49941,-0.04192 1.54134,1.45749 1.54134,1.45749c0.33539,11.99531 0.72531,25.94113 1.0607,37.93644c0.11062,3.97213 0.66232,7.94653 0.70891,11.91412c0.01585,1.34992 0.62089,2.92392 -0.1267,4.04804c-0.59255,0.89099 -2.0557,0.60586 -3.10564,0.81227c-2.96883,0.58364 -6.06514,0.77609 -9.07933,0.89881c-11.86375,0.48303 -23.08967,4.01936 -34.89742,4.81473c-12.5932,0.84827 -25.53231,2.06133 -38.16084,1.48781c-7.6218,-0.34614 -15.47239,-2.18359 -23.02962,-3.26162c-8.23959,-2.21396 -16.45709,-3.94788 -21.55538,-11.43714c-0.31187,-0.45813 -3.47888,-5.11713 -3.56078,-5.417c-0.67687,-2.47818 0.33718,-6.87863 0.4942,-9.46947c0.48401,-7.98615 0.97893,-15.97158 1.4754,-23.95695c1.06184,-17.07873 4.0603,-33.63829 7.33887,-50.37818c-1.02295,0.12322 -2.04614,0.23193 -3.06943,0.3227c-8.45255,0.74552 -16.9051,1.49104 -25.35766,2.23656c-0.11863,0.33107 -0.31204,0.55111 -0.31204,0.55111c-11.88346,13.51973 -23.76693,27.03948 -35.65039,40.55921c-6.55545,7.4581 -13.33926,14.63926 -20.21425,21.80325c-3.45238,3.59751 -6.74972,7.58703 -10.47015,10.90373c-4.45947,3.97554 -9.66037,7.35257 -14.41752,10.97045c-5.40685,4.11199 -10.53908,8.53819 -15.72886,12.91998c-3.25146,2.74524 -6.0847,5.51165 -10.00607,7.22457l-1.90588,0.82111c0,0 -1.37759,0.5935 -1.9711,-0.78409c-0.5935,-1.37759 0.78408,-1.97109 0.78408,-1.97109l1.90588,-0.82111c3.62634,-1.53731 6.25995,-4.23057 9.25773,-6.76164c5.22879,-4.41472 10.40064,-8.87268 15.84819,-13.01563c4.69448,-3.57022 9.83689,-6.89909 14.23721,-10.8219c3.66147,-3.26413 6.90398,-7.20076 10.30196,-10.74159c6.84479,-7.13253 13.59886,-14.28132 20.12549,-21.70663c11.35758,-12.92145 22.71516,-25.84289 34.07274,-38.76434c-11.08524,0.97772 -22.1705,1.95545 -33.25574,2.93318c-17.93039,1.58147 -35.86078,3.16295 -53.79117,4.74442c0,0 -1.4942,0.13179 -1.62599,-1.36241c-0.13179,-1.4942 1.36241,-1.62599 1.36241,-1.62599c17.93039,-1.58147 35.86079,-3.16295 53.79118,-4.74442c20.91879,-1.84505 41.83758,-3.6901 62.75637,-5.53514c1.31399,-0.1152 2.62799,-0.26099 3.94164,-0.42977c0.00432,-0.02193 0.00865,-0.04385 0.01297,-0.06578c0,0 0.2903,-1.47164 1.76194,-1.18133c0.64833,0.12789 0.9547,0.48506 1.09457,0.84467c5.31806,-0.80303 10.6256,-1.89263 15.89723,-2.76413c12.82592,-2.12035 25.65183,-4.24071 38.47775,-6.36107c14.80077,-2.44683 29.59983,-4.90318 44.40841,-7.30232l2.45781,-0.39819c0,0 1.4807,-0.23989 1.72059,1.2408c0.23989,1.48069 -1.24081,1.72058 -1.24081,1.72058l-2.45781,0.39819c-14.80539,2.39864 -29.60128,4.85446 -44.39887,7.30077c-12.82592,2.12035 -25.65183,4.24071 -38.47775,6.36106c-5.5472,0.91706 -11.13029,2.06454 -16.72511,2.88196c-3.32941,16.95046 -6.40949,33.69876 -7.48421,50.9846c-0.49638,7.98382 -0.9912,15.96769 -1.47512,23.95227c-0.13552,2.23609 -1.17977,6.35552 -0.59471,8.49755c0.48468,1.77452 2.13056,2.99991 3.15327,4.52893c4.54136,6.78965 12.27832,8.17537 19.67107,10.17671c7.41796,1.04393 15.12908,2.8774 22.60728,3.20596c12.50502,0.54942 25.30943,-0.64645 37.77939,-1.48641c8.81754,-0.59394 17.13387,-3.46994 25.86569,-4.44544c2.98731,-0.33373 6.10761,-0.25274 9.11202,-0.37362c2.95419,-0.11886 5.88128,-0.79067 8.81745,-0.87669c0.39893,-0.01168 1.02925,0.6359 1.16831,0.26182c0.23377,-0.62883 -0.44391,-1.27417 -0.54544,-1.93732c-0.15134,-0.98848 -0.13959,-1.99512 -0.20938,-2.99268c-0.21123,-3.01929 -0.42074,-6.02112 -0.50567,-9.04696c-0.33539,-11.99531 -0.67078,-23.99063 -1.00617,-35.98594l-0.05453,-1.9505c0,0 -0.04192,-1.49942 1.45749,-1.54134z" fill="#ffffff" stroke-width="0.5"/><text transform="translate(53.0896,29.42502) scale(0.5,0.5)" font-size="40" xml:space="preserve" fill="#ffffff" fill-rule="nonzero" stroke="none" stroke-width="1" stroke-linecap="butt" stroke-linejoin="miter" stroke-miterlimit="10" stroke-dasharray="" stroke-dashoffset="0" font-family="Sans Serif" font-weight="normal" text-anchor="start" style="mix-blend-mode: normal"><tspan x="0" dy="0">这是我的第一个大型作品，做的不好请见谅</tspan></text></g></g></svg>