<svg version="1.1" xmlns="http://www.w3.org/2000/svg" xmlns:xlink="http://www.w3.org/1999/xlink" width="291.27884" height="116.82144" viewBox="0,0,291.27884,116.82144"><g transform="translate(-15.31345,-209.04458)"><g data-paper-data="{&quot;isPaintingLayer&quot;:true}" fill="#000000" fill-rule="nonzero" stroke="none" stroke-width="0.5" stroke-linecap="butt" stroke-linejoin="miter" stroke-miterlimit="10" stroke-dasharray="" stroke-dashoffset="0" style="mix-blend-mode: normal"><path d=""/><path d="M283.7886,307.83889c-1.49701,1.08616 -2.59519,2.75874 -4.26091,3.55799c-1.06835,0.51261 -2.37957,-0.0168 -3.54547,0.18768c-5.06,0.88745 -10.85027,2.03573 -16.06792,1.42852c-1.34323,-0.15632 -2.56249,-0.85667 -3.84814,-1.29221c-2.27313,0.47452 -4.55579,0.8717 -6.85268,1.15533c-2.77533,0.34271 -5.55802,0.82621 -8.21775,1.69478c-2.33947,0.76399 -4.75904,1.91978 -7.28641,2.36221c-0.45909,1.51711 -2.19543,1.51711 -2.19543,1.51711h-0.95823c-0.75968,0 -1.51975,0.00174 -2.28017,0.00486l0.01555,0.35037c0,0 0.10281,2.31916 -2.20056,2.42268c-2.30337,0.10351 -2.40618,-2.21565 -2.40618,-2.21565l-0.02322,-0.52454c-10.18817,0.09668 -20.41904,0.31014 -30.57168,-0.22094c-5.97434,-0.31251 -12.54062,-0.37269 -18.43186,-1.38155c-2.23623,-0.38295 -4.42869,-1.23727 -6.69694,-1.21634c0,0 -2.30566,0 -2.30566,-2.32147c0,-2.32147 2.30566,-2.32147 2.30566,-2.32147c2.52769,0.01839 4.9845,0.85028 7.47545,1.28299c5.70832,0.99161 12.10076,1.01819 17.89261,1.32116c10.01703,0.52399 20.11182,0.31516 30.16492,0.21694c0.0263,-4.0327 0.73839,-7.93227 1.42939,-11.87736c0.48268,0.03486 0.96373,0.06773 1.44279,0.09865c0.06718,0.00434 0.13438,0.00826 0.20159,0.01179c-0.04127,-6.8315 0.00215,-13.66481 0.01195,-20.49583c-0.04199,-0.00141 -0.08398,-0.00283 -0.12598,-0.00425c0.02178,-0.4677 0.07882,-0.93755 0.12749,-1.40652c0.00004,-0.06452 0.00008,-0.12904 0.00012,-0.19355c-0.08117,-0.19907 -0.12413,-0.40005 -0.14121,-0.59363c-0.44326,-0.38146 -0.87719,-0.78103 -1.41363,-0.9791v0.00001c-1.44291,-0.53276 -3.04144,-0.47998 -4.52954,-0.8667c-4.58358,-1.19114 -9.10535,-3.08508 -13.75614,-4.13826c-0.2586,0.49598 -0.5149,0.99104 -0.76829,1.48118c-11.74948,0 -23.49893,0 -35.24841,0c0,0 -2.30566,0 -2.30566,-2.32147c0,-0.58442 0.14613,-1.02172 0.3648,-1.34893c-0.28332,-0.02545 -0.5945,-0.11204 -0.93353,-0.28284c-0.12316,-0.06204 -0.23528,-0.12779 -0.33724,-0.19657c0.05494,5.56657 0.3097,11.21492 -0.01384,16.7497c-0.66596,11.39309 -2.7512,22.72382 -2.75912,34.1672v1.89369c0,0 0,2.32147 -2.30566,2.32147c-2.30566,0 -2.30566,-2.32147 -2.30566,-2.32147v-1.90046c0.02492,-11.53438 2.09585,-22.94992 2.76709,-34.43321c0.35467,-6.06757 -0.00398,-12.27679 -0.00398,-18.35645c0,0 0,-2.32147 2.30566,-2.32147c0.94728,0 1.50536,0.39185 1.83416,0.85358c0.46059,-1.01897 0.7488,-2.18126 1.59075,-2.88318c0.97434,-0.81228 7.55857,-3.27502 8.96752,-4.03259c2.65499,-1.42753 5.04886,-3.30053 7.57629,-4.94613c4.70806,-3.06541 9.85028,-5.15364 14.62489,-8.05735c2.43731,-1.48226 4.58665,-3.44603 7.12635,-4.74238c4.01632,-2.05006 8.49547,-3.06905 12.50815,-5.17854c5.07197,-2.66635 9.81499,-5.97924 14.86372,-8.70666c6.56437,-3.54477 12.89622,-7.60569 19.48536,-11.06986c4.74694,-2.49566 9.62674,-4.44561 14.17747,-7.32438l2.09524,-1.11697c0,0 2.0407,-1.0805 3.11384,0.97419c1.07314,2.05469 -0.96756,3.13519 -0.96756,3.13519l-1.4529,0.76311c7.50769,7.42809 15.8781,13.82117 23.58994,21.01807c0.1191,0.11115 2.4925,2.4546 4.26871,4.23767l0.96589,-0.48771c0,0 2.06285,-1.03699 3.09278,1.04c1.02993,2.07699 -1.03292,3.11398 -1.03292,3.11398l-0.41899,0.20956c0.07704,0.17193 0.17437,0.33054 0.30657,0.46667c0.31577,0.32515 0.90265,0.03479 1.35398,0.05218l1.875,3.61845c0,0 0.06375,2.32058 -2.24103,2.38478c-0.63646,0.01773 -1.10201,-0.1464 -1.44254,-0.3933c0,15.13609 0,30.27218 0,45.40827c0.82896,0.35312 1.16948,1.006 1.30077,1.5826l1.59114,-0.23366c0,0 2.28212,-0.33089 2.61076,1.96687l-0.00002,0.00002c0.32864,2.29777 -1.95348,2.62866 -1.95348,2.62866l-3.3046,0.47237c-0.02021,0.00613 -0.04041,0.01225 -0.06062,0.01838l-0.18396,0.58982v0.32949c0,0 0,2.32147 -2.30566,2.32147c-1.60638,0 -2.09358,-1.12685 -2.24133,-1.81038c-4.50858,0.90976 -9.01628,2.41517 -12.72166,5.10363zM246.4604,307.61194c0.45052,-2.4585 2.89229,-2.00489 2.89229,-2.00489c2.30881,0.43114 4.68881,0.45832 6.97364,1.00381c0.20009,0.04777 0.39736,0.1066 0.59268,0.17299c0.93102,-0.21158 1.86085,-0.43531 2.7898,-0.66854c2.84576,0.59516 5.67978,1.26002 8.55176,1.68117c2.361,-0.32969 4.69958,-0.79561 6.90575,-1.14397c0.84953,-0.13414 1.80991,0.46585 2.57856,0.0777c1.311,-0.66204 2.05078,-2.12975 3.22832,-3.0101c3.53266,-2.6411 10.64943,-6.31525 15.47274,-5.83841c0,-16.59835 0,-33.88043 0,-50.34759c0,0 0,-1.38851 1.06654,-2.01784c-0.01761,-0.04136 -0.03529,-0.08269 -0.05308,-0.12395c-0.34293,0.19879 -0.68587,0.39758 -1.0288,0.59637c-14.32662,9.69663 -30.36106,15.6614 -46.05453,22.75685c-4.24131,1.91762 -8.22485,3.58011 -12.26603,5.90064c-1.56838,0.90059 -3.06699,1.42795 -4.35336,2.18767l-0.24599,1.28469l0.47871,2.5c-0.63259,-0.0008 -1.51248,0.01897 -2.44091,0.00853c0.01682,9.87429 0.18297,19.76654 -0.11507,29.63447l1.34569,1.74754c0,0 0.04871,0.07051 0.11508,0.19448c2.16748,-0.16727 4.25206,-1.2579 6.68003,-2.04937c0.05485,-0.01788 4.18289,-0.88105 6.88471,-1.43701c-0.06782,-0.31362 -0.07657,-0.67935 0.00148,-1.10524zM200.29934,267.63256c7.49544,0.0389 14.30561,3.17787 21.44964,5.06991c1.71556,0.45435 3.54145,0.48863 5.20864,1.09878c0.91642,0.33539 1.50243,1.29931 2.39893,1.68542c0.75433,0.32488 1.57837,0.34248 2.41671,0.28723c0.67976,-0.54729 1.32677,-1.141 1.96552,-1.73182c1.48532,-1.37385 2.79425,-2.91819 4.05091,-4.51262c3.50633,-1.86058 7.01588,-3.35496 10.69736,-5.01946c15.50773,-7.01147 31.34619,-12.89116 45.50526,-22.46215c0.19162,-0.11125 0.38322,-0.2225 0.57484,-0.33375c-1.09481,-1.05916 -2.26151,-2.05357 -3.37323,-3.09091v-0.00001c-8.0138,-7.47756 -16.72482,-14.10016 -24.46748,-21.89035c0,0 -0.05609,-0.05645 -0.13706,-0.15889c-3.51093,1.86506 -7.1284,3.44588 -10.68218,5.31207c-6.57418,3.45227 -12.89088,7.50913 -19.43929,11.04532c-5.06511,2.73406 -9.82042,6.06161 -14.91087,8.73177c-4.01994,2.10863 -8.49809,3.13778 -12.51637,5.18283c-2.47315,1.25868 -4.55181,3.19072 -6.9253,4.63084c-4.71858,2.86302 -9.7992,4.91672 -14.4448,7.94582c-0.2076,0.13536 -7.79764,5.08365 -7.90937,5.14373c-3.31372,1.78171 -7.299,1.70345 -8.81822,5.32688c0,0 -0.07416,0.14923 -0.22244,0.34765c0.00211,-0.00002 0.00318,-0.00002 0.00318,-0.00002c9.03132,0 18.06268,-0.0064 27.09402,-0.00766c-0.0009,-0.03308 -0.00136,-0.06661 -0.00136,-0.10061v-0.00001c0.00001,-2.49999 2.48298,-2.49999 2.48298,-2.49999z"/><path d="M211.07784,277.63616c3.8783,0.08977 7.58156,0.45047 11.3714,0.91393c-3.80471,-0.13352 -7.60556,-0.31263 -11.3714,-0.91393z"/><path d="M299.88768,315.5202c0.25947,0.05647 0.50522,0.11226 0.73885,0.16745c-0.45073,-0.08773 -0.89946,-0.18727 -1.34708,-0.29315c0.20344,0.03988 0.4062,0.08173 0.60822,0.12569z"/><path d="M139.4453,289.31449c-1.04852,0.91924 -2.02114,0.73265 -2.67414,0.3904c-7.85883,3.5472 -16.99767,5.10658 -25.30392,7.20237c-6.05702,1.43863 -12.31615,2.54809 -18.27808,4.33677c-4.76333,1.42908 -9.27764,3.8574 -14.08444,5.1307c-4.80723,1.27342 -9.9537,1.52747 -14.82626,2.52492c-4.82744,0.98821 -9.55196,2.59834 -14.40068,3.47316c-7.2741,1.31243 -14.80267,1.51323 -22.16415,1.51323c0,0 -2.48298,0 -2.48298,-2.5c0,-2.5 2.48298,-2.5 2.48298,-2.5c0.60464,0 1.21049,-0.00127 1.81728,-0.00439c-1.08246,-1.44393 -2.2703,-2.82405 -3.08012,-4.43302c-0.73921,-1.46869 -0.84221,-3.1846 -1.36938,-4.74321c-1.41408,-4.18079 -3.16147,-9.39665 -5.40535,-13.1967c-1.42652,-2.41583 -3.32549,-4.61633 -4.2369,-7.27285c0,0 -0.78542,-2.37163 1.57008,-3.16243c2.35548,-0.7908 3.1409,1.58084 3.1409,1.58084c0.73931,2.34381 2.55991,4.18925 3.79966,6.30807c0.89566,1.53074 1.39734,3.26286 2.09121,4.89637c2.33383,5.49429 3.74989,11.54979 6.79911,16.62247l3.27225,0.45866c0,0 2.28778,0.45678 1.98906,2.71741c3.67303,-0.19852 7.33648,-0.56098 10.93394,-1.21196c4.79675,-0.868 9.47395,-2.46684 14.25085,-3.4448c4.7775,-0.97809 9.84258,-1.21289 14.55504,-2.46121c4.74929,-1.25807 9.22087,-3.67428 13.92984,-5.08705c6.04326,-1.81308 12.38303,-2.9453 18.52252,-4.40332c6.73205,-1.69877 14.19009,-2.97085 20.87487,-5.42212c-3.49863,-7.07468 -6.72185,-14.53315 -8.79422,-22.17996c-0.79201,-2.92244 -0.2728,-6.18369 -1.45616,-8.96882c-0.54818,-1.29019 -2.81243,-0.38261 -4.17975,-0.11073c-4.63974,0.92258 -9.24891,2.1349 -13.85571,3.20989c-3.1693,0.62444 -6.41266,0.94007 -9.51113,1.85657c-2.67363,0.79083 -4.99127,2.52887 -7.61662,3.46949c-4.03288,1.44492 -8.59312,1.52045 -12.70772,2.70374c-3.15202,0.90647 -6.12987,2.34691 -9.24024,3.38909c-12.93866,4.33532 -26.21785,7.39214 -39.60559,9.90757c0,0 -2.44085,0.45861 -2.89633,-1.99897c-0.45549,-2.45758 1.98536,-2.91619 1.98536,-2.91619c13.17122,-2.47474 26.23653,-5.47536 38.96571,-9.74234c0.46066,-0.15442 9.10181,-3.35331 9.42724,-3.4469c4.03843,-1.16139 8.57935,-1.21669 12.52779,-2.64826c2.63298,-0.95463 4.96807,-2.67832 7.65072,-3.48058c0.22406,-0.06701 9.56022,-1.89958 9.98322,-1.98286c4.63893,-1.08322 9.36584,-2.4865 14.06701,-3.25054c1.481,-0.24069 3.01827,-0.73852 4.48217,-0.40844c6.88945,1.55341 5.32601,7.77087 6.77083,13.10207c2.0145,7.4333 5.17728,14.67629 8.58548,21.54346c0.01205,-0.00598 0.02408,-0.01197 0.03613,-0.01796l0.07891,-0.50248c0,0 0.37455,0.17119 0.74955,0.52771l3.07226,1.10603c0,0 1.63052,1.88542 -0.24206,3.52712z"/></g></g></svg>