<svg version="1.1" xmlns="http://www.w3.org/2000/svg" xmlns:xlink="http://www.w3.org/1999/xlink" width="139.37743" height="113.39235" viewBox="0,0,139.37743,113.39235"><g transform="translate(-283.72933,-92.58606)"><g data-paper-data="{&quot;isPaintingLayer&quot;:true}" fill="#9966ff" fill-rule="nonzero" stroke="none" stroke-linecap="butt" stroke-linejoin="miter" stroke-miterlimit="10" stroke-dasharray="" stroke-dashoffset="0" style="mix-blend-mode: normal"><path d="M385.97011,103.47398c-2.72394,-0.16282 -4.6634,-1.76484 -3.90819,-5.68954c0.51776,-2.69075 2.15355,-3.99163 4.09177,-4.30645c3.63053,-2.23445 12.60496,-0.03578 13.60631,3.98687c0.4458,1.79086 -0.15558,3.03643 -1.24309,3.88465c2.45254,1.39831 4.56745,3.12024 5.73123,6.19342c1.89069,4.99269 0.95485,16.00171 -4.92425,18.26766c-4.27779,1.64877 -9.96596,-0.88999 -13.33689,-3.25878c0,0 -0.20692,-0.14813 -0.44146,-0.41588c-0.64433,3.0812 -1.39334,6.05935 -2.04526,9.15015c-0.36812,1.74527 -0.00457,3.85193 -1.13894,5.22841c-0.93253,1.13156 -2.77123,0.99793 -4.21288,1.26565c-2.55518,0.4745 -5.58707,0.65211 -8.20746,0.66737c-5.14222,0 -10.29772,0.03021 -15.45344,0.0884c-2.05868,4.44718 -3.51547,9.05599 -5.46489,13.53078c-0.37515,0.86114 -4.0037,7.63996 -4.38004,8.74228c-0.83166,2.43591 -1.18198,5.03953 -2.21279,7.39808c0,0 -0.06405,0.14479 -0.19635,0.34537c3.15685,-0.15704 6.31148,-0.34611 9.4626,-0.58014c6.73713,-0.50036 13.23009,-1.4465 19.96708,-1.61076c-0.3343,-4.38669 0.69945,-8.82532 3.70842,-12.65595c1.00767,-1.28284 2.6807,-1.85989 4.03646,-2.76708c2.77034,-1.85373 5.58111,-3.64632 8.37167,-5.46947c0.90571,-0.59173 8.57904,-5.66124 9.21463,-5.82093c1.58161,-0.39738 3.26431,0.24359 4.85501,0.60287c8.24729,1.86275 12.73024,6.58085 16.89477,12.73962c0.3678,-0.42449 0.94785,-0.75921 1.86262,-0.75921c2.5,0 2.5,2.5 2.5,2.5v2.62099c-0.00771,4.90439 -0.80635,9.56101 -2.68649,14.1496c-1.73636,4.23769 -2.55743,4.11326 -6.01053,7.39086c-2.91399,2.76589 -5.92605,5.06001 -9.76953,6.42777c-9.81151,3.49157 -20.94283,-0.62595 -28.58686,-6.77729c-1.46896,-2.19343 -2.65895,-4.64123 -3.43755,-7.19946c-6.94868,0.09284 -13.60341,1.09589 -20.5306,1.61328c-3.15115,0.23536 -6.30593,0.42561 -9.46298,0.58366c1.39812,2.95696 2.77718,5.98083 4.54849,8.6819c4.71745,7.19363 11.25717,13.38997 17.49337,19.24898l-0.09638,-0.10552c0,0 2.07925,1.38806 0.69119,3.46731c-1.38806,2.07925 -3.46731,0.69119 -3.46731,0.69119l-0.55152,-0.40935c-6.52375,-6.13192 -13.32203,-12.62237 -18.25161,-20.15242c-2.27712,-3.47834 -3.95509,-7.44196 -5.7954,-11.1797c-9.80419,0.38904 -19.62284,0.53901 -29.41559,0.83516l-2.1034,0.30572c0,0 -0.4839,0.06699 -1.0535,-0.07216c-6.44677,4.37216 -10.5386,10.67767 -16.03287,16.22501l-0.53768,0.53737c0,0 -1.76832,1.76722 -3.53553,-0.0011c-1.76722,-1.76832 0.0011,-3.53553 0.0011,-3.53553l0.52581,-0.52546c5.50163,-5.51381 9.65106,-11.59468 15.82382,-16.14666c-0.00039,-0.0948 0.00422,-0.1501 0.00422,-0.1501c0.72249,-8.52968 3.10469,-16.69969 5.68743,-24.84263l0.98575,-3.10715c0,0 0.75599,-2.38295 3.13895,-1.62696l-0.00005,-0.00002c2.38295,0.75599 1.62696,3.13895 1.62696,3.13895l-0.98575,3.10715c-2.19976,6.93216 -4.29554,13.90418 -5.19692,21.10918c0.34019,0.10391 0.68356,0.30442 0.9954,0.65381l0.50509,-0.06714c10.15,-0.30695 20.32688,-0.45703 30.48684,-0.88039c-0.8991,-1.1019 -0.25584,-2.55598 -0.25584,-2.55598c0.98965,-2.20534 1.25131,-4.67399 2.04248,-6.95806c0.91456,-2.64028 3.40748,-6.56145 4.53933,-9.15718c1.64837,-3.7803 2.95184,-7.66218 4.5532,-11.46055c-3.05614,0.04614 -6.11073,0.10184 -9.16104,0.16665c-3.83658,0.08151 -9.28511,1.3873 -12.0048,-2.54386c-0.85686,-1.23855 -0.19094,-5.74855 0.00875,-7.24126c0.7879,-5.88943 2.91413,-11.37289 3.59077,-17.29141c0,0 0.28556,-2.48364 2.7692,-2.19808c0.60633,0.06971 1.04762,0.27043 1.36831,0.53403c0.81943,-0.75524 1.84317,-0.5911 2.37875,-0.4271c11.03894,2.35172 22.63091,1.6405 33.86135,1.48005c3.76189,-0.05375 11.40058,-1.77542 14.09409,2.13002c1.08373,1.57135 1.02657,3.24999 0.6735,4.89739c1.18465,-0.44596 2.3263,0.37132 2.3263,0.37132c2.15611,1.5811 5.81199,3.3935 8.65176,2.64994c1.03004,-0.2697 1.63804,-2.67605 1.74967,-3.17615c0.56501,-2.53109 1.23737,-6.0848 0.28512,-8.61541c-1.05348,-2.79963 -3.69306,-3.94572 -6.22481,-5.09217c-0.31153,0.04299 -0.62927,0.06259 -0.94924,0.06106c-2.05299,1.32499 -4.86244,1.23835 -6.43985,-0.83948zM336.1148,114.23504c-0.86533,5.20939 -2.62687,10.15216 -3.32135,15.39971c-0.12317,0.9307 -0.17175,1.87161 -0.32892,2.79717c-0.07099,0.41804 -0.56087,0.85205 -0.35356,1.22194c0.20528,0.36627 0.79937,0.28994 1.21812,0.32063c1.1076,0.08118 5.69637,-0.1835 6.39343,-0.19822c10.05891,-0.21235 20.16384,-0.32878 30.21847,-0.32878c1.70116,0.01242 3.37433,-0.43653 5.0633,-0.64025c0.88788,-0.10709 1.79113,-0.07279 2.68293,-0.0058c0.35659,0.02679 0.90756,0.61944 1.03422,0.28503c0.30785,-0.8128 -0.23442,-1.73711 -0.15637,-2.60275c0.28677,-3.18083 1.49883,-6.59362 2.15856,-9.71937c0.33046,-1.56571 1.83434,-3.26694 1.07916,-4.67774c-0.1534,-0.28659 -0.63588,-0.15893 -0.96085,-0.16654c-1.41741,-0.03318 -7.95058,0.15237 -8.967,0.16686c-11.67928,0.16656 -23.65928,0.83122 -35.13675,-1.62405zM417.49816,160.30907c-3.20016,-5.14778 -6.22521,-11.59881 -12.33653,-13.73291c-2.33028,-0.81374 -4.75558,-2.75285 -7.11847,-2.03931c-2.90497,0.87723 -4.9883,3.45828 -7.52872,5.11801c-2.79056,1.82316 -5.55783,3.68245 -8.37167,5.46947c-0.96671,0.61394 -2.22162,0.89057 -2.93418,1.78706c-0.84202,1.05936 -1.08801,2.48437 -1.48836,3.77702c-1.77726,5.73844 -1.21176,9.5905 2.01016,14.46679c6.15264,4.75145 15.45692,8.3129 23.25847,5.44593c4.23625,-1.55677 8.4967,-5.00903 11.41353,-8.43902c2.37912,-2.79768 3.28819,-7.27397 3.58244,-11.28956c-0.31646,-0.28976 -0.48667,-0.56348 -0.48667,-0.56348z" stroke-width="0.5"/><text transform="translate(370.23519,118.76626) rotate(91.74034) scale(0.23347,0.23347)" font-size="40" xml:space="preserve" fill="#9966ff" fill-rule="nonzero" stroke="none" stroke-width="1" stroke-linecap="butt" stroke-linejoin="miter" stroke-miterlimit="10" stroke-dasharray="" stroke-dashoffset="0" font-family="Sans Serif" font-weight="normal" text-anchor="start" style="mix-blend-mode: normal"><tspan x="0" dy="0">催</tspan><tspan x="0" dy="46.150000000000006px">逝</tspan><tspan x="0" dy="46.150000000000006px">炸</tspan><tspan x="0" dy="46.150000000000006px">弹</tspan></text></g></g></svg>