<svg version="1.1" xmlns="http://www.w3.org/2000/svg" xmlns:xlink="http://www.w3.org/1999/xlink" width="109.02063" height="99.05508" viewBox="0,0,109.02063,99.05508"><g transform="translate(-87.62268,-77.83954)"><g data-paper-data="{&quot;isPaintingLayer&quot;:true}" fill="#000000" fill-rule="nonzero" stroke="none" stroke-width="0.5" stroke-linecap="butt" stroke-linejoin="miter" stroke-miterlimit="10" stroke-dasharray="" stroke-dashoffset="0" style="mix-blend-mode: normal"><path d="M177.13714,104.60377c-0.00866,0.99188 -1.00054,0.9832 -1.00054,0.9832l-1.18322,-0.01034c-3.65538,-0.03194 -7.22602,0.21506 -10.8715,0.4905c-1.92311,0.1453 -3.94675,0.14166 -5.85171,0.43863c-1.83256,0.28568 -3.69195,0.92141 -5.49181,1.36885c-3.85046,0.9572 -7.7009,1.9144 -11.55136,2.8716c0,0 -0.15853,0.03941 -0.36293,0.0219c0.36978,2.80337 0.56569,5.65373 0.98322,8.42788c0.66432,4.41384 1.47781,8.77585 2.50507,13.11044c0.15307,-0.0134 0.3062,-0.02554 0.45943,-0.03634l0.30574,-0.02113c0,0 0.98955,-0.06841 1.05796,0.92113c0.06841,0.98955 -0.92113,1.05796 -0.92113,1.05796l-0.30574,0.02113c-0.0801,0.00541 -0.16019,0.01123 -0.24027,0.01741c-0.05811,0.27329 -0.23732,0.58015 -0.72497,0.70138c-0.6536,0.16248 -0.97373,-0.22914 -1.11192,-0.49732c-3.17534,0.45195 -6.3255,1.37224 -9.43893,2.07259c-4.51927,0.9288 -9.09038,1.72575 -13.57936,2.79001c-6.95789,1.64959 -13.7993,3.83888 -20.7429,5.56502c0,0 -0.96261,0.2393 -1.20191,-0.72331c-0.2393,-0.96261 0.72331,-1.20191 0.72331,-1.20191c0.19162,-0.04764 0.38316,-0.09562 0.57462,-0.14394c-2.62257,-10.54949 -5.24588,-21.09881 -7.86751,-31.64853c-1.26683,-5.86836 -2.52021,-11.67164 -3.33545,-17.62109c-0.29157,-2.12782 -0.55584,-3.53889 -0.07662,-5.66871c0.1835,-0.81551 0.05737,-1.81388 0.6234,-2.42896c0.24008,-0.26089 3.74284,-1.21123 4.27785,-1.36254c3.70861,-1.04884 7.44158,-1.60654 11.24501,-2.21882c7.72701,-1.24391 15.69349,-0.76823 23.38715,-2.26432c1.89851,-0.36918 3.80234,-1.04258 5.66844,-1.55285l0.72541,-0.19299c0,0 0.95858,-0.25498 1.21356,0.7036c0.25498,0.95858 -0.7036,1.21356 -0.7036,1.21356l-0.71213,0.1894c-1.91395,0.52334 -3.86599,1.208 -5.81301,1.58661c-7.71729,1.5007 -15.70199,1.02821 -23.45053,2.27558c-3.72771,0.60009 -7.38632,1.1414 -11.02044,2.16917c-0.63632,0.17996 -1.26555,0.38717 -1.90895,0.53987c-0.47728,0.11327 -1.11682,-0.10388 -1.449,0.25708c-0.33217,0.36096 -0.06178,0.98043 -0.13604,1.46532c-0.30577,1.99657 -0.18313,2.99049 0.09493,5.01968c0.80699,5.88917 2.0491,11.63256 3.30243,17.44181c2.61958,10.5336 5.23744,21.06762 7.85606,31.60146c6.09662,-1.60518 12.13422,-3.47549 18.26219,-4.92905c4.5043,-1.06843 9.09086,-1.86877 13.62568,-2.80056c3.09251,-0.69578 6.20816,-1.58278 9.35529,-2.05828c-1.01566,-4.31627 -1.82356,-8.66036 -2.48488,-13.05429c-0.5836,-3.87753 -0.72476,-7.90998 -1.53551,-11.74456c-0.53542,-2.53233 -1.49166,-5.05283 -2.2234,-7.53677c-1.10348,-3.74585 -2.0431,-7.52064 -2.98511,-11.30998l-0.38967,-1.56751c0,0 -0.2393,-0.96261 0.72331,-1.20191c0.96261,-0.2393 1.20191,0.72331 1.20191,0.72331l0.38967,1.56751c0.93518,3.76187 1.86737,7.50934 2.96285,11.22798c0.74642,2.53378 1.71515,5.10367 2.26134,7.68698c0.10825,0.51198 0.20477,1.02735 0.29214,1.54534c0.09637,-0.04354 0.1653,-0.06067 0.1653,-0.06067c3.85046,-0.9572 7.7009,-1.9144 11.55136,-2.8716c1.85424,-0.46095 3.76754,-1.10717 5.65526,-1.40225c1.95953,-0.30631 4.03889,-0.30868 6.01739,-0.45818c3.70073,-0.27963 7.32709,-0.5285 11.0383,-0.49607l1.18322,0.01034c0,0 0.99188,0.00866 0.9832,1.00054z"/><path d="M195.91789,91.42405c0.9561,0.26414 0.69196,1.22023 0.69196,1.22023l-0.14929,0.51733c-2.10194,5.24917 -4.64543,10.26627 -7.2973,15.25589c-6.50953,12.24803 -13.51757,24.26681 -19.7749,36.64208c-5.2976,10.47719 -10.62015,20.92671 -16.13926,31.28907c0,0 -0.46629,0.87548 -1.34177,0.40919c-0.87548,-0.46629 -0.40919,-1.34177 -0.40919,-1.34177c5.5125,-10.34996 10.82857,-20.78699 16.11984,-31.25165c6.26344,-12.38736 13.27762,-24.41799 19.7935,-36.67796c2.61841,-4.92668 5.13199,-9.87936 7.20741,-15.06232l0.07876,-0.30814c0,0 0.26414,-0.9561 1.22023,-0.69196z"/></g></g></svg>