<svg version="1.1" xmlns="http://www.w3.org/2000/svg" xmlns:xlink="http://www.w3.org/1999/xlink" width="95.90527" height="94.26627" viewBox="0,0,95.90527,94.26627"><g transform="translate(-88.53853,-64.85799)"><g data-paper-data="{&quot;isPaintingLayer&quot;:true}" fill="#000000" fill-rule="nonzero" stroke="none" stroke-width="0.5" stroke-linecap="butt" stroke-linejoin="miter" stroke-miterlimit="10" stroke-dasharray="" stroke-dashoffset="0" style="mix-blend-mode: normal"><path d="M121.48937,151.33198c-0.96049,-0.2477 -0.71278,-1.20819 -0.71278,-1.20819l0.29549,-1.14578c0.91286,-3.5397 1.53458,-7.06447 2.14675,-10.66872c0.32294,-1.90136 0.81468,-3.86435 0.98606,-5.78469c0.16487,-1.84735 -0.00351,-3.80519 -0.00351,-5.65983c0,-3.96765 0,-7.93529 0,-11.90294c0,0 0,-0.16336 0.0663,-0.35749c-2.80978,-0.31746 -5.62321,-0.81499 -8.41615,-1.07906c-4.44373,-0.42015 -8.87316,-0.68303 -13.32754,-0.73183c-0.02392,0.15178 -0.04909,0.30332 -0.07557,0.45463l-0.05325,0.30181c0,0 -0.17234,0.97683 -1.14916,0.80449c-0.97683,-0.17234 -0.80449,-1.14916 -0.80449,-1.14916l0.05325,-0.30181c0.01407,-0.07904 0.02775,-0.15817 0.04107,-0.23737c-0.2512,-0.12233 -0.50576,-0.37027 -0.50576,-0.87276c0,-0.67349 0.45729,-0.88969 0.75088,-0.9591c0.32745,-3.19058 0.19433,-6.46972 0.26578,-9.66014c0.18891,-4.60986 0.51829,-9.23821 0.56844,-13.85136c0.07773,-7.15034 -0.39639,-14.31784 -0.39639,-21.47278c0,0 0,-0.99191 0.99191,-0.99191c0.99191,0 0.99191,0.99191 0.99191,0.99191c0,0.19745 0.00036,0.39491 0.00106,0.59237c10.87059,-0.00003 21.74118,-0.00082 32.61177,0.00012c6.00065,0.18634 11.93489,0.37003 17.90529,1.01418c2.13531,0.23038 3.56846,0.31434 5.51976,1.29323c0.74715,0.37482 1.74646,0.49328 2.20682,1.19098c0.19526,0.29593 0.27249,3.9245 0.29026,4.48021c0.12315,3.8521 -0.2362,7.60936 -0.55959,11.44816c-0.65698,7.79887 -3.04054,15.41528 -3.44474,23.24263c-0.09974,1.9315 0.09447,3.94155 0.13946,5.87564l0.01228,0.75054c0,0 0.01619,0.99178 -0.97559,1.00797c-0.99178,0.01619 -1.00797,-0.97559 -1.00797,-0.97559l-0.012,-0.73679c-0.04614,-1.98367 -0.23964,-4.04323 -0.13735,-6.02408c0.40543,-7.85139 2.79028,-15.48625 3.4491,-23.30685c0.31695,-3.76238 0.67427,-7.44351 0.5536,-11.21824c-0.02113,-0.66094 -0.07042,-1.32157 -0.06339,-1.98281c0.00522,-0.49051 0.37025,-1.05877 0.10009,-1.46822c-0.27016,-0.40944 -0.93657,-0.29649 -1.38922,-0.48553c-1.86383,-0.77841 -2.85798,-0.89918 -4.89431,-1.11888c-5.90991,-0.63762 -11.78331,-0.81779 -17.72334,-1.00297c-10.85444,0.00096 -21.70888,0.00015 -32.56332,0.00012c0.08695,6.30379 0.44544,12.61427 0.37768,18.91191c-0.0498,4.62901 -0.37961,9.27318 -0.56937,13.89885c-0.07084,3.16902 0.0383,6.40663 -0.25949,9.57552c4.43381,0.05565 8.84449,0.31963 13.26818,0.73788c3.90379,0.3691 7.85119,1.20494 11.7681,1.34323c2.5867,0.09132 5.26345,-0.2286 7.85055,-0.33947c3.90142,-0.1672 7.7914,-0.16839 11.69607,-0.16839h1.61522c0,0 0.99191,0 0.99191,0.99191c0,0.99191 -0.99191,0.99191 -0.99191,0.99191h-1.61522c-3.87637,0 -7.73804,0.00058 -11.61113,0.16657c-2.63901,0.1131 -5.3667,0.43322 -8.00548,0.34005c-0.52297,-0.01846 -1.04641,-0.04913 -1.57017,-0.0893c0.019,0.10403 0.019,0.17505 0.019,0.17505c0,3.96765 0,7.93529 0,11.90294c0,1.91068 0.16554,3.92336 -0.00351,5.82651c-0.17548,1.97555 -0.67482,3.99406 -1.00706,5.95019c-0.62144,3.65888 -1.25478,7.23817 -2.18159,10.83194l-0.29549,1.14578c0,0 -0.2477,0.96049 -1.20819,0.71278z"/><path d="M184.3996,152.72591c0.25827,0.9577 -0.69942,1.21597 -0.69942,1.21597l-0.52143,0.13426c-5.58911,0.85661 -11.20268,1.215 -16.84765,1.46609c-13.85671,0.61635 -27.76925,0.68685 -41.60741,1.58507c-11.71571,0.76045 -23.42026,1.48536 -35.14961,1.99668c0,0 -0.99097,0.0432 -1.03417,-0.94777c-0.0432,-0.99097 0.94777,-1.03417 0.94777,-1.03417c11.71531,-0.51071 23.40581,-1.23486 35.10751,-1.9944c13.85168,-0.8991 27.77754,-0.97033 41.64776,-1.58728c5.57376,-0.24792 11.11665,-0.59935 16.63526,-1.44516l0.30542,-0.08873c0,0 0.9577,-0.25827 1.21597,0.69942z"/><path d="M108.67663,84.58689c0.83996,-0.42013 1.26009,0.41984 1.26009,0.41984l0.1427,0.29641c0.19184,0.38388 0.34336,0.79071 0.57551,1.15163c0.0971,0.15096 0.28234,-0.25101 0.33292,-0.42323c0.06739,-0.22941 0.09945,-0.47001 0.10954,-0.70891c0.0252,-0.5969 -0.00324,-1.19486 -0.00395,-1.79229c-0.00089,-0.74749 -0.15776,-1.80908 -0.18981,-2.82856c-0.05592,0.05341 -0.11317,0.10125 -0.17175,0.14257c-1.75266,1.23607 -3.99499,0.86979 -4.72672,-1.28718c-0.17244,-0.50831 -0.01734,-1.07352 -0.04074,-1.60978c-0.05583,-1.27944 -0.49883,-2.45938 0.99599,-3.35787c0.77124,-0.46356 2.0538,0.03921 2.85671,0.22382c0.98306,0.22603 1.97485,0.52942 2.83699,1.05308c0,0 0.79722,0.49647 0.30075,1.29369c-0.08204,0.13173 -0.17228,0.22814 -0.26579,0.2973l0.18111,0.62416l-0.0152,0.00441c0.01482,0.0386 0.02879,0.07759 0.04187,0.11701c0.21008,0.63355 0.03013,1.3346 0.04323,2.00194c0.03388,1.72584 0.16854,3.56933 0.02775,5.2898c-0.11356,1.38786 -1.22486,3.6929 -3.15689,2.63809c-0.65744,-0.35894 -0.87749,-1.2142 -1.31624,-1.8213l-0.23791,-0.46455c0,0 -0.42013,-0.83996 0.41984,-1.26009zM108.52362,76.4072c-0.21971,-0.05841 -0.44824,-0.25237 -0.66034,-0.17055c-0.50661,0.19542 -0.04624,1.08637 -0.02231,1.62884c0.03997,0.90589 0.20127,2.77337 1.72715,1.50444c0.25166,-0.20928 0.35926,-0.54847 0.51096,-0.83849c0.14201,-0.2715 0.24696,-0.56079 0.36935,-0.84171l0.19322,-0.72725c-0.67157,-0.24158 -1.35992,-0.35375 -2.11803,-0.55529z"/><path d="M123.21419,81.80378c0.11243,0.93242 -0.81999,1.04485 -0.81999,1.04485l-1.03691,-0.03713c-0.89085,-0.48014 -1.72532,-0.98622 -2.07254,-1.75461c-0.02907,0.04851 -0.06089,0.09535 -0.0962,0.14009c-1.21511,1.53904 -3.19301,1.57512 -4.02202,-0.42511c-0.25354,-0.61175 -0.39475,-2.32193 -0.31953,-3.1205c0.06707,-0.71208 -0.17038,-1.59758 0.3156,-2.12235c0.63339,-0.68394 2.48823,0.04143 3.14461,0.2348c0,0 0.89983,0.26899 0.63084,1.16882c-0.26899,0.89983 -1.16882,0.63084 -1.16882,0.63084c-0.38197,-0.11613 -0.7874,-0.17271 -1.1459,-0.34839c-0.10719,-0.05253 -0.21422,-0.42141 -0.18754,-0.30506c0.05989,0.26116 0.24739,0.48526 0.28954,0.74986c0.12507,0.78509 -0.02214,1.60759 0.17057,2.37887c0.15233,0.60964 0.51757,0.54701 0.73969,0.10157c0.10484,-0.21025 0.17671,-0.43534 0.26392,-0.65353l0.32322,-1.07049c0.10986,-0.39671 0.47352,-0.68795 0.9052,-0.68795c0.37993,0 0.70717,0.2256 0.85507,0.55015l0.64045,1.32895l-0.09619,0.04635c0.50387,0.62262 1.0551,1.18628 1.68777,1.48663l-0.04568,-0.15664c0,0 0.93242,-0.11243 1.04485,0.81999z"/><path d="M132.57794,77.99443c0,0.93917 -0.93917,0.93917 -0.93917,0.93917l-0.31098,-0.00196c-0.46586,-0.0504 -0.97678,0.05495 -1.39757,-0.15119c-0.91956,-0.45049 -1.44271,-1.48656 -1.8413,-2.34884c-0.15949,-0.34502 -0.2783,-0.70768 -0.4021,-1.06705c-0.07866,-0.22832 -0.17023,-0.45511 -0.22317,-0.69032c-0.11977,0.25221 -0.367,0.48837 -0.49083,0.74014c-0.38095,0.77455 -0.33347,1.70423 -0.65094,2.50655v0.87594c0,0.51869 -0.42048,0.93917 -0.93917,0.93917c-0.51869,0 -0.93917,-0.42048 -0.93917,-0.93917v-1.06337c-0.00012,-0.03328 -0.00019,-0.06665 -0.00022,-0.10011c-0.01946,-0.13632 -0.01794,-0.29357 0.00095,-0.46552c0.00241,-1.12424 -0.01602,-2.31108 -0.52641,-3.31403c-0.18086,-0.3554 -0.53306,-1.08736 -1.05064,-1.17034c-0.48485,-0.07773 -0.49959,0.84795 -0.69951,1.29646c-0.22483,0.50439 -0.47684,0.99737 -0.75058,1.47848l0.07265,0.01287l-0.18424,1.04028c-0.07095,0.4484 -0.45923,0.79123 -0.92759,0.79123c-0.51869,0 -0.93917,-0.42048 -0.93917,-0.93917c0,-0.04429 0.00307,-0.08787 0.009,-0.13052l0.11794,-0.94855c-0.00115,-0.76421 -0.00177,-1.52842 -0.00177,-2.29264c0,0 0,-0.93917 0.93917,-0.93917c0.18495,0 0.33347,0.03642 0.45275,0.09492c0.37425,-0.69439 0.89682,-1.33075 1.79877,-1.33916c1.83493,-0.0171 2.72592,1.35644 3.15869,2.97841c0.03293,-0.04051 0.06528,-0.07819 0.09688,-0.1128c0.3906,-0.42762 0.64993,-1.18313 1.22719,-1.22999c2.95871,-0.24019 1.60344,4.6574 4.21172,4.61307l0.18964,-0.00196c0,0 0.93917,0 0.93917,0.93917z"/><path d="M140.73598,78.54903c0.23204,0.91006 -0.67802,1.1421 -0.67802,1.1421l-1.9081,0.48202c-1.61323,0.08707 -3.93845,-0.17837 -5.05693,-1.59568c-0.98965,-1.25407 -0.64986,-4.35345 -0.14205,-5.7079c0.20284,-0.54103 0.407,-1.15373 0.87015,-1.49919c1.57477,-1.1746 3.64307,0.1056 4.91483,0.9702c1.01041,0.68692 2.15033,1.41444 1.50054,2.99983c-0.21999,0.53673 -0.92496,0.70543 -1.42712,0.9958c-0.92216,0.53324 -2.25567,0.94719 -3.22814,1.29267c0,0 -0.74136,0.26298 -1.10779,-0.3709c0.02405,0.06034 0.053,0.11034 0.08756,0.14764c0.75422,0.81423 2.2894,0.97358 3.30212,0.91121l1.73084,-0.44582c0,0 0.91006,-0.23204 1.1421,0.67802zM134.37002,76.4005c0.1552,-0.39009 0.58317,-0.5419 0.58317,-0.5419c0.96203,-0.34071 2.7183,-0.75173 3.59027,-1.33192c0.05898,-0.03924 -0.07375,-0.12554 -0.13086,-0.16744c-0.22813,-0.1674 -0.47482,-0.30809 -0.71689,-0.45462c-0.14535,-0.08798 -2.12755,-1.57219 -2.73412,-1.04183c-0.47703,0.4171 -0.37896,1.21769 -0.44705,1.84769c-0.02383,0.22048 -0.13981,1.00988 -0.14453,1.69002z"/><path d="M111.28892,96.75442c-1.22052,-0.07893 -2.44116,-0.15632 -3.6585,-0.27303c-0.53699,-0.05148 -1.08807,-0.37357 -1.60391,-0.21572c-1.58914,0.48629 -1.92214,3.34439 -1.89229,4.59134c0.04782,1.9976 3.94024,1.52492 4.95218,1.06807c2.11111,-0.95308 2.38318,-2.80793 2.24784,-4.88983zM113.92625,96.5382l0.05227,0.34848c0.08091,1.64409 0.26734,2.45383 -0.45808,4.15261c-1.6,3.74685 -8.27635,5.70662 -11.0926,2.17641c-2.21634,-2.77822 -0.472,-8.2058 2.77192,-9.46615c0.81514,-0.3167 1.74869,0.04358 2.62194,0.0903c1.76312,0.09432 3.52206,0.25506 5.28308,0.38258c0,0 1.32077,0.09565 1.22513,1.41642c-0.03157,0.43601 -0.19666,0.71766 -0.40367,0.89935z"/><path d="M129.64698,94.43077c0.93614,0.93661 -0.00047,1.87274 -0.00047,1.87274l-0.28908,0.28428c-1.14638,1.302 -1.90781,2.85841 -2.75958,4.37314c-0.33793,0.60095 -0.45163,1.37256 -0.97055,1.82651c-0.68805,0.60191 -1.57039,1.33142 -2.47289,1.18583c-0.84817,-0.13682 -1.26594,-1.17716 -1.77292,-1.87075c-1.49519,-2.04552 -2.31234,-5.01516 -3.10087,-7.3739c0,0 -0.41965,-1.25598 0.83633,-1.67562c1.25598,-0.41965 1.67562,0.83633 1.67562,0.83633c0.25134,0.75266 0.90968,2.86492 1.35142,3.8153c0.51124,1.09992 1.3831,2.1614 1.50784,3.38615c0.0028,-0.03363 0.00761,-0.06322 0.01518,-0.08422c0.16357,-0.45398 0.37731,-0.8898 0.6062,-1.31462c0.91717,-1.70225 1.82745,-3.37702 3.08459,-4.84075l0.41645,-0.42089c0,0 0.93661,-0.93614 1.87274,0.00047z"/><path d="M142.01425,102.20528c0.12945,1.31789 -1.18844,1.44734 -1.18844,1.44734l-0.03124,0.00307c-1.64499,0.16124 -3.29448,0.28701 -4.94602,0.35337c-1.28051,-0.08038 -2.62915,-0.25144 -3.74678,-0.88159c-0.99375,-0.5603 -2.29517,-0.82737 -2.92335,-1.77966c-0.4665,-0.70718 0.01534,-1.69531 0.07355,-2.5405c0.21457,-3.11552 2.06314,-6.19012 5.25589,-7.02311c1.90044,-0.49583 1.98801,0.01785 3.71985,0.34182c1.44266,0.26987 3.82047,0.02553 4.80801,1.36083c1.21703,1.64562 -0.31798,3.63803 -1.44372,4.5238c-2.17893,1.71447 -5.33649,1.18149 -7.87713,0.96812c0,0 -1.31952,-0.11154 -1.20798,-1.43107c0.11154,-1.31952 1.43107,-1.20798 1.43107,-1.20798c1.56843,0.1335 3.54786,0.47922 5.1153,0.06064c0.01943,-0.00519 2.00445,-1.33856 1.79447,-1.42118c-0.44701,-0.17588 -0.96036,-0.03577 -1.43917,-0.07437c-1.61246,-0.12998 -4.15095,-1.35259 -5.61214,-0.02158c-1.36198,1.24064 -1.59946,2.61064 -1.91278,4.22184c-0.0681,0.3502 -0.59439,0.73558 -0.36276,1.00692c0.70205,0.82241 3.34123,1.21548 4.34095,1.24864c1.56078,-0.0639 3.11928,-0.18769 4.67385,-0.34072l0.03124,-0.00307c0,0 1.31789,-0.12945 1.44734,1.18844z"/><path d="M158.05646,96.45323c0.19949,1.30912 -1.10962,1.50861 -1.10962,1.50861l-1.28664,0.19115c-1.2075,0.40424 -2.77278,0.91913 -3.7304,1.79377c-0.92762,0.84725 -1.32922,2.15263 -2.19159,3.06621c-0.01294,0.01371 -0.02595,0.02735 -0.03902,0.04092l0.00994,0.0064l-0.82034,1.27448c-0.23367,0.37576 -0.65029,0.6259 -1.12534,0.6259c-0.73135,0 -1.32423,-0.59288 -1.32423,-1.32423c0,-2.22575 0,-6.57284 0,-8.79859c0,0 0,-1.32423 1.32423,-1.32423c1.32423,0 1.32423,1.32423 1.32423,1.32423c0,1.44167 0,2.88334 0,4.32501c1.63416,-1.79228 3.53611,-2.77776 5.95084,-3.58434l1.50932,-0.23492c0,0 1.30912,-0.19949 1.50861,1.10962z"/></g></g></svg>