<svg version="1.1" xmlns="http://www.w3.org/2000/svg" xmlns:xlink="http://www.w3.org/1999/xlink" width="506.50527" height="274.66838" viewBox="0,0,506.50527,274.66838"><g transform="translate(5.46401,11.00802)"><g data-paper-data="{&quot;isPaintingLayer&quot;:true}" fill-rule="nonzero" stroke="none" stroke-linecap="butt" stroke-linejoin="miter" stroke-miterlimit="10" stroke-dasharray="" stroke-dashoffset="0" style="mix-blend-mode: normal"><path d="" fill="#9966ff" stroke-width="0.5"/><path d="" fill="#9966ff" stroke-width="0.5"/><path d="" fill="#9966ff" stroke-width="0.5"/><path d="" fill="#9966ff" stroke-width="0.5"/><path d="" fill="#9966ff" stroke-width="0.5"/><path d="M152.27008,79.13901c-0.69237,-0.56702 -0.12534,-1.25939 -0.12534,-1.25939l0.23231,-0.28366c0.72489,-0.88513 1.60386,-1.66162 2.18413,-2.64763c0.54529,-0.92657 0.73545,-2.02057 1.11009,-3.0283c0.93729,-2.52118 1.31675,-5.18319 1.8471,-7.81799c0.91422,-4.54188 1.98611,-9.04238 2.38177,-13.66053c0.02006,-0.23417 0.04147,-0.46867 0.06383,-0.70345c-3.60882,-2.61363 -7.11704,-5.3673 -10.27633,-8.52221c0,0 -0.63302,-0.63259 -0.00042,-1.26561c0.63259,-0.63302 1.26561,-0.00042 1.26561,-0.00042c2.84689,2.84711 5.99168,5.33997 9.22124,7.72679c0.14936,-1.438 0.29079,-2.87969 0.33418,-4.31164c0.06703,-2.21217 -0.18786,-4.48517 -0.2796,-6.69693c-0.14697,-3.54304 -0.11261,-7.1487 -0.44151,-10.67877c-0.20844,-2.23714 -0.70673,-4.48769 -1.0556,-6.70768c0,0 -0.13893,-0.88407 0.74514,-1.023c0.88407,-0.13893 1.023,0.74514 1.023,0.74514c0.35422,2.25404 0.85615,4.53772 1.0686,6.80923c0.33333,3.56403 0.30029,7.20378 0.44867,10.7809c0.09334,2.25016 0.34762,4.55968 0.28071,6.81049c-0.05567,1.87277 -0.27581,3.76171 -0.46671,5.638l0.53871,0.53195c0,0 0.63575,0.62985 0.00591,1.2656c-0.26064,0.26308 -0.52228,0.30944 -0.73947,0.2734c-0.3794,3.91834 -1.23222,7.72393 -2.00986,11.58728c-0.66286,3.29311 -1.10969,6.68774 -2.27679,9.84184c-0.01936,0.05233 -1.18791,3.21496 -1.23557,3.2963c-0.05203,0.08878 -2.2326,2.74542 -2.35206,2.89129l-0.23231,0.28366c0,0 -0.56702,0.69237 -1.25939,0.12534z" fill="#9966ff" stroke-width="0.5"/><path d="M168.30857,44.62613c-0.82938,-0.33618 -0.4932,-1.16556 -0.4932,-1.16556l0.40508,-0.99936c1.33915,-3.30381 2.46772,-6.83081 4.06329,-10.0171c1.59557,-3.18629 3.74371,-6.20273 5.58699,-9.25409c0,0 0.46273,-0.76601 1.22874,-0.30327c0.76601,0.46273 0.30327,1.22874 0.30327,1.22874c-1.81859,3.01048 -3.94456,5.98674 -5.5186,9.13004c-1.57405,3.1433 -2.68372,6.62848 -4.00493,9.88803l-0.40508,0.99936c0,0 -0.33618,0.82938 -1.16556,0.4932z" fill="#9966ff" stroke-width="0.5"/><path d="M176.95224,69.80722c0.07752,0.89156 -0.81404,0.96908 -0.81404,0.96908l-1.15871,0.06639c-0.30741,-0.14904 -3.15623,-1.51571 -3.50755,-1.74087c-2.98453,-1.91278 -5.70383,-4.5282 -8.48057,-6.7355c0,0 -0.70055,-0.55688 -0.14367,-1.25743c0.55688,-0.70055 1.25743,-0.14367 1.25743,-0.14367c2.72838,2.16885 5.40064,4.75059 8.33259,6.62968c0.91035,0.58344 1.92732,0.98114 2.88115,1.49041l0.6643,-0.09213c0,0 0.89156,-0.07752 0.96908,0.81404z" fill="#9966ff" stroke-width="0.5"/><path d="M195.25746,25.17102c-0.08888,0.8905 -0.97938,0.80162 -0.97938,0.80162l-1.22186,-0.12475c-3.01063,-0.78713 -5.98716,-1.47368 -8.25963,-3.70597c0,0 -0.63302,-0.63259 -0.00042,-1.26561c0.63259,-0.63302 1.26561,-0.00042 1.26561,-0.00042c1.93448,1.97467 4.70986,2.52157 7.31197,3.21055l1.08209,0.10521c0,0 0.8905,0.08888 0.80162,0.97938z" fill="#9966ff" stroke-width="0.5"/><path d="M205.59794,30.20725c0.23511,0.86349 -0.62838,1.09859 -0.62838,1.09859l-1.10387,0.30056c-6.88416,1.8744 -13.82742,4.10159 -20.82453,5.50151c-2.34226,0.46862 -4.77375,0.67569 -7.13944,1.00981c0,0 -0.88613,0.12515 -1.01128,-0.76098c-0.12515,-0.88613 0.76098,-1.01128 0.76098,-1.01128c2.33182,-0.32933 4.72994,-0.53072 7.03861,-0.99262c6.95672,-1.39184 13.86087,-3.60981 20.70546,-5.47343l1.10387,-0.30056c0,0 0.86349,-0.23511 1.09859,0.62838z" fill="#9966ff" stroke-width="0.5"/><path d="M204.66169,68.08391l-0.60939,0.14139c-5.59171,1.29704 -11.12911,2.8595 -16.68245,4.31187c0,0 -0.8658,0.22643 -1.09224,-0.63937c-0.22643,-0.8658 0.63937,-1.09224 0.63937,-1.09224c0.57078,-0.14928 1.14138,-0.2997 1.7119,-0.45087c-0.32357,-0.13479 -0.55103,-0.45406 -0.55103,-0.82646c0,-0.02031 0.00068,-0.04046 0.00201,-0.06044l0.10473,-1.77891c0.0902,-1.53204 0.20941,-3.05878 0.20884,-4.59374c0,0 0,-0.89492 0.89492,-0.89492c0.89492,0 0.89492,0.89492 0.89492,0.89492c-0.00048,1.35297 -0.08897,2.69937 -0.17248,4.0486c0.5352,-0.76174 1.27712,-1.37185 1.99702,-2.1345c0.16058,-0.17011 2.4927,-2.65055 2.60134,-2.72319c1.38992,-0.92938 3.62374,-1.41277 5.19163,-2.01367c0.53489,-0.205 3.5594,-1.41709 3.93345,-1.29845c0.74854,0.23742 1.00187,1.21052 1.46937,1.84149c0.63294,0.85427 1.50531,1.63467 1.74365,2.67081c0.16341,0.71038 0.01885,1.45774 0.02828,2.18662l-0.38872,1.26543c0,0 -0.26953,0.85337 -1.1229,0.58383c-0.04621,-0.0146 -0.08913,-0.0309 -0.12898,-0.0487c-0.12809,0.48401 -0.67324,0.61049 -0.67324,0.61049zM203.64778,66.48176l0.60939,-0.14139c0,0 0.32315,-0.07497 0.62161,0.06312c0.00083,-0.00282 0.00129,-0.00429 0.00129,-0.00429l0.32651,-0.99908c0.00943,-0.46436 0.13439,-0.9409 0.02828,-1.39307c-0.20325,-0.86608 -1.07133,-1.42571 -1.51799,-2.19506c-0.20875,-0.35956 -0.12747,-1.00628 -0.52378,-1.13198c-0.3963,-0.1257 -0.70264,0.44964 -1.08047,0.62314c-0.54218,0.24898 -1.1142,0.42702 -1.67131,0.64053l-3.34261,1.28106c-0.49649,0.18652 -1.05265,0.25373 -1.49359,0.54845c-0.43744,0.29238 -0.70851,0.77809 -1.06712,1.16309c-0.81329,0.87313 -1.63815,1.73541 -2.45722,2.60312c-0.41033,0.43469 -0.85137,0.83969 -1.31218,1.22267l0.08357,0.07889l-1.16292,1.23197c4.64225,-1.23649 9.28152,-2.50583 13.95855,-3.59118z" fill="#9966ff" stroke-width="0.5"/><path d="M229.04484,71.78973l-0.89492,0.25362c0,-7.64142 -0.01969,-15.27932 0.06909,-22.91734c-3.0631,1.31214 -6.1262,2.62428 -9.18929,3.93641c0,0 -0.82262,0.35239 -1.17501,-0.47024c-0.35239,-0.82262 0.47024,-1.17501 0.47024,-1.17501c3.30643,-1.41637 6.61286,-2.83275 9.91928,-4.24912c0.03238,-2.28442 0.07544,-4.56887 0.13262,-6.85347c-4.02437,1.27339 -7.88917,2.59363 -12.08142,3.16399c0,0 -0.43975,0.05983 -0.74203,-0.21446c-0.47593,7.05511 -1.60087,14.08613 -2.06061,21.14997l0.00189,0.68968c0,0 0,0.89492 -0.89492,0.89492c-0.89492,0 -0.89492,-0.89492 -0.89492,-0.89492l0.00189,-0.80593c0.48946,-7.52049 1.73397,-15.0043 2.14434,-22.51888c0.05011,-0.91758 0.06865,-1.84073 0.0705,-2.7661c-0.17118,-0.02695 -0.29195,-0.08734 -0.29195,-0.08734l-1.07248,-0.53624c0,0 -0.80044,-0.40022 -0.40022,-1.20067c0.40022,-0.80044 1.20067,-0.40022 1.20067,-0.40022l0.54835,0.27418c-0.01653,-1.07467 -0.04146,-2.14919 -0.05161,-3.21834c-2.15576,3.75776 -4.15091,7.60776 -6.47166,11.27994c0.21793,-0.05169 0.43615,-0.10208 0.65468,-0.15107l0.96816,-0.21654c0,0 0.87334,-0.19534 1.06868,0.67801c0.19534,0.87334 -0.67801,1.06868 -0.67801,1.06868l-0.96816,0.21654c-6.26031,1.39655 -12.27057,3.95688 -18.4625,5.65134c-2.18722,0.59855 -4.65345,1.66532 -6.90548,1.88973l-1.70658,0.46702c-0.08111,0.02417 -0.16704,0.03715 -0.256,0.03715c-0.49425,0 -0.89492,-0.40067 -0.89492,-0.89492c0,-0.31878 0.16667,-0.59863 0.41763,-0.75715c2.68976,-1.75674 5.81053,-3.79498 8.89814,-5.81156l-0.76849,-0.1922c-1.67933,-0.42 -3.77552,-0.6531 -5.35452,-1.35279c-0.09222,-0.04087 -2.95313,-1.95785 -3.11088,-2.06328c0,0 -0.74404,-0.49728 -0.24676,-1.24132c0.49728,-0.74404 1.24132,-0.24676 1.24132,-0.24676c0.9496,0.63467 1.7972,1.45225 2.84144,1.91498c1.48519,0.65812 3.48534,0.85807 5.06366,1.25281l1.1248,0.28131c0,0 0.59258,0.1482 0.67616,0.6893c2.14047,-1.39799 4.22883,-2.76194 6.10703,-3.98863c1.49826,-0.97854 2.98838,-1.97157 4.49563,-2.93619c0.43705,-0.27971 0.97464,-0.43787 1.32002,-0.82512c0.34538,-0.38726 0.44623,-0.93696 0.66935,-1.40544c0,0 0.40081,-0.80015 1.20096,-0.39934c0.80015,0.40081 0.39934,1.20096 0.39934,1.20096c-0.31129,0.59839 -0.48492,1.29177 -0.93388,1.79516c-0.44896,0.50339 -1.11534,0.75892 -1.67706,1.13234c-1.49032,0.99073 -2.99731,1.9576 -4.49563,2.93619c-3.90381,2.54966 -7.80762,5.09932 -11.71143,7.64898c1.04457,-0.28585 2.08915,-0.57171 3.13372,-0.85756c5.80404,-1.58831 11.44593,-3.92245 17.28333,-5.37332l-0.53433,-0.47418l-0.64455,-0.20201c0.05045,-0.0786 0.10076,-0.15728 0.15095,-0.23602l-0.02677,-0.02376c0,0 0.07449,-0.14899 0.22348,-0.28627c3.49461,-5.53229 6.37648,-11.39015 9.91722,-16.89417c0.96349,-1.49772 1.85528,-3.02622 2.75381,-4.56355c0.46304,-0.79224 1.17418,-1.50485 1.333,-2.40864c0.08844,-0.50324 -0.01458,-1.02181 -0.02187,-1.53271c0,0 0,-0.89492 0.89492,-0.89492c0.89492,0 0.89492,0.89492 0.89492,0.89492c-0.00729,0.642 0.10052,1.29573 -0.02187,1.926c-0.11933,0.6145 -1.29129,2.50308 -1.53364,2.91816c-1.21241,2.07654 -2.46141,4.112 -3.76221,6.13432c-0.51546,0.80138 -1.01429,1.61213 -1.50165,2.42941c0.74178,0.09578 0.74178,0.88545 0.74178,0.88545c0,2.95935 0.15977,5.9696 -0.00089,8.92411c0.20283,-0.13361 0.41541,-0.16253 0.41541,-0.16253c4.13961,-0.5632 7.95235,-1.88737 11.93198,-3.14411c0.14682,-0.04636 0.29364,-0.09273 0.44046,-0.13909c0.02241,-0.87522 0.04164,-1.7506 0.05808,-2.62613l-0.51262,-0.07938c-1.92997,-1.25202 -3.83488,-2.54166 -5.74618,-3.82194c-0.39422,-0.26407 -3.1177,-2.0542 -3.26554,-2.31433c-0.32929,-0.57938 -0.07029,-1.33098 -0.10543,-1.99647c0,0 0,-0.89492 0.89492,-0.89492c0.89492,0 0.89492,0.89492 0.89492,0.89492c-0.03514,0.38455 -0.30325,0.82202 -0.10543,1.15365c0.23437,0.39291 0.80722,0.4322 1.19561,0.67399c0.50649,0.31531 0.99137,0.66407 1.48705,0.9961c1.76796,1.18427 3.5476,2.35245 5.29294,3.56989c0.13151,-9.03625 -0.00737,-18.08555 -0.00737,-27.11932c0,0 0,-0.89492 0.89492,-0.89492c0.89492,0 0.89492,0.89492 0.89492,0.89492c0,9.16326 0.14229,18.34241 0.00171,27.50782c0.21097,0.14024 0.41101,0.39431 0.34711,0.84704c-0.04666,0.33061 -0.19926,0.52046 -0.37225,0.62856c-0.01259,0.67031 -0.02682,1.34053 -0.04286,2.01067c1.21205,-0.38275 2.42409,-0.76551 3.63614,-1.14826c0.00003,-0.38131 0.29238,-0.66396 0.29238,-0.66396c1.28677,-1.2441 3.09695,-2.99426 4.38372,-4.23835c0.82491,-0.79756 1.78947,-1.47024 2.4821,-2.38502c1.34835,-1.78083 2.2583,-4.21715 3.31928,-6.18789c0,0 0.42422,-0.78799 1.21221,-0.36376c0.78799,0.42422 0.36376,1.21221 0.36376,1.21221c-1.10562,2.05366 -2.06239,4.56305 -3.46829,6.41987c-0.05465,0.07218 -2.54167,2.47216 -2.66497,2.59136c-0.89394,0.8643 -1.78789,1.7286 -2.68183,2.5929c2.46081,-0.7771 4.92163,-1.55421 7.38244,-2.33131l0.03608,-0.03047c0,0 0.80044,-0.40022 1.20066,0.40022c0.40022,0.80044 -0.40022,1.20066 -0.40022,1.20066l-0.29755,0.13635c-4.94838,1.56266 -9.89677,3.12531 -14.84515,4.68797c-0.05799,2.2174 -0.10236,4.43466 -0.13626,6.65187c1.57727,-0.67566 3.15454,-1.35131 4.73182,-2.02697c3.82702,-1.63938 7.63739,-3.20852 11.29748,-5.19581l0.4181,-0.22701c0,0 0.78647,-0.42702 1.21349,0.35945c0.42702,0.78647 -0.35945,1.21349 -0.35945,1.21349l-0.4181,0.22701c-3.70916,2.01394 -7.56872,3.60689 -11.44675,5.26812c-1.8213,0.78019 -3.6426,1.56038 -5.4639,2.34057c-0.0976,7.72508 -0.07938,15.4499 -0.07855,23.17824c0.00003,0.00172 0.00003,0.00261 0.00003,0.00261l-0.00003,0.00001c0.00002,0.16908 0.00003,0.33815 0.00003,0.50723z" fill="#9966ff" stroke-width="0.5"/><path d="M477.17963,191.13901c0,2.5 -2.5,2.5 -2.5,2.5h-4.17505c-7.48273,0.01756 -14.94529,0.1053 -22.42471,0.3346c-15.84195,0.47299 -32.4725,-1.82498 -48.14791,-4.08088c-8.14315,-1.17191 -16.29918,-3.54489 -24.49141,-4.24889c-0.28984,-0.02491 -0.58069,-0.04678 -0.87244,-0.06591c-0.26763,2.07206 -2.47352,2.07206 -2.47352,2.07206h-2.12897c-9.05216,0 -18.1043,0.003 -27.15644,0.00833c-0.3431,1.44337 -0.60984,2.90411 -0.59259,4.37668v0.103c0,0 0,2.5 -2.5,2.5c-2.5,0 -2.5,-2.5 -2.5,-2.5v-0.103c0.01364,-1.46723 0.21127,-2.92723 0.49781,-4.37343c-7.47574,0.00511 -14.95147,0.01174 -22.42722,0.0195c-34.9839,0.48832 -69.86723,0.71336 -104.78292,3.0081c-0.15583,0.01024 -0.31165,0.02047 -0.46745,0.03067l-1.95946,2.44875c0,0 -1.6516,1.87676 -3.52836,0.22515c-0.88622,-0.7799 -0.98568,-1.61001 -0.84381,-2.269c-14.4253,0.89731 -28.7896,1.60121 -43.26988,1.76957c-6.59972,0.07673 -13.76166,0.9313 -20.31724,0.21587c-6.26255,-0.68345 -11.71923,-3.49309 -18.11846,-3.4642c0,0 -2.5,0 -2.5,-2.5c0,-1.22234 0.59765,-1.84704 1.20852,-2.16629c-0.91645,-4.92377 -1.48718,-9.94906 -2.01962,-14.97141l-2.71408,1.66969c-8.2366,-0.03699 -16.49947,-0.70313 -24.70143,0.09486c-11.62317,1.12006 -23.28908,0.89622 -34.90288,1.88516c-5.71532,0.48667 -11.46972,2.23447 -17.13366,3.16066c-11.25884,1.84109 -22.39611,3.39226 -33.56205,5.78485c0,0 -2.44451,0.5238 -2.96831,-1.92071c-0.5238,-2.44451 1.92071,-2.96831 1.92071,-2.96831c11.24525,-2.40959 22.46431,-3.97619 33.80275,-5.83029c5.75776,-0.94153 11.58307,-2.68817 17.39351,-3.19618c11.63217,-1.017 23.32712,-0.77013 34.97033,-1.89212c8.37813,-0.80003 16.79242,-0.15525 25.20337,-0.11786l-0.73388,-0.28862c0,0 1.4424,-1.40861 3.00155,-0.40059c-0.23706,-2.226 -0.48275,-4.44592 -0.76399,-6.65063c-0.20969,-19.01233 -0.77795,-38.11278 -1.99287,-57.05816c-0.30685,-4.78499 -0.00361,-9.56755 0.34637,-14.34696c-8.80744,-0.05018 -17.61309,-0.10709 -26.41237,-0.10709c-28.42967,0 -56.85933,0 -85.289,0c0,0 -2.5,0 -2.5,-2.5c0,-2.5 2.5,-2.5 2.5,-2.5c28.42967,0 56.85933,0 85.289,0c8.64779,0 17.30194,0.05573 25.95798,0.10605c-0.6902,-1.14688 -1.39913,-2.28577 -1.81617,-3.5491c-0.82982,-2.51377 0.24041,-5.30837 -0.03196,-7.94151c-0.17131,-1.65608 -0.80484,-3.23783 -1.02939,-4.88753c-0.55642,-4.08784 -0.01344,-8.65598 -0.01344,-12.77389c0,-9.52626 0.01709,-19.0265 -0.35561,-28.54602c-0.28086,-7.17354 -0.0393,-15.11495 -3.37532,-21.64264c0,0 -1.11835,-2.23591 1.11756,-3.35426c2.23591,-1.11835 3.35426,1.11756 3.35426,1.11756c3.59777,7.31969 3.58623,15.67785 3.89968,23.68373c0.44036,11.24752 0.35944,22.48624 0.35944,33.74162c0,4.77523 0.54639,7.47563 1.01703,12.15415c0.06447,0.64084 0.02885,1.29368 -0.04219,1.94956c0.15981,-0.02579 0.33251,-0.03972 0.51915,-0.03972c2.5,0 2.5,2.5 2.5,2.5c-0.00137,2.53818 -0.1312,5.07854 -0.30239,7.62027c23.83364,0.12349 47.67407,0.10248 71.42811,-1.33891c8.63845,-0.5237 17.34605,-1.54265 25.98972,-1.79149c11.64974,-0.33537 23.34356,0.45187 34.9886,0.00001c12.90115,-0.5006 25.7691,-2.306 38.57198,-3.85352c5.85062,-0.86261 11.7874,-2.12444 17.68131,-2.60304c11.48583,-0.93268 23.06831,-0.80969 34.57033,-1.5266c2.24986,-0.14023 4.49823,-0.28452 6.7456,-0.43086c-0.14916,-15.74028 -0.98572,-31.75088 0.02956,-47.39653c0.71831,-11.06922 6.03529,-21.55891 5.98515,-32.53133c0,0 0,-2.5 2.5,-2.5c2.5,0 2.5,2.5 2.5,2.5c-0.04488,11.19283 -5.28702,21.67981 -6.00081,32.92668c-0.97797,15.40942 -0.17317,31.16836 -0.0171,46.67313c12.67005,-0.83648 25.31886,-1.69124 38.03024,-2.20587c20.90006,-0.04241 42.03524,-0.96459 62.91023,-0.03245c12.95359,0.57842 25.68737,2.94994 38.682,3.02272l3.48014,1.0879c0,0 2.37987,0.76566 1.61421,3.14553c-0.76566,2.37987 -3.14553,1.61421 -3.14553,1.61421l-2.72384,-0.90807c-12.81166,0.08161 -25.36266,-2.39716 -38.13001,-2.96727c-20.76531,-0.92725 -41.79043,-0.00202 -62.58096,0.03629c-12.73863,0.5181 -25.41402,1.37784 -38.11153,2.21611c0,0.55895 0,1.1179 0,1.67685c2.63179,5.70764 1.28156,12.59627 1.06455,18.52188c-0.25546,6.9756 -0.06553,13.98975 -0.06553,20.97034l0.7346,0.87711c0,0 1.1189,2.23564 -1.11674,3.35453c-1.39264,0.69699 -2.35194,0.0923 -2.87738,-0.46283c0.1134,4.46967 -0.04191,8.93906 -0.76106,13.45955c-1.2661,7.95851 -4.34013,15.64821 -5.58153,23.55079c-0.46138,2.93709 -0.26362,5.94039 -0.40887,8.90995c-1.20312,5.17178 -1.993,10.5072 -3.14977,15.69845c4.72987,-0.00266 9.45974,-0.00467 14.18962,-0.00594c0.30967,-1.99858 2.46308,-1.99858 2.46308,-1.99858c4.98056,0 10.22033,-0.41703 15.18005,0.00918c8.2916,0.71253 16.53533,3.09563 24.77554,4.28151c15.377,2.21296 31.74216,4.52184 47.28247,4.03224c7.52848,-0.2308 15.04025,-0.31927 22.57205,-0.33694h4.18091c0,0 2.5,0 2.5,2.5zM140.69715,188.14384c6.34224,0.68523 13.29395,-0.17492 19.68006,-0.24917c15.10777,-0.17565 30.08722,-0.93854 45.14418,-1.89386c0.09028,-2.84628 0.51477,-5.62287 0.85535,-8.52212c0.97302,-8.27872 2.5572,-16.47384 3.54516,-24.7469c0.77259,-6.46961 1.03137,-13.00803 1.68892,-19.49073c1.50247,-14.81271 3.68531,-29.53911 5.78582,-44.27484c0,0 0.3528,-2.47498 2.82778,-2.12218c2.47498,0.3528 2.12218,2.82778 2.12218,2.82778c-2.09098,14.66888 -4.26566,29.32831 -5.76131,44.07382c-0.66033,6.51017 -0.9223,13.07544 -1.69791,19.5726c-0.98751,8.27224 -2.57293,16.46601 -3.54479,24.74381c-0.3022,2.57256 -0.59634,5.08402 -0.81388,7.61483c34.89484,-2.27955 69.75791,-2.50834 104.72101,-2.99564c7.88628,-0.00835 15.77256,-0.01532 23.65883,-0.02054c1.27417,-5.40023 2.04329,-10.9864 3.32498,-16.39173c0.04825,-1.10832 0.37035,-8.66955 0.42159,-8.99573c1.23896,-7.88703 4.29917,-15.55142 5.57201,-23.48755c1.37195,-8.55406 0.57847,-16.8984 -0.09683,-25.44819c-0.47816,-6.0539 -0.46731,-12.79769 -3.9564,-18.12269c-0.81823,-1.24877 -2.14705,-2.07507 -3.22057,-3.11261c0,0 -1.77617,-1.75932 -0.01686,-3.53549c1.75932,-1.77617 3.53549,-0.01686 3.53549,-0.01686c1.29471,1.30822 2.87539,2.38513 3.88413,3.92466c2.18962,3.34177 3.24402,7.09016 3.84037,10.93977c0.01828,-0.76625 0.04103,-1.53214 0.06906,-2.29758c0.12557,-3.42885 0.87075,-7.57557 0.57048,-11.4028c-1.63838,-0.49566 -1.63838,-2.38187 -1.63838,-2.38187c0,-0.82819 0,-2.03789 0,-3.24994c-0.60737,-0.7708 -1.55136,-1.29099 -2.27139,-1.97792c0,0 -0.18706,-0.18867 -0.37771,-0.50399c-1.27011,0.08145 -2.54062,0.16195 -3.8116,0.24115c-11.44619,0.71325 -22.97103,0.59627 -34.40172,1.51338c-5.82787,0.46758 -11.70674,1.72885 -17.49185,2.5813c-12.95956,1.56758 -25.98373,3.38742 -39.04282,3.89414c-11.64563,0.45188 -23.33926,-0.32963 -34.98936,0.00001c-8.60592,0.24351 -17.27934,1.26463 -25.88027,1.78605c-23.97693,1.45224 -48.03986,1.46805 -72.09581,1.34412c-0.34674,4.69076 -0.64008,9.38435 -0.33345,14.07563c0.1961,3.00029 0.84806,5.96181 0.99714,8.9648c0.38123,7.67952 -0.40082,15.41849 0.00162,23.09628c0.43666,8.33056 0.91047,16.54159 0.98818,24.89669c0.78926,6.10326 1.60008,12.19678 2.22377,18.31926c0.2121,2.08206 0.66236,4.22502 0.23643,6.27406l1.83492,0.18912c0,0 1.32315,0.44076 1.66374,1.65214c4.07344,0.88218 7.97562,2.25377 12.24969,2.71555z" fill="#000000" stroke-width="0.5"/><path d="M206.62709,96.91294c2.38906,0.73646 1.6526,3.12553 1.6526,3.12553l-1.04807,3.39988c-2.28137,7.39849 -4.19359,14.90126 -6.20413,22.37748c-0.3505,1.30335 -2.64469,10.17702 -3.24395,10.77593c-1.47536,1.4745 -3.95094,1.3419 -5.94862,1.942c-3.1924,0.95901 -6.38451,1.96468 -9.65841,2.59136c-2.27539,0.43555 -4.97117,2.25172 -6.88533,0.94669c-1.91416,-1.30503 -1.20847,-4.47799 -1.63437,-6.7552c-0.2217,-1.18544 -1.17258,-10.62847 -0.92546,-11.21207c0.78719,-1.85898 3.0702,-2.62361 4.6527,-3.87709c3.91137,-3.09815 8.02999,-5.97661 12.03292,-8.95594c0,0 2.00549,-1.49266 3.49814,0.51283c1.49266,2.00549 -0.51283,3.49814 -0.51283,3.49814c-3.99759,2.97535 -7.92325,6.13816 -12.03292,8.95594c-0.98204,0.67333 -2.59536,0.75715 -3.05148,1.85703c-0.48131,1.16061 0.56184,2.45175 0.74938,3.69413c0.24877,1.648 0.55,3.30209 0.55828,4.96873c0.00534,1.07469 -1.40578,2.57687 -0.51781,3.18226c0.88797,0.6054 1.77074,-1.25699 2.77308,-1.64467c1.55445,-0.60122 3.21947,-0.86379 4.8292,-1.29568c1.60973,-0.43189 3.20416,-0.92552 4.8292,-1.29568c1.22404,-0.27882 2.82183,0.23808 3.70979,-0.64936c0.88796,-0.88744 0.37199,-2.48553 0.65152,-3.70941c0.3711,-1.62483 0.86566,-3.21897 1.29849,-4.82845c2.02631,-7.53484 3.95643,-15.09504 6.25446,-22.55192l1.04807,-3.39988c0,0 0.73646,-2.38906 3.12553,-1.6526z" fill="#000000" stroke-width="0.5"/><path d="M260.07628,108.95135c2.37564,0.77867 1.59697,3.15431 1.59697,3.15431l-1.41659,4.29185c-0.04786,0.33559 -0.09485,0.67197 -0.14116,1.00903c3.25659,0.08903 6.52334,0.27591 9.75657,0.3593c0,0 2.49917,0.06446 2.43471,2.56362c-0.06446,2.49917 -2.56362,2.43471 -2.56362,2.43471c-3.39687,-0.08761 -6.8737,-0.02081 -10.31394,-0.11881c-0.57374,4.41226 -1.1995,8.8517 -2.29488,13.09997c-0.58143,2.25501 -0.23617,5.27631 -2.10902,6.66034c-1.57101,1.16097 -11.02488,-3.555 -11.39216,-4.04844c-0.6557,-0.88093 1.40104,-8.89275 1.51997,-9.41419c0.36009,-1.57874 2.24444,-10.48212 3.12759,-11.16808c1.73963,-1.3512 4.39419,-0.34516 6.59634,-0.39586c0.05794,-0.00133 0.11588,-0.0026 0.17384,-0.0038c0.12105,-0.70936 0.23461,-1.41589 0.3377,-2.11884l1.53336,-4.70815c0,0 0.77867,-2.37564 3.15431,-1.59697zM254.14633,122.23786c-0.99208,-0.33849 -2.04252,-1.1013 -2.79852,-0.5141c-0.91154,0.70801 -0.0274,2.31636 -0.20801,3.45635c-0.26079,1.64614 -0.74124,3.24987 -1.11186,4.87481c-0.37062,1.62494 -0.58452,3.29377 -1.11186,4.87481c-0.14583,0.4372 -1.25208,0.81236 -0.87199,1.07301c0.93933,0.64416 2.32064,0.16164 3.35803,0.63184c0.55689,0.25241 0.9091,1.97356 1.16387,1.41774c0.44503,-0.97089 -0.42287,-2.11865 -0.35405,-3.18446c0.26794,-4.14982 1.11383,-8.40987 1.9344,-12.63z" fill="#000000" stroke-width="0.5"/><path d="M64.13529,107.9461c2.43092,0.58365 1.84727,3.01457 1.84727,3.01457l-0.95931,3.99553c-1.7219,7.17173 -3.7491,13.51715 -6.74056,20.27665c-6.63774,2.33739 -13.35582,4.36038 -20.08211,6.42617c-3.18644,0.97862 -6.28556,2.30851 -9.55932,2.93587c-2.40039,0.45999 -5.39742,2.39816 -7.28351,0.84376c-1.4001,-1.15388 1.61277,-9.70806 2.05804,-11.14563c2.45271,-7.91866 4.24158,-16.6102 7.52754,-24.21556c2.28102,-5.27941 6.88653,-10.37185 10.07845,-15.15764c0,0 1.38717,-2.07985 3.46702,-0.69267c2.07985,1.38717 0.69267,3.46702 0.69267,3.46702c-3.03476,4.55015 -7.59647,9.50728 -9.72355,14.53236c-1.85753,4.38828 -2.89651,9.43884 -4.30729,13.99356c-0.98624,3.18409 -1.97247,6.36819 -2.95871,9.55228c-0.42167,1.36138 -0.62736,2.81321 -1.17114,4.12346c1.43337,-0.78214 3.13913,-0.99786 4.93219,-1.54855c7.61279,-2.33805 15.18892,-4.93106 22.93484,-6.78526c1.92989,-5.96255 3.80575,-11.65955 5.27359,-17.77314l0.95931,-3.99553c0,0 0.58365,-2.43092 3.01457,-1.84727z" fill="#000000" stroke-width="0.5"/><path d="M420.32843,108.88467c2.39533,0.71582 1.67951,3.11115 1.67951,3.11115l-0.25579,0.85593c-1.4244,4.76644 -2.84213,9.50465 -4.06611,14.32699c-0.87003,3.38577 -2.0317,6.73742 -3.67846,9.82101c-0.96379,1.80471 -1.36565,4.13034 -3.00826,5.35006c-1.60456,1.19147 -3.90265,0.86668 -5.8661,1.23961c-0.8805,0.16724 -10.31081,1.71498 -10.75114,1.61042c-6.75423,-1.60392 -6.89866,-6.59575 -8.2938,-12.04125c-0.49066,-1.91514 -1.59012,-3.79806 -1.39264,-5.76517c0.09136,-0.91001 5.13887,-9.84087 5.58128,-10.21502c0.52544,-0.44436 8.95069,-1.79205 9.18998,-1.83311c5.64509,-0.96845 11.35273,-2.37879 17.08511,-2.5543c0.1363,-0.45678 0.27285,-0.91372 0.40947,-1.3709l0.25579,-0.85593c0,0 0.71582,-2.39533 3.11115,-1.67951zM415.05183,117.87651c-3.29647,0.26524 -6.52417,0.98741 -9.81148,1.55137c-3.28534,0.56362 -6.55287,1.24325 -9.85601,1.69086c-0.72379,0.09808 -1.66205,-0.38796 -2.188,0.11886c-0.93914,0.90499 -1.02084,2.40359 -1.62765,3.55805c-0.57264,1.08944 -1.79063,1.93746 -1.90508,3.16291c-0.12633,1.35266 0.86291,2.57705 1.2473,3.88007c0.47157,1.59856 0.92061,3.20451 1.31997,4.82262c0.49983,2.02518 -0.13724,3.2354 3.1071,3.63082c3.02143,0.36825 5.96627,-1.23563 8.98357,-1.63632c1.23439,-0.16392 2.72367,0.40885 3.7204,-0.33755c1.03461,-0.77476 0.95488,-2.40395 1.50345,-3.57431c1.32877,-2.83486 2.53354,-5.7588 3.29445,-8.79576c0.68847,-2.71002 1.43624,-5.39423 2.21199,-8.07163z" fill="#000000" stroke-width="0.5"/><path d="M479.7997,118.43251c2.37551,0.77908 1.59643,3.15458 1.59643,3.15458l-1.42758,4.32635c-0.65024,4.25944 -0.78402,9.18616 -2.0851,13.27118c-2.03607,6.39274 -6.46695,12.98319 -9.64746,18.87091c-3.89638,1.64265 -9.6675,4.91405 -13.84747,5.08872c-2.99984,0.12536 -5.57422,-2.2466 -8.27268,-3.56304c-1.8525,-0.90374 -4.11174,-1.30396 -5.49856,-2.82883c-0.99699,-1.09623 -0.7512,-2.87004 -1.01111,-4.32886c-0.34381,-1.9297 -1.17918,-3.90316 -0.79811,-5.82585c0.38106,-1.92269 1.95217,-3.39979 2.95977,-5.08106c1.71353,-2.85918 3.4696,-5.69327 5.26563,-8.50136c1.05517,-1.64976 1.70187,-3.68052 3.22623,-4.90993c1.37404,-1.10817 3.32884,-1.17682 5.00548,-1.72902c1.26081,-0.41525 10.11581,-3.23459 10.89008,-3.0235c4.1668,1.13601 6.22614,6.62232 7.80302,10.70385c0.51444,-3.08104 0.68386,-6.36821 1.14836,-9.31014l1.53849,-4.71759c0,0 0.77908,-2.37551 3.15458,-1.59643zM472.35289,139.77744c-1.45015,-0.05462 -2.09995,-1.54111 -2.09995,-1.54111c-1.0914,-2.49671 -1.82488,-5.17552 -3.23476,-7.50724c-0.56189,-0.92929 -0.99626,-2.31411 -2.06209,-2.5222c-1.21751,-0.2377 -2.25954,1.03159 -3.42716,1.45051c-1.56875,0.56284 -3.17273,1.02359 -4.77241,1.49133c-1.13609,0.33219 -2.51866,0.15618 -3.43296,0.90791c-1.06341,0.87433 -1.33476,2.40874 -2.0394,3.59143c-1.7061,2.86362 -3.46121,5.69865 -5.26563,8.50136c-0.74432,1.15611 -2.03854,2.07154 -2.30585,3.4203c-0.26731,1.34876 0.63312,2.67997 0.82704,4.04121c0.09887,0.69406 -0.46333,1.62323 0.04819,2.10265c0.93265,0.87412 2.42103,0.82675 3.60123,1.31773c1.53882,0.64017 3.05208,1.34229 4.54989,2.07328c0.63249,0.30868 1.13511,1.1102 1.8357,1.04312c3.27673,-0.31376 7.04893,-2.93253 10.33051,-3.82125c2.15804,-4.79336 5.44732,-9.60784 7.44767,-14.54904z" fill="#000000" stroke-width="0.5"/><path d="M470.30987,254.5148c-4.81761,-0.09435 -9.8611,-0.52587 -14.5844,0.01469c-7.8462,0.89797 -15.73612,1.73381 -23.69295,1.99716c-19.93999,0.65994 -40.00167,-0.03238 -59.95502,0.0616c-6.61264,0.64587 -13.23689,1.46232 -19.86417,1.93101c-4.66108,0.32964 -9.39887,0.0723 -14.04608,0.54461c-4.97075,0.5052 -9.84907,1.99027 -14.82548,2.44477c-4.97432,0.4543 -10.07424,0.05812 -15.06522,0.28208c-5.83305,0.26175 -11.62462,1.43241 -17.45695,1.72225c-6.63716,0.32984 -13.38263,0.00303 -20.02895,0.00303c-5.69363,0 -11.06228,-0.55383 -16.71579,-1.00468c-4.57723,-0.36502 -9.22348,0.02268 -13.79476,-0.41128c-3.30617,-0.31386 -6.52544,-1.3221 -9.8359,-1.58701c-5.70606,-0.4566 -11.68997,0.00821 -17.42427,0.00894c-13.42504,0.00171 -26.84076,-0.00741 -40.26002,0.37795c-3.28851,-0.80947 -6.52114,-1.88118 -9.85859,-2.45651c-6.0459,-1.04224 -12.14301,-0.70693 -18.22636,-1.01596c-6.63829,-0.33722 -13.2256,-1.50345 -19.85606,-1.90116c-4.69672,-0.28172 -9.41586,0.13177 -14.11472,-0.28464c-4.54168,-0.40248 -8.79541,-2.00894 -13.22067,-2.73103c-2.78984,-0.45523 -5.65344,0.0322 -8.48016,0.02435c-4.93914,-0.01372 -9.86329,-0.06514 -14.79932,-0.24587c-18.02228,-2.76918 -37.10096,-2.87505 -55.03174,0.8126c-3.18559,0.65515 -6.33479,1.49295 -9.45048,2.42552c-1.58791,0.47528 -7.42594,2.89367 -8.27555,2.9668c-2.04003,0.17559 -4.70434,0.65264 -6.08191,-0.86225c-1.48819,-1.63655 -0.46849,-4.39915 -0.70274,-6.59873c0,0 0,-2.5 2.5,-2.5c2.5,0 2.5,2.5 2.5,2.5c-0.23425,1.04106 -1.0957,2.13109 -0.70274,3.12319c0.22154,0.55932 1.13767,-0.39195 1.70209,-0.60016c0.3142,-0.11591 6.77824,-2.56412 7.58248,-2.8053c4.92136,-1.47584 9.91327,-2.54717 14.9812,-3.33713c17.0181,-2.6527 34.44158,-2.74399 51.45136,-0.10221c4.78255,0.16739 9.55647,0.21028 14.34187,0.22357c3.05395,0.00848 6.14481,-0.449 9.16187,0.02435c4.36581,0.68495 8.54827,2.31202 13.02134,2.70708c4.62165,0.40817 9.26997,-0.00863 13.89126,0.26737c6.6241,0.39562 13.20504,1.56325 19.83628,1.90012c6.28617,0.31934 12.5737,0.00505 18.8221,1.0822c0.54458,0.09388 8.73321,2.20515 9.53979,2.41207c13.23606,-0.5096 26.4839,-0.4045 39.72878,-0.40619c5.86945,-0.00075 11.98283,-0.4604 17.82373,0.007c2.31687,0.1854 7.52676,1.36725 9.9096,1.59346c4.534,0.43042 9.14639,0.04154 13.68777,0.40228c5.53986,0.44005 10.77356,0.9913 16.35025,0.9913c6.5641,0 13.22813,0.32893 19.78306,0.00303c5.81693,-0.28921 11.59266,-1.45459 17.41097,-1.71977c4.93436,-0.2249 9.98531,0.17923 14.9028,-0.26992c4.95692,-0.45275 9.82065,-1.93638 14.7742,-2.43982c4.70418,-0.4781 9.49482,-0.22468 14.21228,-0.55871c6.65528,-0.47125 13.30712,-1.29438 19.94847,-1.93603c19.98441,-0.11509 40.0738,0.59559 60.0447,-0.06538c7.84752,-0.25973 15.61792,-1.11572 23.35556,-1.97455c5.44149,-0.60397 11.25419,-0.02285 16.73197,-0.02285l-0.70401,2.5l0.70401,2.5c-0.46555,0 -0.93387,-0.00466 -1.40443,-0.01276l-0.00359,0.01276c0,0 -0.09038,0 -0.23676,-0.01718z" fill="#000000" stroke-width="0.5"/><text transform="translate(383.65363,35.15399) scale(0.5,0.5)" font-size="40" xml:space="preserve" fill="#9966ff" fill-rule="nonzero" stroke="none" stroke-width="1" stroke-linecap="butt" stroke-linejoin="miter" stroke-miterlimit="10" stroke-dasharray="" stroke-dashoffset="0" font-family="Sans Serif" font-weight="normal" text-anchor="start" style="mix-blend-mode: normal"><tspan x="0" dy="0">口腔诊所</tspan></text></g></g></svg>