<svg version="1.1" xmlns="http://www.w3.org/2000/svg" xmlns:xlink="http://www.w3.org/1999/xlink" width="304.33597" height="323.51653" viewBox="0,0,304.33597,323.51653"><g transform="translate(-185.84672,-14.21074)"><g data-paper-data="{&quot;isPaintingLayer&quot;:true}" fill-rule="nonzero" stroke="none" stroke-width="0.5" stroke-linecap="butt" stroke-linejoin="miter" stroke-miterlimit="10" stroke-dasharray="" stroke-dashoffset="0" style="mix-blend-mode: normal"><path d="M199.67871,213.3896c-0.63628,-9.96769 -0.25734,-20.06345 -0.64465,-30.05362c-0.48646,-12.54766 0.57493,-25.70588 -1.37963,-38.08789c-1.80134,-11.57166 -1.8166,-23.52404 -2.1524,-35.22187c-0.06859,-2.38951 -0.34981,-8.27288 0.61351,-9.40938c1.24538,-1.46927 3.85241,-0.32898 5.72583,-0.77623c1.68829,-0.40305 3.17927,-1.53679 4.90051,-1.76066c0.99692,-0.12966 1.9226,0.6435 2.92297,0.74313c1.46109,0.14551 2.94445,0.13816 4.40492,-0.01335c2.61566,-0.27136 5.11838,-1.45941 7.74795,-1.48572c0.7183,-0.00719 1.40541,0.70822 2.09474,0.50614c1.58689,-0.46521 2.69683,-2.26109 4.34516,-2.39406c1.79562,-0.14484 4.21929,0.0875 5.15336,1.62787c0.89951,1.48337 -0.96302,3.3604 -1.0789,5.09132c-0.20991,3.13555 0.60123,6.25643 0.86876,9.38758c0.98976,11.65876 0.21921,23.50745 0.16438,35.20518c-0.10592,22.5946 -0.00757,45.19209 -0.00757,67.78696c-0.00386,4.64511 -0.45674,9.04774 -1.00329,13.65108l0.00427,3.81392c0,0 0,1.25066 -0.88458,1.98281c6.08012,-0.80973 12.16105,-1.61788 18.30755,-2.15272c6.07546,-0.52866 12.23171,-0.83227 18.33206,-1.24687c14.70733,-0.99956 29.26592,-1.69889 44.05084,-2.11602c4.89684,-0.13816 9.8975,-0.4628 14.79788,-0.4153c6.11786,0.05931 12.32985,0.58566 18.43087,0.87655c25.27604,1.20511 50.65959,1.74776 75.98068,2.53975c3.16946,0.09913 6.5709,0.00844 9.70859,0.30769c5.93891,0.5664 11.57111,1.68842 17.1803,2.93728c3.02188,0.67281 6.32906,1.38072 8.99574,2.50654c1.24913,0.52736 4.43666,2.27732 5.72657,2.84532c5.6666,2.49522 12.15614,4.34429 16.04555,8.06178c0.2033,0.19432 2.9725,4.17383 3.11689,4.38008c0.63231,4.36586 1.15941,8.57728 0.85045,12.95657c-0.12709,1.80149 0.32903,4.11671 -0.44162,5.86832c-0.93103,2.11613 -2.89457,4.27964 -4.27978,6.30679c-3.94026,5.76628 -8.65465,11.28065 -11.72512,17.25643c-0.12984,0.25244 -2.19601,4.2916 -2.30847,4.41635c-0.6401,0.71005 -1.69493,1.25369 -2.54892,1.87732c-2.3338,1.70427 -4.69395,3.39588 -7.04076,5.09369c-2.8092,2.03234 -5.55471,4.7575 -8.93768,6.44367c-2.81698,1.40406 -6.50342,2.36113 -9.55374,3.57977c-4.63151,1.85035 -8.91119,4.26448 -13.77679,5.87992c-3.23215,1.07311 -6.78231,1.9147 -10.12708,2.85653c-2.87672,0.81003 -5.78599,1.82549 -8.78005,2.46873c-5.77523,1.24074 -11.87659,2.09502 -17.76358,3.13181c-6.50866,1.14628 -13.05944,2.58778 -19.68136,3.46455c-8.13522,1.07713 -16.48231,1.6854 -24.71023,2.44523c-3.28296,0.30318 -6.65185,0.76788 -9.96542,0.91782c-4.89742,0.22161 -9.90613,0.11905 -14.81742,0.17632c-4.68584,0.05464 -10.07459,0.24425 -14.69483,-0.25876c-0.16274,-0.01772 -6.92852,-1.35111 -7.22824,-1.41003c-4.63775,-0.91167 -9.25543,-1.8924 -13.9275,-2.73815c-4.89689,-0.88645 -9.64632,-1.43767 -14.20369,-2.86829c-7.19972,-2.27521 -14.37807,-4.56862 -21.52917,-6.89849c-2.8581,-0.93119 -6.14686,-1.7452 -8.80384,-2.87468c-4.01019,-1.70473 -7.46268,-3.90778 -11.34898,-5.71377c-4.52399,-2.10232 -9.74208,-3.77455 -14.06767,-6.02066c-0.08924,-0.04634 -5.19371,-3.06893 -5.34239,-3.15692c-5.99857,-3.58601 -9.48445,-8.79344 -12.10043,-13.55914c-2.0839,-3.79638 -4.83377,-7.85476 -5.85915,-11.81468c-1.52012,-5.87056 -1.6647,-11.89857 -1.56144,-17.81911c0.09548,-5.47451 0.20328,-10.83391 2.79785,-16.1242c0.60283,-1.22915 0.9208,-2.52393 1.82526,-3.68448c1.61285,-2.06949 4.29248,-3.82332 6.57961,-5.62277c1.59717,-1.25661 3.22084,-2.48547 4.8423,-3.71307c-2.02519,0.04126 -4.07857,0.19949 -6.01403,0.19949c0,0 -2.5,0 -2.5,-2.5c0,-2.5 2.5,-2.5 2.5,-2.5c1.74787,0 3.58121,-0.11134 5.40959,-0.16467c-0.2931,-5.02575 -1.31315,-9.98056 -1.6345,-15.01473zM228.69573,234.35194c0.05104,-0.00675 0.10208,-0.0135 0.15312,-0.02025c-0.0648,-0.02439 -0.12679,-0.05108 -0.18608,-0.0798c0.01163,0.03366 0.02261,0.06701 0.03296,0.10005z" fill="#5c81ff"/><path d="M428.60065,240.12701c2.5,0 2.5,2.5 2.5,2.5l-0.01511,0.18052c0.26463,2.73755 -0.52464,5.48205 -1.01543,8.18821c-1.26053,6.95039 -0.379,14.32314 -1.94981,21.27629c-0.35615,1.57651 -2.84736,7.82319 -3.29682,9.53286c-1.16784,4.44225 -1.69906,9.22634 -2.22996,13.78093c-0.40206,3.41032 -1.01129,6.80466 -1.85367,10.13368c-0.44036,1.74027 -0.65066,3.55814 -1.33781,5.21653c-0.59008,1.42414 -1.87532,2.49213 -2.44908,3.92292c-0.47875,1.19389 -0.18402,2.6047 -0.6494,3.80387c-0.84869,2.18686 -1.24083,5.03043 -3.24936,6.24224c-1.49316,0.90087 -3.57797,-0.34144 -5.08951,-1.21114c-4.71116,-2.71068 -7.30181,-8.7556 -9.19835,-13.46291c-6.61075,-16.40823 -10.44193,-33.68053 -13.50604,-51.04701c-0.25827,-1.46654 -1.27202,-4.06498 -1.77822,-6.51803c-0.4552,0.60961 -0.96197,1.19054 -1.40042,1.8082c-3.58364,5.04842 -4.35499,10.31043 -6.02693,16.27407c-1.75172,6.24816 -4.21669,12.52561 -5.50824,18.88114c-1.29656,6.38018 -1.54535,13.18877 -2.31274,19.65731c-0.20281,1.70953 -0.05257,3.49987 -0.61107,5.12828c-0.01788,0.05212 -0.03615,0.10407 -0.05481,0.15585l0.01947,0.00496l-0.98497,3.86894c-0.25635,1.10824 -1.24957,1.93432 -2.43573,1.93432c-0.99783,0 -1.85912,-0.58458 -2.26007,-1.42995l-1.97675,-3.95158h0.00001l-0.00002,-0.00002c-3.29206,-6.58131 -5.88339,-13.42428 -9.05318,-20.04906c-2.12763,-4.4467 -4.88578,-8.5928 -7.00161,-13.04556c-3.80541,-8.00847 -6.73811,-16.63605 -9.44499,-25.06878c-2.01166,-6.26691 -5.18398,-13.06583 -6.01226,-19.67687c0.04256,3.29879 -1.65047,6.33182 -2.4233,9.57822c-0.8932,3.75202 -1.54074,8.57171 -1.7572,12.42076c-0.16337,2.90517 0.46102,5.81647 0.32709,8.72314c-0.31154,6.76149 -2.65059,13.18992 -3.33373,19.84785c-1.14866,11.19483 1.76476,23.09624 -0.71227,34.1922l-0.38497,4.96288c-0.08798,1.30086 -1.17106,2.3288 -2.49423,2.3288c-0.9537,0 -1.78268,-0.53403 -2.20421,-1.31937l-2.39205,-4.26128c-1.78504,-2.72603 -3.56966,-5.45234 -5.35388,-8.17891c-3.64163,-5.56649 -7.63099,-11.37824 -10.53462,-17.37204c-6.46478,-13.34487 -10.06995,-27.91765 -17.36102,-40.93934c-3.16725,-5.65664 -7.32145,-11.45645 -9.76518,-17.45398c-0.39819,-0.97725 0.44734,-3.00543 -0.60295,-3.10784c-1.08464,-0.10576 -0.83541,2.04259 -1.50516,2.90228c-1.52196,1.9536 -3.80712,3.16823 -5.71825,4.7432c-5.75757,9.75391 -11.85353,19.30284 -17.76234,28.96554c-6.07955,9.94193 -12.04945,20.25888 -18.90656,29.68835c-3.92541,5.39798 -8.49579,10.44092 -12.71057,15.61775c0,0 -1.57842,1.93871 -3.51713,0.36029c-1.93871,-1.57842 -0.36029,-3.51713 -0.36029,-3.51713c4.15719,-5.1061 8.67247,-10.07746 12.54416,-15.40158c13.55849,-18.64479 24.88943,-39.3122 36.91433,-58.96472c2.04314,-1.73182 4.021,-3.545 6.14174,-5.18088c1.83511,-1.41556 3.27406,-4.50415 5.56686,-4.16571c2.32919,0.34381 2.96474,3.66611 4.27964,5.61915c2.74976,4.08423 4.91896,8.79199 7.32389,13.09048c4.89633,8.75154 9.0209,17.7548 12.80942,27.04724c2.47571,6.07239 4.2717,12.61844 7.12919,18.51701c2.81054,5.80164 6.69213,11.42656 10.21864,16.81409c1.2868,1.96643 2.5734,3.93298 3.8598,5.89967c0.04578,-1.93295 0.43026,-3.92011 0.51292,-6.23809c0.11765,-3.29899 -0.00187,-6.60217 -0.00187,-9.90326c0,-4.97185 -0.49406,-10.3128 0.01306,-15.25518c0.67376,-6.5665 3.00599,-12.90613 3.31292,-19.56763c0.13375,-2.90276 -0.48754,-5.80992 -0.32762,-8.71135c0.34263,-6.2163 1.70161,-12.29082 3.3947,-18.23743c0.48029,-1.68691 0.49275,-3.55026 1.33176,-5.09052c1.03167,-1.89394 2.7644,-3.31112 4.1466,-4.96667c1.61423,1.77174 3.57189,3.283 4.84268,5.31522c0.06073,0.09713 3.08022,9.52565 3.17663,9.82598c1.78199,5.55143 3.33038,11.25356 5.36456,16.71712c2.13746,5.74094 4.2756,11.75588 6.90733,17.28765c2.10987,4.43486 4.85821,8.5659 6.97837,12.99643c2.62344,5.48224 4.84683,11.11452 7.40412,16.62242c0.19631,-3.6542 1.30741,-7.71833 1.65229,-10.63872c0.03124,-0.26454 1.17833,-10.00147 1.2056,-10.13566c1.31626,-6.47714 3.80891,-12.86894 5.59392,-19.23588c1.15977,-4.13677 1.69205,-9.52211 3.64591,-13.36212c1.29979,-2.55454 3.77733,-4.4071 4.98369,-7.00706c0.69758,-1.50343 0.16745,-3.77171 1.51582,-4.73547c1.70361,-1.21767 4.48833,-1.96288 6.2308,-0.80149c1.47586,0.98369 0.21311,3.54801 0.51272,5.29616c0.5488,3.20214 1.48926,6.3282 2.05475,9.52744c2.44881,13.87911 5.54952,27.39866 9.8824,40.81803c1.44084,4.46242 2.85249,9.46809 5.0801,13.61681c0.71043,1.32311 1.63838,2.5248 2.59122,3.68558c0.89971,1.09606 2.03395,1.98267 2.95009,3.06503c0.19378,0.22894 0.24406,1.11196 0.34696,0.83023c0.84266,-2.30712 0.34162,-4.97956 1.24931,-7.26188c0.59038,-1.48447 1.893,-2.60869 2.51284,-4.0811c1.7619,-4.1854 2.31366,-9.52149 2.83015,-13.9825c0.56089,-4.78712 1.13303,-9.80281 2.36047,-14.47179c0.84015,-3.1958 2.52726,-6.14023 3.25542,-9.36339c1.2316,-5.45163 1.30129,-11.63331 1.64966,-17.21626c0.22891,-3.66851 1.69152,-6.99214 1.22288,-10.59756l-0.01511,-0.72939c0,0 0,-2.5 2.5,-2.5z" fill="#77ff5c"/><path d="M235.27855,94.15868c0.41133,2.46593 -2.0546,2.87726 -2.0546,2.87726l-1.06314,0.17734c-6.97567,1.1462 -13.89546,3.93541 -20.72708,2.05586c-0.03792,0.48146 -0.25023,1.01027 -0.77884,1.53917c-1.7673,1.76823 -3.53553,0.00093 -3.53553,0.00093c-0.81503,-0.90147 -2.08258,-1.54446 -2.44509,-2.70442c-0.59252,-1.89598 -0.21211,-3.9677 -0.26065,-5.95352c-0.12216,-4.99746 -0.01812,-10.01671 -0.0222,-15.01582c-0.00753,-9.22695 -0.76155,-18.87604 0.00588,-28.07237c0.8301,-9.94728 3.86768,-19.46395 4.05324,-29.45648c0.79854,-1.45869 1.14139,-3.28411 2.39561,-4.37607c1.88033,-1.63708 7.39178,-0.83302 9.09625,-0.74669c4.59367,0.23269 9.16666,0.20214 13.76624,0.20214c14.64983,0 29.44532,-0.59714 44.08127,0.00209c9.31626,0.38143 18.54479,1.48564 27.8804,1.72449c13.16772,0.3369 26.63706,0.76038 39.7322,2.26166c20.86502,2.39205 42.07156,6.00336 63.13413,5.99375c8.82944,0.00536 17.83281,1.9448 26.67482,1.01115c4.9573,-0.52345 9.84894,-1.26031 14.83167,-1.79297c4.36314,-0.46643 14.17433,-1.97422 17.41857,2.20425c1.07071,1.37904 0.68692,3.44854 1.36942,5.05551c0.99033,2.33174 3.08551,4.10358 3.98334,6.47248c2.92501,7.71753 3.42234,16.2166 5.30893,24.19755c1.75397,7.4448 3.04795,15.19135 3.86349,22.80515c0.20294,1.89459 0.29297,3.82237 0.39625,5.74982c0.37817,0.41557 0.61819,0.95909 0.64747,1.55797l0.16504,2.9268c0.37349,2.25512 0.54144,4.53853 0.66671,6.82442c1.94008,9.34604 4.88489,18.59409 6.14372,28.00182c0.38625,2.88662 0.01855,5.82468 0.01855,8.73704c0,6.85436 -0.30685,13.49406 -0.93385,20.31999c-0.02783,0.1384 -0.05562,0.27678 -0.08339,0.41516c0.00325,2.52636 0.00807,5.05241 -0.01076,7.57663c-1.98213,6.44391 -3.73252,12.71139 -4.96244,19.34881c-0.04612,0.2489 -0.08738,0.49853 -0.12457,0.74878c0.09418,5.47233 0.0992,10.94797 -0.36102,16.30238c-0.79369,9.23399 -2.80337,18.92154 -4.91014,28.01974c0.11003,4.91607 0.35345,9.83267 -2.56247,14.07651l-0.98386,-0.92915c-0.05305,0.14244 -0.11259,0.28284 -0.1796,0.42087c-0.03601,0.07417 -0.07306,0.14768 -0.1111,0.22057l0.03741,0.01382l-1.3716,3.71383c-0.33693,0.98243 -1.26869,1.6886 -2.36538,1.6886c-0.32761,0 -0.64051,-0.06302 -0.92722,-0.17759c0.25983,1.46673 0.61457,2.9173 1.08523,4.347l1.53468,3.14c0,0 1.09403,2.24791 -1.15388,3.34194c-2.24791,1.09403 -3.34194,-1.15388 -3.34194,-1.15388l-1.6735,-3.45185c-2.52022,-7.7348 -2.12323,-15.69852 -1.35848,-23.69839c-0.00212,-0.03828 -0.00419,-0.07658 -0.00623,-0.1149c-0.21601,0.00268 -0.4281,0.01196 -0.63478,0.03069c-1.65856,0.15032 -3.32876,0.2507 -5.00515,0.31996l-0.57469,4.14612c-0.15163,1.23557 -1.20471,2.19234 -2.48126,2.19234c-1.38071,0 -2.5,-1.11929 -2.5,-2.5c0,-0.05753 0.00194,-0.1146 0.00577,-0.17115l0.14986,-2.51018c-0.44033,0.3874 -1.01804,0.62234 -1.65063,0.62234c-1.06158,0 -1.96861,-0.66166 -2.3312,-1.59508c-0.72081,0.00795 -1.4409,0.0166 -2.15983,0.02745c0,2.19956 0,4.39911 0,6.59867l-2.5,-0.47751l-2.5,0.47751c0,-0.31834 0,-0.63668 0,-0.95502c0,-1.85544 0,-3.71087 0,-5.56631c-0.267,-0.00593 -0.53409,-0.01497 -0.80125,-0.02691c0.36146,0.43354 0.57893,0.99134 0.57893,1.59993c0,1.38071 -1.11929,2.5 -2.5,2.5c-0.00129,0 -0.00259,0 -0.00388,0l-4.99943,-0.00663l0.00002,-0.01793l-0.05792,0.01718c-1.68406,-0.08007 -3.36812,-0.16015 -5.05219,-0.24022c-12.30359,-0.58664 -24.58179,-1.50518 -36.84783,-2.58563c-4.57962,0.05347 -9.15584,0.05181 -13.71733,-0.16395c-1.12215,-0.05308 -2.24415,-0.11608 -3.36603,-0.1871c-8.39004,0.96886 -16.8063,2.1314 -25.24185,2.15806c-14.94549,0.03731 -30.30404,0.31332 -45.2033,-0.94425c-7.60556,-0.64194 -15.21688,-2.18159 -22.79003,-3.18077l-2.53467,-0.33443c-1.24278,-0.14494 -2.20727,-1.20136 -2.20727,-2.48304c0,-0.08386 0.00413,-0.16675 0.01219,-0.24849c-2.63824,0.46021 -5.27182,1.00409 -7.9237,1.22303c-1.52311,0.12575 -7.36146,-0.13245 -8.58277,-0.00858c-3.02199,0.30651 -5.90871,1.42037 -8.89102,1.99672c-4.77051,0.92193 -9.69172,2.11268 -14.45174,2.90857c-1.75298,0.2931 -4.28101,1.80403 -5.31966,0.36179c-1.44081,-2.00068 -0.08291,-4.95004 0.25676,-7.39203c0.2091,-1.50327 0.62374,-2.96597 1.05185,-4.42656c-0.39518,-2.19918 -0.79036,-4.39835 -1.18554,-6.59753c-0.10902,-0.28102 -0.21962,-0.56132 -0.33237,-0.84064c-2.40828,-6.05454 -2.64717,-12.61299 -3.4675,-19.05425l0.03888,-0.10721l-0.04561,0.00195l-0.13476,-3.15247c-0.00198,-0.04086 -0.00299,-0.08197 -0.00299,-0.12332c0,-1.38071 1.11929,-2.5 2.5,-2.5c0.31652,0 0.6193,0.05882 0.89801,0.16613c0.01103,-0.37938 0.02204,-0.75877 0.03302,-1.13816c0.17224,-5.95088 0.4561,-11.80337 0.93744,-17.66318c-0.37984,-6.32765 -0.5325,-12.68894 -0.42939,-19.14454l0.05616,-3.51616c0.00871,-0.63592 0.25485,-1.21447 0.65378,-1.65102c-0.4019,-0.79599 -0.63424,-1.73614 -1.34844,-2.23676c-0.49681,-0.34824 -1.19971,0.18181 -1.79956,0.27272c0,0 -1.62964,0 -2.25745,-1.31573c-0.62218,-0.3139 -1.24157,-0.93889 -1.24157,-2.18327c0,-2.5 2.5,-2.5 2.5,-2.5c13.53301,0 27.10879,1.65714 40.63447,1.0014c14.74072,-0.71465 29.62168,-2.80813 44.28663,-4.45176c6.09655,-0.51152 12.25612,-1.33395 18.37039,-1.53848c8.87726,-0.29696 17.78367,0.23464 26.6278,-0.97912c4.32616,-0.59372 8.56177,-1.93451 12.89696,-2.46094c11.85146,-1.43915 23.91317,-2.05155 35.81358,-3.0313c4.63588,0.14994 9.73874,0.89122 14.36077,0.48831c2.55666,-0.22287 4.98954,-1.41597 7.55504,-1.48223c2.22927,-0.05758 4.45555,0.13173 6.68302,0.28028c0.00102,-0.0999 0.00089,-0.19963 -0.00066,-0.29918c0,0 0,-2.5 2.5,-2.5c2.5,0 2.5,2.5 2.5,2.5c-0.00315,0.15296 -0.01171,0.30662 -0.02372,0.46073c4.53902,-0.03186 9.27072,-0.39932 13.73587,0.04608c2.57386,0.25674 5.11036,0.99667 7.69696,0.9862l1.9732,1.19403c-0.98056,-5.50831 -2.48766,-10.95866 -3.41683,-16.4663c-1.28653,-7.62582 -1.85029,-15.35683 -3.21442,-22.9747c-1.12196,-6.26549 -2.40164,-12.41872 -3.83791,-18.61779c-0.3425,-1.47825 -0.41718,-3.04133 -1.00685,-4.43948c-1.39374,-3.30466 -2.85425,-3.82949 -5.57567,-5.85229c-2.15104,-0.71315 -4.55258,-0.30769 -6.73745,-0.90928c-1.06352,-0.29283 -1.67037,-1.63624 -2.75596,-1.83196c-1.59676,-0.28788 -3.23991,0.69455 -4.84559,0.4615c-2.09398,-0.30393 -3.74846,-2.23149 -5.8521,-2.45906c-3.18329,-0.34438 -6.40367,0.03132 -9.60553,0.03132c-7.70886,0 -15.4201,0.0478 -23.12865,-0.03545c-6.7936,-0.07338 -13.31273,-1.33606 -20.04853,-1.96908c-5.93977,-0.55821 -12.08578,-0.32984 -18.05983,-0.65811c-8.24698,-0.74906 -16.55941,-1.93626 -24.82824,-2.3312c-6.45099,-0.30812 -12.95499,0.14236 -19.41291,0.00205c-2.84625,-0.06184 -5.68725,-0.61538 -8.52913,-0.4459c-4.93711,0.29443 -9.81568,2.0181 -14.76079,2.43563c-9.73211,0.82171 -19.91813,0.00929 -29.6782,0.00464c-6.33722,-0.5566 -12.62526,-0.99486 -18.88759,-2.13842c-1.56593,-0.28595 -3.11117,-0.72199 -4.69663,-0.86425c-1.71558,-0.15393 -3.49556,0.39382 -5.16739,-0.02081c-0.0536,-0.01329 -0.10876,-0.04103 -0.16444,-0.08006c1.55559,3.91864 -0.57746,9.82963 -1.24092,13.70374c-1.60452,9.36911 -2.48688,18.59646 -2.63073,28.05637c1.30401,-0.39398 2.61179,-0.7702 3.95155,-0.99672l1.06314,-0.17734c0,0 2.46593,-0.41133 2.87726,2.0546zM473.58778,187.63545l0.0202,-0.13157c-0.02378,-0.74105 -0.0479,-1.48213 -0.07286,-2.22324c-0.04631,-1.3749 -0.13565,-2.7814 -0.23141,-4.20129c-0.04614,3.61402 -0.14711,7.22781 -0.28685,10.84048c0.16194,-1.42266 0.35076,-2.85003 0.57093,-4.28438zM465.26039,217.87841c-0.08776,-2.78005 -0.1662,-5.56651 -0.23002,-8.35704c-0.60982,3.09662 -1.31285,6.17309 -2.2298,9.22129l-0.83029,2.75166c-0.154,0.55645 -0.49557,1.03498 -0.95239,1.36324c-0.20132,1.45246 -0.40265,2.90491 -0.60397,4.35737c-0.01437,0.10371 -0.02754,0.2077 -0.03971,0.31193l0.00001,-0.00001c1.37551,-0.00685 2.74376,0.0195 4.0998,0.09401c0.22478,0.01235 0.46126,0.0773 0.70192,0.16641c0.02888,-3.38941 0.18286,-6.79168 0.08445,-9.90886zM457.01039,149.47036c0.08552,-0.89688 0.19026,-1.6489 0.31886,-2.09902c0.01342,-0.09944 0.02661,-0.19895 0.03955,-0.29854l0.1375,-1.04908c-0.32116,0.39385 -0.6613,0.60876 -0.6613,0.60876l-2.80624,1.75969c-1.11373,1.05033 -2.34895,1.99279 -3.53006,2.98241c0.52082,2.73803 1.03529,5.47734 1.55358,8.21579l2.29139,-2.69167l0.76095,-3.35164c0.16678,-0.81318 0.7284,-1.48241 1.47574,-1.79856c0.15105,-0.75634 0.29175,-1.51547 0.42003,-2.27814zM458.01409,142.14933c0.14405,-1.24373 1.20091,-2.20924 2.48327,-2.20924c1.38071,0 2.5,1.11929 2.5,2.5c0,0.11327 -0.00753,0.22478 -0.02212,0.33405l-0.58775,4.92688c0.12878,1.62735 -0.45559,3.23506 -0.58221,4.86257c-0.21328,2.7414 -0.33277,5.49928 -0.41698,8.2611c0.32961,2.36289 0.13038,4.93555 0.10341,7.11922c-0.05194,4.20502 -0.11092,8.40997 -0.16805,12.61493c1.00729,-7.28285 2.25308,-14.50031 4.06487,-21.50169l1.20899,-4.65599c0.12237,-0.51812 0.40595,-0.97396 0.79487,-1.31164c-0.32077,-6.05137 -0.55071,-12.16482 -1.28449,-18.13964c-1.6305,1.39206 -3.26699,-0.14869 -3.26699,-0.14869l0.65263,-0.31819c-2.75307,-0.01167 -5.45831,-0.7314 -8.19712,-1.0115c-4.0406,-0.41324 -8.32831,-0.10502 -12.46452,-0.03329c0.26552,0.39452 0.55285,0.78007 0.81494,1.17667c0.26398,-0.08893 0.57242,-0.14088 0.93281,-0.14088c2.5,0 2.5,2.5 2.5,2.5c-0.00088,0.66664 0.01833,1.3269 0.05286,1.98244l1.20766,1.94916l-0.04124,0.02555c0.08491,0.12572 0.16691,0.2537 0.24574,0.38414c0.79698,1.31884 0.75551,2.96337 0.9352,4.52083c0.80741,-0.75389 1.39336,-1.29962 1.49878,-1.39813l3.19563,-2.03246c0,0 2.11348,-1.33536 3.44884,0.77813l0.00001,-0.00002c0.08099,0.12818 0.14929,0.25349 0.20614,0.37582zM484.10452,147.06017c0.08164,-3.19339 0.92193,-6.40964 0.46907,-9.5718c-0.21753,-1.51893 -0.76604,-2.95444 -1.36617,-4.37886c0.08598,4.61249 0.11886,9.22929 -0.16411,13.78098l0.09713,0.74578c0.89623,2.88859 0.65477,7.34813 0.64172,10.2934c-0.00282,0.63553 -0.00572,1.27107 -0.0087,1.9066c0.07902,-0.38784 0.15792,-0.77565 0.23666,-1.16344c-0.01531,-3.87244 -0.00445,-7.74619 0.09441,-11.61265zM472.0458,210.34941c0.00141,0.37931 0.00438,0.75934 0.00852,1.13998c0.00307,-0.48838 0.00689,-0.97609 0.01163,-1.46322c-0.00671,0.10775 -0.01342,0.21549 -0.02015,0.32324zM383.88037,228.5786c5.09128,-0.68356 10.17227,-1.4243 15.22521,-2.1296c-9.76295,0.20017 -19.47764,0.58165 -29.25124,0.76564c4.67458,0.46527 9.34968,0.92309 14.02603,1.36396zM443.07862,228.24034c0,-0.64011 0,-1.28022 0,-1.92032c-3.23232,0 -6.46464,0 -9.69696,0c-0.14554,0.00021 -0.29081,0.00037 -0.43479,0.00051c-0.05382,0.01657 -0.10706,0.0337 -0.15965,0.05143c-0.29948,0.10098 -0.60157,0.19616 -0.90594,0.28609c3.70938,0.75065 7.4886,1.52159 11.19734,1.58229zM450.06964,227.96303v-0.18025c-0.66576,-0.33615 -1.32945,-0.75232 -1.99103,-1.10482c0,0.46518 0,0.93036 0,1.39554c0.66214,-0.0348 1.326,-0.07218 1.99103,-0.11047zM304.32225,229.26626c-1.48995,0.11747 -2.97985,0.23556 -4.46975,0.35371c2.14481,0.29323 4.29006,0.54698 6.43459,0.72799c11.72995,0.99006 23.7499,1.01489 35.62205,0.96489c-3.21722,-0.25942 -6.42867,-0.56296 -9.64763,-0.86803l-2.64361,-0.13429c-1.32887,-0.05844 -2.38828,-1.15427 -2.38828,-2.49755c0,-0.20774 0.02534,-0.40956 0.07309,-0.60254c-2.49997,0.23701 -4.999,0.47384 -7.49672,0.7063c-1.38318,0.21385 -2.76804,0.39518 -4.16438,0.40024c-0.06353,0 -0.12707,-0.00002 -0.19062,-0.00006c-3.7133,0.33613 -7.42327,0.65718 -11.12873,0.94934zM421.42414,229.84513c-1.46134,-0.25312 -2.9227,-0.50638 -4.38441,-0.75742c-0.99277,0.14806 -1.98618,0.29364 -2.98016,0.4369c2.40083,0.07313 4.8029,0.1734 7.20924,0.3119c0.05163,0.00297 0.10341,0.00584 0.15532,0.00862zM450.5927,195.64564c0.01325,-0.44849 0.03084,-0.89986 0.05157,-1.35358c-0.92745,3.5107 -1.82831,7.01292 -2.60718,10.56448c0.01355,4.9305 0.02878,9.8609 0.03648,14.79088c0.23978,-0.04551 0.48221,-0.09659 0.72771,-0.15406l0.5549,-0.35524c0,0 0.30937,-0.1544 0.75543,-0.23332c0.07642,-7.754 0.25179,-15.49816 0.4811,-23.25917z" fill="#9966ff"/></g></g></svg>