<svg version="1.1" xmlns="http://www.w3.org/2000/svg" xmlns:xlink="http://www.w3.org/1999/xlink" width="103.53635" height="143.77008" viewBox="0,0,103.53635,143.77008"><g transform="translate(-199.39602,-48.90285)"><g data-paper-data="{&quot;isPaintingLayer&quot;:true}" fill="#000000" fill-rule="nonzero" stroke="none" stroke-width="0.5" stroke-linecap="butt" stroke-linejoin="miter" stroke-miterlimit="10" stroke-dasharray="" stroke-dashoffset="0" style="mix-blend-mode: normal"><path d="M294.12201,192.59435c-1.21445,-0.39379 -0.82066,-1.60825 -0.82066,-1.60825l0.32685,-1.00688c1.51086,-5.05478 2.06433,-10.37793 3.6742,-15.3727c0.78309,-2.42959 1.54335,-4.86904 2.35412,-7.28952c0.33347,-0.99553 0.72496,-2.06274 0.55974,-3.09955c-5.09435,-0.77249 -10.74901,-0.00305 -15.88452,0.1949c-0.25308,0.00975 -5.16333,0.20375 -5.30038,0.18902c-0.12539,-0.01348 -4.76529,-1.30905 -4.81863,-1.32388c-2.44479,-0.67973 -5.26035,-1.13926 -7.59261,-2.13193c-2.62341,-1.11658 -5.21298,-3.75031 -7.52307,-5.42698c-0.15169,0.71414 -0.30575,1.42778 -0.46316,2.1407c0.48499,0.02861 0.96824,0.06322 1.4337,0.14967c0,0 1.25523,0.23315 1.02209,1.48838c-0.23315,1.25523 -1.48838,1.02209 -1.48838,1.02209c-0.14301,-0.02656 -0.75006,-0.13708 -1.50704,-0.27794l-0.07569,0.32861c0,0 -0.28657,1.24412 -1.5307,0.95755c-1.24412,-0.28657 -0.95755,-1.5307 -0.95755,-1.5307l0.05437,-0.23604c-0.70978,-0.14226 -1.24899,-0.25994 -1.325,-0.3031c-0.23985,-0.1362 -3.40967,-3.70791 -3.73108,-4.06708c-0.8883,-0.99268 -1.9381,-1.86342 -2.65782,-2.98434c-1.8471,-2.87673 -3.19454,-6.14783 -4.84337,-9.14371c-1.84367,-3.34989 -3.81063,-6.62616 -5.81207,-9.88245c-0.15414,0.34758 -0.31672,0.694 -0.42929,1.04575c-0.77816,2.43145 -1.60035,4.85006 -2.4003,7.27444c-3.90331,11.8295 -7.57069,23.65026 -9.83885,35.92057c-0.27622,1.49324 -0.55244,2.98648 -0.82865,4.47972c0.17597,0.32402 0.41941,1.02527 -0.32152,1.61311c-1.00016,0.79351 -1.79367,-0.20665 -1.79367,-0.20665l-0.49586,-1.32901c0.30963,-1.67387 0.61926,-3.34775 0.92889,-5.02162c1.97963,-10.69459 4.98378,-21.06367 8.32215,-31.39897c1.52511,-4.7216 3.70918,-9.56914 4.62092,-14.49212l-0.28237,-1.16837c-0.02765,-0.10451 -0.04239,-0.21427 -0.04239,-0.32747c0,-0.7051 0.5716,-1.2767 1.2767,-1.2767c0.37639,0 0.71474,0.16288 0.94841,0.422l1.71362,1.88594l-0.02498,0.0227l0.09929,0.06697c3.19144,5.12388 6.17287,10.33821 8.99357,15.67494c0.77128,1.45925 1.42288,2.98741 2.30546,4.38216c1.05993,1.675 2.86834,3.14798 4.16765,4.64319c0.46844,0.53907 0.75668,1.28756 1.37707,1.64132c0.18908,0.10782 0.38544,0.19506 0.58752,0.26618c0.72515,-3.26995 1.37688,-6.55554 2.05186,-9.8365c1.45024,-7.04937 2.20043,-14.25888 2.69609,-21.50469c-3.73592,-0.69449 -7.47185,-1.38899 -11.20777,-2.08348c-2.10017,-0.39041 -5.08437,-0.4383 -7.03305,-1.33704c-2.24383,-1.03487 -4.48176,-3.10901 -6.50935,-4.53165c-4.18044,-2.93317 -8.36087,-5.86634 -12.54131,-8.79951c-4.87717,-3.42203 -9.75435,-6.84406 -14.63152,-10.2661c-1.39348,-0.97772 -2.79934,-1.93803 -4.18044,-2.93317c-0.803,-0.5786 -1.80869,-0.96074 -2.39011,-1.7617c-0.58142,-0.80096 -0.63319,-1.87556 -0.93454,-2.81831c-1.0022,-3.13526 -1.9426,-5.8765 -2.02004,-9.1656l-0.00247,-0.12968c0,0 -0.0243,-1.27647 1.25217,-1.30077c1.27647,-0.0243 1.30077,1.25217 1.30077,1.25217l0.00247,0.12968c0.04233,3.05355 1.05878,5.53393 1.90884,8.46735c0.1985,0.685 0.14022,1.48802 0.55918,2.06517c0.41896,0.57715 1.20053,0.77052 1.79032,1.17147c1.40777,0.95703 2.78696,1.95545 4.18044,2.93317c4.87717,3.42203 9.75435,6.84406 14.63152,10.2661c4.18044,2.93317 8.36087,5.86634 12.54131,8.79951c1.88602,1.32331 3.95351,3.28377 6.03196,4.26786c1.74291,0.82523 4.61801,0.82885 6.51053,1.18066c3.63555,0.67584 7.27111,1.35167 10.90666,2.02751c0.32649,-5.35987 0.54269,-10.73158 0.82841,-16.06517c-1.42269,0.69203 -2.83574,1.40454 -4.27327,2.06509c-0.93095,0.42777 -1.79795,1.10099 -2.8133,1.23782c-0.63068,0.08499 -1.21197,-0.39034 -1.80732,-0.61512c-0.79627,-0.30063 -1.57725,-0.64032 -2.36587,-0.96048c-2.16315,-0.87818 -5.53028,-1.64911 -7.38483,-3.04409c-0.76746,-0.57728 -1.21507,-1.48753 -1.8148,-2.23758c-1.59437,-1.994 -3.15799,-4.01375 -4.73666,-6.02021c-1.05259,-1.33783 -2.12673,-2.65898 -3.15778,-4.01348c-0.61047,-0.80197 -1.50999,-1.46481 -1.79872,-2.43045c-0.28872,-0.96564 0.09933,-2.01346 0.16938,-3.0189c0.11832,-1.69815 0.29095,-3.39209 0.43643,-5.08813c0.28201,-3.28788 0.06199,-7.22731 0.91481,-10.40902c0.21817,-0.81396 0.72663,-1.52071 1.0949,-2.27866c1.11584,-2.29657 2.2516,-4.58376 3.37734,-6.8755c1.08319,-2.20513 2.06699,-5.24918 3.58121,-7.17431c0.88113,-1.12024 2.40974,-1.52293 3.62804,-2.26257c2.17992,-1.32345 4.3373,-2.70403 6.54795,-3.97534c0.90365,-0.51967 1.71052,-1.34655 2.74064,-1.5062c0.76613,-0.11873 1.47786,0.47096 2.20506,0.73972c0.24976,0.09231 4.85838,1.95056 4.95995,2.01662c4.03823,2.62635 6.28189,7.84043 10.91186,9.44594c-0.50059,-1.77014 -1.03319,-3.53026 -1.63857,-5.26683l-0.76763,-2.20404c0,0 -0.41991,-1.20567 0.78576,-1.62558c1.20567,-0.41991 1.62558,0.78576 1.62558,0.78576l0.76763,2.20404c1.40782,4.04587 2.43354,8.21321 3.56602,12.3438c0.63521,2.31687 1.38309,4.4361 1.38895,6.84779c-0.01461,3.40451 -0.02922,6.80902 -0.04383,10.21353c-0.00124,0.28824 -0.01646,5.16161 -0.04138,5.32345c-0.34351,2.23034 -1.67414,4.70569 -2.43684,6.82457c-0.19853,0.55154 -1.75212,4.94594 -1.98205,5.22688c-0.19286,0.23565 -4.24508,2.15712 -4.41733,2.24038c-1.53163,0.74036 -3.06326,1.48071 -4.5949,2.22107c-0.33349,5.9061 -0.564,11.86276 -0.93115,17.80437c0.54402,0.10113 1.08803,0.20226 1.63205,0.30339c0,0 0.26588,0.04943 0.53016,0.22516c0.00713,-1.26598 1.27667,-1.26598 1.27667,-1.26598c2.20711,0.00001 4.4166,-0.01264 6.62337,0.02409c0.72616,0.01208 1.4826,0.27694 2.17776,0.06669c0.69516,-0.21025 1.17802,-0.84994 1.77576,-1.26243c1.40105,-0.96685 2.82495,-1.90015 4.23743,-2.85022c1.41248,-0.95007 2.82495,-1.90015 4.23743,-2.85022c1.03722,-0.69767 2.35649,-1.08257 3.1313,-2.06351c0.99344,-1.25774 1.52374,-2.82027 2.30114,-4.22187c0.82566,-1.48863 1.65133,-2.97725 2.47699,-4.46588c0.60609,-1.09275 1.60441,-2.03562 1.849,-3.26103c0.14719,-0.73741 0.02992,-1.5036 0.04488,-2.25541c0.39305,-11.06418 0.24326,-22.0399 -0.00461,-33.1072l-0.03544,-1.58257c0,0 -0.02859,-1.27638 1.2478,-1.30497c1.27638,-0.02859 1.30497,1.2478 1.30497,1.2478l0.03544,1.58257c0.24896,11.11633 0.39843,22.1417 0.00364,33.25502c-0.04548,0.9494 0.06767,1.91987 -0.13643,2.84819c-0.31095,1.41435 -1.37392,2.54972 -2.07631,3.81609c-0.82566,1.48863 -1.65133,2.97725 -2.47699,4.46588c-0.2005,0.36149 -2.49109,4.5131 -2.65285,4.70989c-0.92018,1.1195 -2.38498,1.64691 -3.58742,2.4557c-1.41248,0.95007 -2.82495,1.90015 -4.23743,2.85022c-1.41248,0.95007 -2.81525,1.91473 -4.23743,2.85022c-0.81577,0.5366 -1.52704,1.30511 -2.46166,1.58779c-0.93462,0.28268 -1.95258,0.03717 -2.929,0.04262c-2.20349,0.01229 -4.40773,-0.02406 -6.61134,-0.02406c0,0 -0.40524,0 -0.75911,-0.22831c-0.00415,0.06488 -0.0126,0.13292 -0.02586,0.20427c-0.23334,1.2552 -1.48854,1.02186 -1.48854,1.02186c-0.44441,-0.08261 -0.88882,-0.16523 -1.33323,-0.24784c-0.50329,7.26018 -1.26262,14.4837 -2.71645,21.5505c-0.35788,1.73961 -0.7094,3.48048 -1.06865,5.21964c0.53369,-0.09192 1.00067,0.24649 1.00067,0.24649c1.37838,0.9989 2.75676,1.99779 4.13514,2.99669c1.00731,0.72998 1.85952,1.73312 3.01004,2.20625c2.21451,0.91068 4.85874,1.32996 7.16793,1.972c1.47838,0.41104 2.90508,1.08631 4.43101,1.24783c1.62755,0.17228 3.27024,-0.14134 4.90567,-0.20438c3.4191,-0.13179 6.83301,-0.29435 10.25491,-0.3004c2.83457,-0.00501 4.92846,-0.13931 7.58744,0.90709c0.28554,0.949 0.85477,1.85597 0.85663,2.847c0.00183,0.97092 -0.55635,1.86048 -0.84601,2.78718c-0.87977,2.81457 -2.06452,5.62674 -2.74577,8.49483c-1.12566,4.73902 -1.86714,9.4341 -3.26593,14.11392l-0.3444,1.06323c0,0 -0.39379,1.21445 -1.60825,0.82066zM262.13058,102.59562c0,0 0.08305,-1.274 1.35705,-1.19095c1.274,0.08305 1.19095,1.35705 1.19095,1.35705c-0.01245,0.19104 -0.02475,0.38214 -0.03689,0.57331c1.103,-0.53316 2.206,-1.06633 3.309,-1.59949c0.76631,-0.37041 1.52404,-0.75912 2.29892,-1.11124c0.43606,-0.19815 1.03945,-0.15958 1.33209,-0.53876c0.94199,-1.22054 0.95495,-2.93247 1.47712,-4.38313c0.70971,-1.97166 2.01546,-4.32867 2.32489,-6.4041c0.24037,-1.61221 -0.00454,-3.26007 0.00245,-4.89008c0.01461,-3.40451 0.02922,-6.80902 0.04383,-10.21353c0.02726,-2.15241 -0.73098,-4.09319 -1.2981,-6.16168c-0.42043,-1.53345 -0.82522,-3.07257 -1.24075,-4.60858c-0.5136,0.42794 -1.21977,0.19265 -1.21977,0.19265c-0.84539,-0.29298 -1.7748,-0.40899 -2.53616,-0.87893c-3.56241,-2.19885 -5.6872,-6.64892 -9.18358,-8.92286c-1.35791,-0.88314 -3.03828,-1.1303 -4.51883,-1.78745c-0.36186,-0.16061 -0.65803,-0.64856 -1.04492,-0.56458c-0.64727,0.14049 -1.06894,0.78363 -1.62466,1.14402c-1.42822,0.92624 -2.9102,1.76682 -4.3653,2.65022c-1.4551,0.88341 -2.89763,1.78785 -4.3653,2.65022c-0.28945,0.17008 -0.68815,0.20727 -0.88641,0.4782c-1.3285,1.81552 -2.17851,4.55118 -3.17347,6.5767c-1.12572,2.29172 -2.24074,4.58916 -3.37734,6.8755c-0.30524,0.61402 -0.75038,1.17393 -0.92658,1.83661c-0.80458,3.02613 -0.56256,6.81493 -0.83091,9.9435c-0.14548,1.69604 -0.25835,3.3952 -0.43643,5.08813c-0.07275,0.69165 -0.46628,1.40291 -0.26705,2.06923c0.19923,0.66632 0.91859,1.04483 1.35906,1.58303c1.07813,1.31733 2.10518,2.67565 3.15778,4.01348c1.57861,2.00638 3.17603,3.99983 4.73666,6.02021c0.45369,0.58735 0.74986,1.32976 1.34297,1.77589c0.59311,0.44613 1.38853,0.52481 2.07866,0.79783c1.5829,0.62622 3.1545,1.28064 4.73175,1.92096c0.78862,0.32016 1.58793,0.61518 2.36587,0.96048c0.26704,0.11853 0.47891,0.49116 0.76436,0.42892c0.66379,-0.14473 1.18011,-0.67443 1.78454,-0.98467c1.51443,-0.77731 3.06522,-1.48166 4.59783,-2.22249c0.31705,-0.15326 0.63411,-0.30651 0.95116,-0.45977c0.04007,-0.67208 0.08178,-1.3434 0.12548,-2.01387z"/></g></g></svg>