<svg version="1.1" xmlns="http://www.w3.org/2000/svg" xmlns:xlink="http://www.w3.org/1999/xlink" width="95.90527" height="94.26626" viewBox="0,0,95.90527,94.26626"><g transform="translate(-88.53852,-64.858)"><g data-paper-data="{&quot;isPaintingLayer&quot;:true}" fill="#000000" fill-rule="nonzero" stroke="none" stroke-width="0.5" stroke-linecap="butt" stroke-linejoin="miter" stroke-miterlimit="10" stroke-dasharray="" stroke-dashoffset="0" style="mix-blend-mode: normal"><path d="M121.48936,151.33198c-0.96049,-0.2477 -0.71278,-1.20819 -0.71278,-1.20819l0.29549,-1.14578c0.91286,-3.5397 1.53458,-7.06447 2.14675,-10.66872c0.32294,-1.90136 0.81468,-3.86435 0.98606,-5.78469c0.16487,-1.84735 -0.00351,-3.80519 -0.00351,-5.65983c0,-3.96765 0,-7.93529 0,-11.90294c0,0 0,-0.16336 0.0663,-0.35749c-2.80978,-0.31746 -5.62321,-0.81499 -8.41615,-1.07906c-4.44373,-0.42015 -8.87316,-0.68303 -13.32754,-0.73183c-0.02392,0.15178 -0.04909,0.30332 -0.07557,0.45463l-0.05325,0.30181c0,0 -0.17234,0.97683 -1.14916,0.80449c-0.97683,-0.17234 -0.80449,-1.14916 -0.80449,-1.14916l0.05325,-0.30181c0.01407,-0.07904 0.02775,-0.15817 0.04107,-0.23737c-0.2512,-0.12233 -0.50576,-0.37027 -0.50576,-0.87276c0,-0.67349 0.45729,-0.88969 0.75088,-0.9591c0.32745,-3.19058 0.19433,-6.46972 0.26578,-9.66014c0.18891,-4.60986 0.51829,-9.23821 0.56844,-13.85136c0.07773,-7.15034 -0.39639,-14.31784 -0.39639,-21.47278c0,0 0,-0.99191 0.99191,-0.99191c0.99191,0 0.99191,0.99191 0.99191,0.99191c0,0.19745 0.00036,0.39491 0.00106,0.59237c10.87059,-0.00003 21.74118,-0.00082 32.61177,0.00012c6.00065,0.18634 11.93489,0.37003 17.90529,1.01418c2.13531,0.23038 3.56846,0.31434 5.51976,1.29323c0.74715,0.37482 1.74646,0.49328 2.20682,1.19098c0.19526,0.29593 0.27249,3.9245 0.29026,4.48021c0.12315,3.8521 -0.2362,7.60936 -0.55959,11.44816c-0.65698,7.79887 -3.04054,15.41528 -3.44474,23.24263c-0.09974,1.9315 0.09447,3.94155 0.13946,5.87564l0.01228,0.75054c0,0 0.01619,0.99178 -0.97559,1.00797c-0.99178,0.01619 -1.00797,-0.97559 -1.00797,-0.97559l-0.012,-0.73679c-0.04614,-1.98367 -0.23964,-4.04323 -0.13735,-6.02408c0.40543,-7.85139 2.79028,-15.48625 3.4491,-23.30685c0.31695,-3.76238 0.67427,-7.44351 0.5536,-11.21824c-0.02113,-0.66094 -0.07042,-1.32157 -0.06339,-1.98281c0.00522,-0.49051 0.37025,-1.05877 0.10009,-1.46822c-0.27016,-0.40944 -0.93657,-0.29649 -1.38922,-0.48553c-1.86383,-0.77841 -2.85798,-0.89918 -4.89431,-1.11888c-5.90991,-0.63762 -11.78331,-0.81779 -17.72334,-1.00297c-10.85444,0.00096 -21.70888,0.00015 -32.56332,0.00012c0.08695,6.30379 0.44544,12.61427 0.37768,18.91191c-0.0498,4.62901 -0.37961,9.27318 -0.56937,13.89885c-0.07084,3.16902 0.0383,6.40663 -0.25949,9.57552c4.43381,0.05565 8.84449,0.31963 13.26818,0.73788c3.90379,0.3691 7.85119,1.20494 11.7681,1.34323c2.5867,0.09132 5.26345,-0.2286 7.85055,-0.33947c3.90142,-0.1672 7.7914,-0.16839 11.69607,-0.16839h1.61522c0,0 0.99191,0 0.99191,0.99191c0,0.99191 -0.99191,0.99191 -0.99191,0.99191h-1.61522c-3.87637,0 -7.73804,0.00058 -11.61113,0.16657c-2.63901,0.1131 -5.3667,0.43322 -8.00548,0.34005c-0.52297,-0.01846 -1.04641,-0.04913 -1.57017,-0.0893c0.019,0.10403 0.019,0.17505 0.019,0.17505c0,3.96765 0,7.93529 0,11.90294c0,1.91068 0.16554,3.92336 -0.00351,5.82651c-0.17548,1.97555 -0.67482,3.99406 -1.00706,5.95019c-0.62144,3.65888 -1.25478,7.23817 -2.18159,10.83194l-0.29549,1.14578c0,0 -0.2477,0.96049 -1.20819,0.71278z"/><path d="M184.39959,152.72591c0.25827,0.9577 -0.69942,1.21597 -0.69942,1.21597l-0.52143,0.13426c-5.58911,0.85661 -11.20268,1.215 -16.84765,1.46609c-13.85671,0.61635 -27.76925,0.68685 -41.60741,1.58507c-11.71571,0.76045 -23.42026,1.48536 -35.14961,1.99668c0,0 -0.99097,0.0432 -1.03417,-0.94777c-0.0432,-0.99097 0.94777,-1.03417 0.94777,-1.03417c11.71531,-0.51071 23.40581,-1.23486 35.10751,-1.9944c13.85168,-0.8991 27.77754,-0.97033 41.64776,-1.58728c5.57376,-0.24792 11.11665,-0.59935 16.63526,-1.44516l0.30542,-0.08873c0,0 0.9577,-0.25827 1.21597,0.69942z"/><path d="M139.82185,106.62552c-0.47106,0 -0.47106,-0.47106 -0.47106,-0.47106v-0.2033c0.00015,-2.19167 0.11511,-4.38514 0.1885,-6.57553c0,0 0.01578,-0.47079 0.48657,-0.45502c0.47079,0.01578 0.45502,0.48657 0.45502,0.48657c-0.07304,2.17984 -0.18813,4.36288 -0.18797,6.54398v0.2033c0,0 0,0.47106 -0.47106,0.47106z"/><path d="M134.4186,103.22847c-0.45149,-0.13437 -0.31711,-0.58586 -0.31711,-0.58586l0.23773,-0.79876c0.10343,-0.34751 0.20744,-0.69483 0.31191,-1.04201c0.01368,-0.76111 0.03044,-1.52168 0.04228,-2.28074c0.0098,-0.628 0.00076,-1.25658 0.02939,-1.884c0.01113,-0.24383 0.13998,-0.49851 0.06158,-0.72967c-0.04866,-0.14346 -0.26544,-0.14739 -0.38884,-0.23525c-0.25581,-0.18215 -0.49819,-0.38248 -0.74728,-0.57372c-0.11787,-0.09049 -0.23617,-0.18044 -0.35459,-0.27022c-1.3983,-0.23383 -2.92767,-0.39006 -3.99159,-1.32536c-0.3165,-0.27824 -0.83964,-0.46459 -0.90714,-0.88057c-0.03632,-0.22381 0.92158,-1.64585 1.09461,-1.91278c0.68336,-1.05419 1.31014,-2.20389 2.07625,-3.19896c0.24303,-0.31566 0.51514,-0.61794 0.80028,-0.91262c-0.0702,-0.0564 -0.12958,-0.14442 -0.15681,-0.28066c-0.09233,-0.46192 0.36959,-0.55425 0.36959,-0.55425c0.30595,-0.05966 0.59935,-0.14351 0.88475,-0.24436c0.19188,-0.18667 0.38076,-0.37319 0.56212,-0.56119c0,0 0.32705,-0.33902 0.66607,-0.01197c0.00867,0.00836 0.0169,0.01673 0.02471,0.0251c0.39695,-0.19853 0.79149,-0.41027 1.19785,-0.61284c1.33579,-0.66588 2.69341,-1.22026 4.08514,-1.76068c0.49698,-0.19298 1.0509,-0.23976 1.58376,-0.22301c0.40687,0.01279 0.88728,-0.15331 1.21837,0.08352c0.33109,0.23684 0.3271,0.74589 0.4726,1.12607c0.2245,0.58658 0.40443,1.18929 0.6003,1.78604c0.10987,0.33475 0.29574,0.65506 0.32326,1.0063c0.0059,0.07532 -0.29697,1.83735 -0.32,1.97324c-0.1579,0.93178 -0.28161,1.87978 -0.47564,2.80463c-0.44294,2.11133 -1.28248,4.20021 -1.59046,6.33369c-0.08749,0.60607 -0.05285,1.22357 -0.08046,1.8353c-0.02832,0.62744 -0.04782,1.25533 -0.08495,1.88231c-0.01316,0.22221 -0.11742,0.45274 -0.0527,0.66573c0.07736,0.25457 0.30632,0.43518 0.45442,0.65621c0.1748,0.26089 0.35149,0.52082 0.51418,0.78943c0.05171,0.08537 0.03519,0.23383 0.12793,0.27073c0.23291,0.09265 0.49953,0.04432 0.74796,0.07769c0.79289,0.10649 0.90433,0.14222 1.62717,0.29469c1.15777,-0.92735 2.50196,-1.67979 3.60806,-2.66265c0.67757,-0.60207 1.26993,-1.37716 1.8855,-2.04308c0.425,-0.45977 0.9612,-0.92937 1.40303,-1.42716c-0.00431,-0.10182 -0.0071,-0.20352 -0.00689,-0.30499c0.00243,-1.15772 0.00395,-2.31543 0.00395,-3.47315v-0.57808c0,0 0,-0.47106 0.47106,-0.47106c0.47106,0 0.47106,0.47106 0.47106,0.47106v0.57808c0,0.72297 -0.00059,1.44594 -0.00163,2.16891c0.0432,-0.10312 0.08758,-0.20558 0.13531,-0.30615l0.22104,-0.34552c0,0 0.25809,-0.39406 0.65215,-0.13598c0.39406,0.25809 0.13598,0.65215 0.13598,0.65215l-0.15806,0.23332c-0.0989,0.20836 -0.6892,1.45472 -0.71405,1.49185c-0.08397,0.12545 -0.17673,0.249 -0.27585,0.37088c-0.00137,0.55943 -0.00437,1.27745 -0.01096,1.31619c-0.10017,0.58858 -0.42503,1.11589 -0.64126,1.6724c-0.38285,0.97392 -0.8912,1.66883 -1.50961,2.50763c-0.20607,0.27951 -0.36299,0.6045 -0.62226,0.83551c-0.04894,0.04361 -1.61594,0.92629 -1.72148,0.98599c-0.08323,0.04708 -1.64462,0.93185 -1.6979,0.9554c-0.98536,0.43554 -2.25158,0.56062 -3.29777,0.81903c-0.09187,0.02269 -1.85467,0.46005 -1.90462,0.46405c-0.04996,0.004 -1.85988,-0.14737 -1.95419,-0.15516c-0.88497,-0.07308 -2.07105,0.00823 -2.91648,-0.25182c-0.33353,-0.10259 -1.66787,-0.986 -1.90882,-1.14005c-0.05835,-0.97654 -0.08033,-1.9561 -0.08301,-2.93656c-0.06058,0.00682 -0.12991,0.00125 -0.20895,-0.02227zM135.98446,96.43163c0,0 0.13832,-0.45029 0.58861,-0.31197c0.45029,0.13832 0.31197,0.58861 0.31197,0.58861c-0.41557,1.35285 -0.83109,2.70554 -1.23993,4.06034c0.02498,1.65575 0.05678,3.32542 -0.12068,4.94413c0.47002,0.21184 0.87916,0.56255 1.37193,0.71412c0.78012,0.23995 1.9015,0.14603 2.71703,0.21338c0.60067,0.0496 1.20069,0.20306 1.80148,0.15497c0.60079,-0.04809 1.16876,-0.29505 1.75389,-0.43957c0.99697,-0.24624 2.24142,-0.35867 3.17557,-0.77984c0.55312,-0.24938 1.05406,-0.60125 1.58217,-0.89997c0.51779,-0.29289 1.11443,-0.47363 1.55859,-0.86938c0.2097,-0.18684 0.32361,-0.45915 0.4877,-0.68709c0.56281,-0.78179 1.0466,-1.39102 1.39275,-2.29386c0.1954,-0.50288 0.50527,-0.97351 0.59362,-1.50574c0.00919,-0.05539 0.01662,-0.11091 0.02252,-0.16656c-0.25385,0.25096 -0.50607,0.49691 -0.73104,0.74028c-0.63657,0.68865 -1.25096,1.48532 -1.95153,2.10783c-1.2034,1.06932 -2.68351,1.97142 -4.01412,2.87453c-0.83448,-0.104 -1.18669,-0.13584 -1.99464,-0.28036c-0.37211,-0.06656 -0.77537,-0.04767 -1.11296,-0.21777c-0.20252,-0.10205 -0.27615,-0.36005 -0.40463,-0.54692c-0.09136,-0.13287 -1.06397,-1.63005 -1.08813,-1.71207c-0.02609,-0.08857 0.05866,-1.80154 0.06297,-1.89712c0.04229,-0.93709 -0.0022,-1.9427 0.13192,-2.87049c0.17684,-1.22331 0.61636,-2.46748 0.91719,-3.66704c0.45833,-1.82758 0.8374,-3.6345 1.1522,-5.49218c0.09855,-0.58156 0.35571,-1.1542 0.30963,-1.74225c-0.02155,-0.27499 -0.18707,-0.519 -0.27704,-0.77974c-0.20487,-0.59372 -0.43348,-1.18053 -0.6003,-1.78604c-0.05951,-0.21602 0.05454,-0.52961 -0.1277,-0.65997c-0.18224,-0.13036 -0.44215,0.07935 -0.66584,0.09233c-1.01844,0.05908 -1.14093,0.11726 -2.11895,0.50296c-1.07447,0.42374 -2.10095,0.86678 -3.13405,1.38178c-0.79787,0.39773 -1.5476,0.81205 -2.34991,1.1218c-0.59045,0.5687 -1.19805,1.14383 -1.68126,1.77381c-0.55604,0.72493 -1.01382,1.56798 -1.51094,2.33488c-0.34164,0.52703 -0.64345,1.08214 -1.02491,1.5811c-0.12909,0.16886 -0.4768,0.24907 -0.44276,0.45887c0.03223,0.1986 0.35255,0.17841 0.53554,0.27737c0.07021,-0.02671 0.12516,-0.0327 0.12516,-0.0327c0.07787,-0.00849 1.72918,-0.2005 1.83472,-0.16602c0.35427,0.11575 0.60779,0.43162 0.90711,0.65368c0.33361,0.24751 0.66177,0.50223 0.98989,0.75701c0.02191,0.00499 0.04383,0.01 0.06573,0.01501l0.47509,-0.12177c0,0 0.45883,-0.10661 0.56545,0.35222c0.05838,0.25124 -0.05278,0.39688 -0.16532,0.47723c0.40291,0.30983 0.94237,0.73462 0.97435,0.81401c0.14381,0.35705 0.02898,0.76942 0.03219,1.15433c0.00235,0.28124 -0.00134,0.56247 -0.007,0.84368c0.1088,-0.35464 0.21773,-0.70924 0.32666,-1.06386zM131.56625,93.45728c-0.06814,-0.02417 -0.13858,-0.0185 -0.21004,-0.00131c0.11483,0.0232 0.22965,0.04655 0.34443,0.07008c-0.04181,-0.02809 -0.08621,-0.05169 -0.13439,-0.06877z"/><path d="M125.32958,85.52829l0.4736,-0.1338c0.00631,2.18237 0.18824,4.35712 0.18824,6.54102c0,2.36423 -0.16965,4.75348 -0.10234,7.11411c0.08736,3.06367 0.47828,6.10833 0.47863,9.18202c0,0 0,0.47106 -0.47106,0.47106c-0.47106,0 -0.47106,-0.47106 -0.47106,-0.47106c0.00036,-3.0648 -0.39114,-6.1003 -0.47824,-9.15517c-0.06757,-2.36974 0.10196,-4.76766 0.10196,-7.14096c0,-2.08414 -0.16527,-4.15987 -0.18626,-6.242c-0.00198,-0.02058 -0.00198,-0.03286 -0.00198,-0.03286l0.00166,-0.00047c-0.00082,-0.0876 -0.00138,-0.17521 -0.00166,-0.26284z"/><path d="M119.69662,85.54746c0.63793,-0.06397 1.24342,-0.28086 1.87261,-0.44698c1.50545,-0.39747 3.00645,-0.82733 4.51984,-1.19324c1.52655,-0.36908 3.02928,-0.69371 4.53158,-1.15856c0.14077,-0.04356 1.63738,-0.5093 1.78932,-0.54586c0.08089,-0.01947 0.17884,0.03712 0.24949,-0.0068c0.24122,-0.14993 -0.45724,-0.3443 -0.71526,-0.46301c-0.23632,-0.75326 -0.69107,-1.23112 -1.08096,-1.93698c-0.54489,-0.9865 -1.02239,-1.9949 -1.6302,-2.94423c-0.13051,-0.20384 -0.4421,-0.85285 -0.79297,-0.97849c-0.06841,-0.0245 -0.14147,0.03817 -0.2057,0.07215c-0.53287,0.28195 -1.0451,0.60132 -1.56917,0.89932c-0.52586,0.29902 -1.10178,0.52236 -1.57991,0.89294c-0.47886,0.37114 -0.83973,0.87352 -1.26131,1.30863c-0.42456,0.43819 -0.90419,0.82859 -1.27589,1.31243c-0.54631,0.71112 -0.96235,1.60943 -1.42412,2.37881c-0.48271,0.80312 -0.86732,1.6235 -1.2671,2.47038zM118.83947,86.04051c-0.31666,-0.21345 -0.14317,-0.58095 -0.14317,-0.58095l0.30862,-0.65376c0.4131,-0.87508 0.81344,-1.72242 1.31127,-2.55302c0.48037,-0.80037 0.91665,-1.72838 1.48481,-2.46794c0.02164,-0.02817 1.29884,-1.34499 1.34637,-1.39404c0.05825,-0.06012 1.32617,-1.37088 1.36096,-1.39784c0.03472,-0.02691 1.61989,-0.92659 1.69118,-0.96713c0.59689,-0.33941 1.67192,-1.28094 2.43256,-1.07485c0.75056,0.20336 1.0119,0.8073 1.3919,1.38897c0.46814,0.71658 0.81477,1.42898 1.21398,2.18326c0.28445,0.53745 0.53705,1.09545 0.87718,1.59951c0.21648,0.3208 0.4826,0.63764 0.56064,1.0167c0.25766,0.14106 0.6464,0.15811 0.77298,0.42318c0.7741,1.62091 -1.61543,1.79705 -2.54962,2.08612c-2.39233,0.74026 -4.84556,1.24222 -7.26761,1.88169c-1.38983,0.36695 -2.8813,0.96847 -4.32101,0.9776c0,0 -0.46866,0 -0.47105,-0.46747z"/></g></g></svg>