<svg version="1.1" xmlns="http://www.w3.org/2000/svg" xmlns:xlink="http://www.w3.org/1999/xlink" width="406.92839" height="206.08763" viewBox="0,0,406.92839,206.08763"><g transform="translate(-16.05572,-20.92045)"><g data-paper-data="{&quot;isPaintingLayer&quot;:true}" fill-rule="nonzero" stroke="none" stroke-width="0.5" stroke-linecap="butt" stroke-linejoin="miter" stroke-miterlimit="10" stroke-dasharray="" stroke-dashoffset="0" style="mix-blend-mode: normal"><path d="" fill="#ff0000"/><path d="" fill="#ff0000"/><path d="" fill="#ff0000"/><path d="" fill="#ff0000"/><path d="" fill="#ff0000"/><path d="" fill="#ff0000"/><path d="" fill="#ff0000"/><path d="" fill="#ff0000"/><path d="" fill="#ff0000"/><path d="" fill="#ff0000"/><path d="" fill="#ff0000"/><path d="" fill="#ff0000"/><path d="" fill="#ff0000"/><path d="" fill="#ff0000"/><path d="" fill="#ff0000"/><path d="" fill="#ff0000"/><path d="" fill="#ff0000"/><path d="" fill="#ff0000"/><path d="" fill="#ff0000"/><path d="" fill="#ff0000"/><path d="" fill="#ff0000"/><path d="" fill="#ff0000"/><path d="" fill="#ff0000"/><path d="" fill="#ff0000"/><path d="" fill="#ff0000"/><path d="" fill="#ff0000"/><path d="" fill="#ff0000"/><path d="" fill="#ff0000"/><path d="" fill="#ff0000"/><path d="" fill="#ff0000"/><path d="" fill="#ff0000"/><path d="" fill="#ff0000"/><path d="" fill="#ff0000"/><path d="" fill="#ff0000"/><path d="" fill="#ff0000"/><path d="" fill="#ff0000"/><path d="" fill="#ff0000"/><path d="" fill="#ff0000"/><path d="" fill="#ff0000"/><path d="" fill="#ff0000"/><path d="" fill="#ff0000"/><path d="" fill="#ff0000"/><path d="" fill="#ff0000"/><path d="" fill="#ff0000"/><path d="" fill="#ff0000"/><path d="" fill="#ff0000"/><path d="" fill="#ff0000"/><path d="" fill="#ff0000"/><path d="" fill="#ff0000"/><path d="" fill="#ff0000"/><path d="" fill="#ff0000"/><path d="" fill="#ff0000"/><path d="" fill="#ff0000"/><path d="" fill="#ff0000"/><path d="" fill="#ff0000"/><path d="" fill="#ff0000"/><path d="M85.99165,88.816c7.52978,0 15.28999,0.52516 22.80037,0.00478c4.55325,-0.31548 8.58111,-0.99854 13.17663,-1.0028c9.60125,0 19.13848,-0.11601 28.71482,-0.92391c7.50881,-0.63348 14.95423,-2.20846 22.45504,-2.75753c2.50128,-0.1831 5.0329,0.04116 7.51809,-0.29614c4.47092,-0.6068 8.85531,-1.89899 13.33262,-2.46048c4.05959,-0.5091 8.15475,-0.79593 12.25529,-1.00738c0.36753,-0.31529 0.8927,-0.54055 1.64314,-0.54055c0.62718,0 1.09702,0.15734 1.44899,0.39308c2.94331,-0.13121 5.88547,-0.2426 8.81534,-0.38847c9.63602,-0.69154 19.30759,-1.61292 28.9639,-1.9393c13.32612,-0.45042 26.68656,0.32059 40.01271,-0.06128c11.35642,-0.32543 22.63724,-0.99895 34.01205,-0.99901c15.76059,0 31.32902,1.51792 47.05005,1.9977c17.56421,0.53603 35.07872,-0.58819 52.54643,1.66008c1.36601,6.58956 0.52404,12.61029 0.37576,19.28083c-0.22271,10.01858 -0.51136,19.98424 -0.85698,29.99916c-0.62882,18.22079 -0.12718,36.52975 -0.14497,54.75978c0.56468,4.54298 1.67645,9.40014 1.71521,13.97949c0.02429,2.8691 -0.73492,5.70896 -0.71252,8.57808c0.03857,4.94065 0.46189,9.86356 0.74496,14.79982c0.45504,0.22678 0.91061,0.61893 1.12553,1.29705c-2.96492,0.33209 -5.80286,1.46792 -8.71009,2.16519l-2.81507,0.69334c-1.65846,-0.17002 -3.33281,-0.34614 -5.08753,-0.47074c-4.94907,-0.35145 -9.97494,0.24854 -14.93187,0.0024c-3.01302,-0.14962 -5.98404,-0.8114 -8.99498,-0.99819c-6.36867,-0.39508 -12.84758,0.40839 -19.20838,-0.22493c-3.30888,-0.32945 -6.50554,-1.46473 -9.81599,-1.77807c-7.11937,-0.67385 -14.6025,0.44318 -21.68899,1.006c-14.68815,0.0059 -29.39492,-0.46124 -44.06421,-0.46802c-19.30902,-0.00892 -38.45888,3.465 -57.79935,3.465c-22.6224,0 -45.25086,-0.15369 -67.87263,0.01318c-11.69952,0.08631 -23.46735,0.79857 -35.15058,0.13134c-13.19433,-0.75769 -26.4383,-0.86342 -39.61814,-1.67792c-11.33423,-0.70044 -22.39083,-2.96272 -33.60437,-4.49025c-3.53593,-0.48167 -7.0136,-0.78593 -10.50198,-1.26653c-0.04076,0.58752 -0.08529,1.22502 -0.1306,1.87108c-1.62786,-0.01681 -3.25545,-0.03097 -4.88291,-0.04277c0.08181,-0.88909 0.14989,-1.77855 0.18527,-2.66885c-0.65008,-0.23425 -2.01228,-0.9587 -1.63689,-2.84358c0.2223,-1.11622 0.85157,-1.62307 1.47118,-1.84404c-0.54605,-5.1933 -2.09378,-10.40684 -2.5108,-15.58084c-0.61525,-7.63351 -0.00655,-15.56537 -0.00655,-23.22683c0,-18.15053 0.727,-36.59018 -0.4592,-54.70835c-0.6726,-10.27335 -3.02273,-20.46831 -3.46409,-30.75287c4.7559,0.56661 9.53063,0.83212 14.37327,0.84124h7.98902c0,0 2.84689,0 5.50268,-1.519c8.81377,0 17.62756,0 26.44133,0zM226.36064,85.409v-0.08301c0,0 0,-0.5413 0.25188,-1.12015c-2.72117,0.2133 -5.44064,0.42676 -8.15723,0.62155c-2.64915,0.13209 -5.30885,0.23454 -7.9704,0.34925c0.25387,3.78372 0.94565,7.39557 1.36335,11.25281c0.71907,6.64024 0.94186,13.39951 1.36226,20.06602c1.16003,18.3953 1.1721,36.69724 1.17213,55.12339c0.00001,10.76515 0.57789,21.7141 -0.00232,32.46193c-0.31637,5.86046 -1.45464,11.64865 -1.85516,17.47804c4.27905,0.00899 8.55801,0.01681 12.83678,0.02027l0.00057,-0.9791c0.01058,-16.67535 0.99813,-33.30209 0.99813,-49.978c0,-8.34506 -0.14237,-16.70444 0.00046,-25.04812c0.10658,-6.22585 1.003,-12.5846 0.73394,-18.80121c-0.26889,-6.21282 -1.89614,-12.58177 -2.71155,-18.7503c-0.583,-4.41034 -1.39267,-9.02065 -1.52466,-13.46352c-0.03356,-1.12979 0.66161,-2.31634 0.27778,-3.37946c-0.16065,-0.44498 -0.84465,0.4264 -1.26697,0.6396c0,0 -2.5,0 -2.5,-2.5c0,-2.5 2.5,-2.5 2.5,-2.5c1.49454,0.20749 3.50737,-0.5144 4.52526,0.54782c-0.02085,-0.6487 -0.03413,-1.30112 -0.03426,-1.95782z" fill="#000000"/><path d="" fill="#000000"/><path d="M46.54286,130.92172c0.94668,-0.95376 1.90045,-0.00708 1.90045,-0.00708l1.15689,1.29109c4.72852,-0.34571 9.42492,-0.08618 14.00804,-1.43376c0.73186,-0.21519 1.55547,-0.21174 2.20543,-0.61109c1.24065,-0.7623 1.74928,-2.32907 2.66297,-3.46287c0.49061,-0.6088 1.17723,-1.09494 1.49021,-1.81145c0.31298,-0.71651 0.19212,-1.55227 0.31632,-2.32422c0.20128,-1.25099 0.99415,-2.71457 -0.34932,-3.76138c-0.41167,-0.32076 -1.03366,-0.15093 -1.54349,-0.26243c-0.85981,-0.18804 -1.70152,-0.45419 -2.56275,-0.63562c-2.41351,-0.50843 -5.79747,-0.40528 -8.03787,-1.40706c-0.04412,-0.01973 -0.08764,-0.04045 -0.13061,-0.06209l-0.006,0.01469l-1.2859,-0.5252c-0.50555,-0.19301 -0.86463,-0.68251 -0.86463,-1.25587c0,-0.53504 0.31268,-0.99704 0.76527,-1.21325l1.26096,-0.63503c1.54402,-0.78235 3.21257,-1.35361 4.63748,-2.3363c2.838,-1.95723 4.91131,-4.92358 7.07793,-7.53458c1.19326,-1.438 2.69407,-3.66864 1.27215,-5.68372c-0.2779,-0.39382 -0.87786,-0.40535 -1.33869,-0.54663c-1.30059,-0.39871 -2.68429,-0.55855 -4.04455,-0.54424c-1.65916,0.01745 -3.38968,-0.4028 -4.97712,0.08005c-0.67545,0.20545 -1.16763,0.79413 -1.7586,1.18039c-1.84689,1.20711 -3.88278,2.12182 -5.43231,3.69624c0,0 -0.95046,0.95 -1.90046,-0.00045c-0.95,-0.95046 0.00045,-1.90046 0.00045,-1.90046c1.7219,-1.69874 3.83805,-2.77348 5.88322,-4.05887c0.79435,-0.49924 1.4975,-1.20501 2.39492,-1.47866c0.68316,-0.20831 4.93714,-0.20078 5.76788,-0.20581c2.16245,-0.0131 6.0402,0.09619 7.50165,2.09656c0.68306,0.93495 0.84322,2.18831 0.94979,3.34128c0.33319,3.60476 -1.86635,5.27103 -3.92216,7.80453c-1.70981,2.1071 -3.69116,4.4103 -5.94822,5.96688c-0.05399,0.03723 -1.49081,0.76845 -2.80384,1.43463c0.93362,0.21136 1.86391,0.50988 2.79909,0.67291c3.66961,0.63974 8.68988,0.56654 9.66135,5.08576c0.21812,1.01467 -0.25457,2.06029 -0.40983,3.08646c-0.15112,0.99877 -0.10481,2.06165 -0.50917,2.98733c-0.40435,0.92568 -1.22494,1.6066 -1.84566,2.40353c-0.06894,0.08851 -3.04463,3.88113 -3.25487,4.0145c-0.86923,0.55146 -1.95305,0.65163 -2.93468,0.96157c-5.00434,1.58009 -10.60099,1.56807 -15.81826,1.34869l-2.02637,-1.86855c0,0 -0.95376,-0.94668 -0.00708,-1.90045z" fill="#ffffff"/><path d="M94.57394,134.47088c-1.33552,0.14923 -1.48474,-1.18629 -1.48474,-1.18629l-0.27384,-2.52757c0.3503,-3.20695 0.64316,-6.43629 1.09607,-9.63021c0.3654,-2.57682 1.05774,-5.13942 1.32382,-7.7275c0.53923,-5.24497 0.35434,-10.67567 0.53084,-15.94724c0,0 0.04497,-1.34308 1.38804,-1.29811c1.34308,0.04497 1.29811,1.38804 1.29811,1.38804c-0.17856,5.33301 0.00204,10.82291 -0.54314,16.12937c-0.26971,2.62519 -0.96645,5.22171 -1.33697,7.83512c-0.43548,3.07161 -0.69533,6.17429 -1.06912,9.25439l0.25722,2.22524c0,0 0.14923,1.33552 -1.18629,1.48474z" fill="#ffffff"/><path d="M115.80325,140.15434c-1.34048,-0.09478 -1.2457,-1.43527 -1.2457,-1.43527l0.03302,-0.45498c0.12135,-3.45262 0.2427,-6.90524 0.36404,-10.35786c-1.55473,0.267 -3.11206,0.51982 -4.67096,0.77069c-0.96562,0.15539 -1.92658,0.56397 -2.89858,0.45542c-1.30572,-0.14582 -3.03982,-0.09626 -3.7549,-1.19846c-0.6711,-1.03441 0.34741,-2.44375 0.61035,-3.64843c0.38315,-1.75541 0.98286,-3.45663 1.50292,-5.17646c2.33472,-7.72089 4.84198,-15.39405 7.26224,-23.08863c0,0 0.40321,-1.28191 1.68512,-0.8787c1.28191,0.40321 0.8787,1.68512 0.8787,1.68512c-2.41728,7.68509 -4.92161,15.34877 -7.25345,23.06013c-0.0036,0.01191 -1.4935,5.1455 -1.49445,5.14787c-0.21725,0.54321 -1.12354,0.97806 -0.88833,1.51374c0.20252,0.46123 1.00837,-0.03648 1.50766,-0.10327c0.8066,-0.1079 1.60263,-0.284 2.40495,-0.42011c1.73627,-0.29456 3.4723,-0.57476 5.2055,-0.87202c0.19255,-5.47834 0.38509,-10.95668 0.57764,-16.43502c0,0 0.0472,-1.343 1.3902,-1.2958c1.343,0.0472 1.2958,1.3902 1.2958,1.3902c-0.18578,5.28589 -0.37156,10.57177 -0.55734,15.85766c0.50273,-0.09405 1.00511,-0.19094 1.50708,-0.29141c2.46668,-0.49357 4.86002,-0.92781 7.24961,-1.71708l1.1708,-1.76166c0,0 0.77625,-1.09696 1.8732,-0.32071c1.09696,0.77625 0.32071,1.8732 0.32071,1.8732l-1.73754,2.34827c-2.80384,1.06782 -5.418,1.62683 -8.34946,2.21339c-0.70966,0.14195 -1.4201,0.27824 -2.1312,0.41007c-0.1281,3.64475 -0.2562,7.2895 -0.3843,10.93425l-0.03805,0.55014c0,0 -0.09478,1.34048 -1.43527,1.2457z" fill="#ffffff"/><path d="M202.83122,99.60127c0.04213,1.34317 -1.30104,1.3853 -1.30104,1.3853l-2.43793,0.07647c-7.67202,0.24055 -15.34041,0.65188 -23.00846,0.99577c0,0 -0.3822,0.01714 -0.74788,-0.1708c-0.92657,1.65945 -1.85314,3.3189 -2.77971,4.97835c-0.73758,1.32099 -1.57725,2.58879 -2.22534,3.95591c-0.24417,0.51506 -0.84083,1.07976 -0.60586,1.59907c0.23667,0.52306 1.0576,0.45402 1.60828,0.61638c1.65974,0.48935 3.36677,0.80111 5.04867,1.20783c2.61697,0.63284 5.26736,1.19493 7.86506,1.90226c0.97071,0.26432 2.01056,0.38027 2.89087,0.86729c1.48856,0.82352 2.85353,2.71831 3.90499,4.00414c-2.97648,4.04505 -6.34753,6.78505 -10.24238,9.90306c-1.43084,1.14545 -2.90461,2.24478 -4.45217,3.22683c-0.60455,0.38363 -1.13242,0.97555 -1.8341,1.11801c-0.29928,0.06076 -5.27369,-0.23419 -5.79053,-0.27237c-1.05294,-0.07778 -2.19274,0.15955 -3.15558,-0.27365c-0.96285,-0.4332 -1.53194,-1.4533 -2.29791,-2.17996l-1.06246,-1.06561c0,0 -0.73371,-0.73589 -0.26361,-1.55864c-0.83789,0.31678 -1.46049,-0.45408 -1.46049,-0.45408l-1.17735,-1.45771c-4.0943,-5.06926 -8.01142,-10.29058 -11.86717,-15.55962c-3.25149,3.77394 -6.28866,7.79469 -9.45439,11.60689l-1.56844,1.88872c0,0 -0.85852,1.03384 -1.89236,0.17532c-1.03384,-0.85852 -0.17532,-1.89236 -0.17532,-1.89236l1.56844,-1.88872c3.30912,-3.98486 6.48013,-8.19355 9.89686,-12.11786c-3.54117,-4.86852 -7.04401,-9.76513 -10.5993,-14.60804c0,0 -0.79525,-1.08326 0.28802,-1.87851c1.08326,-0.79525 1.87851,0.28802 1.87851,0.28802c3.44389,4.69117 6.83817,9.4332 10.26606,14.15102c0.11511,-0.1247 0.23055,-0.24899 0.34635,-0.37287c3.56012,-3.80859 7.72834,-7.195 11.54609,-10.74742c0,0 0.9838,-0.91543 1.89923,0.06837c0.91543,0.9838 -0.06837,1.89923 -0.06837,1.89923c-3.77491,3.51255 -7.90526,6.85896 -11.42366,10.62594c-0.22975,0.24598 -0.4581,0.49362 -0.68518,0.7428c3.94219,5.395 7.94562,10.74276 12.1355,15.93037l1.17735,1.45771c0,0 0.57841,0.71614 0.18505,1.44171c0.7364,-0.2548 1.35147,0.3621 1.35147,0.3621l1.06246,1.06561c0.49913,0.5422 0.82531,1.32422 1.49738,1.62659c0.67207,0.30237 1.47413,0.01164 2.21048,0.04163c0.89514,0.03645 1.78949,0.09287 2.68303,0.15764c0.75384,0.05464 1.51368,0.32865 2.25856,0.20054c0.42911,-0.07381 0.69445,-0.5261 1.05484,-0.77044c1.44559,-0.98011 2.87966,-1.98255 4.24246,-3.07484c2.04702,-1.64069 4.29141,-3.192 6.21575,-4.97396c0.99187,-0.91849 1.90748,-1.93956 3.02225,-2.70424c-1.00852,-0.20803 -1.62438,-1.28024 -2.52412,-1.78109c-0.3038,-0.16911 -4.6981,-1.20505 -4.85916,-1.24398c-2.61236,-0.63156 -5.2262,-1.2575 -7.83708,-1.89517c-1.57313,-0.38422 -5.07127,-0.92691 -5.86547,-2.70565c-0.7833,-1.75433 0.82734,-4.17591 1.62691,-5.6178c3.0412,-5.48432 6.11461,-10.95105 9.17185,-16.42646c0,0 0.65513,-1.17332 1.82845,-0.51819c1.17332,0.65513 0.51819,1.82845 0.51819,1.82845c-1.21934,2.18379 -2.43867,4.36757 -3.65801,6.55136c7.41467,-0.33674 14.82973,-0.72843 22.2482,-0.9612l2.43793,-0.07647c0,0 1.34317,-0.04213 1.3853,1.30104z" fill="#ffffff"/><path d="M236.95616,147.95004c-1.60654,0 -1.60654,-1.60654 -1.60654,-1.60654l0.00106,-1.04154c0.62031,-17.07818 5.78693,-33.77305 5.77479,-50.88643c0,0 0,-1.60654 1.60654,-1.60654c1.60654,0 1.60654,1.60654 1.60654,1.60654c-0.01137,17.16145 -5.15507,33.88294 -5.77691,51.00306l0.00106,0.92491c0,0 0,1.60654 -1.60654,1.60654z" fill="#ffffff"/><path d="M295.13687,95.81548c1.06762,1.06815 -0.00052,2.13577 -0.00052,2.13577l-0.27703,0.2769c-0.46848,0.44348 -1.06139,0.79212 -1.49739,1.26036c0.4735,0.03804 0.94671,0.07479 1.41954,0.1091c0,0 1.50626,0.10928 1.39698,1.61554c-0.10928,1.50626 -1.61554,1.39698 -1.61554,1.39698c-0.6441,-0.04673 -1.29038,-0.08778 -1.93778,-0.12684c-0.48612,2.95105 -1.05776,5.89071 -1.59144,8.83338c-0.53895,2.9717 -1.05972,5.94754 -1.61698,8.91586c-0.20686,1.10183 -0.20674,2.26756 -0.63887,3.30201c-0.08466,0.20266 -3.43413,4.70679 -3.56056,4.87763c-2.39561,3.23724 -4.79123,6.47448 -7.18684,9.71172c-1.19781,1.61862 -2.2311,3.37304 -3.59342,4.85586c-0.99553,1.08358 -1.74426,2.9559 -3.21406,3.02603c-1.12317,0.05359 -1.37862,-1.7898 -1.90844,-2.78161c-0.94877,-1.77609 -1.44473,-3.75918 -2.1671,-5.63877c-0.72237,-1.87959 -1.48845,-3.74296 -2.1671,-5.63877c-0.41465,-1.15831 -1.28925,-2.27264 -1.17787,-3.49787c0.04052,-0.44576 2.9786,-5.17579 3.36342,-5.80596c3.67302,-6.01487 7.34604,-12.02974 11.01906,-18.04461c0.43904,-0.71896 3.26974,-5.46631 3.74642,-5.7115c1.13024,-0.58136 2.54261,0.00432 3.81258,0.05527c1.43937,0.05775 2.8811,0.1603 4.32235,0.27544c0.06374,-0.21376 0.14463,-0.42139 0.24997,-0.62025c0.54214,-1.02355 1.60522,-1.67017 2.40783,-2.50526l0.27703,-0.2769c0,0 1.06815,-1.06762 2.13577,0.00052zM289.5845,102.30065c-1.35859,-0.08762 -2.71488,-0.19174 -4.05914,-0.34621c-0.74349,-0.08543 -1.54694,-0.72416 -2.21245,-0.38184c-0.66551,0.34232 -0.61315,1.36738 -0.97604,2.02191c-0.97638,1.76107 -2.09887,3.43707 -3.1483,5.1556c-3.1483,5.1556 -6.29661,10.31121 -9.44491,15.46681c-0.52472,0.85927 -1.02482,1.73406 -1.57415,2.5778c-0.42892,0.65881 -1.28787,1.14454 -1.35904,1.92744c-0.07117,0.7829 0.68612,1.41555 0.98923,2.1409c0.77638,1.85793 1.44473,3.75918 2.1671,5.63877c0.6107,1.58903 1.51455,3.09966 1.96805,4.73072c0.77555,-1.828 2.73155,-3.64042 3.66766,-4.90539c2.39561,-3.23724 4.79123,-6.47448 7.18684,-9.71172c1.06157,-1.43452 2.53421,-2.63092 3.21628,-4.28003c0.72597,-1.75527 0.63916,-3.74486 0.97812,-5.61385c0.53899,-2.97195 1.07799,-5.9439 1.61698,-8.91586c0.33265,-1.83416 0.64328,-3.67235 0.98377,-5.50506z" fill="#ffffff"/><path d="M343.81507,143.58228c-1.21146,0.90173 -2.11319,-0.30974 -2.11319,-0.30974c-4.38274,-5.88819 -8.78285,-11.79971 -13.18345,-17.71189c-6.43548,6.21112 -12.87096,12.42224 -19.30644,18.63337l-0.29655,0.28621c0,0 -1.08666,1.04877 -2.13543,-0.03788c-1.04877,-1.08666 0.03788,-2.13543 0.03788,-2.13543c6.56817,-6.33919 13.23156,-12.77027 19.88226,-19.18911c-4.04713,-5.4373 -8.0927,-10.8725 -12.12358,-16.28797c0,0 -0.90173,-1.21146 0.30974,-2.11319c1.21146,-0.90173 2.11319,0.30974 2.11319,0.30974c3.96395,5.32554 7.92789,10.65108 11.89184,15.97662c4.35269,-4.20094 8.69484,-8.39172 12.99617,-12.54308c0,0 1.08666,-1.04877 2.13543,0.03788c1.04877,1.08666 -0.03788,2.13543 -0.03788,2.13543c-4.42514,4.27087 -8.85029,8.54174 -13.27543,12.81261c4.44722,5.97481 8.89444,11.94963 13.34165,17.92444l0.07354,0.0988c0,0 0.90173,1.21146 -0.30974,2.11319z" fill="#ffffff"/><path d="M403.12892,111.21109c0.15741,-0.31453 0.45981,-0.60741 1.02679,-0.72941c1.47642,-0.31769 1.79411,1.15873 1.79411,1.15873l-1.16952,2.42099c-10.37808,1.22506 -20.75588,1.71017 -31.17507,2.14876c-0.80708,7.22872 -1.61415,14.45743 -2.42123,21.68615c-0.33421,2.99345 -0.56556,6.0258 -1.00543,9.00534c-0.18741,1.26942 0.14538,2.7985 -0.66772,3.79118c-0.35703,0.43589 -5.63203,2.05558 -6.46241,2.32105c-2.77916,0.88849 -5.55757,1.77817 -8.34258,2.64816l-2.96379,0.01804c0,0 -1.51022,0 -1.51022,-1.51022c0,-1.51022 1.51022,-1.51022 1.51022,-1.51022l2.49835,0.01804c2.62454,-0.86235 5.25688,-1.69955 7.88825,-2.54079c0.959,-0.30659 1.90477,-0.65809 2.87699,-0.91976c0.71212,-0.19167 1.70125,0.13227 2.16855,-0.43824c0.4673,-0.57051 -0.04509,-1.47647 0.00257,-2.21239c0.19426,-2.99933 0.67189,-6.01793 1.00543,-9.00534c0.78985,-7.0744 1.57969,-14.1488 2.36954,-21.22321c-1.13893,0.04763 -2.27841,0.09552 -3.41848,0.14456c0,0 -1.50882,0.06491 -1.57373,-1.44391c-0.06491,-1.50882 1.44391,-1.57373 1.44391,-1.57373c1.29654,-0.05577 2.59231,-0.11001 3.88738,-0.16405c0.4377,-3.92035 0.8754,-7.8407 1.3131,-11.76105c0,0 0.16757,-1.50089 1.66846,-1.33332c1.50089,0.16757 1.33332,1.66846 1.33332,1.66846c-0.42047,3.76604 -0.84095,7.53209 -1.26142,11.29813c9.75261,-0.41134 19.46944,-0.87229 29.18461,-1.96197z" fill="#ffffff"/><path d="M16.46502,57.68225c1.5512,-0.75453 3.17499,-1.51524 4.58613,-2.49424c0.97933,-0.67943 1.81054,-1.55288 2.75955,-2.27405c2.63242,-2.00044 5.45183,-3.78401 8.1118,-5.75642c2.74322,-2.03415 5.57396,-4.07291 6.33862,-7.56806c0,0 0.20244,-0.87875 1.08119,-0.67632c0.87875,0.20244 0.67632,1.08118 0.67632,1.08118c-0.15416,0.64261 -0.18934,1.32606 -0.46249,1.92781c-1.31446,2.89574 -4.10596,4.86487 -6.55941,6.68409c-2.65817,1.97103 -5.47763,3.75269 -8.10711,5.75295c-0.2052,0.1561 -2.6502,2.19951 -2.8104,2.31065c-1.61019,1.1171 -3.47474,1.96915 -5.22785,2.83097l-0.2286,-0.91063l-0.56704,-0.70791c0.11508,-0.05656 0.23071,-0.11307 0.34677,-0.16958l-0.00089,-0.00357c0,0 0.02309,-0.01156 0.06342,-0.02686z" fill="#ff0000"/><path d="M61.00852,66.87118c0.44083,0.41939 0.30125,0.85325 0.1638,1.09111c1.72378,0.96834 3.42762,2.14048 5.39732,2.25628l-0.24505,1.072l0.11272,0.72668c-0.09153,-0.00779 -0.18233,-0.01715 -0.27243,-0.02801l-0.00696,0.03044c0,0 -0.19555,-0.00001 -0.40452,-0.09107c-2.14791,-0.37384 -3.91851,-1.57863 -5.87533,-2.61962l-0.14378,0.14387c-3.04368,0.59705 -5.9351,2.04569 -8.97252,2.55936c-1.04255,0.17631 -2.28567,0.03482 -3.45103,-0.08774c0.03987,1.40748 0.07963,2.81495 0.11925,4.22243c-0.0572,1.8117 -0.1148,3.62338 -0.1724,5.43507l-0.01166,0.36668c0,0 -0.02866,0.90131 -0.92997,0.87265c-0.90131,-0.02866 -0.87266,-0.92997 -0.87266,-0.92997l0.01166,-0.36668c0.05703,-1.79357 0.11405,-3.58713 0.17149,-5.38068c-0.04205,-1.45221 -0.08393,-2.90442 -0.12569,-4.35663c-0.98488,-0.04329 -3.32099,-0.14897 -3.45965,-0.19853c-0.6373,-0.22782 -1.09582,-0.7946 -1.64372,-1.19189c0,0 -0.71933,-0.54384 -0.17549,-1.26316c0.54384,-0.71932 1.26316,-0.1755 1.26316,-0.1755c0.38945,0.31137 0.69864,0.76683 1.16837,0.93413c0.87974,0.31335 1.84981,0.14368 2.7961,0.11068c-0.04683,-1.63226 -0.09352,-3.26453 -0.14012,-4.8968c-1.53128,1.33309 -3.26727,2.29313 -5.03374,3.39267c-2.55982,1.59336 -4.95412,3.16535 -7.28518,5.07975l-0.48307,0.39673c0,0 -0.69688,0.57231 -1.2692,-0.12457c-0.00258,-0.00314 -0.00512,-0.00626 -0.00764,-0.00939c-0.00371,0.05885 -0.00717,0.11769 -0.01036,0.17651c-0.15463,2.85067 0.36021,5.54573 -0.19377,8.37268c-0.22299,1.11971 -0.46571,2.23588 -0.73719,3.34483l-0.4293,0.90872c0,0 -0.40329,0.80656 -1.20985,0.40327c-0.80656,-0.40329 -0.40327,-1.20985 -0.40327,-1.20985l0.29068,-0.53121c0.26552,-1.08334 0.5025,-2.17382 0.72009,-3.26779c0.55197,-2.7264 0.01089,-5.37549 0.16259,-8.13317c0.15903,-2.89079 0.9292,-5.82483 1.32525,-8.6941c0.65693,-4.75929 0.82032,-9.49715 1.00926,-14.29284c0,0 0.03551,-0.90107 0.93658,-0.86557c0.90107,0.0355 0.86556,0.93657 0.86556,0.93657c-0.10911,2.76943 -0.21084,5.52004 -0.40158,8.26649c0.2086,-0.15436 0.44079,-0.19096 0.44079,-0.19096c3.82017,-0.60211 7.67513,-1.10468 11.49117,-1.76116c-0.12134,-4.26846 -0.24253,-8.53691 -0.36435,-12.80535c0,0 -0.02573,-0.9014 0.87568,-0.92713c0.9014,-0.02573 0.92712,0.87568 0.92712,0.87568c0.11924,4.17824 0.23907,8.35645 0.35877,12.53468c0.11619,-0.02173 0.23234,-0.04364 0.34844,-0.06575c4.9667,-0.94557 9.81123,-2.38801 14.75863,-3.41395l0.93135,0.22932c0,0 0.82356,0.36733 0.45623,1.19089c-0.36733,0.82356 -1.1909,0.45623 -1.1909,0.45623l0.16953,-0.11048c-4.96012,1.02858 -9.81717,2.47427 -14.79702,3.42148c-0.20784,0.03954 -0.41585,0.07848 -0.624,0.11686c0.10796,3.77034 0.21573,7.54068 0.32278,11.31103c1.10617,0.12497 2.30718,0.27864 3.27084,0.1062c2.40998,-0.43126 4.65147,-1.52145 7.03593,-2.10188c-1.95762,-0.98576 -3.93618,-1.96477 -5.78607,-3.10041c-1.33929,-0.82219 -2.57172,-1.95623 -3.82048,-2.90798c0,0 -0.7172,-0.54663 -0.17057,-1.26384c0.54663,-0.7172 1.26384,-0.17057 1.26384,-0.17057c1.20792,0.92063 2.40203,2.03035 3.69883,2.82295c2.17203,1.32753 4.52112,2.43924 6.80098,3.60522l0.18082,-0.20412c0,0 0.62156,-0.65334 1.2749,-0.03178zM31.36279,72.58166l0.48307,-0.39673c2.39128,-1.96385 4.85153,-3.58307 7.47675,-5.21714c2.00509,-1.24806 4.03287,-2.28881 5.64297,-4.0269c0,0 0.10569,-0.11304 0.27632,-0.20169c-0.03433,-1.20491 -0.06863,-2.40983 -0.1029,-3.61475c-3.74152,0.63635 -7.51824,1.13205 -11.26214,1.72214c0,0 -0.51186,0.08067 -0.82071,-0.26829c-0.13137,1.62617 -0.29939,3.2517 -0.5241,4.87965c-0.325,2.3546 -0.91317,4.75823 -1.1889,7.14106c0.0124,-0.01141 0.01963,-0.01736 0.01963,-0.01736z" fill="#ff0000"/><path d="M71.1286,81.63121c-0.79117,-0.43272 -0.35845,-1.22388 -0.35845,-1.22388l0.74162,-1.32782c0.39785,-2.7079 0.98757,-5.39227 1.35161,-8.1035c0.62346,-4.64332 0.94899,-9.31423 1.02239,-13.99067c-0.43489,0.50026 -0.87448,0.99726 -1.31916,1.49086c-1.99544,2.21495 -3.83316,4.48234 -6.37927,6.06108l0.33738,0.17113c0,0 -0.09226,0.89704 -0.9893,0.80478c-0.89704,-0.09226 -0.80478,-0.9893 -0.80478,-0.9893l0.51159,-1.52268c2.39414,-1.46014 4.11661,-3.65924 5.98445,-5.73222c3.2086,-3.56097 6.14665,-7.30163 8.97312,-11.16807c0,0 0.53218,-0.72799 1.26017,-0.19581c0.72799,0.53218 0.19581,1.26017 0.19581,1.26017c-1.91768,2.62327 -3.88675,5.18921 -5.9546,7.68168c0.00429,0.04245 0.00429,0.06797 0.00429,0.06797c0,8.37523 -1.14679,16.49449 -2.48589,24.74432l-0.86711,1.61353c0,0 -0.43272,0.79116 -1.22388,0.35844z" fill="#ff0000"/><path d="M120.71983,75.40761c0.03879,0.90094 -0.86215,0.93971 -0.86215,0.93971c-3.11621,0.13415 -6.3453,0.27316 -9.55712,0.41143c-0.07606,0.84906 -0.20117,1.6848 -0.39863,2.49751l0.00844,0.16103c0.07236,0.01602 0.14469,0.0322 0.21701,0.04855c0.84615,0.03487 1.70556,0.27612 2.53781,0.11943c1.07657,-0.2027 2.09073,-0.65525 3.13899,-0.97343l0.83698,-0.50959c0,0 0.77336,-0.46377 1.23714,0.30959c0.46378,0.77336 -0.30958,1.23714 -0.30958,1.23714l-1.03005,0.61005c-0.24994,0.07793 -3.43977,1.07915 -3.64374,1.11508c-0.9871,0.17385 -2.00319,-0.07517 -3.00447,-0.12037c-3.33051,-0.73905 -6.71402,-1.15936 -10.04248,-1.87967c-3.80631,-0.82373 -7.58991,-1.84755 -11.36288,-2.90752c-0.7282,0.75736 -1.47284,1.49581 -2.26172,2.1525c-1.62271,1.35079 -3.36781,2.49944 -4.94907,3.90442l-0.4565,0.42037c0,0 -0.66351,0.6107 -1.2742,-0.0528c-0.6107,-0.6635 0.05281,-1.2742 0.05281,-1.2742l0.48054,-0.4421c1.58818,-1.40879 3.33313,-2.56548 4.96397,-3.91751c0.50599,-0.41948 0.9933,-0.87492 1.46957,-1.3481c-2.54142,-0.71974 -5.07895,-1.4429 -7.61631,-2.11923c0,0 -0.87134,-0.23226 -0.63909,-1.10361c0.23225,-0.87135 1.1036,-0.63908 1.1036,-0.63908c2.85503,0.761 5.71035,1.5819 8.57121,2.39024c0.52121,-0.55362 1.03822,-1.10642 1.56204,-1.63222c2.05034,-2.05809 4.15974,-4.07922 6.14569,-6.19923c1.63575,-1.74617 3.17717,-3.59249 4.76409,-5.38333c0.49663,-0.56045 0.88438,-1.14499 1.30479,-1.67299c-2.87126,1.2393 -5.73194,2.48817 -8.64574,3.63058c-2.09285,0.82054 -4.17891,1.65948 -6.28876,2.4354c-0.21667,0.07968 -3.51269,1.30144 -3.61518,1.29669c-0.94725,-0.04384 -2.1806,-0.09655 -2.70257,-0.88823c-0.3753,-0.56923 0.5448,-1.25594 0.90874,-1.8325c0.65014,-1.02995 1.48372,-1.93503 2.2974,-2.84134c2.80827,-3.12795 5.97552,-5.99893 8.94308,-8.97725c0.43612,-0.43769 0.81474,-0.8802 1.20224,-1.28153c-1.1328,0.35829 -2.26559,0.71656 -3.39839,1.07485c-0.16374,0.05179 -3.48395,1.10534 -3.57352,1.11917c-0.08956,0.01382 -3.57292,0.01056 -3.74465,0.01056c0,0 -0.90177,0 -0.90177,-0.90177c0,-0.90177 0.90177,-0.90177 0.90177,-0.90177c1.1565,0 2.32653,0.187 3.4695,0.01056c1.14297,-0.17644 2.20213,-0.70757 3.30479,-1.05632c1.71958,-0.54387 3.43915,-1.08775 5.15873,-1.63162l1.69952,-0.53752c0.09158,-0.03133 0.18981,-0.04833 0.292,-0.04833c0.49804,0 0.90176,0.40374 0.90176,0.90177c0,0.23749 -0.09181,0.45353 -0.24186,0.61458l-1.22374,1.32139l-0.00174,-0.00162c-0.00318,0.00454 -0.00637,0.00907 -0.00956,0.0136c-0.00068,0.00097 -2.54895,2.55841 -2.55748,2.56697c-2.12163,2.12933 -4.24327,4.25867 -6.3649,6.388c-1.26572,1.27031 -2.48964,2.49227 -3.61685,3.88828c-0.24808,0.30723 -0.46018,0.64989 -0.70733,0.95805c0.42078,-0.11205 0.8661,-0.18414 1.26482,-0.33491c2.65384,-1.0035 5.30378,-2.00849 7.94563,-3.04427c3.32258,-1.30268 6.5755,-2.74498 9.85469,-4.15214l1.63907,-0.70336c0.11391,-0.05197 0.24053,-0.08094 0.37392,-0.08094c0.49804,0 0.90177,0.40374 0.90177,0.90177c0,0.18918 -0.05826,0.36475 -0.15781,0.50976l-0.99205,1.49133c-0.52782,1.10331 -1.47557,2.052 -2.26976,2.95038c-1.19452,1.35124 -2.3905,2.70121 -3.58594,4.05164c-2.34225,2.6459 -4.90259,5.10495 -7.39646,7.60827c-0.29562,0.29674 -0.58909,0.60138 -0.88228,0.90964c3.43458,0.95811 6.87886,1.87438 10.34188,2.62382c2.62283,0.56761 5.27909,0.93869 7.91517,1.44341l0.00652,-0.23152c0.16277,-0.6449 0.27374,-1.30958 0.34713,-1.98689c-1.75194,0.07542 -3.4914,0.1503 -5.19705,0.22372c0,0 -0.90093,0.03879 -0.93972,-0.86214c-0.03879,-0.90094 0.86214,-0.93972 0.86214,-0.93972c0.38262,-0.01647 0.76524,-0.03294 1.14785,-0.04941c-0.2248,-0.07372 -0.4554,-0.25004 -0.54691,-0.64841c-0.20189,-0.87887 0.67698,-1.08077 0.67698,-1.08077c1.35948,-0.31085 2.72944,-0.49755 4.10455,-0.62934c-0.03312,-1.2541 -0.09943,-2.50487 -0.11701,-3.71121c-0.94401,0 -1.85839,0 -2.70497,0c0,0 -0.90177,0.00001 -0.90177,-0.90176c0,-0.90177 0.90177,-0.90177 0.90177,-0.90177c0.90023,0 1.80046,0 2.70069,0c0.00008,-1.8068 -0.00055,-3.61127 -0.00978,-5.41463c-0.41693,0.0108 -0.83359,0.01681 -1.24989,0.01701c0,0 -0.90177,0.00001 -0.90177,-0.90176c0,-0.90177 0.90177,-0.90177 0.90177,-0.90177c0.41213,0.00021 0.82467,-0.0055 1.23751,-0.01608c-0.02382,-2.7118 -0.07306,-5.42198 -0.17455,-8.13469c-0.50123,-0.03941 -1.00391,-0.08349 -1.50934,-0.13193c0,0 -0.89766,-0.08604 -0.81162,-0.98369c0.08604,-0.89766 0.98369,-0.81161 0.98369,-0.81161c0.42156,0.0404 0.8418,0.07656 1.26113,0.10885c-0.02604,-0.56027 -0.05457,-1.12067 -0.08582,-1.68127c0,0 -0.05018,-0.90037 0.85018,-0.95056c0.90037,-0.05019 0.95056,0.85019 0.95056,0.85019c0.03529,0.63303 0.06713,1.26581 0.09587,1.89842c1.87409,0.09844 3.74219,0.13024 5.64222,0.13024c0.13546,0 3.08725,-0.09145 3.33569,0.23581c0.29633,0.39036 0.58784,3.54687 0.62013,4.21458c0.07064,1.46067 0.15093,3.01318 0.08484,4.54798c1.97589,-0.09063 3.95003,-0.22933 5.81318,-0.85922l1.5945,-0.53138c0,0 0.85551,-0.28511 1.14061,0.57041c0.2851,0.85551 -0.5704,1.14062 -0.5704,1.14062l-1.5945,0.53138c-2.11796,0.69685 -4.32215,0.84041 -6.53972,0.95114c-0.11333,0.82735 -0.28961,1.63625 -0.55482,2.40846c-0.49172,1.43171 -1.27512,2.82556 -1.90153,4.20683l-0.10997,0.18666c0,0 -0.15863,0.23938 -0.43194,0.35844c-0.08615,0.76515 -0.89436,0.76514 -0.89436,0.76514c-1.62803,0 -3.50684,0 -5.36478,0c0.01416,1.16765 0.06637,2.36489 0.09462,3.56585c2.13343,-0.15065 4.27365,-0.24131 6.40083,-0.5287l1.12468,-0.15136c0,0 0.89371,-0.12026 1.01398,0.77345c0.12027,0.89371 -0.77344,1.01398 -0.77344,1.01398l-1.12468,0.15135c-2.19876,0.29477 -4.41645,0.3732 -6.62462,0.53238c-0.00137,0.1513 -0.00362,0.30246 -0.00687,0.45342c3.01469,-0.12978 6.02938,-0.25956 9.04406,-0.38934l0.33964,-0.01462c0,0 0.90093,-0.03879 0.93972,0.86215zM108.62192,74.64798c-1.15004,0.11716 -2.29538,0.27823 -3.43196,0.52557c1.14146,-0.04914 2.28292,-0.09828 3.42438,-0.14742c0.00332,-0.12586 0.00582,-0.25192 0.00758,-0.37815zM114.80182,67.33552h0.5454c0.04666,-0.18697 0.13239,-0.31633 0.13239,-0.31633l-0.02917,0.06473c0.86486,-1.90705 1.82482,-3.73497 2.2399,-5.774c-0.13191,0.0079 -0.2638,0.0162 -0.39565,0.02501c-2.32985,0.15561 -4.67498,0.38636 -7.01662,0.51251c0.0096,1.82782 0.01033,3.65676 0.01028,5.48808c1.50449,0 3.00898,0 4.51347,0zM117.1745,59.5354c0.24316,-0.01624 0.48702,-0.0303 0.73136,-0.04301c0.09551,-2.09116 -0.22326,-4.22643 -0.24752,-6.30045c-0.00475,-0.40615 0.20383,-0.81327 0.12631,-1.21199c-0.02509,-0.12904 -0.18546,0.22127 -0.31612,0.2358c-0.59749,0.06647 -1.20235,0 -1.80353,0c-0.60188,0 -1.20376,0.00131 -1.80563,0c-1.26761,-0.00277 -2.51503,-0.04101 -3.76203,-0.11036c0.09663,2.64736 0.14447,5.29243 0.1681,7.93901c2.30588,-0.12575 4.61568,-0.35583 6.90907,-0.50901z" fill="#ff0000"/><path d="M128.36149,76.06399c-0.97568,0 -0.97568,-0.97568 -0.97568,-0.97568v-0.81176c0.00001,-0.65278 0.00001,-1.30557 0.00002,-1.95835c0.03651,-2.55388 -0.0103,-5.12537 0.11042,-7.67642c0.14654,-3.09645 0.47277,-6.18436 0.78654,-9.27285c-1.25262,0.13166 -2.48923,0.26103 -3.68444,0.42742c0,0 -0.96636,0.13453 -1.10089,-0.83184c-0.13452,-0.96637 0.83184,-1.10089 0.83184,-1.10089c1.38706,-0.19309 2.77411,-0.38619 4.16118,-0.57928c0.19177,-1.98499 0.36053,-3.97106 0.45532,-5.96064c0.14607,-3.06591 -0.00085,-6.17603 -0.00085,-9.24584c0,0 0,-0.97568 0.97568,-0.97568c0.97568,0 0.97568,0.97568 0.97568,0.97568c0,3.09721 0.14569,6.23388 -0.00085,9.32728c-0.08859,1.87008 -0.24278,3.73703 -0.42017,5.60289c0.52831,-0.07355 1.05661,-0.14709 1.58492,-0.22064c2.7119,-0.37752 5.21282,-0.70843 7.60717,-2.08903l1.07345,-0.61209c0,0 0.84758,-0.48329 1.33087,0.36428c0.48329,0.84757 -0.36428,1.33087 -0.36428,1.33087l-1.07344,0.61209c-3.07488,1.7362 -6.73397,2.3434 -10.3706,2.76068c-0.3233,3.19194 -0.66685,6.3829 -0.8181,9.58296c-0.11929,2.52394 -0.07194,5.06825 -0.10814,7.59499c0.00001,0.64813 0.00001,1.29626 0.00002,1.94439v0.81176c0,0 0,0.97568 -0.97568,0.97568z" fill="#ff0000"/><path d="M155.49575,54.75009c-1.34173,0.42753 -2.64911,0.59414 -3.97077,0.65383l0.02887,0.95493c0,0 0.02949,0.97523 -0.94575,1.00473c-0.97524,0.02949 -1.00473,-0.94575 -1.00473,-0.94575l-0.02979,-0.98503c-0.69218,-0.00412 -1.3944,-0.01662 -2.11326,-0.01662c0,0 -0.5313,0.00001 -0.80978,-0.39205c-0.22141,-0.01261 -0.91351,-0.11761 -0.94496,-0.93605c-0.03747,-0.97496 0.9375,-1.01244 0.9375,-1.01244c0.95087,-0.03654 1.90173,-0.07309 2.8526,-0.10963c-0.02061,-0.62182 -0.04195,-1.24353 -0.06401,-1.86514c-0.65719,0.01989 -1.31451,0.02949 -1.97135,0.02971c0,0 -0.97568,0 -0.97568,-0.97568c0,-0.97568 0.97568,-0.97568 0.97568,-0.97568c0.6331,0.00022 1.26655,-0.00888 1.89983,-0.02801c-0.03728,-0.9847 -0.07629,-1.96921 -0.11696,-2.95357c-1.17853,0.10973 -2.35685,0.22199 -3.5352,0.33477c0.00376,3.67287 0.02496,7.28207 -0.39669,10.94098l-1.15593,-0.41338l-0.78261,0.18999c0.01737,-0.15076 0.03397,-0.30145 0.04983,-0.45205l-0.05624,-0.02012c0,0 0,-0.21829 0.10325,-0.44836c0.30613,-3.20777 0.29164,-6.38488 0.28732,-9.61018c-0.4237,0.04054 -0.84741,0.081 -1.27115,0.1213c0,0 -0.97131,0.09237 -1.06367,-0.87893c-0.09237,-0.9713 0.87894,-1.06367 0.87894,-1.06367c2.28675,-0.21747 4.57266,-0.43976 6.85936,-0.65239c-0.05913,-1.35914 -0.12133,-2.71808 -0.18637,-4.07699c-2.51647,0.66822 -4.69035,1.59841 -7.3604,1.61178c0,0 -0.97568,0 -0.97568,-0.97568c0,-0.97568 0.97568,-0.97568 0.97568,-0.97568c2.60885,0.01512 4.7607,-1.02186 7.26314,-1.65058c-0.13671,-2.74138 -0.28458,-5.48295 -0.44189,-8.22603c0,0 -0.05586,-0.97408 0.91823,-1.02994c0.97409,-0.05586 1.02994,0.91822 1.02994,0.91822c0.15087,2.63089 0.29308,5.26038 0.42511,7.88967c1.32169,-0.28416 2.67503,-0.52938 3.97209,-0.70904c1.8869,-0.26136 3.39362,-0.22754 5.2126,-0.83183l0.25295,1.33393l0.35502,0.52031c-0.08046,0.02607 -0.16108,0.05153 -0.24186,0.07639l0.00971,0.05122c0,0 -0.25246,0.1261 -0.55366,0.10688c-2.87885,0.78942 -5.94128,0.90886 -8.90815,1.45754c0.0696,1.44378 0.13602,2.8876 0.199,4.33163c2.06399,-0.18587 4.129,-0.36051 6.19622,-0.5133c1.82396,-0.13481 5.28443,-1.11349 6.24598,1.12967c0.30099,0.70217 0.16313,1.51926 0.23072,2.28022c0.25892,2.9151 0.00665,5.56719 -0.35493,8.46672c-0.13967,0.37611 -1.26978,3.83018 -1.92701,3.84542c-0.98612,0.02286 -1.55343,-1.21601 -2.33014,-1.82402l-0.68379,-1.37036c0,0 -0.42944,-0.87609 0.44666,-1.30553c0.87609,-0.42944 1.30553,0.44665 1.30553,0.44665l0.53664,1.11944c0.03574,0.10663 0.07235,0.21298 0.10901,0.31932c0.10847,-0.59319 0.43265,-1.12736 0.64688,-1.69161c0.34591,-3.14272 0.78709,-6.31333 0.24652,-9.47313c-0.10228,-0.59788 -1.43751,-0.21101 -1.439,-0.21091c-0.9635,0.06555 -1.92615,0.14302 -2.88925,0.2142c-2.08753,0.15429 -4.1728,0.33096 -6.25705,0.51898c0.04199,1.01341 0.08222,2.02696 0.12062,3.04074c1.72542,-0.11031 3.44548,-0.30053 5.14941,-0.58476l1.05909,-0.07305c0,0 0.97344,-0.06607 1.03951,0.90738c0.06607,0.97344 -0.90738,1.03952 -0.90738,1.03952l-0.96427,0.06428c-1.75488,0.29301 -3.52715,0.48626 -5.30476,0.59757c0.02226,0.62665 0.04378,1.25339 0.06457,1.88025c1.25313,-0.04816 2.50627,-0.09633 3.7594,-0.14449l0.82402,-0.36675c0,0 0.83446,-0.37042 1.2473,0.4126c0.2462,0.11371 0.49484,0.34822 0.51341,0.83122c0.03747,0.97496 -0.9375,1.01243 -0.9375,1.01243c-0.39592,0.01521 -0.79754,0.03066 -1.20349,0.04626z" fill="#ff0000"/><path d="M165.56981,33.40276c0,0.97568 -0.97568,0.97568 -0.97568,0.97568l-1.27238,-0.0073c-2.41705,-0.59295 -4.88997,-1.70771 -7.23998,-0.48513c0,0 -0.87273,0.43622 -1.30896,-0.43651c-0.43623,-0.87273 0.43651,-1.30896 0.43651,-1.30896c2.86606,-1.38944 5.44155,-0.44792 8.35068,0.29384l1.03412,-0.0073c0,0 0.97568,0 0.97568,0.97568z" fill="#ff0000"/><path d="M155.97546,72.46388c-0.09331,0.28683 -0.24646,0.45614 -0.41352,0.55318c-0.01472,0.49748 -0.05058,0.98495 -0.11995,1.45325c-0.01433,0.09673 -1.09686,3.66877 -1.15264,3.85456c-0.20513,0.68328 -0.14054,1.51571 -0.61249,2.0507c-0.49089,0.55645 -1.28043,0.98613 -2.02063,0.93409c-0.69585,-0.04892 -1.18157,-0.74933 -1.71669,-1.19682c-1.32662,-1.10937 -1.77966,-1.88433 -2.82703,-3.27268l-0.23096,-1.61736c0,0 -0.11692,-0.96865 0.85174,-1.08558c0.96866,-0.11692 1.08557,0.85173 1.08557,0.85173l0.09804,1.10822c0.72804,0.8972 1.52966,1.73298 2.32964,2.56667c0.21741,0.22656 0.34655,0.55806 0.62341,0.70619c0.10618,0.05681 0.24828,-0.10495 0.28745,-0.21882c0.14878,-0.43248 0.13932,-0.90546 0.25182,-1.34877c0.31011,-1.22204 0.91772,-2.37091 1.10246,-3.61807c0.0695,-0.46918 0.1022,-0.95958 0.11263,-1.46048l-0.6368,-0.20779c-1.2571,-0.25173 -2.51408,-0.50404 -3.77096,-0.75686c0,0 -0.95652,-0.1924 -0.76412,-1.14893c0.19241,-0.95652 1.14893,-0.76412 1.14893,-0.76412c1.29386,0.26026 2.5876,0.52107 3.88125,0.78238l0.09777,0.03172c-0.03413,-0.74934 -0.07391,-1.49005 -0.07314,-2.18807c0.00068,-0.61489 0.00906,-1.22963 0.02328,-1.84425c-1.86355,0.01027 -3.73874,0.00029 -5.62475,0.08373c-1.5953,0.07058 -3.11971,0.39008 -4.733,0.39198c0,0 -0.97569,0 -0.97569,-0.97568c0,-0.97568 0.97569,-0.97568 0.97569,-0.97568c1.57095,0.002 3.05053,-0.31621 4.60471,-0.38776c1.92629,-0.08867 3.87047,0.01632 5.80966,0.06313c0.07959,-2.05056 0.20399,-4.10007 0.3041,-6.14961c0,0 0.0476,-0.97452 1.02212,-0.92692c0.97452,0.0476 0.92692,1.02213 0.92692,1.02213c-0.09885,2.0237 -0.22232,4.04753 -0.30159,6.07234c0.65658,-0.00702 1.31169,-0.03052 1.96444,-0.08035c2.43497,-0.18587 4.87751,-0.76853 7.24833,-1.32368l0.34464,-0.85597c0,0 0.43656,-0.87257 1.30913,-0.436c0.87257,0.43657 0.436,1.30913 0.436,1.30913l-0.81368,1.45914c-3.4675,1.31883 -6.98432,1.61341 -10.54494,1.68699c-0.01474,0.623 -0.02341,1.24611 -0.02401,1.86935c-0.00088,0.90807 0.05847,1.8811 0.09098,2.85479c0.25387,0.14966 0.635,0.49201 0.42587,1.13483z" fill="#ff0000"/><path d="M186.96289,46.59574c-0.33657,0.9158 -1.25236,0.57923 -1.25236,0.57923l-0.15402,-0.05853c-0.66626,-0.30346 -1.42312,-0.45802 -1.99875,-0.91038c-0.57251,-0.44989 -0.89569,-1.14824 -1.34752,-1.71922c-1.51673,-1.91669 -3.02059,-3.9226 -4.35756,-5.97118c-0.13892,-0.21285 -2.06232,-3.51124 -2.10113,-3.6423c-0.04125,-0.13932 -0.0342,-2.55729 -0.0342,-3.02896c0,0 0,-0.97568 0.97568,-0.97568c0.97568,0 0.97568,0.97568 0.97568,0.97568c0,0.83902 -0.27867,1.71422 -0.03421,2.51684c0.34972,1.14822 1.19629,2.08276 1.85231,3.08792c1.31128,2.0092 2.80187,3.93709 4.26167,5.837c0.34909,0.45433 0.56609,1.03169 1.01603,1.38642c0.44682,0.35226 1.05036,0.4378 1.57554,0.65671l0.04361,0.0141c0,0 0.9158,0.33656 0.57923,1.25236z" fill="#ff0000"/><path d="M195.96411,41.01823c-0.21354,0.95203 -1.16556,0.7385 -1.16556,0.7385l-1.32267,-0.35874c-2.35711,-2.88711 -4.48336,-5.96046 -6.66126,-8.98324c0,0 -0.57036,-0.79162 0.22126,-1.36197c0.79162,-0.57035 1.36198,0.22126 1.36198,0.22126c2.02717,2.81357 4.30056,5.55 6.13898,8.48621l0.68878,0.09242c0,0 0.95202,0.21354 0.73849,1.16557z" fill="#ff0000"/><path d="M202.58585,45.07157c-0.76065,-0.61104 -0.1496,-1.3717 -0.1496,-1.3717l0.36556,-0.45506c2.71905,-3.38123 4.97392,-7.16195 7.37834,-10.77236c0,0 0.54082,-0.81208 1.3529,-0.27126c0.81208,0.54082 0.27126,1.3529 0.27126,1.3529c-2.43739,3.65992 -4.72826,7.48246 -7.4812,10.91281l-0.36557,0.45507c0,0 -0.61104,0.76064 -1.37169,0.1496z" fill="#ff0000"/><path d="M170.57188,60.99865c-0.7146,-0.66431 -0.05029,-1.37891 -0.05029,-1.37891l0.9111,-0.97686c1.48594,-2.10918 2.97498,-4.21617 4.46336,-6.32362c0,0 0.56286,-0.79696 1.35983,-0.23411c0.79697,0.56285 0.23411,1.35983 0.23411,1.35983c-1.51352,2.14303 -3.02649,4.28644 -4.54233,6.42783l-0.99687,1.07556c0,0 -0.66431,0.7146 -1.37891,0.05029z" fill="#ff0000"/><path d="M208.46444,59.61866c-0.11359,-0.96905 0.85546,-1.08264 0.85546,-1.08264l-0.12962,0.22248c3.71713,-3.66479 7.544,-7.25357 11.52557,-10.63123c0.99203,-0.84157 1.98405,-1.68317 2.97622,-2.52459c0.16566,-0.1405 0.32193,-0.29525 0.47807,-0.45018c-1.23691,0.24637 -2.41294,0.59239 -3.69875,0.91032c-2.5307,0.62574 -5.10194,1.12188 -7.64817,1.68161c-4.84142,1.06428 -9.72852,1.55212 -14.64887,2.1422c-4.51253,0.54117 -9.08468,1.36069 -13.62039,1.6317c-1.95156,0.1166 -3.95683,0.00173 -5.9123,0.00173c0,0 -0.97568,0 -0.97568,-0.97568c0,-0.97568 0.97568,-0.97568 0.97568,-0.97568c1.91661,0 3.88307,0.11603 5.79592,0.00174c4.49651,-0.26866 9.03071,-1.08477 13.50442,-1.62129c4.85723,-0.58251 9.6833,-1.06003 14.46227,-2.11057c4.38931,-0.96489 8.86375,-2.42053 13.31938,-2.8885l0.04967,0.01282l-0.00003,-0.01418l1.58727,-0.00296c0.00071,0 0.00142,0 0.00213,0c0.53886,0 0.97568,0.43683 0.97568,0.97569c0,0.32335 -0.15729,0.60995 -0.39953,0.78749l-1.54226,1.15619l-0.08916,-0.11892c-1.83595,1.80374 -3.83013,3.38244 -5.80386,5.11979c-3.40166,2.99428 -6.71705,6.10129 -9.94327,9.28209l-1.0132,0.32605c0,0 -0.96905,0.11359 -1.08264,-0.85546z" fill="#ff0000"/><path d="M211.66468,61.84243l0.28256,0.97568c-0.97019,-0.00001 -1.94038,0.00438 -2.91056,0.00879c-3.2329,0.07227 -6.31204,0.89582 -9.51,1.34714c-2.28448,0.32241 -4.57019,0.57902 -6.85085,0.87048c-0.06379,0.39839 -0.06727,0.81215 -0.1375,1.20999c-0.37225,2.10899 -0.5905,2.85553 0.13867,4.88353c0.62446,1.81715 0.96198,3.51933 0.97102,5.45219c0.00319,0.68114 0.24845,1.45646 -0.10135,2.04092c-0.82558,1.37945 -2.76693,2.28698 -4.34103,1.64558c-1.61051,-0.65623 -2.72421,-2.97632 -4.12076,-4.0046c-0.92612,-0.68189 -2.00699,-1.12368 -3.00831,-1.68939l-0.51252,-1.41405c0,0 -0.02826,-0.97527 0.94702,-1.00353c0.97528,-0.02826 1.00353,0.94702 1.00353,0.94702l-0.47818,-0.22841c0.29616,0.16732 3.15456,1.77954 3.22826,1.83404c1.33765,0.98909 2.27278,2.92534 3.6808,3.75324c0.51811,0.30464 1.66756,-0.33716 1.85419,-0.70931c0.16368,-0.32637 -0.0694,-0.72694 -0.10135,-1.09065c-0.15542,-1.76917 -0.26823,-3.20105 -0.86439,-4.892c-0.22854,-0.6757 -0.57733,-1.32206 -0.68561,-2.0271c-0.17066,-1.11122 0.2712,-2.79684 0.47067,-3.84959c0.03719,-0.19629 0.06401,-0.39544 0.08879,-0.59513c-1.42642,0.20035 -2.85015,0.42574 -4.26965,0.70089c-3.84387,0.74509 -7.77487,1.86586 -11.69414,1.87452c0,0 -0.97568,0 -0.97568,-0.97568c0,-0.97568 0.97568,-0.97568 0.97568,-0.97568c3.78143,0.0092 7.6137,-1.11989 11.3228,-1.83886c1.72205,-0.3338 3.45007,-0.59528 5.1815,-0.82764c0.6272,-1.12905 1.82616,-2.2236 2.56909,-3.19709c0.16676,-0.21851 1.77866,-2.34259 2.35476,-3.05652c-0.26227,0.1405 -0.51783,0.29829 -0.79921,0.39069c-0.63096,0.20719 -1.29348,0.30171 -1.94027,0.45235c-3.1675,0.73776 -6.33532,1.47414 -9.50298,2.21121c0,0 -0.9503,0.22112 -1.17142,-0.72918c-0.22112,-0.9503 0.72917,-1.17142 0.72917,-1.17142c3.16766,-0.73707 6.33515,-1.47484 9.50298,-2.2112c0.62027,-0.14419 1.24153,-0.28424 1.86093,-0.43213c0.80607,-0.19246 1.66635,-0.94341 2.41545,-0.58893c0.89292,0.42254 1.52186,1.50703 1.60489,2.49139c0.04485,0.53167 -0.93735,0.53437 -1.31814,0.90812c-0.86748,0.85145 -1.44751,1.95322 -2.18494,2.91949c-0.39825,0.52184 -0.97313,1.08946 -1.48926,1.6772c1.79024,-0.22087 3.58272,-0.43402 5.37461,-0.68697c3.28321,-0.46348 6.43326,-1.28723 9.75575,-1.36611c0.78492,-0.00361 1.56984,-0.0072 2.35476,-0.00849c0.01143,-0.0005 0.01764,-0.0005 0.01764,-0.0005l0.00014,0.00046c0.18832,-0.0003 0.37666,-0.00046 0.56498,-0.00046zM196.67026,56.79113c0.10682,0.04461 0.21894,0.10409 0.32225,0.10701c0.11289,0.00319 -0.21352,-0.14083 -0.32136,-0.10729c-0.0003,0.0001 -0.0006,0.00019 -0.0009,0.00028z" fill="#ff0000"/><path d="M270.32734,29.77632l-1.62838,-1.42331c-1.10467,-1.86186 -1.75226,-3.1893 -3.47332,-4.53604c0,0 -0.83704,-0.66773 -0.16931,-1.50477c0.66773,-0.83704 1.50477,-0.1693 1.50477,-0.1693c0.6055,0.49081 1.30688,0.88266 1.8165,1.47241c0.16645,0.19262 1.67163,2.84901 1.96812,3.36871l1.37998,1.17041c0,0 0.74874,0.64555 0.18703,1.4155c0.3365,-0.06649 0.67302,-0.13263 1.00956,-0.19833l0.8933,-0.17439c0,0 1.05091,-0.20515 1.25606,0.84576c0.20515,1.05091 -0.84575,1.25605 -0.84575,1.25605l-0.8933,0.17439c-5.61847,1.0968 -11.231,2.31334 -16.87563,3.29775c0.49811,1.84117 0.97617,3.70351 1.49906,5.55248c0.31605,-0.07674 0.86534,-0.09377 1.19426,0.55826c0.48226,0.95599 -0.47373,1.43825 -0.47373,1.43825l-0.11952,0.04506c0.59848,1.9436 1.27419,3.85791 2.10429,5.70188c0.47814,1.06214 0.79418,2.21151 1.4253,3.19052c1.29026,2.00151 3.05228,3.77251 4.45532,5.70697c2.27702,0.94798 4.01416,1.88318 6.45784,2.06845c0.37758,0.02862 1.56185,0.31197 1.80906,-0.24927c0.21236,-0.48212 -0.12727,-1.04708 -0.14831,-1.57348c-0.02844,-0.71181 0.00002,-1.42475 0.00003,-2.13713c0.00004,-2.59506 0.27919,-4.75811 -0.73778,-7.14199l-0.24073,-0.58136c0,0 -0.40965,-0.98929 0.57964,-1.39893c0.98928,-0.40964 1.39893,0.57964 1.39893,0.57964l0.24073,0.58136c0.29339,0.72646 0.69384,1.4184 0.88019,2.17938c0.28863,1.17867 0.02056,2.42694 0.02055,3.64045c0,0.00321 -0.00007,4.28703 -0.00008,4.28734c-0.03415,0.90454 0.30635,1.948 -0.18324,2.70935c-0.98849,1.53718 -2.39791,1.32735 -3.7654,1.24111c-2.89738,-0.18272 -4.99229,-1.31967 -7.62912,-2.51684c-1.63761,-2.03399 -3.55982,-4.0824 -4.96551,-6.27935c-0.67593,-1.0564 -1.03677,-2.28399 -1.55056,-3.42805c-0.88689,-1.97484 -1.60432,-4.02466 -2.23996,-6.10461c-3.19573,0.67632 -6.3954,1.34103 -9.56494,2.12819c0,0 -1.03919,0.25801 -1.29721,-0.78118c-0.25802,-1.03919 0.78118,-1.2972 0.78118,-1.2972c3.14073,-0.77958 6.31048,-1.44071 9.47705,-2.1108c-0.5312,-1.88191 -1.01969,-3.77621 -1.52901,-5.65037c-1.25849,0.20497 -2.5188,0.39626 -3.78135,0.56999c-3.26162,0.44878 -6.60343,1.17146 -9.89713,1.17762c0,0 -1.07075,0 -1.07075,-1.07075c0,-1.07075 1.07075,-1.07074 1.07075,-1.07074c3.18876,0.00669 6.44739,-0.72313 9.60522,-1.15763c1.15729,-0.15924 2.31269,-0.33336 3.46653,-0.51935c-0.80504,-2.59953 -1.72051,-5.30881 -1.73815,-7.94088c0,0 0,-1.07075 1.07074,-1.07075c1.07074,0 1.07075,1.07075 1.07075,1.07075c-0.02071,2.46843 0.93215,5.11205 1.7174,7.58609c4.88214,-0.84493 9.73973,-1.86932 14.59749,-2.84201c-0.07579,-0.04769 -0.11944,-0.08533 -0.11944,-0.08533z" fill="#ff0000"/><path d="M223.49595,60.46134c0.42918,-0.68279 1.04937,-0.52804 1.32937,-0.41007c5.07512,-4.55685 9.97936,-9.92353 11.43054,-16.80514c0.56713,-2.68939 0.14762,-5.44172 0.79474,-8.12282c0,0 0.25539,-1.03984 1.29523,-0.78445c1.03984,0.25539 0.78445,1.29523 0.78445,1.29523c-0.6615,2.64053 -0.21657,5.38678 -0.77901,8.05392c-1.60514,7.61174 -7.06204,13.50854 -12.6926,18.48893l-1.82602,-0.23924c0,0 -0.90653,-0.56983 -0.3367,-1.47635z" fill="#ff0000"/><path d="M259.2502,57.66858c-0.0578,1.06918 -1.12698,1.01138 -1.12698,1.01138c-0.0132,-0.00071 -0.02641,-0.00143 -0.03963,-0.00214l-1.29712,0.72153c0,0 -0.95339,0.48739 -1.44078,-0.46599c-0.07575,-0.14818 -0.1167,-0.28509 -0.13183,-0.41068c-4.25615,-0.23009 -8.85769,-0.47885 -12.90381,-0.69758c0,0 -1.06918,-0.05781 -1.01138,-1.12699c0.01513,-0.27984 0.09954,-0.48248 0.21594,-0.62915c-0.35107,-0.9087 -0.58075,-4.11231 -0.64096,-4.77406c0,0 -0.09701,-1.06634 0.96932,-1.16336c1.06634,-0.09702 1.16335,0.96932 1.16335,0.96932c0.06468,0.7109 0.19254,1.41885 0.19404,2.13268c0.00099,0.47321 -0.53699,1.08924 -0.18661,1.40731c0.33007,0.29964 0.83909,-0.3035 1.26776,-0.42585c0.65959,-0.18827 1.32973,-0.33744 1.9948,-0.50535c2.07599,-0.52413 4.14974,-1.06184 6.23022,-1.5678c0.78323,-0.19048 1.54769,-0.56661 2.35366,-0.55485c0.32137,0.00469 4.3685,1.16 4.59053,1.48253c0.52128,0.75722 0.34162,1.83592 0.22944,2.74835c-0.06295,0.51204 -0.25568,0.99351 -0.46252,1.47167c0.02769,0.10959 0.04033,0.23516 0.03255,0.37906zM257.56329,55.49418c0.08371,-0.37027 0.4194,-0.82356 0.18663,-1.12343c-0.23313,-0.30033 -0.76489,-0.0182 -1.13621,-0.09988c-0.60729,-0.13358 -1.16302,-0.53356 -1.78475,-0.54263c-0.62174,-0.00907 -1.19821,0.33314 -1.79982,0.49034c-1.92807,0.5038 -4.02269,1.24255 -6.07029,1.71321c3.44493,0.18624 6.88986,0.37247 10.33479,0.55871c0.09607,-0.33056 0.19378,-0.66071 0.26965,-0.99632z" fill="#ff0000"/><path d="M230.2553,72.50808c1.43702,-1.35058 3.15645,-2.58735 4.45327,-4.04437c0.72032,-0.8093 1.05959,-1.89015 1.59561,-2.83171c0,0 0.52974,-0.93053 1.46026,-0.40079c0.93052,0.52974 0.40078,1.46026 0.40078,1.46026c-0.59356,1.04261 -1.00319,2.21773 -1.79307,3.12074c-1.39819,1.59846 -3.2969,2.94463 -4.82985,4.42746l-1.6731,-1.30445c0,0 0.1305,-0.2505 0.3861,-0.42715z" fill="#ff0000"/><path d="M259.46581,61.25812c0.62836,-0.86698 1.49534,-0.23862 1.49534,-0.23862l0.27566,0.19978c2.24667,1.63111 4.67861,2.90881 7.08607,4.2877c1.56014,0.35125 5.63812,0.46636 5.89163,2.79008c0.07455,0.6834 -0.78691,1.13402 -1.26038,1.63244c-1.93945,2.04162 -5.49156,3.2032 -8.25043,3.70386c-2.47713,0.44953 -5.53728,-0.08836 -8.0553,-0.13544c-0.36695,-0.00686 -4.3974,-0.06874 -4.59296,-0.13225c-0.77786,-0.25264 -1.36278,-0.90475 -2.03812,-1.36607c-1.7679,-1.20764 -3.51245,-2.45167 -5.26808,-3.67709c0,0 -0.87802,-0.61285 -0.26516,-1.49087c0.61285,-0.87802 1.49087,-0.26516 1.49087,-0.26516c1.75549,1.22533 3.52702,2.43137 5.26808,3.6771c0.49621,0.35504 0.89363,0.89686 1.47393,1.08533c1.25912,0.40895 2.64786,0.00315 3.97149,0.0279c2.37894,0.04448 5.36372,0.59835 7.69547,0.15908c1.34413,-0.25321 2.59084,-0.87826 3.89221,-1.29927c0.6096,-0.19721 1.27801,-0.25912 1.83245,-0.58022c0.43856,-0.254 0.88074,-0.93097 1.30051,-1.24144c-0.54805,-0.09247 -1.08626,-0.24181 -1.62864,-0.36474c-0.74606,-0.1691 -1.48904,-0.35151 -2.23356,-0.52727c-2.58203,-1.44352 -5.16857,-2.81434 -7.56679,-4.54968l-0.27565,-0.19979c0,0 -0.86698,-0.62836 -0.23863,-1.49534z" fill="#ff0000"/><path d="M260.95885,65.06794c-0.18894,1.05394 -1.24289,0.865 -1.24289,0.865l-0.5529,-0.09912c-1.75022,-0.31377 -3.46486,-0.74564 -5.24618,-0.73897c0,0 -1.07074,0.00001 -1.07074,-1.07074c0,-1.07075 1.07074,-1.07075 1.07074,-1.07075c1.91572,0.00614 3.7417,0.43511 5.62407,0.77257l0.5529,0.09912c0,0 1.05394,0.18895 0.865,1.24289z" fill="#ff0000"/><path d="M283.02332,67.23229c-1.07055,0.02033 -1.09089,-1.05022 -1.09089,-1.05022l0.01314,-1.04462c-0.54811,-0.8954 -1.06567,-1.80927 -1.58421,-2.72212c0,0 -0.52886,-0.93101 0.40216,-1.45988c0.93102,-0.52887 1.45988,0.40216 1.45988,0.40216c0.60535,1.06568 1.20499,2.13476 1.78733,3.21319l0.0628,1.5706c0,0 0.02033,1.07055 -1.05022,1.09089z" fill="#ff0000"/><path d="M326.81297,51.36139c-0.16352,1.05819 -1.22171,0.89466 -1.22171,0.89466l-1.19056,-0.19505c-0.12412,0.01727 -0.6592,0.09241 -1.3087,0.18261c-0.03139,0.07016 -0.06288,0.14029 -0.09445,0.21039l0.00047,0.90506c0,0 -0.02354,1.07048 -1.09403,1.04694c-1.07049,-0.02354 -1.04694,-1.09402 -1.04694,-1.09402l0.02872,-0.76749c-0.37347,0.04909 -0.63834,0.08177 -0.69144,0.08315c-2.83171,0.07384 -5.82682,-0.46468 -8.65226,-0.69297c-3.85147,-0.31119 -7.70293,-0.62237 -11.5544,-0.93357c-0.12148,0.17809 -0.24297,0.35617 -0.36445,0.53426l-0.76453,1.12079c0,0 -0.60339,0.88455 -1.48793,0.28116c-0.88455,-0.60339 -0.28116,-1.48793 -0.28116,-1.48793c0.14609,-0.21415 0.29318,-0.42979 0.4412,-0.64679c-1.02166,-0.08255 -2.04332,-0.1651 -3.06498,-0.24765c0,0 -0.27919,-0.02256 -0.54044,-0.18739c-0.00059,0.00473 -0.00117,0.00945 -0.00176,0.01417l-0.69778,1.08635c0,0 -0.69765,0.81227 -1.50992,0.11462c-0.81227,-0.69765 -0.11461,-1.50992 -0.11461,-1.50992l0.19724,0.04429c0.43471,-3.49054 1.0701,-7.04322 1.25345,-10.55637c0.03605,-0.69082 -0.03889,-1.3836 -0.02223,-2.07516c0.01316,-0.5464 0.24926,-1.10692 0.11161,-1.63586c-0.12382,-0.47581 -1.49567,-0.25909 -1.58357,-0.2551c0,0 -1.07074,0 -1.07074,-1.07075c0,-1.07075 1.07074,-1.07074 1.07074,-1.07074c0.13669,0.00381 0.27363,0.00449 0.41019,0.00444c-0.06169,-0.09372 -0.1146,-0.20719 -0.15454,-0.34427c-0.29961,-1.02797 0.72836,-1.32758 0.72836,-1.32758c7.53846,-2.19713 15.07693,-4.39426 22.61539,-6.59139c3.38988,-0.988 6.9207,-2.42516 10.39779,-3.02336c1.73922,-0.29921 3.49248,-0.05147 5.22841,0.06752c0.09741,3.06654 0.08,6.40957 -0.51952,9.44308c-0.01596,0.08075 -1.22527,4.05001 -1.26851,4.19583c-1.41724,4.7794 -2.99872,9.49513 -4.91893,14.08979c0.11535,-0.01673 0.23077,-0.03266 0.34627,-0.04752l1.4956,0.22005c0,0 1.05819,0.16352 0.89466,1.22171zM294.63828,48.42042c1.42717,0.11531 2.85434,0.23063 4.28151,0.34594c0.95,-1.39267 1.92735,-2.82544 2.91454,-4.27263c-0.05533,0.01456 -0.11057,0.02908 -0.16573,0.04359c0,0 -1.03552,0.27237 -1.30789,-0.76315c-0.27237,-1.03552 0.76315,-1.3079 0.76315,-1.3079c0.85041,-0.22368 1.70081,-0.44735 2.55122,-0.67103c2.14583,-3.14573 4.28701,-6.28464 6.24674,-9.15754c0,0 0.60338,-0.88454 1.48793,-0.28116c0.88455,0.60339 0.28116,1.48793 0.28116,1.48793c-1.61892,2.37329 -3.23782,4.74656 -4.85674,7.11985c5.6904,-1.49672 11.3808,-2.99343 17.0712,-4.49015l1.59977,-0.42078c0,0 0.7024,-0.18475 1.10237,0.32856c0.1129,-0.37044 0.22448,-0.74157 0.33474,-1.1134c0.39636,-1.33666 0.95003,-2.63283 1.22045,-4.00054c0.50121,-2.53495 0.1387,-5.09946 1.07892,-7.54332c-1.06246,0.36462 -2.21653,0.36628 -3.32355,0.55673c-2.01063,0.3459 -4.08985,1.19915 -6.04977,1.77038c-8.69192,2.53331 -17.38384,5.06663 -26.07576,7.59994c0.47143,0.17798 0.89243,0.51788 1.22532,1.16607c0.13242,0.25785 0.1983,4.3642 0.17271,4.85451c-0.15287,2.92896 -0.61209,5.88383 -1.0157,8.80923c0.24629,-0.07867 0.46341,-0.06113 0.46341,-0.06113zM309.57999,49.62767c3.44856,0.27864 7.10312,0.94931 10.55852,0.85921c0.48713,-0.0127 0.97144,-0.06068 1.4544,-0.12573c1.66785,-4.02629 3.15555,-8.09381 4.47374,-12.24161c-0.01085,0.00333 -0.01678,0.00489 -0.01678,0.00489c-5.50018,1.44669 -11.8396,3.11411 -17.80254,4.68252c2.76903,2.03774 5.20274,4.04877 8.65458,4.76005l1.16153,-0.00537c0,0 1.07074,-0.00001 1.07074,1.07074c0,1.07075 -1.07074,1.07075 -1.07074,1.07075l-1.37574,-0.00537c-1.49373,-0.30025 -3.28213,-0.75119 -4.61792,-1.45878c-1.85178,-0.98092 -3.62294,-2.63428 -5.31735,-3.87271c0,0 -0.57826,-0.42265 -0.44321,-1.04953c-0.44167,0.11617 -0.88044,0.23158 -1.31581,0.34609c-1.20558,1.76735 -2.41116,3.53471 -3.61675,5.30206c2.73444,0.22093 5.46889,0.44188 8.20333,0.66281z" fill="#ff0000"/><path d="M290.56874,72.20395c-0.91163,-0.56163 -0.35001,-1.47326 -0.35001,-1.47326l0.92716,-1.50495c1.89243,-3.07178 3.21131,-6.09968 4.55098,-9.4473c0,0 0.39783,-0.99409 1.39192,-0.59627c0.9941,0.39782 0.59627,1.39192 0.59627,1.39192c-1.38362,3.45744 -2.76022,6.60043 -4.71591,9.7749l-0.92716,1.50495c0,0 -0.56162,0.91163 -1.47325,0.35001z" fill="#ff0000"/><path d="M311.44433,61.16192l1.28073,-0.44525c0.12034,1.6544 1.05319,2.78903 2.74826,3.33728c0.71994,0.23286 1.56068,0.00109 2.24749,0.31861c0.61939,0.28634 0.97296,0.95813 1.48641,1.40758c1.40356,1.22859 3.57,1.94487 1.74804,4.56243c-0.29042,0.41724 -3.90284,0.31045 -4.18658,0.3103c-1.96353,-0.00105 -4.60868,0.07359 -6.4875,-0.59011c-1.89508,-0.66945 -3.97139,-2.37605 -5.68656,-3.43857c-0.68187,-0.4224 -1.47678,-0.70676 -2.03733,-1.28048c-0.56054,-0.57372 -0.82187,-1.37768 -1.2328,-2.06652c0,0 -0.53582,-0.92703 0.39121,-1.46285c0.92703,-0.53582 1.46285,0.39122 1.46285,0.39122c0.30349,0.5472 0.4732,1.19403 0.91048,1.6416c0.9361,0.95811 2.30483,1.36573 3.44867,2.06281c1.15627,0.70466 2.18002,1.68257 3.45676,2.13359c1.64445,0.58092 4.06355,0.46877 5.77421,0.46783c0.71383,-0.00039 1.4324,-0.08213 2.14149,0c0.20551,0.0238 0.35066,0.39913 0.53749,0.3103c0.15413,-0.07328 -0.06198,-0.36331 -0.19097,-0.47505c-0.437,-0.37856 -1.00686,-0.57972 -1.45224,-0.94839c-0.38652,-0.31994 -0.56515,-0.9018 -1.02513,-1.10224c-0.61532,-0.26812 -1.36858,0.00554 -2.00189,-0.21677c-1.20757,-0.42391 -3.27713,-1.98543 -3.88287,-3.1019c-0.19018,-0.35052 -0.2249,-0.75286 -0.24144,-1.16125c-0.06222,-0.19684 -0.06221,-0.35747 -0.06221,-0.35747l0.04824,-0.01677c-0.00718,-0.16042 -0.01802,-0.31961 -0.0409,-0.4748z" fill="#ff0000"/><path d="M310.48112,58.5166c-0.47839,0.95793 -1.43633,0.47954 -1.43633,0.47954l-1.09533,-0.54701c-1.06081,-0.53026 -2.12162,-1.06053 -3.18243,-1.59079c0,0 -0.95775,-0.47874 -0.479,-1.4365c0.47875,-0.95775 1.4365,-0.47901 1.4365,-0.47901c1.06069,0.5302 2.12138,1.0604 3.18207,1.5906l1.09499,0.54684c0,0 0.95793,0.47839 0.47953,1.43632z" fill="#ff0000"/><path d="M328.92282,62.71903c-2.27366,-0.62049 -4.06689,-1.70909 -6.22463,-2.88538c0,0 -0.94012,-0.51251 -0.42762,-1.45263c0.5125,-0.94012 1.45263,-0.42761 1.45263,-0.42761c2.21607,1.20808 4.03326,2.3967 6.50318,2.87711l-0.46026,1.68082l0.03857,0.41874c-0.04851,-0.01001 -0.09679,-0.02023 -0.14483,-0.03066l-0.01579,0.05767c0,0 -0.40541,0.00645 -0.72125,-0.23806z" fill="#ff0000"/><path d="M352.66594,35.57024c-0.52623,0.81312 -1.33935,0.28689 -1.33935,0.28689l-1.17999,-0.77007c-1.85563,-1.84501 -3.7053,-3.69597 -5.55607,-5.54586c0,0 -0.68503,-0.6847 -0.00032,-1.36973c0.68471,-0.68503 1.36973,-0.00032 1.36973,-0.00032c1.80272,1.80188 3.60691,3.60227 5.40435,5.40941l1.01477,0.65033c0,0 0.81312,0.52623 0.28689,1.33935z" data-paper-data="{&quot;index&quot;:null}" fill="#ff0000"/><path d="M352.06375,55.93916c0.76193,0.59796 0.16397,1.35988 0.16397,1.35988l-0.33602,0.42817c-0.79476,1.01246 -1.5108,2.08574 -2.31899,3.08751c-0.50099,0.62099 -0.84716,1.49108 -1.58567,1.79312c-0.6957,0.28452 -1.70545,0.29779 -2.24344,-0.22711c-0.53626,-0.52321 -0.18378,-1.48712 -0.27568,-2.23067c0.1484,-2.14199 0.94085,-4.14746 1.59111,-6.18166c0.89847,-2.81067 1.80796,-5.61845 2.85476,-8.37758c0.582,-1.53404 1.50849,-3.24277 1.77111,-4.87625c0.09039,-0.5622 -1.14231,-0.01979 -1.70756,0.04899c-0.64874,0.07893 -1.28941,0.22817 -1.94132,0.27413c-1.92578,0.13575 -3.92476,0.00241 -5.85586,0.00241c0,0 -0.96855,0 -0.96855,-0.96855c0,-0.96855 0.96855,-0.96855 0.96855,-0.96855c1.88484,0 3.83981,0.13703 5.71942,0.00241c1.00919,-0.07228 3.30088,-0.63876 4.24781,-0.31181c2.69636,0.93098 0.88778,4.02797 0.2647,5.67335c-1.26314,3.33556 -2.42197,6.69389 -3.50795,10.09126c-0.58716,1.83685 -1.38333,3.71985 -1.50017,5.65507c-0.50443,1.4874 -0.11156,0.4626 0.63029,-0.57563c0.75292,-1.05373 1.53415,-2.08746 2.33359,-3.10634l0.33602,-0.42817c0,0 0.59796,-0.76192 1.35988,-0.16397z" data-paper-data="{&quot;index&quot;:null}" fill="#ff0000"/><path d="M368.97471,61.26221c-0.69351,-0.67611 -0.01741,-1.36962 -0.01741,-1.36962l1.22633,-1.25748c0.9124,-1.03231 1.76695,-2.11779 2.5856,-3.23383c-1.12495,-2.84328 -1.58622,-5.9837 -2.21356,-9.01733c-0.26506,-0.23393 -0.33301,-0.58299 -0.33301,-0.58299c-0.20516,-1.05389 -0.41369,-2.12514 -0.62467,-3.20894c-0.03009,-0.09383 -0.06073,-0.18737 -0.09196,-0.2806c0,0 -0.0636,-0.19082 -0.04589,-0.42752c-0.38983,-2.00254 -0.78722,-4.04398 -1.18637,-6.0944c-2.7852,1.03609 -5.56587,2.12336 -8.15127,3.4681c-0.74969,3.74676 -1.49937,7.49353 -2.24906,11.24029c-0.01732,0.08657 -0.03437,0.17339 -0.05118,0.26042c2.15831,-1.01679 4.35339,-2.03947 6.65084,-2.62673c0.70742,-0.18083 1.58539,-0.83495 2.15715,-0.38082c1.01536,0.80648 0.72164,3.59776 0.68327,4.715c-0.08041,2.34114 -0.12902,4.66626 -0.38424,6.99532c-0.07069,0.6451 0.00309,1.3253 -0.22117,1.93428c-0.30062,0.81638 -0.56317,1.82268 -1.32016,2.25141c-3.19167,1.80763 -4.92179,-2.27143 -5.97462,-4.35469c-0.28992,-0.57695 -0.57984,-1.1539 -0.86976,-1.73085l-0.20494,-0.40784c0,0 -0.43488,-0.86543 0.43055,-1.30031c0.86543,-0.43488 1.3003,0.43055 1.3003,0.43055c0.28992,0.57695 0.78478,1.56175 1.0747,2.1387c0.27433,0.54938 0.51304,1.11803 0.82297,1.64814c0.14827,0.25361 0.37475,0.45317 0.54539,0.6923c0.29081,0.40754 0.42219,0.96764 0.83804,1.24644c1.0495,0.70363 1.36726,-0.58969 1.50459,-1.17858c0.47802,-2.04983 0.37982,-4.40015 0.45399,-6.49745c0.00206,-0.05817 0.12839,-3.67029 0.13786,-3.7832c0.03217,-0.38391 0.37178,-0.80678 0.18105,-1.14151c-0.12481,-0.21904 -0.29208,0.43803 -0.5169,0.55209c-0.57583,0.29214 -1.21926,0.42556 -1.82898,0.63809c-2.02289,0.7051 -3.93547,1.60232 -5.87707,2.49656c-0.19035,1.0756 -0.39716,2.14981 -0.69023,3.17677c-0.53095,1.86052 -1.38424,3.70331 -2.06338,5.51586c-0.91712,2.44769 -1.78223,4.89912 -2.89143,7.26704l-0.18187,0.41285c0,0 -0.39095,0.88613 -1.27709,0.49518c-0.88614,-0.39095 -0.49518,-1.27709 -0.49518,-1.27709l0.20029,-0.45333c1.08887,-2.31969 1.93253,-4.72549 2.83134,-7.12431c0.66087,-1.76377 1.49789,-3.55716 2.0146,-5.36778c0.28979,-1.01548 0.49115,-2.07952 0.67731,-3.14406c-0.05453,-0.26023 0.00808,-0.46874 0.1087,-0.62821c0.10729,-0.62308 0.2143,-1.24307 0.3358,-1.85029c0.65646,-3.28085 1.31293,-6.56171 1.96939,-9.84256c-0.24647,-0.01197 -0.52439,-0.12532 -0.73654,-0.48883c-0.48819,-0.83651 0.34832,-1.3247 0.34832,-1.3247c3.21059,-1.86808 6.78039,-3.26163 10.34529,-4.5899c-0.77981,-4.00591 -1.55938,-8.01055 -2.29544,-11.79173c0,0 -0.18507,-0.9507 0.76563,-1.13577c0.9507,-0.18507 1.13577,0.76563 1.13577,0.76563c0.74485,3.82632 1.48971,7.65265 2.23456,11.47897c1.3502,-0.50091 2.69063,-1.00259 4.00129,-1.52748l0.58876,-0.22796c0,0 0.90324,-0.34962 1.25286,0.55362c0.34962,0.90324 -0.55362,1.25286 -0.55362,1.25286l-0.56784,0.21972c-1.41991,0.56864 -2.87851,1.10836 -4.34761,1.64967c0.45517,2.33823 0.91035,4.67646 1.36552,7.0147c1.12981,3.63068 1.47233,7.65771 2.67209,11.32245c1.22646,-1.78787 2.39616,-3.61859 3.593,-5.40581c0,0 0.53892,-0.80476 1.34368,-0.26584c0.80476,0.53892 0.26584,1.34369 0.26584,1.34369c-1.4435,2.15555 -2.85112,4.36471 -4.35921,6.49337c0.2126,0.45998 0.44588,0.911 0.7036,1.35132c0.27372,0.46766 0.55076,0.95797 0.96294,1.30974c0.48476,0.41371 1.1632,0.54561 1.66755,0.9352c0.81219,0.62739 1.41015,1.55475 2.31034,2.13129c0.14399,0.09222 -0.32453,-0.20567 -0.35034,-0.3747c-0.09663,-0.63285 -0.00011,-1.28037 -0.00014,-1.92056c-0.00005,-1.02601 0,-2.05203 0,-3.07804c0,-0.37463 0,-0.74927 0,-1.1239v-0.83644c0,0 0,-0.96855 0.96855,-0.96855c0.96855,0 0.96855,0.96855 0.96855,0.96855c0,0.37463 0,1.5857 0,1.96034c0,1.58343 0.17479,3.45891 -0.00014,5.03167c-0.07155,0.64327 0.14028,1.58388 -0.42782,1.89401c-0.7388,0.40331 -1.70551,-0.03813 -2.50828,-0.29118c-0.92501,-0.29159 -1.43238,-1.31143 -2.20026,-1.90391c-0.51787,-0.39957 -1.22048,-0.53094 -1.7066,-0.9686c-0.55705,-0.50152 -0.96618,-1.15315 -1.35908,-1.79147c-0.11267,-0.18305 -0.22085,-0.36815 -0.32484,-0.55517c-0.6701,0.88185 -1.3653,1.74232 -2.0961,2.5711l-1.25935,1.2922c0,0 -0.67611,0.69351 -1.36962,0.01741z" data-paper-data="{&quot;index&quot;:null}" fill="#ff0000"/><path d="M380.66211,29.70357c-0.57001,0.78305 -1.35306,0.21304 -1.35306,0.21304l-0.14977,-0.10902c-2.07417,-1.51996 -3.54187,-3.40122 -5.21344,-5.348c0,0 -0.63095,-0.73483 0.10388,-1.36579c0.73483,-0.63095 1.36579,0.10388 1.36579,0.10388c1.56594,1.82376 2.93337,3.63465 4.88379,5.0438l0.14977,0.10902c0,0 0.78305,0.57001 0.21304,1.35306z" data-paper-data="{&quot;index&quot;:null}" fill="#ff0000"/><path d="M382.89504,48.8777c-0.68471,-0.68502 0.00031,-1.36973 0.00031,-1.36973l0.98945,-0.989c1.14009,-1.13539 2.33846,-2.41608 3.10924,-3.85408c0.79329,-1.48 1.18924,-3.4099 1.74578,-4.99282c1.07085,-3.04572 2.1417,-6.09144 3.21255,-9.13716c0,0 0.32125,-0.91371 1.23497,-0.59246c0.91372,0.32126 0.59246,1.23497 0.59246,1.23497c-1.07085,3.04572 -2.1417,6.09144 -3.21255,9.13716c-0.58708,1.66977 -1.01765,3.67338 -1.85085,5.23677c-0.86522,1.62346 -2.18018,3.05135 -3.46211,4.33758l-0.98953,0.98908c0,0 -0.68502,0.68471 -1.36973,-0.00031z" data-paper-data="{&quot;index&quot;:null}" fill="#ff0000"/><path d="M391.705,62.29851l-0.96855,0.18286c0,-7.23146 -0.27962,-14.35514 -0.77143,-21.57028c0,0 -0.06586,-0.9663 0.90044,-1.03217c0.9663,-0.06587 1.03217,0.90044 1.03217,0.90044c0.48622,7.13311 0.76613,14.17924 0.77566,21.32498c0.00025,0.00738 0.00025,0.01132 0.00025,0.01132l-0.00024,0.00004c0.00016,0.12186 0.00024,0.24375 0.00024,0.36567z" data-paper-data="{&quot;index&quot;:null}" fill="#ff0000"/><path d="M405.0306,33.89369c-0.01,0.96849 -0.97849,0.9585 -0.97849,0.9585l-1.82934,-0.06339c-0.99456,-0.66898 -1.97812,-1.35442 -2.95438,-2.04983c0,0 -0.78887,-0.56193 -0.22694,-1.3508c0.56193,-0.78887 1.3508,-0.22694 1.3508,-0.22694c0.81869,0.58317 1.63605,1.16913 2.42999,1.78557l1.24986,-0.0316c0,0 0.96849,0.01 0.9585,0.97849z" data-paper-data="{&quot;index&quot;:null}" fill="#ff0000"/><path d="M419.82109,36.15315c-0.37936,0.33868 -0.73736,0.30035 -0.99185,0.18755c-1.27537,0.62624 -2.4085,0.55731 -3.95481,0.89278c-1.26013,0.27339 -2.45314,0.80722 -3.70988,1.09582c-4.90227,1.1258 -10.08309,1.54968 -15.05646,2.31294c0,0 -0.95734,0.14692 -1.10426,-0.81042c-0.14692,-0.95734 0.81042,-1.10426 0.81042,-1.10426c5.51647,-0.84661 11.36954,-1.24098 16.72276,-2.82097c1.84097,-0.54336 4.31746,-0.41056 5.84808,-1.53886l1.51346,0.41789c0,0 0.64504,0.7225 -0.07746,1.36754z" data-paper-data="{&quot;index&quot;:null}" fill="#ff0000"/><path d="M411.63265,42.77883c0,0.96855 -0.96855,0.96855 -0.96855,0.96855l-0.50092,-0.03932c-2.19252,0.64453 -4.38505,1.28906 -6.57758,1.93359c0,0 -0.92923,0.27316 -1.20239,-0.65606c-0.27316,-0.92923 0.65607,-1.20239 0.65607,-1.20239c2.19252,-0.64453 4.38505,-1.28906 6.57758,-1.93359l1.04724,-0.03932c0,0 0.96855,0 0.96855,0.96855z" data-paper-data="{&quot;index&quot;:null}" fill="#ff0000"/><path d="M420.14694,47.03268c0,0.96855 -0.96855,0.96855 -0.96855,0.96855h-0.40991c-1.1141,-0.00451 -2.21833,0.21771 -3.32103,0.37679c-1.17037,0.16884 -2.3766,0.02494 -3.53929,0.24038c-4.95317,0.9178 -9.91844,2.43425 -14.99759,2.47591c0.01256,0.06225 0.01915,0.12666 0.01915,0.19262c0,0.53491 -0.43363,0.96855 -0.96855,0.96855c-0.53491,0 -0.96855,-0.43363 -0.96855,-0.96855c0,-0.47412 0.34067,-0.86868 0.79059,-0.95223c-0.01072,-0.06385 -0.01653,-0.13306 -0.01653,-0.20808c0,-0.96855 0.96855,-0.96855 0.96855,-0.96855c7.44285,0.01186 14.61254,-3.06742 22.03325,-3.09393h0.40991c0,0 0.96855,0 0.96855,0.96855z" data-paper-data="{&quot;index&quot;:null}" fill="#ff0000"/><path d="M415.48863,60.86414l0.61498,0.77591c-0.44932,0.21486 -0.85919,0.54888 -1.34796,0.64459c-0.19991,0.03915 -0.40247,0.04977 -0.60631,0.04746c-0.13725,0.19649 -0.37274,0.36505 -0.7768,0.36505c-0.41359,0 -0.65057,-0.17661 -0.78635,-0.379c-3.2693,0.38251 -6.69603,1.5212 -9.61438,2.98411c0,0 -0.86635,0.43302 -1.29938,-0.43333c-0.17192,-0.34395 -0.13903,-0.6196 -0.03685,-0.82697c-0.03129,-0.08736 -0.0531,-0.18765 -0.06227,-0.30274c-0.05214,-0.65386 0.37385,-0.90021 0.65427,-0.99112c0.5761,-1.6373 1.10066,-3.26785 1.58603,-4.92491c-0.09963,-0.09596 -0.18777,-0.22874 -0.25254,-0.41073c-0.32472,-0.91249 0.58777,-1.23721 0.58777,-1.23721c0.04887,-0.01739 0.09771,-0.03469 0.14652,-0.05191c0.00587,-0.02143 0.01174,-0.04286 0.0176,-0.0643c0,0 0.25542,-0.93426 1.18968,-0.67884c0.17244,0.04714 0.30435,0.11741 0.40482,0.20067c1.60852,-0.51564 3.20852,-0.95379 4.87547,-1.36093c0.67703,-0.16536 1.31644,-0.51092 2.01053,-0.57379c1.33198,-0.12065 3.23845,0.53643 3.64321,2.05831c0.20056,0.75411 -0.52667,1.47019 -0.83548,2.18681c-0.39858,0.92493 -0.86895,1.54492 -1.10659,2.32361c0.25138,-0.07845 0.49928,-0.17816 0.74322,-0.30766zM410.8267,60.78642c0.55268,-0.13139 1.10041,-0.1877 1.63915,-0.23978c0.17457,-1.27759 0.68775,-2.30071 1.39772,-3.5116c0.19407,-0.33099 0.70702,-0.54779 0.67777,-0.93036c-0.03211,-0.41995 -1.36536,-0.56759 -1.58812,-0.52805c-2.37132,0.42085 -4.76316,1.22261 -7.06248,2.0354c-0.47929,1.68428 -0.99629,3.33783 -1.56279,4.9922c2.10649,-0.79229 4.22943,-1.2783 6.49873,-1.81781z" data-paper-data="{&quot;index&quot;:null}" fill="#ff0000"/></g></g></svg>