<svg version="1.1" xmlns="http://www.w3.org/2000/svg" xmlns:xlink="http://www.w3.org/1999/xlink" width="204.28781" height="258.08579" viewBox="0,0,204.28781,258.08579"><g transform="translate(-114.97818,-50.92454)"><g data-paper-data="{&quot;isPaintingLayer&quot;:true}" fill="#000000" fill-rule="nonzero" stroke="none" stroke-width="0.5" stroke-linecap="butt" stroke-linejoin="miter" stroke-miterlimit="10" stroke-dasharray="" stroke-dashoffset="0" style="mix-blend-mode: normal"><path d="M184.78083,51.11236c1.34165,-0.67081 2.01246,0.67084 2.01246,0.67084l0.35867,0.79711c0.32473,0.39981 0.64939,0.79967 0.97398,1.19958c0.92459,0.0609 1.85182,0.0996 2.7837,0.0991c0,0 1.5,0 1.5,1.5c0,1.5 -1.5,1.5 -1.5,1.5c-0.09027,-0.00005 -0.18051,-0.00021 -0.27071,-0.0005c0.01158,0.01429 0.02317,0.0286 0.03476,0.04289c4.30169,4.06092 8.45177,8.40919 12.94939,12.24998c4.52677,3.86569 9.83581,7.8388 13.07794,12.9863c0.95317,1.51334 1.17782,3.37757 1.75239,5.07127c0.94241,2.77802 2.42906,5.85699 2.94715,8.73947c0.70184,3.90485 0.26137,8.44133 0.35957,12.41027c-1.30021,5.68464 -1.90534,13.22715 -5.77289,17.88493c-2.22815,2.68341 -6.82267,4.76247 -9.69803,6.74552c-4.81393,3.32002 -9.76133,7.78107 -15.0137,10.33364c-4.3855,2.13128 -9.87357,3.08288 -14.53663,4.53037c-2.73535,0.8491 -6.0426,2.42622 -8.88196,2.72723c-4.69688,0.49794 -10.65385,-0.82009 -15.30663,-1.55203c-2.79334,-0.43943 -6.57834,-0.4604 -9.20236,-1.48416c-5.50492,-2.14774 -9.7273,-7.23923 -13.54099,-11.47913c-0.24877,-0.27658 -4.06993,-4.51234 -4.18269,-4.69094c-1.0003,-1.5843 -1.31208,-3.51016 -1.95532,-5.26996c-0.11445,-0.31312 -2.09956,-5.72223 -2.12953,-5.89758c-0.02993,-0.1751 0.04574,-5.93694 0.04972,-6.27007c0.04651,-3.88743 -0.13811,-8.49696 0.74193,-12.29574c1.31685,-5.68426 4.58977,-11.50443 6.76264,-16.92837c1.74027,-4.3441 3.05226,-10.42303 5.7458,-14.23242c0.13243,-0.18729 4.42602,-3.94363 4.74192,-4.2212c2.20456,-1.93708 4.47568,-4.4871 6.93827,-6.07453c2.46258,-1.58743 5.72281,-2.60304 8.39731,-3.8111c0.32023,-0.14464 5.55687,-2.5192 5.74012,-2.56256c0.18324,-0.04336 5.92874,-0.26754 6.27984,-0.28175c3.99792,-0.16183 8.08981,-0.58691 12.08865,-0.48607c1.76028,0.04438 3.50668,0.20958 5.25271,0.37986l-0.1683,-0.31779c0,0 -0.67081,-1.34165 0.67084,-2.01245zM186.71784,56.80283c-5.55391,-0.18109 -11.03264,-0.60565 -16.66206,-0.37779c-2.6721,0.10816 -6.11052,-0.28971 -8.70789,0.32491c-1.85347,0.43859 -3.46019,1.59317 -5.19599,2.37722c-2.53803,1.14641 -5.66867,2.09135 -8.00685,3.59858c-2.33818,1.50723 -4.49143,3.96841 -6.58349,5.80665c-1.4152,1.2435 -3.18494,2.16136 -4.27258,3.69958c-2.54079,3.59337 -3.76409,9.50632 -5.41047,13.61605c-2.1135,5.27574 -5.34496,10.9649 -6.62489,16.4898c-0.83131,3.58842 -0.62168,7.98038 -0.66474,11.65422c-0.02238,1.90981 -0.4142,3.84645 -0.0924,5.72908c0.3218,1.88264 1.3344,3.57926 1.99009,5.37313c0.57805,1.58145 0.80203,3.33468 1.70849,4.75364c1.02559,1.60546 2.56829,2.8145 3.84231,4.23091c3.48275,3.87197 7.36515,8.72585 12.40093,10.69055c2.42208,0.94497 6.00373,0.90971 8.57858,1.3155c4.39577,0.69276 10.09305,2.00195 14.52375,1.53224c2.64453,-0.28035 5.7639,-1.81909 8.30885,-2.60908c4.51373,-1.40114 9.87265,-2.3019 14.11471,-4.36347c5.10738,-2.4821 9.93744,-6.87438 14.62177,-10.10502c2.63148,-1.81485 7.12966,-3.78864 9.13806,-6.24515c3.40258,-4.16174 3.85373,-11.17338 5.05109,-16.21536c-0.12261,-3.70976 0.32769,-7.936 -0.32726,-11.57989c-0.49175,-2.73591 -1.94144,-5.67107 -2.83544,-8.3064c-0.5103,-1.50424 -0.64321,-3.18619 -1.50214,-4.52238c-3.11404,-4.84433 -8.14576,-8.55441 -12.43539,-12.21761c-4.58509,-3.9155 -8.82498,-8.34267 -13.20115,-12.49167c-0.58545,-0.71928 -1.17076,-1.43868 -1.75589,-2.15822z"/><path d="M150.46063,103.29501c0,-0.82843 0.67157,-1.5 1.5,-1.5c0.82843,0 1.5,0.67157 1.5,1.5c0,0.82843 -0.67157,1.5 -1.5,1.5c-0.82843,0 -1.5,-0.67157 -1.5,-1.5z"/><path d="M173.43063,92.314c0,-0.82843 0.67157,-1.5 1.5,-1.5c0.82843,0 1.5,0.67157 1.5,1.5c0,0.82843 -0.67157,1.5 -1.5,1.5c-0.82843,0 -1.5,-0.67157 -1.5,-1.5z"/><path d="M198.04475,118.67462c-0.92462,1.18114 -2.10575,0.25652 -2.10575,0.25652l-1.1647,-0.91175c-1.21782,-0.96818 -2.5676,-1.83294 -4.03851,-2.33977c-3.1519,-1.08606 -7.6298,-1.521 -10.95391,-0.67689c-2.54224,0.64556 -4.4898,3.50457 -6.22933,5.24339c-4.11935,4.11768 -7.42497,8.93753 -11.54358,13.05791c0,0 -1.06101,1.06031 -2.12132,-0.00069c-1.06031,-1.06101 0.00069,-2.12132 0.00069,-2.12132c4.12199,-4.11464 7.42503,-8.93651 11.54274,-13.05706c2.25341,-2.25496 4.33288,-5.11646 7.57381,-6.01986c3.80758,-1.06135 9.09012,-0.50779 12.70796,0.73809c1.78379,0.61429 3.41778,1.6605 4.9107,2.81394l1.1647,0.91175c0,0 1.18114,0.92462 0.25652,2.10575z"/><path d="M319.15801,282.48134c-0.50234,1.41338 -1.91572,0.91105 -1.91572,0.91105l-0.67742,-0.24076c-10.34925,-3.68576 -20.18212,-9.38487 -30.0085,-14.27707c-14.55327,-9.02372 -28.92937,-18.53702 -44.18148,-26.36524c0.01402,1.07589 0.03245,2.15225 0.05434,3.22899c0.15007,0.7331 0.30642,1.46313 0.47139,2.18901c0.44301,0.44445 0.44301,1.10967 0.44301,1.10967l-0.16548,0.07223c0.03972,0.16361 0.07996,0.32698 0.12072,0.49009l-0.78196,-0.14879c0.37183,14.02405 1.14297,28.09727 0.20196,42.03817c-0.36286,5.37573 -0.76397,10.57099 -0.46965,15.91813c0.09539,0.28719 0.09539,0.52617 0.09539,0.52617l-0.06275,0.02257c0.0175,0.27359 0.03688,0.5476 0.05823,0.82208l-1.31388,-0.37048l-1.67708,0.60317c-0.46528,-5.9806 -0.02701,-11.74502 0.37655,-17.72369c1.01238,-14.99811 0.02934,-30.15405 -0.28915,-45.23355c-1.22657,-6.11119 -2.04592,-12.42554 -3.83334,-18.29372c-1.12491,-3.69314 -3.12843,-7.3378 -4.64008,-10.89386c-3.45172,-8.11994 -7.32633,-15.97828 -11.23469,-23.88767c-1.06812,-2.16157 -2.14915,-4.31206 -3.24316,-6.45251c-0.32198,0.12464 -0.60762,0.12464 -0.60762,0.12464c-9.75232,0 -19.47664,-2.76467 -29.03572,-4.63402c-7.7545,-1.51646 -16.3808,-2.2309 -23.66899,-5.28827c-10.10996,-4.27127 -20.59751,-8.08407 -30.46956,-12.87502c-5.3951,-2.61827 -10.57958,-5.83116 -15.83199,-8.72729l-1.08603,-0.59883c0,0 -1.31355,-0.72429 -0.58928,-2.03784c0.72428,-1.31355 2.03784,-0.58927 2.03784,-0.58927l1.08603,0.59883c5.20657,2.87086 10.34537,6.06008 15.69325,8.65544c9.82469,4.76798 20.2656,8.55962 30.32727,12.81049c6.19741,2.63884 13.52591,3.23969 20.13299,4.53176c10.00188,1.95595 20.32109,4.97993 30.52754,5.14681c-6.64915,-12.8185 -13.76864,-25.28998 -21.37349,-37.63609c0,0 -0.78669,-1.27715 0.49047,-2.06384c1.27715,-0.78669 2.06384,0.49046 2.06384,0.49046c7.77572,12.62351 15.04688,25.37846 21.82897,38.4977c0.11172,-0.08049 0.19223,-0.12073 0.19223,-0.12073c3.99157,-1.83845 5.33849,-7.55581 7.22321,-11.45731c5.56062,-11.51085 11.00166,-23.07958 16.49424,-34.62304c2.01182,-5.3887 4.45308,-10.77588 5.77492,-16.37598l-0.33971,-1.83546c0,0 -0.25049,-1.47894 1.22845,-1.72943c1.47894,-0.25049 1.72942,1.22845 1.72942,1.22845l0.38073,2.41809c-1.30954,6.00099 -3.8592,11.71581 -6.01143,17.46447c-5.50151,11.59368 -10.97329,23.20271 -16.55531,34.75785c-1.3045,2.7004 -2.57701,5.41994 -3.91483,8.10396c-0.51822,1.03969 -0.77194,2.27536 -1.58781,3.10232c-0.81587,0.82696 -2.05374,1.08636 -3.08061,1.62954c0,0 -0.06796,0.03397 -0.18093,0.07132c1.02965,2.01872 2.04783,4.04637 3.0546,6.08378c3.93357,7.96042 7.832,15.8706 11.30604,24.04306c1.55369,3.65494 3.59261,7.39685 4.74901,11.19335c0.9543,3.133 1.63582,6.38944 2.2498,9.67418c0.03946,-0.00226 0.08005,-0.00342 0.12181,-0.00342c1.5,0 1.5,1.5 1.5,1.5c0,0.35756 0.00064,0.71518 0.00187,1.07287c15.80075,7.97919 30.65472,17.79169 45.67046,27.12524c9.67934,4.80561 19.35896,10.45552 29.55261,14.07075l0.67742,0.24076c0,0 1.41338,0.50234 0.91105,1.91572z"/></g></g></svg>