<svg version="1.1" xmlns="http://www.w3.org/2000/svg" xmlns:xlink="http://www.w3.org/1999/xlink" width="88.52659" height="76.16878" viewBox="0,0,88.52659,76.16878"><g transform="translate(-188.28092,-82.50485)"><g data-paper-data="{&quot;isPaintingLayer&quot;:true}" fill="#9966ff" fill-rule="nonzero" stroke="none" stroke-linecap="butt" stroke-linejoin="miter" stroke-miterlimit="10" stroke-dasharray="" stroke-dashoffset="0" style="mix-blend-mode: normal"><path d="M189.06171,86.25609c1.54795,-1.23162 2.77956,0.31633 2.77956,0.31633l0.05058,0.06357c0.59153,0.84858 0.86308,2.05668 1.77457,2.54575c0.52755,0.28306 1.15063,0.11483 1.77069,-0.03912c-0.00649,-0.97357 -0.01012,-1.94627 -0.01012,-2.91793c0,0 0,-1.97813 1.97813,-1.97813c1.97813,0 1.97813,1.97813 1.97813,1.97813c0,0.91736 0.00318,1.83561 0.00889,2.75464c11.83124,-0.04826 23.81334,-0.41387 35.52255,-2.07533c7.86415,-1.11588 15.53057,-3.66483 23.48909,-4.23257c3.7875,-0.27019 7.89927,-0.16691 11.697,-0.00502c1.70723,0.07277 3.65292,-0.51491 5.11273,0.37327c1.14915,0.69916 1.06265,2.47147 1.59398,3.70721c-0.25743,5.8193 -2.56008,11.12204 -3.57977,16.8341c-0.41652,2.33324 -0.45355,4.72003 -0.78322,7.06712c-0.86266,6.14166 -2.76185,12.63841 -2.52692,18.89479c0.08076,2.15061 1.16556,4.15038 1.54513,6.26877c0.01383,0.07719 0.9199,7.82386 0.93785,7.97767c0.37599,3.22251 1.82933,9.36499 -0.86496,12.1101c-1.05738,1.07732 -2.75518,1.2344 -4.13277,1.8516c-7.2329,1.25718 -14.66736,0.74916 -21.99949,0.74916c-11.26878,0 -22.53756,0 -33.80633,0c-3.67196,0 -7.35492,0.07822 -11.02612,0c-1.58501,-0.03377 -3.31862,0.50734 -4.75314,-0.1676c-1.41653,-0.66649 -2.73391,-2.00562 -3.10051,-3.52758c-0.36467,-1.51391 0.77389,-3.01674 1.16082,-4.52511c0.12482,-7.86559 1.14368,-15.59004 1.55056,-23.4342c0.58228,-11.22529 0.1922,-22.60377 0.04661,-33.89178c-1.21419,0.07469 -2.47683,0.33142 -3.5274,-0.20865c-1.42878,-0.73449 -2.10127,-2.43068 -3.1519,-3.64603l-0.05058,-0.06357c0,0 -1.23162,-1.54795 0.31633,-2.77956zM199.43041,92.93535c0.14343,11.34824 0.53053,22.78533 -0.0488,34.07256c-0.4106,7.99966 -1.3919,15.8943 -1.59924,23.91134c-0.40113,1.00866 -1.09773,1.94563 -1.20338,3.02597c-0.03671,0.37539 0.45953,0.71036 0.83253,0.76631c1.04295,0.15642 2.10516,-0.13943 3.1594,-0.1676c3.66882,-0.09803 7.35611,0 11.02612,0c11.26878,0 22.53756,0 33.80633,0c6.93153,0 14.08124,0.57655 20.92107,-0.59934c0.76679,-0.24151 1.70048,-0.18935 2.30037,-0.72454c0.40775,-0.36377 0.28364,-1.06321 0.315,-1.60874c0.06787,-1.18048 0.05654,-2.3672 -0.01858,-3.54725c-0.23988,-3.76816 -0.68683,-7.83821 -1.35274,-11.5546c-0.40382,-2.25369 -1.49651,-4.39318 -1.59681,-6.68056c-0.28726,-6.55134 1.66137,-13.34346 2.56079,-19.77065c0.33221,-2.37392 0.37583,-4.78703 0.7961,-7.14695c0.93408,-5.24518 3.23763,-10.31941 3.559,-15.62947c0.00434,-0.34413 0.34794,-0.95318 0.01302,-1.0324c-0.91625,-0.21671 -1.85985,0.31882 -2.7998,0.37327c-5.11964,0.29658 -10.09009,-0.19291 -15.19166,0.54157c-6.52874,0.93995 -12.91703,2.73139 -19.43863,3.65677c-11.88058,1.68579 -24.0361,2.06417 -36.0401,2.11433z" stroke-width="0.5"/><path d="M241.00066,110.15594c2.21626,0 2.21626,2.21626 2.21626,2.21626l-0.26228,1.57202c6.16469,3.24136 10.10939,11.40825 8.92367,18.30694c-0.31201,1.81533 -0.22773,3.86717 -1.2874,5.37377c-0.29486,0.41922 -7.69123,4.47046 -8.33348,4.7662c-4.0201,1.85122 -8.40948,3.25795 -12.55919,4.8008c-1.57304,0.58485 -3.06072,1.57141 -4.73255,1.71799c-1.69917,0.14899 -3.36276,-0.57385 -5.04414,-0.86078c-0.99251,-0.26292 -8.40455,-2.19772 -8.92021,-2.46814c-0.89826,-0.47106 -1.39055,-1.47769 -2.05596,-2.24319c-1.07004,-1.23099 -2.3839,-2.30467 -3.14926,-3.745c-3.62455,-6.82106 -1.01654,-15.8868 4.03589,-21.20984c3.15395,-3.32288 7.96685,-6.64928 12.54925,-7.35394c5.35819,-0.82396 11.25951,1.24356 15.90269,3.68576c0.22713,0.11947 0.45873,0.23244 0.69264,0.34208l-0.19219,-2.68467c0,0 0,-2.21626 2.21626,-2.21626zM245.68274,123.06965c-0.14571,0.26842 -0.37315,0.53531 -0.7127,0.78514c-1.78514,1.31342 -3.09856,-0.47172 -3.09856,-0.47172c-0.70558,-0.99143 -1.18535,-2.19114 -2.11672,-2.9743c-1.00278,-0.84321 -2.34783,-1.16375 -3.51419,-1.76056c-3.86607,-1.97824 -8.7273,-3.88983 -13.19944,-3.23607c-3.58875,0.52461 -7.54341,3.47259 -10.00291,6.03143c-3.65137,3.79886 -6.17257,11.04314 -3.35184,16.02485c0.65242,1.15225 1.77,1.97049 2.62309,2.98321c0.37134,0.44081 0.52782,1.12751 1.0483,1.37512c2.34057,1.11347 5.03537,1.23321 7.54038,1.8988c1.22321,0.25658 2.42523,0.88602 3.66965,0.76974c1.27176,-0.11884 2.36066,-0.97667 3.54928,-1.44428c4.0481,-1.59258 8.33603,-2.86695 12.28632,-4.68603c1.29726,-0.59738 2.48841,-1.40421 3.76111,-2.05225c0.93521,-0.47619 2.2481,-0.46521 2.85896,-1.31856c0.64982,-0.90775 0.34008,-2.20746 0.45966,-3.31741c0.35703,-3.31382 -0.37605,-6.13608 -1.80043,-8.60711z" stroke-width="0.5"/><text transform="translate(209.1282,107.02659) scale(0.44325,0.44325)" font-size="40" xml:space="preserve" fill="#9966ff" fill-rule="nonzero" stroke="none" stroke-width="1" stroke-linecap="butt" stroke-linejoin="miter" stroke-miterlimit="10" stroke-dasharray="" stroke-dashoffset="0" font-family="Sans Serif" font-weight="normal" text-anchor="start" style="mix-blend-mode: normal"><tspan x="0" dy="0">打完了</tspan></text></g></g></svg>