<svg version="1.1" xmlns="http://www.w3.org/2000/svg" xmlns:xlink="http://www.w3.org/1999/xlink" width="139.37743" height="71.86573" viewBox="0,0,139.37743,71.86573"><g transform="translate(-283.72932,-134.11267)"><g data-paper-data="{&quot;isPaintingLayer&quot;:true}" fill-rule="nonzero" stroke="none" stroke-width="0.5" stroke-linecap="butt" stroke-linejoin="miter" stroke-miterlimit="10" stroke-dasharray="" stroke-dashoffset="0" style="mix-blend-mode: normal"><path d="M310.6815,141.67865c2.38295,0.75599 1.62696,3.13895 1.62696,3.13895l-0.98575,3.10715c-2.19976,6.93216 -4.29554,13.90418 -5.19692,21.10918c0.34019,0.10391 0.68356,0.30442 0.9954,0.65381l0.50509,-0.06714c10.15,-0.30695 20.32688,-0.45703 30.48684,-0.88039c-0.8991,-1.1019 -0.25584,-2.55598 -0.25584,-2.55598c0.98965,-2.20534 1.25131,-4.67399 2.04248,-6.95806c0.91456,-2.64028 3.40748,-6.56145 4.53933,-9.15718c1.98413,-4.55033 3.46855,-9.24784 5.57429,-13.76972l1.15103,-1.38003c0,0 1.74759,-1.78772 3.53531,-0.04014c1.78772,1.74759 0.04014,3.53531 0.04014,3.53531l-0.19396,-0.00415c-2.08962,4.48597 -3.55545,9.13948 -5.52323,13.65642c-0.37515,0.86114 -4.0037,7.63996 -4.38004,8.74228c-0.83166,2.43591 -1.18198,5.03953 -2.21279,7.39808c0,0 -0.06405,0.14479 -0.19635,0.34537c3.15685,-0.15704 6.31148,-0.34611 9.4626,-0.58014c6.73713,-0.50036 13.23009,-1.4465 19.96708,-1.61076c-0.3343,-4.38669 0.69945,-8.82532 3.70842,-12.65595c1.00767,-1.28284 2.6807,-1.85989 4.03646,-2.76708c2.77034,-1.85373 5.58111,-3.64632 8.37167,-5.46947c0.90571,-0.59173 8.57904,-5.66124 9.21463,-5.82093c1.58161,-0.39738 3.26431,0.24359 4.85501,0.60287c8.24729,1.86275 12.73024,6.58085 16.89477,12.73962c0.3678,-0.42449 0.94785,-0.75921 1.86262,-0.75921c2.5,0 2.5,2.5 2.5,2.5v2.62099c-0.00771,4.90439 -0.80635,9.56101 -2.68649,14.1496c-1.73636,4.23769 -2.55743,4.11326 -6.01053,7.39086c-2.91399,2.76589 -5.92605,5.06001 -9.76953,6.42777c-9.81151,3.49157 -20.94283,-0.62595 -28.58686,-6.77729c-1.46896,-2.19343 -2.65895,-4.64123 -3.43755,-7.19946c-6.94868,0.09284 -13.60341,1.09589 -20.5306,1.61328c-3.15115,0.23536 -6.30593,0.42561 -9.46298,0.58366c1.39812,2.95696 2.77718,5.98083 4.54849,8.6819c4.71745,7.19363 11.25717,13.38997 17.49337,19.24898l-0.09638,-0.10552c0,0 2.07925,1.38806 0.69119,3.46731c-1.38806,2.07925 -3.46731,0.69119 -3.46731,0.69119l-0.55152,-0.40935c-6.52375,-6.13192 -13.32203,-12.62237 -18.25161,-20.15242c-2.27712,-3.47834 -3.95509,-7.44196 -5.7954,-11.1797c-9.80419,0.38904 -19.62284,0.53901 -29.41559,0.83516l-2.1034,0.30572c0,0 -0.4839,0.06699 -1.0535,-0.07216c-6.44677,4.37216 -10.5386,10.67767 -16.03287,16.22501l-0.53768,0.53737c0,0 -1.76832,1.76722 -3.53553,-0.0011c-1.76722,-1.76832 0.0011,-3.53553 0.0011,-3.53553l0.52581,-0.52546c5.50163,-5.51381 9.65106,-11.59468 15.82382,-16.14666c-0.00039,-0.0948 0.00422,-0.1501 0.00422,-0.1501c0.72249,-8.52968 3.10469,-16.69969 5.68743,-24.84263l0.98575,-3.10715c0,0 0.75599,-2.38295 3.13895,-1.62696zM417.98483,160.87255c-0.31646,-0.28976 -0.48667,-0.56348 -0.48667,-0.56348c-3.20016,-5.14778 -6.22521,-11.59881 -12.33653,-13.73291c-2.33028,-0.81374 -4.75558,-2.75285 -7.11847,-2.03931c-2.90497,0.87723 -4.9883,3.45828 -7.52872,5.11801c-2.79056,1.82316 -5.55783,3.68245 -8.37167,5.46947c-0.96671,0.61394 -2.22162,0.89057 -2.93418,1.78706c-0.84202,1.05936 -1.08801,2.48437 -1.48836,3.77702c-1.77726,5.73844 -1.21176,9.5905 2.01016,14.46679c6.15264,4.75145 15.45692,8.3129 23.25847,5.44593c4.23625,-1.55677 8.4967,-5.00903 11.41353,-8.43902c2.37912,-2.79768 3.28819,-7.27398 3.58244,-11.28957z" fill="#9966ff"/><path d="M380.89114,173.49455c-0.60819,-2.42489 1.81671,-3.03308 1.81671,-3.03308l1.70599,-0.42785c2.98468,-0.76483 5.96527,-1.54565 8.94322,-2.33626c0,0 2.4163,-0.64149 3.05779,1.77481c0.64149,2.4163 -1.77481,3.05779 -1.77481,3.05779c-2.99187,0.79428 -5.9864,1.57873 -8.98502,2.34717l-1.73079,0.43413c0,0 -2.42489,0.60819 -3.03308,-1.81671z" fill="#ff0000"/><path d="M406.02369,162.07524c-2.23538,1.11941 -3.35479,-1.11597 -3.35479,-1.11597l-0.43027,-0.85921c-0.94031,-1.88716 -1.75443,-3.84013 -2.46558,-5.82503c0,0 -0.83997,-2.35467 1.5147,-3.19463c2.35467,-0.83997 3.19463,1.5147 3.19463,1.5147c0.63789,1.79683 1.3723,3.56446 2.2281,5.26832l0.42918,0.85703c0,0 1.11941,2.23538 -1.11597,3.35479z" fill="#000000"/><path d="M404.95681,174.48816c-2.23629,1.11758 -3.35388,-1.11871 -3.35388,-1.11871l-0.65719,-1.56178c-0.14267,-0.85526 -0.28533,-1.71052 -0.428,-2.56578c0,0 -0.41134,-2.46593 2.05459,-2.87727c2.46593,-0.41134 2.87727,2.05459 2.87727,2.05459c0.14267,0.85526 0.28533,1.71052 0.428,2.56578l0.19792,0.14929c0,0 1.11758,2.23629 -1.11871,3.35388z" fill="#000000"/><path d="M395.57843,174.21722c-2.3929,0.72389 -3.1168,-1.66901 -3.1168,-1.66901l-0.66539,-2.20051c-1.29578,-4.53224 -2.61571,-8.22789 -1.98398,-12.99056c0,0 0.35434,-2.47476 2.8291,-2.12042c2.47476,0.35434 2.12042,2.8291 2.12042,2.8291c-0.61895,3.93783 0.76206,7.13171 1.84179,10.90726l0.64386,2.12733c0,0 0.72389,2.3929 -1.66901,3.1168z" fill="#000000"/></g></g></svg>