<svg version="1.1" xmlns="http://www.w3.org/2000/svg" xmlns:xlink="http://www.w3.org/1999/xlink" width="123.99748" height="149.25904" viewBox="0,0,123.99748,149.25904"><g transform="translate(-122.67299,-48.85645)"><g data-paper-data="{&quot;isPaintingLayer&quot;:true}" fill="#000000" fill-rule="nonzero" stroke="none" stroke-width="0.5" stroke-linecap="butt" stroke-linejoin="miter" stroke-miterlimit="10" stroke-dasharray="" stroke-dashoffset="0" style="mix-blend-mode: normal"><path d="M218.04605,198.1155c-1.30229,0 -1.30229,-1.30229 -1.30229,-1.30229l0.00305,-1.84816c1.16025,-8.50577 2.3815,-16.95731 3.04171,-25.5179c0.19355,-2.5096 0.62363,-5.14389 0.59733,-7.6598c-0.02414,-2.31009 -0.60115,-4.76813 -0.88684,-7.05936c-0.21484,-1.72304 -0.56514,-3.43455 -0.64453,-5.16912c-0.02683,-0.58616 0.56954,-1.37461 0.12361,-1.75597c-0.44594,-0.38137 -1.13231,0.33011 -1.71553,0.39455c-2.41342,0.26666 -5.20325,-0.31719 -7.56393,0.21651c-1.61344,0.36477 -3.0207,1.34926 -4.53581,2.01311c-3.17232,1.38995 -6.37512,3.12366 -9.65707,4.22492c-3.99759,1.34139 -8.43323,1.93166 -12.54614,2.87085c0,0 -0.3419,0.07807 -0.71137,-0.02424c-0.32435,0.92205 -0.64895,1.844 -0.97388,2.76584l-0.31023,0.66399c0.36714,0.40132 0.73498,0.8024 1.10356,1.20327c0,0 0.88144,0.95866 -0.07722,1.8401c-0.95866,0.88144 -1.8401,-0.07722 -1.8401,-0.07722c-0.28122,-0.30585 -0.5622,-0.61166 -0.84295,-0.91748c-0.19554,0.01179 -0.41902,-0.0271 -0.67116,-0.14515c-0.77236,-0.36158 -0.80216,-0.99215 -0.73072,-1.38436c-5.50428,-6.01608 -10.90374,-12.05564 -16.06435,-18.39106c-2.19325,-2.69254 -4.3865,-5.38508 -6.57974,-8.07761c-0.54831,-0.67314 -1.19241,-1.27847 -1.64493,-2.0194c-0.28365,-0.46443 0.01121,-1.5872 -0.53125,-1.54374c-0.54246,0.04345 -0.18583,1.07242 -0.27875,1.60863c-3.81734,6.61029 -8.04311,13.12434 -11.50778,19.92438c-2.34659,4.60561 -4.2974,9.4644 -6.43546,14.17131c-2.0018,4.40693 -4.28183,8.75986 -5.75004,13.37514c-1.31964,4.13551 -2.63928,8.27102 -3.95892,12.40653l0.29876,-0.49862c0,0 0.76994,1.05031 -0.28037,1.82025c-1.05031,0.76994 -1.82025,-0.28037 -1.82025,-0.28037l-0.67945,-1.83304c1.31964,-4.13551 2.63928,-8.27102 3.95892,-12.40653c1.50839,-4.71338 3.81447,-9.15742 5.85996,-13.66053c2.15554,-4.74539 4.12394,-9.64249 6.49067,-14.28539c3.48549,-6.83762 7.72974,-13.3883 11.56847,-20.03563c0.77543,-0.96746 1.09037,-2.80337 2.32628,-2.90237c1.2359,-0.09899 1.89287,1.60752 2.75862,2.49506c1.78609,1.83108 3.3186,4.07408 4.93481,6.05821c5.9826,7.34453 12.11563,14.43338 18.45878,21.4312c1.80244,-5.15221 3.61598,-10.30055 5.42444,-15.45065c1.67537,-4.77109 3.98955,-9.69001 5.13821,-14.60944c0.31186,-1.33562 0.50732,-2.73098 0.65724,-4.14167c-0.65775,0.22247 -1.31785,0.43998 -1.9806,0.65196c0,0 -1.24039,0.39673 -1.63712,-0.84365c-0.39673,-1.24039 0.84365,-1.63712 0.84365,-1.63712c1.01773,-0.32552 2.02914,-0.66427 3.03538,-1.01409c0.09306,-1.08822 0.18727,-2.16788 0.31511,-3.21863c0.77727,-6.38864 1.55453,-12.77728 2.3318,-19.16593c-1.41877,-0.20407 -3.02091,-0.44646 -3.24814,-0.48023c-2.57404,-0.38247 -5.16298,-0.71497 -7.72887,-1.14841c-1.03182,-0.1743 -2.2048,-0.01006 -3.08643,-0.57377c-0.88162,-0.56371 -1.22474,-1.69735 -1.81591,-2.5608c-0.98096,-1.43274 -1.90468,-2.90384 -2.85702,-4.35576c-0.95234,-1.45192 -1.93113,-2.88683 -2.85702,-4.35576c-0.55371,-0.87846 -1.43109,-1.63934 -1.62104,-2.66022c-0.18554,-0.99716 0.36432,-1.99574 0.5699,-2.98896c0.35195,-1.70034 0.76615,-3.3872 1.14922,-5.0808c0.76615,-3.3872 1.5323,-6.7744 2.29844,-10.1616c0.10356,-0.45785 1.16428,-5.23039 1.29966,-5.45838c0.13538,-0.22799 3.81791,-3.44377 4.17032,-3.75385c1.8435,-1.62206 4.02914,-4.23408 6.19322,-5.37195c0.58455,-0.30736 1.30416,-0.21021 1.95859,-0.29899c1.72062,-0.23343 3.44688,-0.42326 5.17031,-0.63489c0.39163,-0.04809 5.28756,-0.66195 5.50285,-0.63295c2.352,0.31675 5.34048,2.14884 7.54842,3.05622c3.74612,1.53952 7.35388,3.31123 10.93963,5.14998c0,-0.00327 0,-0.00653 0,-0.0098v-0.1198c0,0 0,-1.30229 1.30229,-1.30229c1.30229,0 1.30229,1.30229 1.30229,1.30229v0.1198c0,0.45197 -0.00005,0.90393 -0.0002,1.3559c0.97849,0.50853 1.95744,1.01907 2.93923,1.52827c0,0 1.15605,0.59958 0.55647,1.75563c-0.59958,1.15605 -1.75563,0.55647 -1.75563,0.55647c-0.58185,-0.30177 -1.16266,-0.60407 -1.74297,-0.90616c-0.00003,0.0159 -0.00006,0.0318 -0.00009,0.0477c-0.00802,4.36001 -0.04504,8.70556 -0.1984,13.06304c-0.0113,0.32119 -0.17839,5.29959 -0.21927,5.46773c-0.22578,0.92882 -0.79723,1.73759 -1.20164,2.6037c-1.10096,2.35792 -2.19197,4.72858 -3.34044,7.06369c-0.45226,0.91956 -0.65055,2.034 -1.39256,2.74078c-0.22502,0.21435 -4.71577,2.0501 -5.21109,2.25551c-2.40588,0.99777 -4.81176,1.99554 -7.21764,2.9933c-0.32644,0.13538 -3.68891,1.54086 -4.80333,1.96492c-0.78315,6.43698 -1.5663,12.87395 -2.34944,19.31093c-0.07754,0.63734 -0.14354,1.28459 -0.20466,1.93762c5.90481,-2.17721 11.66559,-4.67451 17.52309,-7.04561c6.44058,-2.60713 12.92578,-5.1094 19.38756,-7.66364c2.96164,-1.17052 5.88374,-2.43963 8.81759,-3.67793c0.10011,-0.04226 4.70926,-1.99642 4.81671,-2.00662c0.98199,-0.09324 1.9459,0.32479 2.91885,0.48718l-0.33694,2.73963c0,0 -0.4122,1.23533 -1.64753,0.82313c-0.78368,-0.26149 -0.90431,-0.85426 -0.88776,-1.25275c-1.11253,0.75149 -2.96008,1.23319 -3.85052,1.60902c-2.95224,1.24606 -5.89285,2.52241 -8.87294,3.70055c-6.45516,2.55162 -12.93375,5.05125 -19.36773,7.65571c-6.26467,2.53592 -12.42033,5.21226 -18.75591,7.49607c-0.17806,1.92875 -0.39703,3.85575 -0.82263,5.67851c-1.17076,5.01406 -3.50992,10.0185 -5.21709,14.88016c-1.23907,3.52859 -2.47606,7.05793 -3.71553,10.58639c3.79875,-0.81921 7.83999,-1.39593 11.4937,-2.62408c5.79185,-1.94685 11.08887,-6.19566 17.28382,-6.41913c1.73526,-0.06259 3.47065,-0.20705 5.20653,-0.16528c1.16583,0.02805 2.60472,-0.52867 3.49099,0.22928c0.88627,0.75794 0.55954,2.26578 0.76814,3.41315c0.31059,1.70838 0.42969,3.44608 0.64453,5.16912c0.29673,2.37981 0.87769,4.92082 0.90613,7.32032c0.03085,2.60211 -0.40412,5.32547 -0.60432,7.92138c-0.65959,8.55256 -1.85789,17.00074 -3.0401,25.49573l0.00305,1.67005c0,0 0,1.30229 -1.30229,1.30229zM194.79237,96.72115c0.31893,0.0388 0.54961,0.14672 0.71616,0.28728c1.43264,-0.313 2.69115,-1.26811 4.05782,-1.8349c2.40588,-0.99777 4.81176,-1.99554 7.21764,-2.9933c0.80196,-0.33259 1.59794,-0.67998 2.40588,-0.99777c0.66318,-0.26085 1.49056,-0.24627 2.00656,-0.73779c0.516,-0.49151 0.54165,-1.31862 0.83441,-1.96834c0.35667,-0.79155 0.74232,-1.56971 1.11348,-2.35456c0.98081,-2.07402 2.71159,-4.59019 3.25229,-6.81456c0.38945,-1.60212 0.08919,-3.29638 0.14718,-4.94412c0.15234,-4.32857 0.18883,-8.64512 0.19679,-12.97622c0.00085,-0.46498 0.00149,-0.92996 0.00196,-1.39495c-3.91272,-2.02323 -7.83666,-3.9876 -11.92845,-5.66918c-1.60605,-0.66003 -3.2179,-1.30611 -4.81814,-1.98009c-0.69892,-0.29437 -1.33627,-0.80272 -2.08787,-0.90394c-1.61195,-0.21709 -3.22339,0.43859 -4.83777,0.63683c-1.72344,0.21163 -3.44386,0.4495 -5.17031,0.63489c-0.40197,0.04316 -0.85735,-0.10853 -1.20952,0.09004c-0.64484,0.36359 -1.07856,1.01446 -1.62841,1.51012l-3.91081,3.44104c-1.20324,1.05871 -2.83305,1.75015 -3.65131,3.12822c-0.81826,1.37807 -0.64521,3.14001 -0.99879,4.70321c-0.76615,3.3872 -1.5323,6.7744 -2.29844,10.1616c-0.38308,1.6936 -0.72835,3.39619 -1.14922,5.0808c-0.16368,0.65515 -0.67268,1.28696 -0.54736,1.95052c0.1298,0.68725 0.83959,1.11931 1.23598,1.69554c0.98409,1.43059 1.90468,2.90384 2.85702,4.35576c0.95234,1.45192 1.94032,2.88108 2.85702,4.35576c0.36516,0.58743 0.45837,1.42235 1.04111,1.79496c0.58274,0.37261 1.37971,0.10687 2.06615,0.19183c2.58136,0.31952 5.15597,0.76611 7.72887,1.14841c1.14509,0.17015 2.28375,0.587 3.42714,0.73888c0.21621,-0.22768 0.55259,-0.39929 1.07293,-0.33598z"/><path d="M136.80992,71.37807c1.15633,-0.59905 1.75537,0.55728 1.75537,0.55728l1.16479,2.24837c1.08839,2.10091 2.03909,4.84351 3.46039,6.73042c0.897,1.19086 2.27086,1.93247 3.39865,2.90758c1.97024,1.70351 3.94048,3.40703 5.91072,5.11054c5.22488,4.51755 10.31435,9.29492 15.71988,13.59326c6.73389,5.35462 13.98147,10.17231 20.93896,15.23498c0,0 1.05301,0.76623 0.28678,1.81925c-0.76623,1.05301 -1.81925,0.28678 -1.81925,0.28678c-6.98709,-5.08421 -14.26311,-9.92384 -21.0259,-15.30108c-5.43432,-4.32094 -10.55147,-9.12152 -15.80398,-13.66295c-1.97024,-1.70351 -3.94048,-3.40703 -5.91072,-5.11054c-1.25178,-1.08232 -2.73871,-1.94714 -3.73999,-3.26464c-1.52645,-2.00853 -2.56514,-4.90051 -3.72818,-7.14551l-1.16479,-2.24837c0,0 -0.59905,-1.15633 0.55728,-1.75537z"/></g></g></svg>