<svg version="1.1" xmlns="http://www.w3.org/2000/svg" xmlns:xlink="http://www.w3.org/1999/xlink" width="484.27804" height="362.35999" viewBox="0,0,484.27804,362.35999"><g transform="translate(2.59206,1.18)"><g data-paper-data="{&quot;isPaintingLayer&quot;:true}" fill-rule="nonzero" stroke="none" stroke-linecap="butt" stroke-linejoin="miter" stroke-miterlimit="10" stroke-dasharray="" stroke-dashoffset="0" style="mix-blend-mode: normal"><path d="M70.49996,10.87666c10.50235,-0.09014 21.00292,-0.16746 31.50568,-0.16797c10.5,-0.00051 21,-0.00102 31.5,-0.00153c10.43968,-0.00051 20.96937,-1.20377 31.38644,-1.90055c10.4749,-0.70065 20.91099,-1.6902 31.36214,-2.68094c10.45688,-0.99128 20.91218,-1.96581 31.37938,-2.84188c10.46194,-0.87563 20.91061,-1.83286 31.35951,-2.85221c10.41753,-1.01629 21.08884,-0.6067 31.552,-0.69582c10.54125,-0.00662 20.99285,0.29525 31.52021,0.83239c10.48304,0.53487 20.9376,1.11996 31.43503,1.13863c10.50686,0.01869 21.0341,-0.207 31.52852,0.31551c4.48872,0.22349 9.04713,0.23522 13.51923,0.67399c5.83962,0.57293 11.85863,2.54585 17.72699,2.34708c10.50684,-0.33419 21.00742,-0.32469 31.51922,-0.32536c6.46563,-0.00001 15.43301,-1.41579 20.95167,2.87245c2.48662,1.93221 4.52313,6.25413 6.33108,8.84513c2.04609,10.46539 2.10884,20.94833 2.69835,31.57873c0.58398,10.53063 0.52103,21.04412 0.50898,31.59001c-1.72956,10.37686 -3.45116,20.73725 -4.93062,31.15318c-1.48665,10.46651 -2.02094,20.69458 -2.03944,31.27279c-0.01788,10.22238 -1.18541,21.23833 0.8726,31.25568c2.13719,10.40273 2.89677,20.81511 2.99784,31.42563c0.10007,10.50486 0.72968,20.94655 1.259,31.43675c0.52933,10.49033 1.01207,20.97947 1.43307,31.47472c0.42303,10.54579 0.46124,21.08634 0.40135,31.64064c-1.56687,4.88889 -3.33745,9.83966 -6.85231,13.64126c-0.20461,0.2213 -2.09424,2.28487 -2.24938,2.36316c-1.11438,0.56244 -3.47169,0.43194 -4.72809,0.57103c-0.72064,0.07978 -1.43846,0.15927 -2.15508,0.2349c-0.39636,2.83257 -0.84277,5.66636 -1.35471,8.50852c-0.73134,4.06018 -1.697,7.78825 -3.02874,11.69291c-0.14833,0.4349 -0.99599,3.03444 -1.24663,3.21064c-0.80217,0.56393 -3.9412,0.06754 -4.94784,0.0443c-3.976,-0.09183 -8.12799,-0.52373 -12.04426,-1.21625c-10.34335,-1.83262 -20.71902,-2.20004 -31.18782,-3.42531c-10.41494,-1.21897 -20.99468,-1.77118 -31.33726,-3.48642c-10.40397,-1.72542 -20.63265,-3.85485 -30.92032,-6.17185c-9.66514,-2.1768 -20.99994,-4.98002 -30.86738,-4.17318c-10.35469,0.84669 -21.10583,0.26033 -31.29852,2.21944c-10.39663,1.9983 -20.75457,2.96306 -31.2915,3.94948c-10.44384,0.9777 -21.0382,0.2983 -31.5245,0.61991c-10.50196,0.32209 -21.01383,0.8413 -31.52036,0.70305c-10.45328,-0.13755 -20.98309,-0.72197 -31.40106,0.1784c-10.46293,0.90426 -20.88584,1.90193 -31.31429,3.14395c-10.44653,1.24418 -20.86484,2.42972 -31.3505,3.28904c-10.54726,0.86438 -20.91663,1.47423 -31.50073,1.47972c-10.49178,0.00544 -21.19455,1.43092 -31.5271,-0.46694c-4.43558,-0.81472 -8.83841,-1.75596 -13.24838,-2.69877c-0.94333,-0.20167 -4.24041,-0.47739 -4.82691,-1.20259c-0.20942,-0.25894 -0.16654,-2.98828 -0.16643,-3.4718c0.0008,-3.50856 0.02714,-7.0102 0.11748,-10.51765c0.16721,-6.49233 1.57811,-12.91299 1.88084,-19.41187c0.18486,-3.96845 -0.00072,-7.99167 -0.00088,-11.96507c-0.00043,-10.49478 -0.01093,-20.98951 -0.02319,-31.48428c-0.42838,-10.49259 -0.92275,-20.98133 -1.1116,-31.48116c-0.18882,-10.4983 -0.37765,-20.9966 -0.56647,-31.49491c-0.18896,-10.50594 -0.29809,-21.00294 -0.30101,-31.51061c-0.00292,-10.51213 -0.08831,-20.94227 -0.68293,-31.43858c-0.59388,-10.48319 -1.18776,-20.96638 -1.78164,-31.44957c-0.59166,-10.44401 -2.11728,-20.88956 -3.2486,-31.28936c-1.13522,-10.43572 -2.44563,-20.84825 -3.73439,-31.26603c-1.09295,-8.83497 -1.52346,-17.82655 -1.53293,-26.72805c-1.57086,-0.37588 -3.1166,-0.7806 -4.76768,-0.59524l-0.39665,0.04191c0,0 -0.74585,0.07881 -0.82466,-0.66703c-0.07881,-0.74585 0.66703,-0.82466 0.66703,-0.82466l0.39665,-0.04191c2.64574,-0.26464 4.93169,0.76941 7.52966,1.06639c4.87073,0.55679 10.02333,0.22055 14.92782,0.33001c10.57377,0.23597 20.9262,1.40195 31.43324,2.58142c1.1416,0.12815 2.28318,0.25646 3.42473,0.38492c4.89523,0.00279 9.79724,-0.12016 14.70704,-0.1623z" fill="#000000" stroke-width="0.5"/><path d="M-1.68599,361.17999v-362.35999h483.37198v362.35999z" fill="#000000" stroke-width="0"/><path d="M163.62625,224.76398c0.31503,0.68063 -0.3656,0.99566 -0.3656,0.99566c-1.36126,0.63005 -2.96702,1.37327 -4.32828,2.00333c-2.77058,1.26975 -5.97625,1.49792 -8.98388,1.88199c-7.69886,0.98314 -14.8036,0.80532 -22.54324,0.34736c-7.06584,-0.41809 -13.87486,-1.82115 -20.82795,-3.11979c-3.42035,-0.63882 -7.17512,-0.93264 -10.3832,-2.28656c-3.91922,-1.66701 -9.05859,-2.94404 -12.55533,-5.35685c-2.34377,-1.61725 -4.37112,-4.53151 -6.34772,-6.59057c-2.46573,-2.56861 -4.23021,-4.08352 -4.91957,-7.65104c-0.75889,-3.92735 -1.51778,-7.8547 -2.27668,-11.78205c-0.35984,-1.86222 -1.19847,-4.16099 -1.15173,-6.05185c0.10409,-4.21134 2.22886,-9.16888 3.2343,-13.27205c2.48225,-10.12998 9.5274,-18.85087 15.04072,-27.66745c1.27456,-2.0382 2.43487,-4.70574 4.06099,-6.46972c1.62612,-1.76398 4.19063,-3.13705 6.11862,-4.5729c4.41111,-3.28514 8.82222,-6.57027 13.23333,-9.85541c3.20808,-2.38919 6.41616,-4.77838 9.62424,-7.16757c1.49318,-1.11204 3.25918,-2.96251 4.97213,-3.67479c3.81092,-1.58465 9.43274,-1.42924 13.52976,-2.0401c2.9672,-0.4424 5.9344,-0.88481 8.9016,-1.32721c0.33933,-0.05059 3.08263,-0.47783 3.27913,-0.42308c1.54814,0.43141 3.64859,2.9363 4.89852,3.97118c3.46616,2.8698 6.93232,5.73959 10.39848,8.60939c3.08103,2.55093 6.16206,5.10186 9.24309,7.65279c0.70349,0.58245 3.63608,2.48401 3.73333,3.36522c0.0415,0.37602 -1.67251,2.50241 -1.99065,2.91283c-2.45059,3.16143 -4.90117,6.32286 -7.35176,9.48428c-3.9822,5.13732 -7.96441,10.27464 -11.94661,15.41196c-1.34885,1.74011 -2.95112,4.8714 -4.76989,6.09109c-1.07327,0.71975 -3.29675,0.95233 -4.55451,1.30052c-10.15159,2.81033 -20.29383,5.65759 -30.45731,8.4246c-9.03337,0.03852 -18.06751,0.00683 -27.10097,0.00683c0,0 -0.75,0 -0.75,-0.75c0,-0.75 0.75,-0.75 0.75,-0.75c8.96608,0 17.93307,-0.03693 26.89903,0.00683c10.07288,-2.84154 20.1724,-5.59154 30.25904,-8.38388c1.0906,-0.30192 3.18712,-0.47559 4.11926,-1.10069c1.65372,-1.10901 3.18273,-4.16834 4.41981,-5.76426c3.9822,-5.13732 7.96441,-10.27464 11.94661,-15.41196c2.14426,-2.76625 4.28853,-5.5325 6.43279,-8.29875c0.22574,-0.29122 2.62369,-2.83825 2.6042,-3.01485c-0.01949,-0.17659 -2.91517,-2.1394 -3.19899,-2.37438c-3.08103,-2.55093 -6.16206,-5.10186 -9.24309,-7.65279c-3.46616,-2.8698 -6.93232,-5.73959 -10.39848,-8.60939c-1.05893,-0.87674 -3.06273,-3.32441 -4.34458,-3.68162c-0.8654,-0.24116 -1.76672,0.32925 -2.65527,0.46173c-2.9672,0.4424 -5.9344,0.88481 -8.9016,1.32721c-3.96015,0.59045 -9.50107,0.41383 -13.17504,1.94153c-1.58816,0.66038 -3.26376,2.45882 -4.65211,3.49278c-3.20808,2.38919 -6.41616,4.77838 -9.62424,7.16757c-4.41111,3.28514 -8.82222,6.57027 -13.23333,9.85541c-1.84976,1.3776 -4.35366,2.69645 -5.91168,4.38656c-1.55802,1.69011 -2.66921,4.29283 -3.89206,6.24834c-5.42135,8.66951 -12.41611,17.27352 -14.85562,27.22914c-0.97726,3.98817 -3.09065,8.8658 -3.19166,12.95212c-0.04388,1.77513 0.78653,3.97884 1.12495,5.7302c0.75889,3.92735 1.51778,7.8547 2.27668,11.78205c0.62682,3.24388 2.25051,4.52338 4.52892,6.89686c1.90187,1.98122 3.86629,4.84135 6.11751,6.39473c3.40195,2.34741 8.47229,3.58708 12.29054,5.21114c3.08473,1.32346 6.77382,1.57648 10.07148,2.19239c6.89114,1.28706 13.63891,2.68258 20.64115,3.09691c7.65173,0.45276 14.65518,0.63383 22.26463,-0.33789c2.83471,-0.36199 5.94135,-0.53731 8.54383,-1.75533c1.36126,-0.63005 2.72252,-1.26011 4.08378,-1.89016l0.2445,-0.11317c0,0 0.68063,-0.31503 0.99566,0.3656z" fill="#ffffff" stroke-width="0.5"/><path d="M289.45464,224.74594c0.33307,0.67199 -0.33892,1.00505 -0.33892,1.00505l-1.19083,0.57322c-5.4332,1.43503 -10.63251,2.74368 -16.22112,3.37564c-4.92917,0.55739 -10.74743,0.92703 -14.95313,-2.27049c-0.28962,-0.22019 -2.49935,-1.89516 -2.59561,-2.09075c-0.09757,-0.19825 -0.07443,-2.96815 -0.07329,-3.33353c0.01099,-3.5082 -0.10293,-7.05124 0.15997,-10.54972c0.78792,-10.44291 1.8319,-20.90228 1.8319,-31.37741c0,-7.48839 0.14204,-14.99675 -0.02623,-22.48313c-0.05619,-2.49996 0.44512,-6.28808 -1.05477,-8.2993c-1.40241,-1.97695 -2.68713,-4.2394 -4.2899,-6.0547c-5.35096,-6.06049 -13.3594,-8.11366 -21.10557,-7.00297c-2.41999,0.34404 -6.22513,0.50396 -8.10786,2.34407c-0.72714,0.71068 -1.33836,1.99232 -1.87119,3.30452c-0.02939,7.5098 -0.21352,14.83911 -1.36252,22.35855c-0.67407,4.41133 -0.99083,9.07814 -2.05213,13.41027c-1.41331,5.76902 -3.91283,11.47486 -5.83217,17.09912c-2.41943,7.08965 -4.61072,14.23557 -6.61819,21.45392c-0.39981,1.43762 -0.6278,2.81795 -0.93537,4.25881c-0.15249,0.71439 0.06403,1.8206 -0.60872,2.10522c-0.63131,0.26709 -2.9252,-1.87984 -3.32745,-2.22533c-0.125,-5.40171 -0.55598,-11.58947 0.26107,-16.93112c0.73831,-4.82693 2.85353,-9.80338 4.22278,-14.49627c2.94341,-10.08808 5.68122,-20.17014 8.1807,-30.37742c1.32819,-5.424 3.66483,-10.40556 6.06216,-15.45007c0.16261,-0.34217 0.3319,-0.74689 0.51011,-1.18274c0.00595,-1.54923 0.00528,-3.10625 0.00528,-4.67442c0,0 0,-0.75 0.75,-0.75c0.75,0 0.75,0.75 0.75,0.75c0,0.45728 0.00004,0.91363 -0.00005,1.36914c0.25465,-0.43213 0.52612,-0.81038 0.81725,-1.09492c2.1536,-2.10485 6.16946,-2.36179 8.94518,-2.7564c8.24365,-1.16258 16.75436,1.0544 22.44114,7.49524c1.63888,1.85619 2.95523,4.1586 4.3889,6.17961c1.86561,2.73222 1.32811,7.36202 1.33355,10.64912c0.01159,7.0004 0.02401,14.00077 0.02401,21.00118c0,10.51302 -1.04538,21.00963 -1.83615,31.49026c-0.22494,2.96889 -0.13335,5.96598 -0.14823,8.94298c-0.00438,0.87631 -0.46318,3.40346 -0.08836,4.16505c0.39287,0.79826 1.46051,1.01782 2.16331,1.56338c3.83412,2.97635 9.37405,2.47824 13.87105,1.96972c5.51655,-0.62381 10.6424,-1.91859 16.00662,-3.33541l0.90775,-0.46693c0,0 0.67199,-0.33307 1.00505,0.33892zM218.08677,145.67462c-1.9816,4.3693 -3.93708,8.5417 -5.08374,13.22436c-2.50466,10.22843 -5.24819,20.33181 -8.1977,30.44079c-1.34999,4.6269 -3.4523,9.54549 -4.17998,14.30293c-0.79801,5.21723 0.07152,10.79087 -0.38807,16.0625c0.55938,0.38232 0.76323,1.74969 1.38724,1.48569c0.28493,-0.12054 -0.2817,-0.56982 -0.2988,-0.87873c-0.0288,-0.52015 0.06703,-1.04237 0.16407,-1.5542c0.2789,-1.47101 0.81866,-2.95358 1.22002,-4.39671c1.88091,-6.76305 3.9752,-13.44942 6.24183,-20.09131c1.90476,-5.5815 4.39242,-11.24691 5.79487,-16.97158c1.05045,-4.28788 1.359,-8.91318 2.02626,-13.27993c0.94357,-6.17503 1.22824,-12.21922 1.314,-18.34381z" fill="#ffffff" stroke-width="0.5"/><path d="M381.3583,215.4215c0.18949,0.72567 -0.53618,0.91516 -0.53618,0.91516l-0.76876,0.20074c-0.43739,0.10915 -0.87477,0.21831 -1.31216,0.32746c-8.06275,6.29203 -18.24589,10.74828 -27.12167,15.86683c-3.44408,1.98616 -6.56422,1.59675 -10.47397,1.59431c-3.76441,-0.00236 -8.4913,0.77498 -12.15929,-0.02473c-2.76252,-0.60229 -5.75932,-2.61348 -8.33756,-3.79186c-1.18719,-0.54261 -3.34527,-1.1233 -4.29177,-2.00353c-2.22912,-2.07305 -3.72132,-6.71265 -5.19221,-9.39729c-0.58212,-1.06248 -2.13548,-3.04806 -2.25096,-4.23418c-0.01904,-0.19551 0.83782,-2.84164 0.93848,-3.15904c0.91068,-2.8715 1.82052,-5.74327 2.73294,-8.61422c2.37534,-5.52334 4.75651,-11.04418 7.13519,-16.56608c0.96026,-2.22917 1.71363,-4.95973 3.02538,-6.99734c1.05144,-1.63326 2.80083,-3.09983 4.10874,-4.54026c3.02503,-3.33155 6.05006,-6.66309 9.07509,-9.99464c0.81261,-0.89495 2.18757,-3.01769 3.26968,-3.51004c1.84869,-0.84113 5.7467,-0.17844 7.79374,-0.22022c2.35738,-0.04811 4.17303,-0.44776 6.16927,0.9297c2.02542,1.4655 4.05083,2.931 6.07625,4.3965c0.28208,0.2041 2.54028,1.81502 2.64296,1.99575c0.78797,1.38698 0.48441,4.67542 0.62739,6.28025c0.20142,2.26068 0.41047,4.51089 0.58208,6.76201c0.34111,-4.26314 0.7348,-8.51967 1.02557,-12.74821c0.72092,-10.48382 2.42604,-20.8923 3.83432,-31.30486c1.41731,-10.47937 2.21705,-20.71316 2.59699,-31.28044c0.32341,-8.99502 0.37679,-17.96578 0.37679,-26.96627c0,0 0,-0.75 0.75,-0.75c0.75,0 0.75,0.75 0.75,0.75c0,9.01843 -0.05371,18.00721 -0.37776,27.02017c-0.38167,10.61535 -1.18579,20.90045 -2.60956,31.42758c-1.40385,10.37983 -3.10567,20.75591 -3.82432,31.20673c-0.71433,10.38801 -2.05881,20.94872 -1.69282,31.3558c0.21115,6.00402 0.4911,12.00754 0.50786,18.01579l0.00418,1.49964c0,0.00081 0,0.00163 0,0.00245c0,0.41421 -0.33579,0.75 -0.75,0.75c-0.39615,0 -0.72057,-0.30714 -0.74811,-0.69629l-0.12067,-1.48819l0.11475,-0.0093l-0.00015,-0.05412c-0.00031,-0.11099 -0.00071,-0.22197 -0.0012,-0.33296c-0.49077,-2.3008 -0.52472,-4.67091 -0.71956,-7.07908c-0.56248,-6.95189 -0.19671,-14.07552 -0.23738,-21.051c-0.02914,-4.99657 -0.5118,-9.92071 -0.9551,-14.89631c-0.12044,-1.35178 0.2099,-4.53281 -0.43753,-5.67241c-0.44288,-0.77955 -1.49167,-0.99588 -2.21804,-1.52145c-2.02542,-1.4655 -4.05083,-2.931 -6.07625,-4.3965c-1.74505,-1.34643 -4.58551,-0.65901 -6.75905,-0.61465c-1.40345,0.02864 -4.46249,-0.50938 -5.70345,0.05525c-1.24097,0.56462 -2.84508,3.22432 -3.78872,4.26357c-2.68891,2.96137 -5.37783,5.92275 -8.06674,8.88412c-1.25085,1.3776 -2.95316,2.78298 -3.95801,4.34386c-1.52266,2.36523 -2.38674,5.56642 -3.50245,8.15645c-2.17102,5.03983 -4.33969,10.08068 -6.51391,15.11912c-0.90135,2.84834 -1.80543,5.69581 -2.70858,8.54358c-0.27265,0.85971 -0.96276,1.66256 -0.87536,2.56022c0.13269,1.36289 2.11722,3.73855 2.79426,4.97428c1.17583,2.14611 2.40977,6.06018 4.17748,7.70413c0.82216,0.7646 2.86422,1.26711 3.89379,1.73768c2.47339,1.13046 5.38899,3.11398 8.03356,3.69055c3.54762,0.77346 8.19321,-0.01199 11.8407,-0.0097c3.63364,0.00227 6.5569,0.43252 9.72367,-1.39372c8.96763,-5.17152 18.94254,-9.72015 27.2137,-15.91572c0.53017,-0.1435 1.06034,-0.287 1.59051,-0.43049l0.76876,-0.20074c0,0 0.72567,-0.18949 0.91516,0.53618z" fill="#ffffff" stroke-width="0.5"/></g></g></svg>