<svg version="1.1" xmlns="http://www.w3.org/2000/svg" xmlns:xlink="http://www.w3.org/1999/xlink" width="63.16298" height="69.90616" viewBox="0,0,63.16298,69.90616"><g transform="translate(-252.01705,-77.02573)"><g data-paper-data="{&quot;isPaintingLayer&quot;:true}" fill-rule="nonzero" stroke="none" stroke-width="0.5" stroke-linecap="butt" stroke-linejoin="miter" stroke-miterlimit="10" stroke-dasharray="" stroke-dashoffset="0" style="mix-blend-mode: normal"><path d="M267.81091,107.96865c0.10469,0.31428 -0.20959,0.41898 -0.20959,0.41898l-0.44864,0.14494c-0.30392,0.00222 -0.60588,-0.05973 -0.90981,-0.05999c-0.33274,-0.00028 -0.64786,0.16238 -0.979,0.19495c-0.65031,0.06396 -1.34821,0.00155 -2.00197,0.00155c0,0 -0.33126,0 -0.33126,-0.33126c0,-0.08864 0.02372,-0.15356 0.05846,-0.20111c-0.05846,-0.09153 -0.05846,-0.19575 -0.05846,-0.19575c0,-2.3763 0,-4.76626 0,-7.14256c0,0 0,-0.33126 0.33126,-0.33126c0.33126,0 0.33126,0.33126 0.33126,0.33126c0,0.07055 0,0.1411 0,0.21164c1.17671,-0.46464 2.50104,-0.47123 3.67237,-0.89874l0.44837,0.10228c0,0 0.3202,0.08489 0.23531,0.40509c-0.08489,0.3202 -0.40509,0.23531 -0.40509,0.23531l-0.24331,-0.0811c-1.16635,0.47082 -2.55066,0.39318 -3.70764,0.95788c0,2.06551 0,4.13103 0,6.19654v0.01365c0,0 0,0.02912 -0.00863,0.07009c0.5361,0.01333 1.09217,0.04857 1.61531,-0.00295c0.34612,-0.03409 0.6767,-0.19386 1.02448,-0.19779c0.27503,-0.00311 0.54727,0.06534 0.8223,0.06828l0.34532,-0.11953c0,0 0.31428,-0.10469 0.41898,0.20959z" fill="#000000"/><path d="M268.08612,105.84602c-0.0213,0.33058 -0.35187,0.30928 -0.35187,0.30928l-0.56762,-0.04055c-0.21501,0.05386 -0.42415,0.14315 -0.64504,0.16159c-0.22285,0.01861 -0.44525,-0.05405 -0.66886,-0.05187c-0.33164,0.00323 -0.64653,0.15463 -0.97579,0.19443c-0.01693,0.00205 -0.77748,0.00158 -0.82094,0.00158c0,0 -0.33126,0 -0.33126,-0.33126c0,-0.33126 0.33126,-0.33126 0.33126,-0.33126c0.25213,0 0.50618,0.03257 0.7564,0.00158c0.33777,-0.04184 0.66168,-0.19001 1.00197,-0.19647c0.21802,-0.00414 0.43473,0.07124 0.65203,0.05306c0.21926,-0.01834 0.42674,-0.10744 0.64011,-0.16116l0.67033,0.03919c0,0 0.33058,0.0213 0.30928,0.35187z" fill="#000000"/><path d="M276.01571,108.0471c-0.04995,0.32748 -0.37742,0.27753 -0.37742,0.27753l-0.58535,-0.17021c-0.13292,-1.3575 -0.08732,-2.72107 -0.01442,-4.08198c-0.12087,-0.36095 -0.15562,-0.75731 -0.34071,-1.08993c-0.13952,-0.25074 -0.56435,-0.13214 -0.73341,-0.13346c-0.8408,-0.00656 -2.19478,-0.20185 -2.69588,0.67671c0,1.73339 0,3.46679 0,5.20018v0.39845c0,0.18295 -0.14831,0.33126 -0.33126,0.33126c-0.16273,0 -0.29806,-0.11734 -0.32598,-0.27203l-0.12933,-0.6435c-0.36661,-0.92648 -0.18114,-2.07019 -0.16114,-3.03427c0.0139,-0.66968 -0.0253,-1.51918 0.28519,-2.14223c0,-0.28189 0,-0.56379 0,-0.84568c0,0 0,-0.33126 0.33126,-0.33126c0.33126,0 0.33126,0.33126 0.33126,0.33126c0,0.03053 0,0.06106 0,0.0916c0.7543,-0.50061 1.81125,-0.45357 2.71591,-0.42271c0.53337,0.01819 0.8679,-0.11317 1.24278,0.39735c0.05723,0.07793 0.42986,1.27931 0.46783,1.39931c-0.04519,1.20966 0.10717,2.55856 -0.13951,3.73928l0.18265,-0.05308c0,0 0.32748,0.04995 0.27753,0.37742z" fill="#000000"/><path d="M290.45595,100.40156c0,-0.18295 0.14831,-0.33126 0.33126,-0.33126c0.18295,0 0.33126,0.14831 0.33126,0.33126c0,0.18295 -0.14831,0.33126 -0.33126,0.33126c-0.18295,0 -0.33126,-0.14831 -0.33126,-0.33126z" fill="#000000"/><path d="M293.19262,107.50536c0.11614,0.31024 -0.1941,0.42637 -0.1941,0.42637l-0.25743,0.09637c-0.06789,0.02542 -1.27855,0.48111 -1.31035,0.48225c-0.33256,0.01201 -0.77414,0.07168 -0.98016,-0.18967c-0.18446,-0.23401 0.07204,-0.59235 0.13396,-0.88381c0.13982,-0.65814 0.3891,-1.3023 0.65764,-1.91558c0.08858,-0.2023 0.15296,-0.41707 0.26603,-0.60677c0.07152,-0.11998 0.34961,-0.18927 0.28094,-0.31091c-0.06866,-0.12164 -0.27167,0.08066 -0.41135,0.07989c-0.22084,-0.00121 -0.43797,-0.05716 -0.65695,-0.08574c-1.09492,-0.1429 -2.18985,-0.2858 -3.28477,-0.4287c0,0 -0.32848,-0.04287 -0.28561,-0.37135c0.04287,-0.32848 0.37135,-0.28561 0.37135,-0.28561c1.29828,0.16944 2.66263,0.23794 3.94173,0.51444c0.30525,0.06599 0.74903,-0.02059 0.90256,0.25137c0.15352,0.27196 -0.1499,0.60719 -0.25112,0.90263c-0.2125,0.62023 -0.51877,1.17663 -0.70664,1.80996c-0.06281,0.21172 -0.10114,0.43235 -0.18873,0.63508c-0.05151,0.11922 -0.28289,0.20362 -0.22352,0.31913c0.05378,0.10462 0.22985,-0.05224 0.34116,-0.09027c0.18654,-0.06373 0.36689,-0.14431 0.55108,-0.21456c0.20634,-0.0787 0.41365,-0.15485 0.62048,-0.23227l0.25743,-0.09637c0,0 0.31024,-0.11614 0.42637,0.1941z" fill="#000000"/><path d="M294.76417,108.29544c0.04238,-0.32854 0.37092,-0.28616 0.37092,-0.28616l0.33512,0.04323c0.13981,0.04857 0.27164,0.15391 0.41942,0.14572c0.05882,-0.00326 -0.06613,-0.10675 -0.06198,-0.16552c0.02998,-0.42457 0.21895,-0.82987 0.23412,-1.25522c0.03796,-1.06455 -0.30271,-2.1787 -0.363,-3.2442c-0.01668,-0.29487 -0.16005,-0.62896 -0.01442,-0.8859c0.11422,-0.20152 0.43057,-0.17259 0.65231,-0.23958c0.83952,-0.25363 1.72542,-0.40751 2.57915,-0.60914c0,0 0.32239,-0.07614 0.39854,0.24625c0.07614,0.32239 -0.24625,0.39854 -0.24625,0.39854c-0.64479,0.15229 -1.28957,0.30457 -1.93436,0.45686c-0.21493,0.05076 -0.42614,0.12124 -0.64479,0.15229c-0.0872,0.01238 -0.23611,-0.10717 -0.26318,-0.02336c-0.04617,0.14296 0.10379,0.28343 0.1315,0.43109c0.04073,0.21705 0.04864,0.439 0.07296,0.6585c0.1248,1.12637 0.37141,2.26218 0.16873,3.38193c-0.01392,0.07689 -0.18041,1.16216 -0.31877,1.23264c-0.26585,0.13542 -0.59649,-0.01588 -0.89474,-0.02381l-0.33512,-0.04323c0,0 -0.32854,-0.04238 -0.28616,-0.37092z" fill="#000000"/><path d="M314.31744,82.31103c0.11177,0.11545 0.21017,0.24417 0.29189,0.38946c1.23386,2.19349 0.08899,5.15438 0.04801,7.44887c-0.05161,2.88962 -0.10465,5.78206 0,8.67025c0.02755,0.76038 0.21898,1.78426 0.39389,2.88945c-0.49841,0.87333 -0.86898,1.82906 -1.08622,2.84169c-0.11215,0.52273 -0.18343,1.06063 -0.21036,1.61019c-0.08252,0.79869 -0.14025,1.61489 -0.1823,2.37251c-0.20278,0.09951 -0.42679,0.18224 -0.67389,0.2463c0.04079,3.39154 0.08794,6.77915 0.08794,10.15363c0,5.75914 -0.06936,11.52277 -0.00024,17.28138c0.02867,2.38869 0.54513,6.97223 -1.10155,8.95585c-0.94307,1.13604 -2.76048,1.08392 -4.20342,1.39681c-3.21363,0.69685 -7.26548,0.21468 -10.47514,0.02238c-9.67782,-0.57982 -19.25361,-2.24692 -28.94085,-2.52034c-2.18799,-0.06176 -4.37984,0.09682 -6.56659,0.00063c-1.39029,-0.06115 -3.03862,0.50146 -4.16271,-0.31895c-1.27954,-0.93386 -1.40612,-2.83903 -2.10918,-4.25854c-0.11981,-10.32939 -0.04313,-20.66271 -0.04313,-30.99277c0,-8.40897 0.2822,-16.98891 -1.82905,-25.18852c-0.70436,-0.25789 -1.53749,-0.86796 -1.53749,-2.31116c0,-2.5 2.5,-2.5 2.5,-2.5l0.08525,0.02519c9.02811,-1.28124 18.58308,-1.64611 27.64733,-0.65226c7.37912,-0.0085 14.71258,-0.83914 22.0441,-0.84499c1.18093,-0.00094 7.65327,-0.03993 8.0146,0.23774c1.13927,0.8755 1.44699,2.67447 1.43316,4.60765c0.21426,0.12372 0.40986,0.26597 0.57595,0.43753zM300.98487,115.91667c-3.43999,-0.40826 -6.99636,-0.17504 -10.46008,-0.17504c-3.49348,0 -6.99489,-0.07968 -10.48353,0.10948c-3.36339,0.17816 -7.11713,-0.34313 -10.48944,-0.58678c-2.06686,-0.14933 -6.19638,0.39335 -8.0125,-0.39362c-0.01755,-0.00761 -0.03454,-0.01516 -0.05097,-0.02267c-0.3675,0.02912 -0.73315,0.0464 -1.09324,0.05105c0.02391,7.88971 0.06711,15.7818 -0.05465,23.66875c-0.08428,1.568 2.75881,0.50246 4.45487,0.50261c4.76417,0.00044 9.43628,0.206 14.16421,0.74852c7.53578,0.86472 15.11156,1.75084 22.69871,1.9863c1.76442,0.05476 3.5274,-0.16838 5.2926,-0.18423c0.4257,-0.00382 1.04618,0.5118 1.26848,0.14872c0.95562,-1.56077 -0.2077,-3.65542 -0.23268,-5.48534c-0.07893,-5.7813 -0.00024,-11.56907 -0.00024,-17.35105c0,-0.92118 -0.00002,-1.84237 -0.00004,-2.76355c-2.3353,0.01273 -4.74783,0.0143 -7.00148,-0.25316zM300.18149,95.80466c-3.42629,0.40172 -6.92133,0.87952 -10.328,1.42852c-1.47228,0.00254 -2.94457,0.00259 -4.41685,0.0023c-0.02148,0.34891 0.01841,0.69676 -0.0093,1.07072c-0.00117,0.01584 -0.19151,1.30406 -0.19603,1.33473c-0.25756,1.74582 -0.45828,3.49312 -0.65275,5.247c-0.11411,1.02919 -0.28703,2.05692 -0.25208,3.09269c0.01303,0.40179 -0.09702,0.82038 0.01693,1.2059c0.03609,0.12211 0.12539,0.26468 0.2505,0.28842c0.16452,0.03122 0.31744,-0.10765 0.47947,-0.1499c0.2137,-0.05572 0.43116,-0.09584 0.64674,-0.14377l0.50009,-0.11117c0,0 0.32337,-0.07188 0.39525,0.25149l0.00001,0.00001c0.07188,0.32337 -0.25149,0.39525 -0.25149,0.39525l-0.50009,0.11117c-0.16366,0.03638 -1.36568,0.31517 -1.46075,0.28139c-0.94694,-0.3364 -0.71485,-1.3673 -0.73884,-2.10732c-0.03333,-1.06891 0.13802,-2.12518 0.25577,-3.18717c0.19534,-1.76178 0.39708,-3.51699 0.65581,-5.27069c0.0633,-0.42904 0.15871,-0.85449 0.19075,-1.28699c0.0266,-0.35901 0.00694,-0.69039 0.02097,-1.02191c-1.80195,-0.00042 -3.60389,-0.0009 -5.40584,0.00249c-3.48666,0.00656 -7.01079,-0.26298 -10.47636,-0.15377c-2.89116,0.08885 -5.77654,-0.64392 -8.6443,-0.68915c0.16238,4.02796 0.12249,8.07539 0.12249,12.10492c0,1.96618 0.00429,3.93263 0.01003,5.89924c0.20575,-0.0027 0.41324,-0.00963 0.62175,-0.02063c-0.02671,-0.14677 -0.00612,-0.32513 -0.01524,-0.56934c0,0 0,-0.25 0.25,-0.25c0.25,0 0.25,0.25 0.25,0.25c-0.01512,0.2658 0.06224,0.42581 0.19604,0.51941c1.13384,-0.10613 2.27554,-0.32615 3.31482,-0.63563l0.49627,0.0832c0,0 0.24329,0.05754 0.18575,0.30083c-0.05754,0.24329 -0.30083,0.18575 -0.30083,0.18575l-0.2385,-0.09057c-0.30118,0.08969 -0.61093,0.17208 -0.92662,0.24662c1.79921,0.05576 3.54939,0.21605 5.36079,0.34693c2.7123,0.19597 5.67935,0.58062 8.483,0.62135c-0.08712,-0.17449 -0.11961,-0.41128 -0.20093,-0.58564c-0.1867,-0.40029 -0.32341,-0.82204 -0.48511,-1.23306c-0.40426,-1.02755 -0.80852,-2.0551 -1.21277,-3.08265l-0.11287,-0.28688c0,0 -0.12128,-0.30826 0.18699,-0.42954l0.00003,0.00001c0.30826,-0.12128 0.42954,0.18699 0.42954,0.18699c0.40426,1.02755 0.92138,2.34198 1.32564,3.36953c0.1617,0.41102 0.36007,0.80944 0.48511,1.23306c0.04151,0.14062 -0.03846,0.33348 0.06771,0.4346c0.06598,0.06285 0.17686,-0.07881 0.2239,-0.15685c0.0718,-0.1191 0.06931,-0.26956 0.11279,-0.40166c0.20056,-0.60937 0.50878,-1.21363 0.66341,-1.83578c0.14789,-0.59505 0.16433,-1.26761 0.24407,-1.87557c0.14761,-1.12538 0.2947,-2.25083 0.4426,-3.37617c-0.15631,0.17154 -0.33138,0.33031 -0.487,0.50079c-0.50344,0.55153 -0.64017,0.9613 -1.54734,0.47862c-0.09207,-0.04899 -0.47713,-1.16955 -0.48411,-1.19589c-0.23682,-0.89314 -0.24501,-1.79625 -0.25399,-2.71135c-0.0051,-0.51981 -0.07404,-1.03822 0.22865,-1.51633c0.09041,-0.14281 0.28946,-0.17504 0.43934,-0.25316c0.21834,-0.11381 0.42501,-0.26573 0.66465,-0.32228c0.53042,-0.12517 1.24483,-0.00886 1.7964,-0.00886c0,0 0.33126,0 0.33126,0.33126c0,0.33126 -0.33126,0.33126 -0.33126,0.33126c-0.5025,0 -1.16133,-0.12281 -1.64423,-0.00886c-0.19028,0.0449 -0.34353,0.18726 -0.52062,0.2701c-0.07018,0.03283 -0.18136,0.00878 -0.2196,0.07616c-0.13925,0.24541 -0.0853,0.86582 -0.08211,1.09283c0.01211,0.8609 0.00894,1.70852 0.2319,2.54941c0.03718,0.14021 0.16833,1.11636 0.58431,0.86248c0.14555,-0.08883 0.19873,-0.2774 0.30636,-0.40965c0.1394,-0.17129 0.28831,-0.33462 0.43423,-0.50038c0.2205,-0.25048 0.35438,-0.57589 0.44371,-0.89741c0.08709,-0.2196 0.17231,-0.4403 0.26715,-0.65665v-0.51622c0,-0.18295 0.14831,-0.33126 0.33126,-0.33126c0.15356,0 0.28272,0.10449 0.32025,0.24625l0.09217,0.3185l-0.0527,0.01525l0.06537,0.0928c-0.03071,0.08671 -0.06201,0.17322 -0.09383,0.25953v0.06146c0.16144,0.57892 -0.09898,1.43882 -0.17514,2.01941c-0.1436,1.09483 -0.2872,2.18967 -0.43081,3.2845c-0.08287,0.63181 -0.10383,1.32727 -0.25714,1.94568c-0.00592,0.02389 -0.44366,1.23714 -0.45938,1.28077c-0.1241,0.34448 -0.24661,0.98058 -0.55422,1.34749c0.27896,-0.00615 0.55567,-0.01655 0.8297,-0.03178c3.49769,-0.18965 7.00807,-0.11021 10.5106,-0.11021c3.48374,0 7.05905,-0.23211 10.51901,0.17852c2.23532,0.26529 4.62645,0.26301 6.94254,0.24992c-0.00011,-3.5898 -0.00036,-7.17959 -0.00044,-10.76939c-0.79176,-2.79244 -0.98046,-6.54992 -0.97262,-9.65451c-1.61405,0.21064 -3.30866,0.27692 -4.92626,0.38882c-1.09169,3.52136 -2.09266,7.08045 -2.95445,10.66526c0.08922,-0.12497 0.18228,-0.25123 0.27255,-0.385c0.61764,-0.91532 1.23528,-1.83063 1.85292,-2.74595c0.24706,-0.36613 0.48685,-0.73726 0.74117,-1.09838c0.10095,-0.14334 0.16127,-0.33542 0.31356,-0.42227c0.14977,-0.08542 1.5332,-0.36634 1.65451,-0.29141c0.14211,0.08778 0.41636,1.26251 0.47273,1.48479c0.01327,0.05234 0.33022,1.29855 0.33356,1.32659c0.07725,0.64766 -0.01229,1.37732 -0.01944,2.03032c-0.00857,0.78189 0.00225,1.5634 -0.02243,2.345l0.21476,0.25537c0,0 0.19984,0.26419 -0.06435,0.46404l-0.00002,0c-0.26419,0.19984 -0.46404,-0.06435 -0.46404,-0.06435l-0.31447,-0.44426c-0.01946,-0.85449 -0.02131,-1.70839 -0.01196,-2.56305c0.00683,-0.62417 0.09793,-1.3253 0.02406,-1.9446c-0.07587,-0.63615 -0.37641,-1.2515 -0.48076,-1.88439c-0.02397,-0.1454 0.10951,-0.36436 -0.01586,-0.4418c-0.12537,-0.07744 -0.26084,0.14184 -0.40217,0.18358c-0.17261,0.05098 -0.37129,0.01128 -0.532,0.0923c-0.08341,0.04205 -0.08624,0.16601 -0.13652,0.24473c-0.11888,0.18612 -0.24706,0.36613 -0.37058,0.54919c-0.74117,1.09838 -1.48234,2.19676 -2.2235,3.29513c-0.0165,0.02445 -0.75469,1.11937 -0.76114,1.12499c-0.00838,0.0073 -0.01683,0.0145 -0.02534,0.02161l0.00281,0.00286l-0.47259,0.46401c-0.05978,0.05878 -0.14178,0.09505 -0.23224,0.09505c-0.18295,0 -0.33126,-0.14831 -0.33126,-0.33126c0,-0.0291 0.00375,-0.05732 0.0108,-0.08421c0.05139,-0.21478 0.25523,-1.06677 0.30662,-1.28155c0.85307,-3.56546 1.84383,-7.10583 2.92515,-10.60926c-0.40593,0.03302 -0.80534,0.07084 -1.19561,0.1166zM268.88965,96.58432c3.47056,-0.10938 6.99969,0.16008 10.49117,0.15352c1.82121,-0.00342 3.64246,-0.00589 5.46371,-0.00652c0.01791,-0.08901 0.04093,-0.17899 0.0705,-0.27045c0,0 0.10479,-0.31425 0.41904,-0.20946c0.31425,0.10479 0.20946,0.41904 0.20946,0.41904c-0.00703,0.02029 -0.01365,0.04053 -0.01986,0.06072c1.42985,-0.00013 2.85971,0.00095 4.28953,0.00364c3.39535,-0.55853 6.89272,-1.02608 10.31006,-1.42675c0.45925,-0.05385 0.93171,-0.09641 1.41289,-0.13299c0.01693,-0.05437 0.03389,-0.10873 0.05087,-0.16308c0,0 0.09876,-0.3162 0.41496,-0.21744c0.21231,0.06631 0.23754,0.23065 0.2312,0.33148c1.57635,-0.10349 3.22103,-0.17114 4.78306,-0.3811c0.02254,-2.43354 0.15767,-4.38865 0.19451,-5.02604c0.0773,-1.33714 0.00029,-6.54081 0.88551,-7.04665l0.43914,-0.25094c0.02114,-0.16071 0.0483,-0.32054 0.08363,-0.47916c0.06931,-0.31119 0.90234,-0.78505 0.58477,-0.75686c-0.5772,0.05123 -0.95085,0.74201 -1.52197,0.84004c-0.21899,0.03759 -6.32554,-0.0268 -6.63028,-0.00543c-6.39385,0.44841 -12.63643,0.8526 -19.07474,0.84576c-7.63071,-0.83625 -15.64448,-0.7042 -23.34901,0.1798c0.98183,4.22798 1.4193,8.52646 1.61206,12.84916c2.86983,0.04225 5.75724,0.78326 8.64978,0.68971z" fill="#000000"/><path d="M260.19188,95.90864c-0.19276,-4.32271 -0.63093,-8.64659 -1.61276,-12.87457c7.70453,-0.884 15.75157,-1.05224 23.38229,-0.21599c6.43831,0.00684 12.74264,-0.36859 19.13648,-0.817c0.30474,-0.02137 6.41295,0.0478 6.63195,0.01021c0.57111,-0.09803 0.94456,-0.7895 1.52176,-0.84073c0.31757,-0.02818 -0.51516,0.4467 -0.58446,0.75789c-0.03533,0.15862 -0.06226,0.31928 -0.0834,0.47999l-0.43907,0.25119c-0.88522,0.50584 -0.80662,5.72374 -0.88392,7.06088c-0.03685,0.63739 -0.17345,2.60304 -0.19599,5.03658c-1.56203,0.20996 -3.20783,0.28143 -4.78418,0.38492c0.00634,-0.10083 -0.0187,-0.26577 -0.231,-0.33208c-0.3162,-0.09876 -0.41524,0.21829 -0.41524,0.21829c-0.01698,0.05435 -0.03408,0.10914 -0.05102,0.16351c-0.48117,0.03658 -0.95424,0.08075 -1.41349,0.1346c-3.41735,0.40067 -6.93116,0.88987 -10.32651,1.4484c-1.42983,-0.00269 -2.87987,0.00532 -4.30972,0.00545c0.00622,-0.02019 -0.00719,-0.13841 -0.00016,-0.1587c0,0 0.12421,-0.21616 -0.19004,-0.32095c-0.31425,-0.10479 -0.42198,0.20993 -0.42198,0.20993c-0.02957,0.09146 -0.05325,0.18152 -0.07117,0.27053c-1.82125,0.00063 -3.67354,-0.00348 -5.49475,-0.00005c-3.49148,0.00657 -7.03989,-0.28342 -10.51045,-0.17405c-2.89254,0.09356 -5.78333,-0.656 -8.65316,-0.69825z" data-paper-data="{&quot;noHover&quot;:false,&quot;origItem&quot;:[&quot;Path&quot;,{&quot;applyMatrix&quot;:true,&quot;segments&quot;:[[[268.88965,96.58432],[-2.89254,0.09356],[3.47056,-0.10938]],[[279.38082,96.73784],[-3.49148,0.00657],[1.82121,-0.00342]],[[284.84453,96.73132],[-1.82125,0.00063],[0.01791,-0.08901]],[[284.91503,96.46087],[-0.02957,0.09146],[0,0]],[[285.33407,96.25141],[-0.31425,-0.10479],[0.31425,0.10479]],[[285.54353,96.67045],[0,0],[-0.00703,0.02029]],[[285.52367,96.73117],[0.00622,-0.02019],[1.42985,-0.00013]],[[289.8132,96.73481],[-1.42983,-0.00269],[3.39535,-0.55853]],[[300.12327,95.30806],[-3.41735,0.40067],[0.45925,-0.05385]],[[301.53616,95.17507],[-0.48117,0.03658],[0.01693,-0.05437]],[[301.58702,95.01199],[-0.01698,0.05435],[0,0]],[[302.00198,94.79455],[-0.3162,-0.09876],[0.21231,0.06631]],[[302.23319,95.12603],[0.00634,-0.10083],[1.57635,-0.10349]],[[307.01625,94.74493],[-1.56203,0.20996],[0.02254,-2.43354]],[[307.21076,89.71888],[-0.03685,0.63739],[0.0773,-1.33714]],[[308.09627,82.67223],[-0.88522,0.50584],[0,0]],[[308.53541,82.4213],[0,0],[0.02114,-0.16071]],[[308.61904,81.94214],[-0.03533,0.15862],[0.06931,-0.31119]],[[309.2038,81.18527],[0.31757,-0.02818],[-0.5772,0.05123]],[[307.68184,82.02531],[0.57111,-0.09803],[-0.21899,0.03759]],[[301.05155,82.01989],[0.30474,-0.02137],[-6.39385,0.44841]],[[281.97681,82.86565],[6.43831,0.00684],[-7.63071,-0.83625]],[[258.6278,83.04545],[7.70453,-0.884],[0.98183,4.22798]],[[260.23987,95.89461],[-0.19276,-4.32271],[2.86983,0.04225]]],&quot;closed&quot;:true}]}" fill="#00ff39"/><path d="M308.03074,116.14681c0.00003,0.92118 0.00206,1.84677 0.00206,2.76795c0,5.78199 -0.0777,11.60432 0.00123,17.38562c0.02498,1.82992 1.18447,3.93319 0.22884,5.49396c-0.2223,0.36307 -0.84325,-0.15172 -1.26895,-0.1479c-1.7652,0.01585 -3.53186,0.24439 -5.29628,0.18963c-7.58715,-0.23546 -15.22401,-1.10731 -22.75979,-1.97203c-4.72792,-0.54252 -9.42228,-0.76925 -14.18645,-0.76969c-1.69606,-0.00016 -4.54127,1.06096 -4.457,-0.50704c0.12176,-7.88695 0.08099,-15.82292 0.05708,-23.71263c0.36009,-0.00465 0.72628,-0.02287 1.09378,-0.05199c0.01643,0.00751 0.03342,0.01506 0.05097,0.02266c1.81612,0.78697 5.95117,0.23665 8.01803,0.38598c3.37232,0.24366 7.14694,0.75081 10.51034,0.57265c3.48864,-0.18916 7.02834,-0.10742 10.52181,-0.10742c3.46372,0 7.0384,-0.21825 10.47838,0.19002c2.25366,0.26747 4.67065,0.27297 7.00594,0.26024z" data-paper-data="{&quot;noHover&quot;:false,&quot;origItem&quot;:[&quot;Path&quot;,{&quot;applyMatrix&quot;:true,&quot;segments&quot;:[[[300.98487,115.91667],[2.25366,0.26747],[-3.43999,-0.40826]],[[290.52479,115.74163],[3.46372,0],[-3.49348,0]],[[280.04126,115.85111],[3.48864,-0.18916],[-3.36339,0.17816]],[[269.55182,115.26433],[3.37232,0.24366],[-2.06686,-0.14933]],[[261.53931,114.87071],[1.81612,0.78697],[-0.01755,-0.00761]],[[261.48834,114.84804],[0.01643,0.00751],[-0.3675,0.02912]],[[260.39511,114.89909],[0.36009,-0.00465],[0.02391,7.88971]],[[260.34046,138.56784],[0.12176,-7.88695],[-0.08428,1.568]],[[264.79533,139.07045],[-1.69606,-0.00016],[4.76417,0.00044]],[[278.95953,139.81898],[-4.72792,-0.54252],[7.53578,0.86472]],[[301.65824,141.80528],[-7.58715,-0.23546],[1.76442,0.05476]],[[306.95084,141.62105],[-1.7652,0.01585],[0.4257,-0.00382]],[[308.21932,141.76978],[-0.2223,0.36307],[0.95562,-1.56077]],[[307.98664,136.28444],[0.02498,1.82992],[-0.07893,-5.7813]],[[307.9864,118.93338],[0,5.78199],[0,-0.92118]],[[307.98635,116.16983],[0.00003,0.92118],[-2.3353,0.01273]]],&quot;closed&quot;:true}]}" fill="#ff7d00"/><path d="" fill="#000000"/><path d="" fill="#000000"/><path d="M306.84904,113.88001l0.03924,0.30313c-0.90505,-0.43153 -1.74985,-0.31347 -2.73227,-0.39165c-2.5733,0.35334 -4.65009,0.31208 -6.68692,-1.54477c-0.89948,-0.82 -1.1904,-1.84466 -2.25956,-2.47332c-2.16633,-0.53051 -6.43069,1.30004 -7.43431,3.30629c0,0 -0.11185,0.22358 -0.33543,0.11174c-0.22358,-0.11185 -0.11174,-0.33543 -0.11174,-0.33543c1.12647,-2.25184 5.66149,-4.16087 8.06965,-3.54583c1.16511,0.66967 1.45396,1.69711 2.40824,2.56706c1.95326,1.78066 3.88058,1.73776 6.33589,1.41447c0.90592,0.06752 1.70091,-0.00077 2.52538,0.26648c0.07799,-0.00553 0.14371,0.02732 0.14371,0.02732l0.00308,0.02378c0.09584,0.03571 0.19218,0.07628 0.28925,0.12244z" fill="#00ff39"/><path d="M275.89989,114.45335c-0.01325,0.24965 -0.26289,0.2364 -0.26289,0.2364l-0.10931,-0.0058c-0.68484,-0.0365 -1.36248,-0.12497 -2.04315,-0.20757c-1.3914,-0.62485 -2.77043,-2.1045 -4.31886,-2.31186c-1.24711,-0.16701 -2.64955,0.21205 -3.9178,0.21205c0,0 -0.25,0 -0.25,-0.25c0,-0.25 0.25,-0.25 0.25,-0.25c1.29387,0 2.71011,-0.37824 3.98416,-0.20762c1.59685,0.21385 2.97284,1.66992 4.38654,2.32574c0.64546,0.0703 1.28707,0.15571 1.93559,0.18996l0.10931,0.0058c0,0 0.24965,0.01325 0.2364,0.26289z" fill="#00ff39"/><path d="M279.16163,100.00814c-0.07982,0.23691 -0.31674,0.15709 -0.31674,0.15709l-0.38917,-0.13112c-0.92694,-0.3123 -1.84195,-0.59196 -2.79506,-0.81421c-2.70862,-0.63166 -5.9759,-1.77565 -8.72941,-1.77565c0,0 -0.25,0 -0.25,-0.25c0,-0.25 0.25,-0.25 0.25,-0.25c2.7918,0 6.09793,1.14857 8.84297,1.78872c0.96854,0.22588 1.89921,0.50995 2.84115,0.82731l0.38917,0.13112c0,0 0.23691,0.07982 0.15709,0.31674z" fill="#00ff39"/><path d="M297.73436,97.91017c0.13863,0.20804 -0.06941,0.34667 -0.06941,0.34667l-0.09485,0.0632c-1.42721,0.95103 -2.8607,1.62173 -4.45476,2.26105c0,0 -0.23203,0.09306 -0.32509,-0.13897c-0.09306,-0.23203 0.13897,-0.32509 0.13897,-0.32509c1.56405,-0.62728 2.96417,-1.28053 4.36362,-2.21307l0.09485,-0.0632c0,0 0.20804,-0.13863 0.34667,0.06941z" fill="#00ff39"/></g></g></svg>