<svg version="1.1" xmlns="http://www.w3.org/2000/svg" xmlns:xlink="http://www.w3.org/1999/xlink" width="94.86059" height="94.51792" viewBox="0,0,94.86059,94.51792"><g transform="translate(-300.20316,-40.62479)"><g data-paper-data="{&quot;isPaintingLayer&quot;:true}" fill-rule="nonzero" stroke="none" stroke-width="0.5" stroke-linecap="butt" stroke-linejoin="miter" stroke-miterlimit="10" stroke-dasharray="" stroke-dashoffset="0" style="mix-blend-mode: normal"><path d="" fill="#9966ff"/><path d="" fill="#00ff39"/><path d="" fill="#00ff39"/><path d="M365.31014,40.79578c0.74709,-0.32549 1.52967,0.10806 1.52967,0.10806l1.66735,1.02203c1.94413,2.10206 3.91186,4.05687 5.96177,6.05565c4.82089,4.3328 9.63526,8.52284 14.82164,12.41718c1.88375,1.41447 5.98572,4.32495 5.76459,7.32272c-0.09025,1.22338 -1.22991,2.12853 -1.95605,3.11723c-1.85932,2.53162 -2.27216,2.69056 -4.48131,4.53925c-7.82576,6.54888 -15.29882,13.47228 -22.65774,20.53618c-8.25641,10.20817 -16.89436,20.10211 -25.26396,30.23357c-1.43823,1.74099 -2.92025,3.44695 -4.30887,5.22776c-1.88224,2.41386 -1.90977,3.94611 -5.61753,3.75052c-1.66154,-0.08765 -3.66321,-2.09479 -4.79554,-3.06757c-2.23501,-1.92007 -3.89778,-4.15019 -6.08747,-6.0637c-5.98631,-5.274 -11.36006,-11.89913 -15.77059,-18.55861c-1.13719,-1.71705 -1.6594,-3.76992 -2.4971,-5.65133c-0.31833,-0.71495 -1.11147,-1.19686 -1.2968,-1.95721c-0.22714,-0.93187 -0.09663,-1.94039 0.11896,-2.875c0.59995,-2.60088 2.98445,-3.88784 4.83776,-5.48378c5.37609,-4.6295 10.36152,-9.65942 15.89619,-14.12301c7.83708,-6.70793 15.49083,-13.57161 23.50144,-20.12014c6.30741,-5.15619 13.12554,-10.02031 18.66467,-16.01315c0,0 0.89803,-0.97104 1.96891,-0.41667z" fill="#00ff39"/><path d="" fill="#000000"/><path d="M325.22512,103.37419c0.47112,0.95612 -0.485,1.42724 -0.485,1.42724l-0.30186,0.1246c-1.26471,0.32701 -2.53429,0.46449 -3.82031,0.61746c3.74599,5.68253 7.03874,11.57008 10.50957,17.42534c0.20024,0.33797 0.40047,0.67593 0.60071,1.0139l0.04536,0.0849c0,0 0.47112,0.95612 -0.485,1.42724c-0.83389,0.41089 -1.29886,-0.26387 -1.40411,-0.4431l0.00971,0.01759c-0.20024,-0.33797 -0.40047,-0.67593 -0.60071,-1.0139c-3.36023,-5.67433 -6.5554,-11.37696 -10.16232,-16.89238c-0.55341,3.47284 -1.29655,6.86183 -3.62641,9.56434c0.08477,0.26297 0.21701,0.95078 -0.55356,1.31132c-0.96544,0.45172 -1.41715,-0.51372 -1.41715,-0.51372l-0.04402,-1.75358c2.73526,-2.66043 3.18597,-6.60973 3.73291,-10.22046c0,0 0.06245,-0.41223 0.36704,-0.68199c-0.24228,-0.34355 -0.49078,-0.68566 -0.74375,-1.02686c-0.01994,0.01706 -0.03987,0.03414 -0.0598,0.05122c-1.73716,1.48932 -3.40858,2.81278 -4.44713,4.87812c0,0 -0.48242,0.95046 -1.43289,0.46804c-0.95046,-0.48242 -0.46804,-1.43289 -0.46804,-1.43289c1.17068,-2.28821 3.01959,-4.09178 5.02256,-5.78308c-1.9998,-2.57882 -4.08029,-5.16194 -5.48525,-7.98839c0,0 -0.47112,-0.95612 0.485,-1.42724c0.95612,-0.47112 1.42724,0.485 1.42724,0.485c0.77021,1.57946 1.91886,2.90295 2.96677,4.30907c0.78962,1.05953 1.57268,2.12281 2.34436,3.1941c1.86604,-1.51012 3.73595,-3.01513 5.21337,-4.79663l0.13691,-0.1821c0,0 0.64449,-0.84897 1.49346,-0.20448c0.84897,0.64449 0.20448,1.49346 0.20448,1.49346l-0.19598,0.25641c-1.65641,1.98566 -3.58521,3.6304 -5.54315,5.27596c0.26123,0.37325 0.52077,0.74774 0.77844,1.12364c1.55317,-0.21 3.09977,-0.29748 4.61203,-0.69865l-0.10072,0.0255c0,0 0.95612,-0.47112 1.42724,0.485z" fill="#000000"/><path d="M330.02819,115.1443c-0.8577,-0.63282 -0.22488,-1.49052 -0.22488,-1.49052l-0.0331,0.2692c0.36542,-2.78414 0.8462,-5.44231 0.77081,-8.25606c-0.77091,0.77576 -1.56816,1.53166 -2.38251,2.29211c0,0 -0.77904,0.72747 -1.50651,-0.05157c-0.72747,-0.77904 0.05157,-1.50651 0.05157,-1.50651c1.24188,-1.15968 2.44284,-2.30387 3.56599,-3.53298c-0.37262,-2.25176 -1.09191,-4.48876 -1.96237,-6.633c-0.26695,0.08177 -0.60909,0.06847 -0.96861,-0.25262c-0.79498,-0.71002 -0.08496,-1.50499 -0.08496,-1.50499c0.06634,-0.07427 0.1328,-0.14851 0.19936,-0.22272c-0.30763,-0.6761 -0.62479,-1.33981 -0.94475,-1.98845c-0.31151,-0.6315 -0.60043,-1.23436 -0.8982,-1.8171c-0.97843,0.86793 -1.96481,1.72735 -2.96372,2.57308c0,0 -0.81357,0.68863 -1.5022,-0.12494c-0.68863,-0.81357 0.12494,-1.5022 0.12494,-1.5022c1.10151,-0.93211 2.18598,-1.88268 3.26132,-2.84289c-0.31262,-0.47999 -0.65903,-0.95189 -1.06029,-1.4214c0,0 -0.68904,-0.81323 0.12419,-1.50227c0.81323,-0.68904 1.50227,0.12419 1.50227,0.12419c0.38067,0.45269 0.7188,0.90593 1.02834,1.36449c2.01023,-1.82089 4.00199,-3.6604 6.02789,-5.4597l0.55503,-0.8552c0,0 0.58791,-0.88909 1.477,-0.30118c0.88909,0.58791 0.30118,1.477 0.30118,1.477l-0.71988,1.07281c-2.18223,1.9683 -4.33944,3.9671 -6.52389,5.93745c0.39948,0.74462 0.77494,1.51714 1.17806,2.33522c0.19675,0.39928 0.39207,0.80364 0.58466,1.21257c1.80485,-2.00106 3.5871,-4.04122 5.00625,-6.32435l-0.0461,0.05123c0,0 0.34792,-1.00751 1.35542,-0.65959c1.00751,0.34792 0.65959,1.35542 0.65959,1.35542l-0.15987,0.38069c-1.65962,2.65519 -3.76667,4.99607 -5.86295,7.31953c0.83902,1.9763 1.57057,4.03379 2.06276,6.12131c0.09649,-0.12677 0.19213,-0.25476 0.28687,-0.38406c0.28658,-0.39112 2.10063,-3.24519 2.36015,-3.58184c1.66838,-2.1642 3.55747,-4.12652 5.19938,-6.32882l0.38004,-0.66754c0,0 0.53568,-0.9215 1.45718,-0.38581c0.9215,0.53568 0.38581,1.45718 0.38581,1.45718l-0.51396,0.87035c-1.64833,2.21093 -3.54571,4.18416 -5.22011,6.35618c-0.86241,1.1187 -1.49405,2.40083 -2.32889,3.54025c-0.48184,0.65762 -0.98556,1.28386 -1.50759,1.88813c0.06049,0.49633 0.10444,0.99308 0.13011,1.48958c0.16232,3.13916 -0.361,6.08115 -0.76513,9.16623l-0.36518,0.71929c0,0 -0.63282,0.8577 -1.49052,0.22488z" fill="#000000"/><path d="M346.75057,99.39645c0.14349,1.05618 -0.9127,1.19967 -0.9127,1.19967l-1.49527,0.20211c-1.98796,0.45089 -4.22042,0.47543 -6.04144,1.39829c0,0 -0.95612,0.47112 -1.42724,-0.485c-0.47112,-0.95612 0.485,-1.42724 0.485,-1.42724c2.05238,-0.98967 4.39131,-1.08477 6.60473,-1.58388l1.58725,-0.21666c0,0 1.05618,-0.14349 1.19967,0.9127z" fill="#000000"/><path d="M343.915,117.09486c-0.9909,0.39272 -1.38362,-0.59818 -1.38362,-0.59818l-0.39343,-1.0029c-0.4733,-0.77674 -0.96784,-1.5496 -1.45735,-2.32644c-0.20519,0.13421 -0.41506,0.26677 -0.63177,0.39624c-0.04914,0.02936 -3.80052,1.87657 -3.90029,1.92573c0,0 -0.95612,0.47112 -1.42724,-0.485c-0.47112,-0.95612 0.485,-1.42724 0.485,-1.42724c1.24903,-0.61545 2.55374,-1.12833 3.74865,-1.84322c0.20833,-0.12464 0.4113,-0.25193 0.61052,-0.38073c-0.25325,-0.42811 -0.49899,-0.85919 -0.73302,-1.29451c-0.44933,-0.8358 -0.84248,-1.66456 -1.24255,-2.47794c-1.02602,0.74693 -2.07225,1.44943 -2.98569,2.35662c0,0 -0.75822,0.74914 -1.50736,-0.00908c-0.74914,-0.75822 0.00908,-1.50736 0.00908,-1.50736c1.07138,-1.05378 2.30236,-1.85198 3.48615,-2.74463c-0.44149,-0.76736 -0.93769,-1.51364 -1.54785,-2.23102c0,0 -0.68904,-0.81323 0.12419,-1.50227c0.81323,-0.68904 1.50227,0.12419 1.50227,0.12419c0.61056,0.72311 1.11754,1.47036 1.57137,2.2366c0.76602,-0.70007 1.49823,-1.4386 2.26275,-2.14061l0.31982,-0.28287c0,0 0.79873,-0.70579 1.50452,0.09294c0.70579,0.79873 -0.09294,1.50452 -0.09294,1.50452l-0.28959,0.25564c-0.89658,0.82325 -1.7512,1.694 -2.66308,2.49959c0.46483,0.92153 0.91406,1.86295 1.42655,2.81624c0.20061,0.37316 0.40989,0.74325 0.62511,1.11108c0.79341,-0.52883 1.60638,-1.02389 2.55321,-1.40409l1.38687,-0.6843c0,0 0.95612,-0.47112 1.42724,0.485c0.47112,0.95612 -0.485,1.42724 -0.485,1.42724l-1.46325,0.72007c-0.86375,0.34025 -1.60124,0.78451 -2.31643,1.26332c0.54011,0.86077 1.08853,1.71627 1.60899,2.57724l0.46635,1.16648c0,0 0.39272,0.9909 -0.59818,1.38362z" fill="#000000"/><path d="M368.15052,55.9138c1.07134,0.46609 0.60525,1.53742 0.60525,1.53742l-0.56626,1.25191c-3.02697,4.44777 -7.17296,8.06616 -10.56783,12.2574c-1.13461,1.40077 -2.20066,2.91475 -3.26972,4.44411c0.31324,0.04073 0.66446,0.02561 0.9536,0.10631c1.42709,0.39828 2.75424,0.77863 4.06339,1.53404c5.01812,2.89558 9.29687,8.36555 11.1294,13.79798c0.29346,0.8138 0.89187,1.57639 0.88038,2.44141c-0.03834,2.88454 -1.49424,2.33269 -3.52593,2.095c-2.57637,-0.30142 -3.96168,-2.06326 -5.55044,-3.90896l-0.85118,-0.99402c0,0 -0.75991,-0.88743 0.12753,-1.64734c0.88743,-0.75991 1.64734,0.12753 1.64734,0.12753l0.85118,0.99402c0.89851,1.05541 1.70472,2.22906 2.97743,2.89585c0.66373,0.34773 1.44489,0.40088 2.15385,0.64343c0.06935,0.02372 -0.13339,-0.07879 -0.16564,-0.1446c-0.27287,-0.5568 -0.49423,-1.13741 -0.74134,-1.70612c-1.6354,-4.93925 -5.5671,-9.93005 -10.10416,-12.57244c-1.13839,-0.663 -3.60342,-1.02805 -5.18801,-1.75006c-2.11296,2.97301 -4.3506,5.84961 -7.24294,7.90519c0,0 -0.95499,0.67305 -1.62804,-0.28194c-0.67305,-0.95499 0.28194,-1.62804 0.28194,-1.62804c2.88724,-2.01537 5.10513,-4.98586 7.20921,-8.01309c-0.15985,-1.44071 -0.33554,-3.72437 -0.33954,-4.04676c-0.03718,-2.99371 0.00836,-5.90841 0.25292,-8.90058c0.10278,-1.25748 0.04896,-2.53124 0.29313,-3.72414c-1.7453,1.97356 -3.15795,4.04579 -4.52231,6.3619c-1.56582,2.65809 -2.74879,5.2413 -4.95492,7.43461c0,0 -0.83167,0.82056 -1.65223,-0.01112c-0.82056,-0.83167 0.01112,-1.65223 0.01112,-1.65223c2.06092,-2.01565 3.13001,-4.49114 4.58273,-6.95725c1.66141,-2.82037 3.40859,-5.31148 5.66684,-7.68434l1.08564,-1.19276c0.11906,-0.13651 0.27172,-0.24727 0.45189,-0.31823c0.60036,-0.23646 1.27874,0.05854 1.51521,0.6589c0.04776,0.12125 0.07383,0.24567 0.0801,0.369l0.1531,2.06674l-0.00956,0.00071c0.00449,0.02997 0.00874,0.05998 0.01274,0.09005c0.0029,0.02178 -0.37806,4.66876 -0.38458,4.74853c-0.18225,2.22974 -0.16814,4.12187 -0.12598,6.34035c0.02098,1.10387 0.02385,2.20801 0.03516,3.31203c0.66142,-0.93613 1.33055,-1.84705 2.02496,-2.70436c3.34555,-4.13036 7.49169,-7.69704 10.44823,-12.09604l0.35893,-0.87471c0,0 0.46609,-1.07134 1.53742,-0.60525z" fill="#000000"/></g></g></svg>