<svg version="1.1" xmlns="http://www.w3.org/2000/svg" xmlns:xlink="http://www.w3.org/1999/xlink" width="191.23298" height="68.96785" viewBox="0,0,191.23298,68.96785"><g transform="translate(-167.96167,-149.62715)"><g data-paper-data="{&quot;isPaintingLayer&quot;:true}" fill="#9966ff" fill-rule="nonzero" stroke="none" stroke-width="0.25" stroke-linecap="butt" stroke-linejoin="miter" stroke-miterlimit="10" stroke-dasharray="" stroke-dashoffset="0" style="mix-blend-mode: normal"><path d="M245.33143,216.55014c-0.01364,0.00274 -0.02722,0.00538 -0.04074,0.00794c-0.13704,0.72271 -0.63543,2.03692 -2.44803,2.03692c-2.5,0 -2.5,-2.5 -2.5,-2.5c0.00727,-0.93974 0.07927,-1.83852 0.20576,-2.70376c-3.34057,0.33117 -6.78611,-0.35179 -10.13658,-0.62295c-14.99534,-1.2136 -29.38567,-5.78434 -43.81934,-9.77415c-3.18198,-0.67654 -6.33106,-1.53 -9.54456,-2.03608c-1.91842,-0.30213 -4.13506,0.37099 -5.79043,-0.64457c-1.67346,-1.02665 -3.5895,-2.97151 -3.25813,-4.90664c0.38102,-2.22509 3.22371,-3.16293 4.89904,-4.67603c3.95998,-3.57654 8.35058,-5.57582 12.94736,-8.19168c18.49358,-10.52403 37.00509,-21.22154 56.48944,-29.83377c4.43256,-1.93778 8.54426,-3.45045 13.49444,-2.99736c1.59857,0.14632 3.72891,-0.49829 4.75977,0.73223c1.16792,1.39413 0.63363,9.04531 0.48371,10.8121c-0.7232,8.52312 -2.77903,16.60043 -4.7889,24.88465c-0.08321,0.34297 -0.16523,0.68198 -0.24657,1.0174c4.76164,-1.05595 9.5319,-2.07313 14.29904,-3.10419c6.57268,-0.92409 13.26409,-1.56697 19.78969,-2.77488c9.13322,-1.69059 18.16336,-4.24049 27.23148,-6.26096c13.09616,-2.91796 25.83733,-6.33275 39.33677,-6.33937c0,0 2.5,0 2.5,2.5c0,2.5 -2.5,2.5 -2.5,2.5c-13.11744,-0.00675 -25.52262,3.3841 -38.24939,6.2197c-9.12729,2.03361 -18.21579,4.59546 -27.4088,6.29711c-6.53705,1.21003 -13.23781,1.85967 -19.8226,2.78086c-5.52312,1.19852 -11.044,2.40631 -16.57436,3.57048c-0.81706,2.79769 -1.81349,5.47234 -3.37208,8.30794c-1.80985,3.29274 -3.83691,6.31779 -4.98934,9.68494l1.01267,3.07116c0,0 0.49183,2.45114 -1.95932,2.94297z"/></g></g></svg>